<?xml version="1.0" encoding="utf-8"?>
<!-- Generator: Adobe Illustrator 22.1.0, SVG Export Plug-In . SVG Version: 6.00 Build 0)  -->
<svg version="1.1" id="Layer_1" xmlns="http://www.w3.org/2000/svg" xmlns:xlink="http://www.w3.org/1999/xlink" x="0px" y="0px"
	 viewBox="0 0 17 11" style="enable-background:new 0 0 17 11;" xml:space="preserve">
<style type="text/css">
	.st0{fill:#4AC8FF;}
</style>
<g>
	<path class="st0" d="M8.4,0.6c-3.2,0-6.1,1.8-8.3,4.6C0,5.4,0,5.8,0.1,6c2.2,2.9,5.1,4.6,8.3,4.6s6.1-1.8,8.3-4.6
		c0.2-0.2,0.2-0.6,0-0.8C14.6,2.3,11.6,0.6,8.4,0.6z M8.7,9.1C6.5,9.3,4.8,7.5,4.9,5.4C5,3.6,6.4,2.2,8.2,2.1
		c2.1-0.1,3.9,1.6,3.8,3.8C11.8,7.6,10.4,9,8.7,9.1z M9.1,6C8.5,6,8,5.5,8,4.9c0-0.5,0.4-0.9,0.9-0.9c0.6,0,1.1,0.5,1,1
		C10,5.6,9.6,6,9.1,6z"/>
</g>
</svg>
