<?xml version="1.0" encoding="utf-8"?>
<!-- Generator: Adobe Illustrator 22.1.0, SVG Export Plug-In . SVG Version: 6.00 Build 0)  -->
<svg version="1.1" id="Layer_1" xmlns="http://www.w3.org/2000/svg" xmlns:xlink="http://www.w3.org/1999/xlink" x="0px" y="0px"
	 viewBox="0 0 13.2 10.5" style="enable-background:new 0 0 13.2 10.5;" xml:space="preserve">
<style type="text/css">
	.st0{opacity:0;}
	.st1{fill:#212D3A;}
</style>
<rect y="0" class="st0" width="13.2" height="10.5"/>
<g>
	<path class="st1" d="M6.6,1.6C4.1,1.6,1.8,3,0.1,5.2C0,5.3,0,5.7,0.1,5.8c1.7,2.3,4,3.6,6.5,3.6s4.8-1.4,6.5-3.6
		c0.2-0.2,0.2-0.5,0-0.6C11.4,2.9,9.1,1.6,6.6,1.6z M6.8,8.2C5.1,8.4,3.7,7,3.8,5.3C3.9,3.9,5,2.8,6.4,2.7c1.6-0.1,3.1,1.3,3,3
		C9.2,7.1,8.1,8.2,6.8,8.2z"/>
</g>
<circle class="st1" cx="7" cy="5" r="0.8"/>
</svg>
