<?xml version="1.0" encoding="UTF-8" standalone="no"?>
<!-- Generator: Adobe Illustrator 22.1.0, SVG Export Plug-In . SVG Version: 6.00 Build 0)  -->

<svg
   xmlns:dc="http://purl.org/dc/elements/1.1/"
   xmlns:cc="http://creativecommons.org/ns#"
   xmlns:rdf="http://www.w3.org/1999/02/22-rdf-syntax-ns#"
   xmlns:svg="http://www.w3.org/2000/svg"
   xmlns="http://www.w3.org/2000/svg"
   xmlns:sodipodi="http://sodipodi.sourceforge.net/DTD/sodipodi-0.dtd"
   xmlns:inkscape="http://www.inkscape.org/namespaces/inkscape"
   version="1.1"
   id="Layer_1"
   x="0px"
   y="0px"
   viewBox="0 0 13.2 10.5"
   style="enable-background:new 0 0 13.2 10.5;"
   xml:space="preserve"
   sodipodi:docname="ack-off.svg"
   inkscape:version="0.92.3 (d244b95, 2018-08-02)"><metadata
   id="metadata17"><rdf:RDF><cc:Work
       rdf:about=""><dc:format>image/svg+xml</dc:format><dc:type
         rdf:resource="http://purl.org/dc/dcmitype/StillImage" /></cc:Work></rdf:RDF></metadata><defs
   id="defs15" /><sodipodi:namedview
   pagecolor="#ffffff"
   bordercolor="#666666"
   borderopacity="1"
   objecttolerance="10"
   gridtolerance="10"
   guidetolerance="10"
   inkscape:pageopacity="0"
   inkscape:pageshadow="2"
   inkscape:window-width="640"
   inkscape:window-height="480"
   id="namedview13"
   showgrid="false"
   inkscape:zoom="21.818182"
   inkscape:cx="6.5999999"
   inkscape:cy="5.25"
   inkscape:window-x="65"
   inkscape:window-y="24"
   inkscape:window-maximized="0"
   inkscape:current-layer="Layer_1" />
<style
   type="text/css"
   id="style2">
	.st0{opacity:0;}
	.st1{fill:#212D3A;}
</style>
<rect
   y="0"
   class="st0"
   width="13.2"
   height="10.5"
   id="rect4" />
<g
   id="g8"
   transform="translate(-0.04583333,-0.18333333)">
	<path
   class="st1"
   d="M 6.6,1.6 C 4.1,1.6 1.8,3 0.1,5.2 0,5.3 0,5.7 0.1,5.8 1.8,8.1 4.1,9.4 6.6,9.4 9.1,9.4 11.4,8 13.1,5.8 13.3,5.6 13.3,5.3 13.1,5.2 11.4,2.9 9.1,1.6 6.6,1.6 Z M 6.8,8.2 C 5.1,8.4 3.7,7 3.8,5.3 3.9,3.9 5,2.8 6.4,2.7 8,2.6 9.5,4 9.4,5.7 9.2,7.1 8.1,8.2 6.8,8.2 Z"
   id="path6"
   inkscape:connector-curvature="0"
   style="fill:#212d3a" />
</g>
<circle
   class="st1"
   cx="6.9541669"
   cy="4.8166666"
   r="0.80000001"
   id="circle10"
   style="fill:#212d3a" />
</svg>