<svg id="Layer_1" data-name="Layer 1" xmlns="http://www.w3.org/2000/svg" xmlns:xlink="http://www.w3.org/1999/xlink" viewBox="0 0 65.3 62.6"><defs><style>.cls-1{fill-opacity:0;fill:url(#linear-gradient);}.cls-2,.cls-4,.cls-5,.cls-6,.cls-7{fill:none;stroke-width:2px;}.cls-2,.cls-7{stroke-linecap:round;stroke-linejoin:round;}.cls-2{stroke:url(#linear-gradient-2);}.cls-3{fill:url(#linear-gradient-3);}.cls-4,.cls-5,.cls-6{stroke-miterlimit:10;}.cls-4{stroke:url(#linear-gradient-4);}.cls-5{stroke:url(#linear-gradient-5);}.cls-6{stroke:url(#linear-gradient-6);}.cls-7{stroke:url(#linear-gradient-7);}</style><linearGradient id="linear-gradient" y1="32.7" x2="65.3" y2="32.7" gradientTransform="matrix(1, 0, 0, -1, 0, 64)" gradientUnits="userSpaceOnUse"><stop offset="0" stop-color="#f0512e"/><stop offset="0.28" stop-color="#f05230"/><stop offset="0.51" stop-color="#f15736"/><stop offset="0.73" stop-color="#f15f42"/><stop offset="0.94" stop-color="#f26a52"/><stop offset="1" stop-color="#f26d57"/></linearGradient><linearGradient id="linear-gradient-2" x1="14" y1="55.85" x2="39" y2="55.85" gradientUnits="userSpaceOnUse"><stop offset="0" stop-color="#efbf3a"/><stop offset="0.35" stop-color="#f0c13d"/><stop offset="0.64" stop-color="#f4c748"/><stop offset="0.92" stop-color="#fad259"/><stop offset="1" stop-color="#fcd660"/></linearGradient><linearGradient id="linear-gradient-3" x1="37.5" y1="17.94" x2="42.32" y2="17.94" xlink:href="#linear-gradient-2"/><linearGradient id="linear-gradient-4" x1="33.29" y1="17.69" x2="47.03" y2="17.69" xlink:href="#linear-gradient-2"/><linearGradient id="linear-gradient-5" x1="30.29" y1="17.05" x2="51.3" y2="17.05" xlink:href="#linear-gradient-2"/><linearGradient id="linear-gradient-6" x1="35.72" y1="19.8" x2="40.18" y2="19.8" xlink:href="#linear-gradient-2"/><linearGradient id="linear-gradient-7" x1="15" y1="31.25" x2="51.2" y2="31.25" xlink:href="#linear-gradient-2"/></defs><title>antenna-invalid-s_low</title><g id="Layer_2" data-name="Layer 2"><rect class="cls-1" width="65.3" height="62.6"/></g><polyline class="cls-2" points="15 55.85 18.7 55.85 38 55.85"/><path class="cls-3" d="M39.5,18.35l-2-2a2.83,2.83,0,0,1,4,4Z"/><path class="cls-4" d="M34,13.85a7.07,7.07,0,0,1,10,10"/><path class="cls-5" d="M31,10.85a11.31,11.31,0,0,1,16,16"/><line class="cls-6" x1="39.5" y1="18.35" x2="36.4" y2="21.25"/><path class="cls-7" d="M33.8,55.85,31.09,40.18l.31.07a17.55,17.55,0,0,0,4.6.5,20.06,20.06,0,0,0,14.2-5.9L36,20.85,21.9,6.65A19.89,19.89,0,0,0,16,20.85a19.46,19.46,0,0,0,5.87,14.07V35L19.4,55.85"/></svg>