<svg xmlns="http://www.w3.org/2000/svg" viewBox="0 0 1074.75 952.93"><defs><style>.cls-1{opacity:0.3;}.cls-2,.cls-3{fill:none;stroke:#fff;}.cls-2,.cls-3,.cls-4{stroke-miterlimit:10;}.cls-2{stroke-width:2px;}.cls-4{fill:#99d8f8;stroke:#00adec;}</style></defs><title>aos-map-weather_s</title><g id="map"><g class="cls-1"><path class="cls-2" d="M846.38,517.08s8.13,9.45,24,0,17.46,3.92,24.44,10.76,23.86,19.09,27.35,48.9,5.53,62,3.64,74.78-9.17,20.48-10,29.73S911.37,712,903,719.66s-29.52,29-50.62,27.42-27.64-1-37.82-10.18-46.7-46.18-51.07-68c0,0-3.68-12.57-1.31-42.23s3.34-46.87,8.45-55.48,15.33-22.78,17.63-36.45,16.64-36.38,18.62-39.76,12.85-25.09,14.94-29.4,4.3-11.63,26.54-13.14,26.33-1.81,29.88-1.81c1.83,0-12.47,50.48-15.66,53.27" transform="translate(-247.75 -108.66)"/><path class="cls-2" d="M903,719.66s38.46,11.07,38.59,28.69c.12,16.13-5.06,23.3-13.5,29.9" transform="translate(-247.75 -108.66)"/><path class="cls-2" d="M887.5,518.06s-7.92,5.46-9.74,5.76" transform="translate(-247.75 -108.66)"/><path class="cls-2" d="M831.85,525.47S846,531.09,845,536.53s-8.48,2.3-19,0-20.5-6.08-39,3" transform="translate(-247.75 -108.66)"/><path class="cls-2" d="M835.91,538.89s15,5.46,9.81,33.35" transform="translate(-247.75 -108.66)"/><path class="cls-2" d="M797.14,512s5.07-1,5.75-.4" transform="translate(-247.75 -108.66)"/><path class="cls-2" d="M817.9,473.41s-12.38-7.08-13.72-7.08" transform="translate(-247.75 -108.66)"/><path class="cls-2" d="M767.15,580.51s-34.31-7.19-57.72-5.84-51.06-15.46-47.92-43.11,34.72-30.48,43-34.88,38.17-25,48.54-34.43,14.61-19.45,45.56-25.74c0,0,35.13-60,54-54.49,10.07,3-1.65,34.49-28.31,62.39" transform="translate(-247.75 -108.66)"/><path class="cls-2" d="M754.27,549s-18-64.15-7.13-77.86,11.62-14.46,11.62-14.46" transform="translate(-247.75 -108.66)"/><path class="cls-2" d="M705.83,437.8s61.4,8.94,63.65,9.51" transform="translate(-247.75 -108.66)"/><path class="cls-2" d="M773.93,494.12s10.7-38.27,28.19-63.26" transform="translate(-247.75 -108.66)"/><path class="cls-2" d="M818.65,380.91s24.34-8.46,32.64-7.79,33.73,9,49.84,10.63,49.5,10.63,49.33,19.44-4,22-5.31,27.67-1.16,30.47,28.4,49.65,38.87,27.21,38.87,27.21,40.74,40.65,47.86,50.45,12.61,33.06,23.74,32.39,21.1-9.63,25.75,12.13,5.07,42.33,1.37,91.68,5.92,53.54,16.28,66.38c0,0,14.22-11.6,10.32,10.11s-8.07,31.22.67,28.69,16.4-8,15.66,13.26-5.22,42.19-13,53.3-14.27,19-3.36,19.49,13.62-2,13.37,0-3.31,7.9-13.37,17.27-12.79,12.59-20.68,17-17.77,9.62-18,13.57-.49,6.66-2.34,9.38a22,22,0,0,0-3.36,10.77" transform="translate(-247.75 -108.66)"/><path class="cls-2" d="M1127.42,760.75s5.71,2.3.89,17.27-15,33.39-21.19,38.22-8.44,3.79-14.3,9.64-17.77,14.85-17.77,14.85" transform="translate(-247.75 -108.66)"/><path class="cls-2" d="M1050.21,796.19s37-54.18,38.94-90.92,31.22-70.31,32.85-83-.81-19.61,0-32.57,6.79-36.38,6.79-71.65c0-32.28,10.76-9.6,16.29-4.63,5.16,4.63,10.05,5.46,12.77-2.27s9.77-4.63,14.12,19.75" transform="translate(-247.75 -108.66)"/><path class="cls-2" d="M1122.41,607.76s.41,10,4.75,4.44,6.16-30.92,6.16-30.92" transform="translate(-247.75 -108.66)"/><line class="cls-2" x1="654.16" y1="304.49" x2="653.38" y2="275.09"/><path class="cls-2" d="M888.86,477.44s38.61-40.12,55.95-44.11" transform="translate(-247.75 -108.66)"/><path class="cls-2" d="M954.66,508.56s15.6-30.24,17.25-29.14" transform="translate(-247.75 -108.66)"/><path class="cls-2" d="M997.07,438.37s32,27,26.53,50.51c-2,8.73-10.47,14.8-13.83,16.7" transform="translate(-247.75 -108.66)"/><path class="cls-2" d="M1100,414.72s10.24,28.24,13.68,34.18c5.47,9.47,22.09,31.78,26.51,42.51s2,18.66,2,18.66" transform="translate(-247.75 -108.66)"/><path class="cls-2" d="M1065.46,513.43s25.5,33.52,24,76.28" transform="translate(-247.75 -108.66)"/><path class="cls-2" d="M1103.54,618.92s2.24,35.64,1.68,36.7" transform="translate(-247.75 -108.66)"/><path class="cls-2" d="M1080.73,721.38s8.16-12.68,8.42-16.11" transform="translate(-247.75 -108.66)"/><path class="cls-2" d="M1112.48,674.68s29.69,22.61,44.88,10.43c14.61-11.72,16.65-13,19.92,1.21" transform="translate(-247.75 -108.66)"/><path class="cls-2" d="M1131.05,685.24s3.56,6.36,1.1,20.81" transform="translate(-247.75 -108.66)"/><path class="cls-2" d="M1111.09,812s-9.94,11.62-11.13,14-6.52,9.07,2.69,4.4,10.1,4.24,11.58,5.73,11.6-3.27,12.79,0-3,15.23-11.3,24.27-35.36,22.12-38.35,28.67-4.77,19.92-25.89,23.79-49.36-.28-71.37,6-50,13.38-62.45,15.16-41.14,10.57-44,11.3c-12.4,3.17-45.25,9.49-45.25,9.49" transform="translate(-247.75 -108.66)"/><path class="cls-2" d="M989.5,916.84s3.14-5.58-24.83,0" transform="translate(-247.75 -108.66)"/><path class="cls-2" d="M1137.74,830.45s-7.74,2.76-10.72,5.73" transform="translate(-247.75 -108.66)"/><path class="cls-2" d="M1060.28,558.17s6,6.74-23.38,37.4" transform="translate(-247.75 -108.66)"/><path class="cls-2" d="M1014.44,559s32.11,47.51,40.37,77.42" transform="translate(-247.75 -108.66)"/><path class="cls-2" d="M992.24,493s-37.16,37.21-37.58,50.3-7.86,22.13,33.78,67.87,77.29,70.09,48.46,109.36" transform="translate(-247.75 -108.66)"/><path class="cls-2" d="M967.27,706.67s64.22-49,63.22-50.2" transform="translate(-247.75 -108.66)"/><path class="cls-2" d="M958.4,615.94s24.53-11,24.38-11.15" transform="translate(-247.75 -108.66)"/><path class="cls-2" d="M948.44,592.21s14,38.33,20,45.24" transform="translate(-247.75 -108.66)"/><path class="cls-2" d="M847.19,382s7.62-4.76,2.61-15.36,13.09-13,23.87-16,49.66-12.44,50.43-17.17c0,0,16.24.62,18.3-4s-14.67-32.43-9.52-36,17-6.45,7.72-15.07-27-28.69-30.37-37.7-21.74-17.76-30.57-19.05S868.09,210.54,856.21,209s-62.59-.51-63.1,0,.77,2.32,0,2.32-21.88-2.32-55.34,11.84S590.54,284.92,570,298.57,548.33,312.72,545.49,312s-13.64-.1-44.78,22.6-27.8,19.81-29.09,19.45,1.29-3.82-8,1.74" transform="translate(-247.75 -108.66)"/><path class="cls-2" d="M464.91,357.91s10-3.12,13.65-12.55" transform="translate(-247.75 -108.66)"/><path class="cls-2" d="M765.64,225.92s16.58-8.23,25.84-10.27,1.63-4.34,1.63-4.34" transform="translate(-247.75 -108.66)"/><path class="cls-2" d="M884.14,222.65s26.4.63,38.67-5.67,10.28-5.64,27.87-1.66,39.14,9.26,46.77,10.6,116.43,28.87,132.35,37.5,28.86,12.62,34.34,14.93,29,21,30.35,18.48,1.77,1.75,9.34,2.74,15.84,1,36.24,19.91c7.09,6.58,20.76,43.83,20.76,43.83" transform="translate(-247.75 -108.66)"/><path class="cls-2" d="M1202.43,307s-5.29-4.9-7.94-10.12" transform="translate(-247.75 -108.66)"/><path class="cls-2" d="M1254.87,339s-1.24,4.79-2,5.53" transform="translate(-247.75 -108.66)"/><path class="cls-2" d="M1239.33,327.55s.25-6.36,6.72-5.36,3.13-4.83,1-7.5-3.85-8.21-3.59-10.26" transform="translate(-247.75 -108.66)"/><path class="cls-2" d="M1242.69,297.83a100,100,0,0,1-1.5-12.95,27.64,27.64,0,0,0-5-14" transform="translate(-247.75 -108.66)"/><path class="cls-2" d="M1252.08,290.8s-6.77-7.42-11.08-7.75" transform="translate(-247.75 -108.66)"/><path class="cls-2" d="M1233.19,264.89s-28.83-28.1-30.26-33.59" transform="translate(-247.75 -108.66)"/><path class="cls-2" d="M1200.47,225.66s-3.33-5.75-2-10.41-9.21-32-11.54-37.32-7.25-37.13-2.65-41.47c5.65-5.33,13.48-23.71,43.8-4.52" transform="translate(-247.75 -108.66)"/><path class="cls-2" d="M1180.59,115.8s11.32,9.51,14.72,10" transform="translate(-247.75 -108.66)"/><path class="cls-2" d="M1198.54,164.56s-14.84-4.6-15.3-7.11" transform="translate(-247.75 -108.66)"/><path class="cls-2" d="M1165.71,181.74s4.18,3.86,12.68,7,17.78,14.72,18,15.34" transform="translate(-247.75 -108.66)"/><path class="cls-2" d="M1172.11,315.48s.33,4.46-21.77-16.06-58.38-48.73-61.6-49.65" transform="translate(-247.75 -108.66)"/><path class="cls-2" d="M1108.89,345.63s-3.74-13.25-42.08-30.15-72.06-35.71-81.31-38.16c-7.16-1.89-47.51-18.51-59-13.76" transform="translate(-247.75 -108.66)"/><path class="cls-2" d="M968.36,276s-4.12-4.84,2-3.83" transform="translate(-247.75 -108.66)"/><path class="cls-2" d="M985.5,333.47s6.67-9.64-48.07-20.13" transform="translate(-247.75 -108.66)"/><path class="cls-2" d="M884.66,358.94s-2.32-8.51-11-8.3" transform="translate(-247.75 -108.66)"/><path class="cls-2" d="M1082.18,462s10.06-9.81-34.84-44.2-65.48-44.9-78.64-51.11-54-27.78-58.08-26.48" transform="translate(-247.75 -108.66)"/><path class="cls-2" d="M1055.92,436.87s-8-15-8.58-19.09" transform="translate(-247.75 -108.66)"/><path class="cls-2" d="M992.21,385.52s-2.08-5.59-2.69-7.85" transform="translate(-247.75 -108.66)"/><path class="cls-2" d="M556,420.58s58.39-83.21,93.21-100.06S726.8,277.16,727.92,276,779,257,800,257.37s43.92-7.76,50.68-8.89,43.41-4.79,62.25-2.58" transform="translate(-247.75 -108.66)"/><path class="cls-2" d="M641.56,315.48s48.72-28,75.61-32.65" transform="translate(-247.75 -108.66)"/><path class="cls-2" d="M697.46,327.83s51.25-26.65,72-32.73S809.79,273,800,257.37" transform="translate(-247.75 -108.66)"/><path class="cls-2" d="M826.68,272.63s16.73-9.59,3.29-9.92-27,1.1-27.36,1" transform="translate(-247.75 -108.66)"/><path class="cls-2" d="M683.7,529.81s36.23-41.77,38.57-44.57" transform="translate(-247.75 -108.66)"/><path class="cls-2" d="M620.4,531.22S649.93,501.94,697,499.4" transform="translate(-247.75 -108.66)"/><path class="cls-2" d="M657.23,168.87s1.86-2.34,17.3-1.36,73.55,1.2,89.9,3.36S884,179.35,856.21,209" transform="translate(-247.75 -108.66)"/><path class="cls-2" d="M697.46,175.52s10.44-5.82,22-3.36a29.76,29.76,0,0,0,20.23-2.82" transform="translate(-247.75 -108.66)"/><path class="cls-2" d="M635,174.23s15.53-1.45,16.13-3.36" transform="translate(-247.75 -108.66)"/><path class="cls-2" d="M539.28,764.46s3.24-.12,3.56-25.2,0-28,5.72-29.38,4.76-7.74,5.39-13.94,15.56-4.61,20-4.62" transform="translate(-247.75 -108.66)"/><path class="cls-2" d="M566.47,701.29s10.34.42,9.07-16.68c-1.24-16.79,1.18-33.09,26.49-69.22a6.9,6.9,0,0,0,1.18-3.55c.25-4,4.48-19,34.25-73.71,0,0,21.9-15.79,27.94-18.77" transform="translate(-247.75 -108.66)"/><path class="cls-2" d="M591.14,649.32s6.58-19.64,10.89-33.93" transform="translate(-247.75 -108.66)"/><path class="cls-2" d="M637.46,538.13s4.44,40.14,7.62,51.58,11.11,73.73,10.16,85.13-4.77,52,4.12,62.83,32.39,32.74,34.61,34.79,6.67,8.07,16.19,10.93,14.93,9.84,21,12.7,33.86,15.56,57.09,23.5,41.33,21.27,60.7,25.71,24.75,8.79,24.75,8.79" transform="translate(-247.75 -108.66)"/><path class="cls-2" d="M756.09,751.57s-27.85,33.86-36.25,36.65" transform="translate(-247.75 -108.66)"/><path class="cls-2" d="M676.39,722.85s2.14,27.19,14,46.25" transform="translate(-247.75 -108.66)"/><path class="cls-2" d="M623.61,634.54s.8-25.29,19.71-53.15" transform="translate(-247.75 -108.66)"/><path class="cls-2" d="M655.05,665.57" transform="translate(-247.75 -108.66)"/><path class="cls-2" d="M700.25,613.33s5.15,46.86,4.83,51.63c0,0,28-2.6,30-3.36" transform="translate(-247.75 -108.66)"/><path class="cls-2" d="M655.05,665.57s50.07-1.68,50-3.36" transform="translate(-247.75 -108.66)"/><path class="cls-2" d="M669.23,770.81s18.39,10.18,25.06,13.92,14,9.23,10.79-3.36" transform="translate(-247.75 -108.66)"/><path class="cls-2" d="M654.68,723.84s1.19,40.86-1,48.62c0,0,2.26.53,2.26,6s-4.73,30.12-1.13,37,29.82,28.5,17.35,35.09-12.59,3.46-15,7.36-5.7,7.55-14.47,6.83" transform="translate(-247.75 -108.66)"/><path class="cls-2" d="M667.51,823.66s-9.07-1.65-12.73-8.22" transform="translate(-247.75 -108.66)"/><path class="cls-2" d="M581,844.25s-5.77-10.25,7.2-16.18,14.24-14.4,16.16-16.48,16.81-5,17.13-16.49-4.37-34.08,32.15-22.64" transform="translate(-247.75 -108.66)"/><path class="cls-2" d="M795.37,901.84s-9-14.51-3.36-18.42-5.15-23.84-7.51-26.33-5.63-9.81,32.25-10.09" transform="translate(-247.75 -108.66)"/><path class="cls-2" d="M793.15,832.91S832,856.33,843,860.45s26.46,12.51,43.77,14c12.88,1.09,17.36,6.49,6.87,19s32.26-3.36,32.26-3.36" transform="translate(-247.75 -108.66)"/><path class="cls-2" d="M768.63,863.14s21.14,2.83,22.79,8.06" transform="translate(-247.75 -108.66)"/><path class="cls-2" d="M798.73,862.14s15.41-1.57,24.32,0c7.46,1.32,20-1.69,20-1.69" transform="translate(-247.75 -108.66)"/><path class="cls-2" d="M972.71,807.92s25.19-30.25,1.28-22.18-62.41,47.63-162.35,58.07" transform="translate(-247.75 -108.66)"/><path class="cls-2" d="M850.29,827.07s10.24,7.17,10.92,8.31" transform="translate(-247.75 -108.66)"/><path class="cls-2" d="M843.93,769.83S868.59,815,892.6,825.49" transform="translate(-247.75 -108.66)"/><path class="cls-2" d="M928,333.47S882.61,318,866.06,313.8s-25.3-7.3-40.93-.46S794,321.84,780,327.83s-25.13,9.4-31.33,15-30,24-49.6,36.65-64.27,50.1-65.65,52.78.49,2.52-3.54,5.55-23.29,14.75-37.7,27.81-56.9,67.18-72.72,101.22-28.84,70.67-32.87,67.71-6.3-8.51-6.21-8.9" transform="translate(-247.75 -108.66)"/><path class="cls-2" d="M527.84,566.83s-2.75-5-9.88,3.36" transform="translate(-247.75 -108.66)"/><path class="cls-2" d="M613.76,442.55s-.38,3.61.55,4.76" transform="translate(-247.75 -108.66)"/><path class="cls-2" d="M654.58,420.58s53.44-40.19,47.89-43.32" transform="translate(-247.75 -108.66)"/><path class="cls-2" d="M596.7,478s16.92-29.26,23.13-33.42" transform="translate(-247.75 -108.66)"/><path class="cls-2" d="M587.35,511.21s17.31-49.48,36.18-63.9,7.53-12.55,9.93-15.06" transform="translate(-247.75 -108.66)"/><path class="cls-2" d="M746.77,351s1.54-8.72,6.08-11.17" transform="translate(-247.75 -108.66)"/><path class="cls-2" d="M882.79,313.34s7.16,8.68,14,9.76" transform="translate(-247.75 -108.66)"/><path class="cls-2" d="M459.81,361.76s-2.14-.19-6.77,5.87-37,39.67-57.1,46.83" transform="translate(-247.75 -108.66)"/><path class="cls-2" d="M398.08,413.61c-1.5-7.65-5.5-2.51-5.5-2.51" transform="translate(-247.75 -108.66)"/><path class="cls-2" d="M376.42,429.06s2.33-1.73,2.59-3.69,3.29-1.25,6-2.14,13.73-6.4,15.06-10.51" transform="translate(-247.75 -108.66)"/><path class="cls-2" d="M322.13,504.3s2.4-2.67,2.24-7.83,2-2.86,4.29-3.57,3.56-3.74,5.88-5.7,15.5-19.07,15.86-25.13,8.91-22.8,9.27-25.12,3.74-12.65,6.05-8.91,3.69,5.55,6.57,4.38" transform="translate(-247.75 -108.66)"/><path class="cls-2" d="M323.62,466.38s-.84,6.92,5.75-2.35,17.64-20.84,20.85-23.87,6.18-8.38,8.26,0" transform="translate(-247.75 -108.66)"/><path class="cls-2" d="M288.94,561.05s6.58-17.31,7-21.23,5.88-8.92,12.41-10.88,12.75-13.13,14.76-17.17,11.24-21.67,13.58-26.94" transform="translate(-247.75 -108.66)"/><path class="cls-2" d="M248.7,620.83s14.25-46,27.31-49c0,0,3.49-1.09,9.37-12.42s4.51-8.49,7.65-8.71" transform="translate(-247.75 -108.66)"/><path class="cls-2" d="M1151.11,885.6s2.84.76,13-4,9.55-1.59,19.42-5.73,21.65-11.14,21,0-.64,24.84,8.28,21,39.77-35.19,42.92-50.17,14.53-31.6,2.36-20.65" transform="translate(-247.75 -108.66)"/><path class="cls-2" d="M1254.78,849.93s6.16-13.3,10.3-16.62,4.34-25,21.12-29.64c9.43-2.6,30.66-23.82,31.44-30.79" transform="translate(-247.75 -108.66)"/><path class="cls-2" d="M1281.59,800.12A40.42,40.42,0,0,0,1276,810.3" transform="translate(-247.75 -108.66)"/><path class="cls-2" d="M1136.56,1055.25s19.85-17.1,23.66-23.44c0,0-4.24-1.47,1.91-6.55s13.35-13.78,7.2-16.74-4.24-5.3-2.54-10.81-1.27-8.47-6.57-6.78-8.69,1.7,1.69-9.32,22-20.56,24.37-36.45,8-15.59,0-26.27c-3.18-4.24,19.3-25.39,19.3-25.39" transform="translate(-247.75 -108.66)"/><path class="cls-2" d="M1282.49,967.43s-12.51,10.79-17.38,14.18-2.55.63-5.73,1.48-17.58,12.5-21.4,14.83-13.56,4-18,5.3-7.62,5.3-13.13,6.36-8.9-3.05-19.29,4.93-25,18.35-27.33,17.3" transform="translate(-247.75 -108.66)"/><path class="cls-2" d="M1251.42,976.83s-7.93,4.14-9,8.38-8.66,14.66-13.07,15.72" transform="translate(-247.75 -108.66)"/><path class="cls-2" d="M1103.56,1015.62s17.46-13.46,17.88-5-1.9,8.47,7.42,10.59,1,11,7.7,9.11,25-20.46,27.91-7.16" transform="translate(-247.75 -108.66)"/><circle class="cls-3" cx="452.5" cy="501.31" r="3.36"/><circle class="cls-3" cx="375.86" cy="529.24" r="3.36"/><circle class="cls-3" cx="231.2" cy="513.62" r="3.36"/><circle class="cls-3" cx="343.39" cy="544.02" r="3.36"/><circle class="cls-3" cx="280.09" cy="461.53" r="3.36"/><circle class="cls-3" cx="369.92" cy="424.51" r="3.36"/><circle class="cls-3" cx="338.04" cy="405.52" r="3.36"/><circle class="cls-3" cx="434.96" cy="424.51" r="3.36"/><circle class="cls-3" cx="347.83" cy="372.53" r="3.36"/><circle class="cls-3" cx="367.93" cy="331.14" r="3.36"/><circle class="cls-3" cx="454.72" cy="329.14" r="3.36"/><circle class="cls-3" cx="404.78" cy="314.57" r="3.36"/><circle class="cls-3" cx="306.15" cy="314.57" r="3.36"/><circle class="cls-3" cx="232.9" cy="234.07" r="3.36"/><circle class="cls-3" cx="213.84" cy="249.74" r="3.36"/><circle class="cls-3" cx="144.83" cy="305.8" r="3.36"/><circle class="cls-3" cx="76.62" cy="354.44" r="3.36"/><circle class="cls-3" cx="39.8" cy="455.45" r="3.36"/><circle class="cls-3" cx="127.9" cy="323.76" r="3.36"/><circle class="cls-3" cx="73.26" cy="398.8" r="3.36"/><circle class="cls-3" cx="507.65" cy="443.49" r="3.36"/><circle class="cls-3" cx="526.19" cy="388.81" r="3.36"/><circle class="cls-3" cx="558.5" cy="403.71" r="3.36"/><circle class="cls-3" cx="627.08" cy="416.81" r="3.36"/><circle class="cls-3" cx="553.15" cy="356.95" r="3.36"/><circle class="cls-3" cx="578.23" cy="367.03" r="3.36"/><circle class="cls-3" cx="572.41" cy="372.53" r="3.36"/><circle class="cls-3" cx="574.87" cy="382.99" r="3.36"/><circle class="cls-3" cx="578.23" cy="389.71" r="3.36"/><circle class="cls-3" cx="586.33" cy="367.75" r="3.36"/><circle class="cls-3" cx="579.93" cy="378.57" r="3.36"/><circle class="cls-3" cx="586.33" cy="382.99" r="3.36"/><circle class="cls-3" cx="587.46" cy="399.06" r="3.36"/><circle class="cls-3" cx="580.74" cy="416.81" r="3.36"/><circle class="cls-3" cx="585.58" cy="392.91" r="3.36"/><circle class="cls-3" cx="593.05" cy="385.46" r="3.36"/><circle class="cls-3" cx="578.23" cy="396.27" r="3.36"/><circle class="cls-3" cx="595.27" cy="392.17" r="3.36"/><circle class="cls-3" cx="587.46" cy="375.21" r="3.36"/><circle class="cls-3" cx="578.23" cy="360.31" r="3.36"/><circle class="cls-3" cx="586.33" cy="361.03" r="3.36"/><circle class="cls-3" cx="596.09" cy="371.85" r="3.36"/><circle class="cls-3" cx="597.2" cy="378.57" r="3.36"/><circle class="cls-3" cx="596.09" cy="363.67" r="3.36"/><circle class="cls-3" cx="614.96" cy="355.03" r="3.36"/><circle class="cls-3" cx="614.96" cy="399.06" r="3.36"/><circle class="cls-3" cx="611.6" cy="429.47" r="3.36"/><circle class="cls-3" cx="639.76" cy="371.85" r="3.36"/><circle class="cls-3" cx="574.87" cy="338.65" r="3.36"/><circle class="cls-3" cx="568.15" cy="274.17" r="3.36"/><circle class="cls-3" cx="497.6" cy="245.34" r="3.36"/><circle class="cls-3" cx="449.71" cy="222.53" r="3.36"/><circle class="cls-3" cx="390.91" cy="208.5" r="3.36"/><circle class="cls-3" cx="639.76" cy="252.06" r="3.36"/><circle class="cls-3" cx="631.92" cy="203.46" r="3.36"/><circle class="cls-3" cx="722.65" cy="169.98" r="3.36"/><circle class="cls-3" cx="576.57" cy="166.34" r="3.36"/><circle class="cls-3" cx="515.29" cy="119.37" r="3.36"/><circle class="cls-3" cx="447.21" cy="68.93" r="3.36"/><circle class="cls-3" cx="406.78" cy="62.21" r="3.36"/><circle class="cls-3" cx="384.19" cy="66.86" r="3.36"/><circle class="cls-3" cx="654.16" cy="307.85" r="3.36"/><circle class="cls-3" cx="744.47" cy="280.22" r="3.36"/><circle class="cls-3" cx="737.75" cy="228.17" r="3.36"/><circle class="cls-3" cx="861.14" cy="239.24" r="3.36"/><circle class="cls-3" cx="958.04" cy="198.29" r="3.36"/><circle class="cls-3" cx="490.73" cy="552.94" r="3.36"/><circle class="cls-3" cx="428.65" cy="610.83" r="3.36"/><circle class="cls-3" cx="315.36" cy="592.63" r="3.36"/><circle class="cls-3" cx="418.6" cy="660.44" r="3.36"/><circle class="cls-3" cx="290.02" cy="658.8" r="3.36"/><circle class="cls-3" cx="334.92" cy="738.51" r="3.36"/><circle class="cls-3" cx="421.96" cy="717.54" r="3.36"/><circle class="cls-3" cx="542.04" cy="724.25" r="3.36"/><circle class="cls-3" cx="547.62" cy="754.26" r="3.36"/><circle class="cls-3" cx="549.36" cy="796.54" r="3.36"/><circle class="cls-3" cx="577.28" cy="846.15" r="3.36"/><circle class="cls-3" cx="517.53" cy="753.48" r="3.36"/><circle class="cls-3" cx="391.6" cy="756.84" r="3.36"/><circle class="cls-3" cx="511.71" cy="642.91" r="3.36"/><circle class="cls-3" cx="679.07" cy="672.71" r="3.36"/><circle class="cls-3" cx="722.89" cy="701.9" r="3.36"/><circle class="cls-3" cx="716.8" cy="599.97" r="3.36"/><circle class="cls-3" cx="624.06" cy="611.82" r="3.36"/><circle class="cls-3" cx="619.19" cy="595.99" r="3.36"/><circle class="cls-3" cx="610.9" cy="575.95" r="3.36"/><circle class="cls-3" cx="630.01" cy="591.15" r="3.36"/><circle class="cls-3" cx="625.91" cy="575.95" r="3.36"/><circle class="cls-3" cx="611.43" cy="556.91" r="3.36"/><circle class="cls-3" cx="592.62" cy="544.02" r="3.36"/><circle class="cls-3" cx="595.98" cy="531.15" r="3.36"/><circle class="cls-3" cx="584.12" cy="518.78" r="3.36"/><circle class="cls-3" cx="593.35" cy="502.47" r="3.36"/><circle class="cls-3" cx="598.83" cy="492.66" r="3.36"/><circle class="cls-3" cx="573.32" cy="537.87" r="3.36"/><circle class="cls-3" cx="559.57" cy="533.95" r="3.36"/><circle class="cls-3" cx="548.29" cy="518.04" r="3.36"/><circle class="cls-3" cx="539.28" cy="498.38" r="3.36"/><circle class="cls-3" cx="546" cy="476.95" r="3.36"/><circle class="cls-3" cx="577.39" cy="456.32" r="3.36"/><circle class="cls-3" cx="567.28" cy="447.53" r="3.36"/><circle class="cls-3" cx="537.11" cy="526.18" r="3.36"/><circle class="cls-3" cx="553.38" cy="507.28" r="3.36"/><circle class="cls-3" cx="556.21" cy="485.25" r="3.36"/><circle class="cls-3" cx="569.16" cy="481.05" r="3.36"/><circle class="cls-3" cx="564.53" cy="469.37" r="3.36"/><circle class="cls-3" cx="562.44" cy="496.13" r="3.36"/><circle class="cls-3" cx="585.19" cy="491.66" r="3.36"/><circle class="cls-3" cx="589.99" cy="476.83" r="3.36"/><circle class="cls-3" cx="575.95" cy="500.56" r="3.36"/><circle class="cls-3" cx="627.42" cy="552.94" r="3.36"/><circle class="cls-3" cx="608.97" cy="545.13" r="3.36"/><circle class="cls-3" cx="615.31" cy="533.35" r="3.36"/><circle class="cls-3" cx="615.31" cy="518.78" r="3.36"/><circle class="cls-3" cx="606.19" cy="503.23" r="3.36"/><circle class="cls-3" cx="612.91" cy="490.53" r="3.36"/><circle class="cls-3" cx="624.06" cy="500.56" r="3.36"/><circle class="cls-3" cx="650.18" cy="516.98" r="3.36"/><circle class="cls-3" cx="646.28" cy="499.1" r="3.36"/><circle class="cls-3" cx="642.35" cy="483.55" r="3.36"/><circle class="cls-3" cx="635.63" cy="471.44" r="3.36"/><circle class="cls-3" cx="642.35" cy="461.59" r="3.36"/><circle class="cls-3" cx="637.35" cy="450.37" r="3.36"/><circle class="cls-3" cx="628.91" cy="484.41" r="3.36"/><circle class="cls-3" cx="622.03" cy="469.37" r="3.36"/><circle class="cls-3" cx="608.97" cy="476.83" r="3.36"/><circle class="cls-3" cx="618.67" cy="453.73" r="3.36"/><circle class="cls-3" cx="611.43" cy="444.94" r="3.36"/><circle class="cls-3" cx="589.99" cy="444.17" r="3.36"/><circle class="cls-3" cx="579.31" cy="439.39" r="3.36"/><circle class="cls-3" cx="660.87" cy="510.26" r="3.36"/><circle class="cls-3" cx="720.71" cy="532.15" r="3.36"/><circle class="cls-3" cx="809.18" cy="530.41" r="3.36"/><circle class="cls-3" cx="659.83" cy="499.1" r="3.36"/><circle class="cls-3" cx="700.69" cy="480.19" r="3.36"/><circle class="cls-3" cx="704.79" cy="402.5" r="3.36"/><circle class="cls-3" cx="765.38" cy="447.28" r="3.36"/><circle class="cls-3" cx="815.9" cy="401.41" r="3.36"/><circle class="cls-3" cx="834.43" cy="356.68" r="3.36"/><circle class="cls-3" cx="850.27" cy="302.71" r="3.36"/><circle class="cls-3" cx="924.36" cy="203.46" r="3.36"/><circle class="cls-3" cx="1006.42" cy="226.99" r="3.36"/><circle class="cls-3" cx="994.94" cy="192.49" r="3.36"/><circle class="cls-3" cx="986.3" cy="159.59" r="3.36"/><circle class="cls-3" cx="916.39" cy="70.11" r="3.36"/><circle class="cls-3" cx="992.32" cy="222.16" r="3.36"/><circle class="cls-3" cx="1006.36" cy="184.81" r="3.36"/><circle class="cls-3" cx="952.73" cy="120.36" r="3.36"/><circle class="cls-3" cx="954.04" cy="56.76" r="3.36"/><circle class="cls-3" cx="932.13" cy="3.86" r="3.36"/><circle class="cls-3" cx="982.94" cy="20.91" r="3.36"/><circle class="cls-3" cx="1013.08" cy="258.01" r="3.36"/><circle class="cls-3" cx="810.17" cy="330.9" r="3.36"/><circle class="cls-3" cx="747.41" cy="326.95" r="3.36"/><circle class="cls-3" cx="630.01" cy="532.05" r="3.36"/><circle class="cls-3" cx="642.92" cy="535.51" r="3.36"/><circle class="cls-3" cx="639" cy="568.09" r="3.36"/><circle class="cls-3" cx="655.2" cy="541.21" r="3.36"/><circle class="cls-3" cx="651.84" cy="582.66" r="3.36"/><circle class="cls-3" cx="789.15" cy="615.18" r="3.36"/><circle class="cls-3" cx="832.99" cy="616.08" r="3.36"/><circle class="cls-3" cx="931.13" cy="581.02" r="3.36"/><circle class="cls-3" cx="884.41" cy="600.74" r="3.36"/><circle class="cls-3" cx="855.79" cy="506.9" r="3.36"/><circle class="cls-3" cx="886.66" cy="469.26" r="3.36"/><circle class="cls-3" cx="925.25" cy="425.61" r="3.36"/><circle class="cls-3" cx="595.25" cy="657.81" r="3.36"/><circle class="cls-3" cx="599.19" cy="716.83" r="3.36"/><circle class="cls-3" cx="627.42" cy="748.43" r="3.36"/><circle class="cls-3" cx="681.51" cy="781.44" r="3.36"/><circle class="cls-3" cx="714.24" cy="810.21" r="3.36"/><circle class="cls-3" cx="825.19" cy="734.68" r="3.36"/><circle class="cls-3" cx="802.46" cy="690.89" r="3.36"/><circle class="cls-3" cx="893.35" cy="721.79" r="3.36"/><circle class="cls-3" cx="845.6" cy="848.32" r="3.36"/><circle class="cls-3" cx="1007.74" cy="720.75" r="3.36"/><circle class="cls-3" cx="1036.18" cy="689.05" r="3.36"/><circle class="cls-3" cx="1070.89" cy="660.86" r="3.36"/><circle class="cls-3" cx="895.52" cy="923.15" r="3.36"/><circle class="cls-3" cx="1007.03" cy="868.17" r="3.36"/><circle class="cls-3" cx="1037.87" cy="859.98" r="3.36"/><circle class="cls-3" cx="853.32" cy="909.21" r="3.36"/><circle class="cls-3" cx="886.55" cy="949.07" r="3.36"/><circle class="cls-3" cx="579.31" cy="611" r="3.36"/><circle class="cls-3" cx="589.26" cy="597.86" r="3.36"/><circle class="cls-3" cx="589.26" cy="579.31" r="3.36"/><circle class="cls-3" cx="573.32" cy="571.9" r="3.36"/><circle class="cls-3" cx="575.95" cy="590.22" r="3.36"/><circle class="cls-3" cx="559.08" cy="583.92" r="3.36"/><circle class="cls-3" cx="562.44" cy="566.18" r="3.36"/><circle class="cls-3" cx="573.32" cy="551.17" r="3.36"/><circle class="cls-3" cx="559.08" cy="546.22" r="3.36"/></g></g><g id="weather_standby"><polygon class="cls-4" points="700.68 122.51 691.62 133.55 709.74 133.55 700.68 122.51"/><polygon class="cls-4" points="383 279.81 373.94 290.84 392.06 290.84 383 279.81"/><polygon class="cls-4" points="171.47 424.71 162.41 435.74 180.53 435.74 171.47 424.71"/><polygon class="cls-4" points="535.58 554.43 526.52 565.47 544.64 565.47 535.58 554.43"/><polygon class="cls-4" points="522.31 782.92 513.25 793.96 531.37 793.96 522.31 782.92"/><polygon class="cls-4" points="656.46 465.99 647.39 477.02 665.52 477.02 656.46 465.99"/><polygon class="cls-4" points="596.02 327.42 586.96 338.45 605.08 338.45 596.02 327.42"/><polygon class="cls-4" points="765.54 694.48 756.48 705.51 774.61 705.51 765.54 694.48"/><polygon class="cls-4" points="880.52 880.22 871.46 891.25 889.59 891.25 880.52 880.22"/><polygon class="cls-4" points="901.83 496.06 889.19 511.44 914.46 511.44 901.83 496.06"/><polygon class="cls-4" points="1016.81 186.71 1004.18 202.09 1029.45 202.09 1016.81 186.71"/></g></svg>