<svg id="Layer_1" data-name="Layer 1" xmlns="http://www.w3.org/2000/svg" viewBox="0 0 116.37 209.51"><defs><style>.cls-1{opacity:0.3;}.cls-2{fill:#fff;stroke:#fff;stroke-miterlimit:10;}.cls-3{fill:#212d3a;}</style></defs><title>rosa_vientos</title><g class="cls-1"><path class="cls-2" d="M149.48,106.94,98.22,23.05a6.43,6.43,0,0,0-11,0L36,106.93A6.42,6.42,0,0,0,45.81,115a70.25,70.25,0,0,1,93.85,0,6.42,6.42,0,0,0,9.82-8.08Z" transform="translate(-34.55 -19.47)"/></g><path class="cls-3" d="M92,27.93a6.16,6.16,0,0,0-4.45,2.16L41.37,105.15c-.51,1.35-4,5.23-.9,7.17,1.87,1.53,4.41.09,6.21-1.56,13.58-13.19,32-17.46,45.4-17.46Z" transform="translate(-34.55 -19.47)"/><g class="cls-1"><path class="cls-2" d="M92.77,118.34a55.08,55.08,0,1,0,55.07,55.07A55.14,55.14,0,0,0,92.77,118.34Zm18.35,79.55a6.1,6.1,0,0,1-4.71,6A5.72,5.72,0,0,1,105,204a6.11,6.11,0,0,1-5.47-3.38L86.65,174.86v23a6.12,6.12,0,0,1-12.24,0V148.94A6.12,6.12,0,0,1,86,146.21L98.88,172v-23a6.12,6.12,0,0,1,12.24,0Z" transform="translate(-34.55 -19.47)"/></g></svg>