<svg id="Layer_1" data-name="Layer 1" xmlns="http://www.w3.org/2000/svg" viewBox="0 0 13.2 10.5"><defs><style>.cls-1{fill-opacity:0;}.cls-2,.cls-3{fill:#22384e;}.cls-2{stroke:#22384e;stroke-miterlimit:10;}</style></defs><title>go_to</title><rect class="cls-1" width="13.2" height="10.5"/><path class="cls-2" d="M11.51,5.81h-.42a.17.17,0,0,0-.14.06.2.2,0,0,0-.06.15V8.09a1,1,0,0,1-.3.74,1,1,0,0,1-.73.3H2.47a1,1,0,0,1-1-1V2.72A1,1,0,0,1,1.73,2a1,1,0,0,1,.73-.31H6a.2.2,0,0,0,.15-.06.2.2,0,0,0,0-.14V1.05A.2.2,0,0,0,6.16.9.17.17,0,0,0,6,.84H2.46a1.8,1.8,0,0,0-1.32.55A1.84,1.84,0,0,0,.59,2.72V8.11a1.8,1.8,0,0,0,.55,1.31A1.8,1.8,0,0,0,2.47,10H9.86a1.88,1.88,0,0,0,1.86-1.87V6a.21.21,0,0,0-.21-.21Z"/><path class="cls-3" d="M12.07.13A.4.4,0,0,0,11.78,0H8.46a.39.39,0,0,0-.29.13.4.4,0,0,0-.12.29.4.4,0,0,0,.12.29L9.32,1.86,5.1,6.09A.2.2,0,0,0,5,6.23a.2.2,0,0,0,.06.15l.74.74A.21.21,0,0,0,6,7.19a.26.26,0,0,0,.15-.07l4.21-4.23L11.49,4a.42.42,0,0,0,.3.12.41.41,0,0,0,.41-.41V.42A.46.46,0,0,0,12.07.13Z"/></svg>
