<svg id="Layer_1" data-name="Layer 1" xmlns="http://www.w3.org/2000/svg" xmlns:xlink="http://www.w3.org/1999/xlink" viewBox="0 0 34.37 35.62"><defs><style>.cls-1,.cls-4{fill:none;stroke-miterlimit:10;}.cls-1{stroke:url(#linear-gradient);}.cls-2{fill:#e8ecef;opacity:0;}.cls-3{clip-path:url(#clip-path);}.cls-4{stroke:url(#linear-gradient-2);}.cls-5{fill:#fff;}</style><linearGradient id="linear-gradient" x1="4.96" y1="17.57" x2="31.5" y2="17.57" gradientUnits="userSpaceOnUse"><stop offset="0" stop-color="#00adec"/><stop offset="0.43" stop-color="#48c1f2"/><stop offset="0.82" stop-color="#82d2f6"/><stop offset="1" stop-color="#99d8f8"/></linearGradient><clipPath id="clip-path" transform="translate(-0.28 -0.06)"><path class="cls-1" d="M24.14,8a65.42,65.42,0,0,1-5-7,1.11,1.11,0,0,0-1.84,0,65.42,65.42,0,0,1-5,7c-3.53,4.5-6.86,8.75-6.86,13.78a12.77,12.77,0,0,0,25.54,0C31,16.78,27.67,12.53,24.14,8Z"/></clipPath><linearGradient id="linear-gradient-2" x1="3.73" y1="17.81" x2="31.59" y2="17.81" gradientUnits="userSpaceOnUse"><stop offset="0" stop-color="#54c073"/><stop offset="0.27" stop-color="#57c375"/><stop offset="0.51" stop-color="#62cd7a"/><stop offset="0.73" stop-color="#74df83"/><stop offset="0.94" stop-color="#8cf690"/><stop offset="1" stop-color="#95ff95"/></linearGradient></defs><title>hum-invalid-unkn</title><rect class="cls-2" y="0.17" width="34.37" height="34.37"/><g class="cls-3"><rect class="cls-4" x="4.23" y="0.5" width="26.86" height="34.62"/></g><path class="cls-1" d="M24.14,8a65.42,65.42,0,0,1-5-7,1.11,1.11,0,0,0-1.84,0,65.42,65.42,0,0,1-5,7c-3.53,4.5-6.86,8.75-6.86,13.78a12.77,12.77,0,0,0,25.54,0C31,16.78,27.67,12.53,24.14,8Z" transform="translate(-0.28 -0.06)"/><path class="cls-5" d="M15,19.09a3.2,3.2,0,1,1,3.19-3.2A3.2,3.2,0,0,1,15,19.09Zm0-4.26a1.07,1.07,0,1,0,1.06,1.06A1.07,1.07,0,0,0,15,14.83Z" transform="translate(-0.28 -0.06)"/><path class="cls-5" d="M21.42,29.73a3.2,3.2,0,1,1,3.19-3.19A3.19,3.19,0,0,1,21.42,29.73Zm0-4.26a1.07,1.07,0,1,0,1.07,1.07A1.07,1.07,0,0,0,21.42,25.47Z" transform="translate(-0.28 -0.06)"/><path class="cls-5" d="M12.91,27.6a1.06,1.06,0,0,1-.76-.31,1.08,1.08,0,0,1,0-1.51L22.8,15.14a1.06,1.06,0,0,1,1.5,1.51L13.66,27.29A1.05,1.05,0,0,1,12.91,27.6Z" transform="translate(-0.28 -0.06)"/></svg>