<svg id="Layer_1" data-name="Layer 1" xmlns="http://www.w3.org/2000/svg" xmlns:xlink="http://www.w3.org/1999/xlink" viewBox="0 0 34.37 35.6"><defs><style>.cls-1,.cls-4{fill:none;}.cls-1,.cls-4,.cls-5{stroke-miterlimit:10;}.cls-1{stroke:url(#linear-gradient);}.cls-2{fill:#e8ecef;opacity:0;}.cls-3{clip-path:url(#clip-path);}.cls-4{stroke:url(#linear-gradient-2);}.cls-5{fill:#d2d4d6;stroke:#d2d4d6;stroke-width:0.75px;}.cls-6{fill:#fff;}</style><linearGradient id="linear-gradient" x1="5.17" y1="17.87" x2="31.5" y2="17.87" gradientUnits="userSpaceOnUse"><stop offset="0" stop-color="#b5b5b5"/><stop offset="0.65" stop-color="#e8e8e8"/><stop offset="1" stop-color="#fff"/></linearGradient><clipPath id="clip-path" transform="translate(-0.28 -0.23)"><path class="cls-1" d="M24.19,8.4a64.73,64.73,0,0,1-5-6.92,1.09,1.09,0,0,0-1.81,0,64.81,64.81,0,0,1-5,6.92c-3.5,4.47-6.8,8.69-6.8,13.67a12.67,12.67,0,1,0,25.33,0C31,17.09,27.69,12.87,24.19,8.4Z"/></clipPath><linearGradient id="linear-gradient-2" x1="3.95" y1="17.93" x2="31.58" y2="17.93" xlink:href="#linear-gradient"/></defs><title>hum-invalid-maint</title><rect class="cls-2" width="34.37" height="34.37"/><g class="cls-3"><rect class="cls-4" x="4.45" y="0.77" width="26.64" height="34.33"/></g><path class="cls-1" d="M24.19,8.4a64.73,64.73,0,0,1-5-6.92,1.09,1.09,0,0,0-1.81,0,64.81,64.81,0,0,1-5,6.92c-3.5,4.47-6.8,8.69-6.8,13.67a12.67,12.67,0,1,0,25.33,0C31,17.09,27.69,12.87,24.19,8.4Z" transform="translate(-0.28 -0.23)"/><path class="cls-5" d="M15.17,19.37a3.17,3.17,0,1,1,3.16-3.17A3.17,3.17,0,0,1,15.17,19.37Zm0-4.22a1.06,1.06,0,1,0,1,1A1.05,1.05,0,0,0,15.17,15.15Z" transform="translate(-0.28 -0.23)"/><path class="cls-5" d="M21.5,29.93a3.17,3.17,0,1,1,3.17-3.17A3.17,3.17,0,0,1,21.5,29.93Zm0-4.23a1.06,1.06,0,1,0,1.06,1.06A1.07,1.07,0,0,0,21.5,25.7Z" transform="translate(-0.28 -0.23)"/><path class="cls-5" d="M13.06,27.82a1.1,1.1,0,0,1-.75-.31,1.07,1.07,0,0,1,0-1.5L22.86,15.46a1.07,1.07,0,0,1,1.5,0,1.06,1.06,0,0,1,0,1.49L13.8,27.51A1.05,1.05,0,0,1,13.06,27.82Z" transform="translate(-0.28 -0.23)"/><path class="cls-6" d="M15.17,19.37a3.17,3.17,0,1,1,3.16-3.17A3.17,3.17,0,0,1,15.17,19.37Zm0-4.22a1.06,1.06,0,1,0,1,1A1.05,1.05,0,0,0,15.17,15.15Z" transform="translate(-0.28 -0.23)"/><path class="cls-6" d="M21.5,29.93a3.17,3.17,0,1,1,3.17-3.17A3.17,3.17,0,0,1,21.5,29.93Zm0-4.23a1.06,1.06,0,1,0,1.06,1.06A1.07,1.07,0,0,0,21.5,25.7Z" transform="translate(-0.28 -0.23)"/><path class="cls-6" d="M13.06,27.82a1.1,1.1,0,0,1-.75-.31,1.07,1.07,0,0,1,0-1.5L22.86,15.46a1.07,1.07,0,0,1,1.5,0,1.06,1.06,0,0,1,0,1.49L13.8,27.51A1.05,1.05,0,0,1,13.06,27.82Z" transform="translate(-0.28 -0.23)"/></svg>