<?xml version="1.0" encoding="utf-8"?>
<!-- Generator: Adobe Illustrator 22.1.0, SVG Export Plug-In . SVG Version: 6.00 Build 0)  -->
<svg version="1.1" xmlns="http://www.w3.org/2000/svg" xmlns:xlink="http://www.w3.org/1999/xlink" x="0px" y="0px"
	 viewBox="0 0 65.3 62.6" style="enable-background:new 0 0 65.3 62.6;" xml:space="preserve">
<style type="text/css">
	.st0{opacity:0;fill:url(#SVGID_1_);}
	.st1{display:none;}
	.st2{display:inline;}
	.st3{clip-path:url(#SVGID_3_);fill:url(#SVGID_4_);}
	.st4{clip-path:url(#SVGID_6_);fill:url(#SVGID_7_);}
	.st5{clip-path:url(#SVGID_10_);fill:url(#SVGID_11_);}
	.st6{clip-path:url(#SVGID_13_);fill:url(#SVGID_14_);}
	.st7{clip-path:url(#SVGID_16_);fill:url(#SVGID_17_);}
	.st8{clip-path:url(#SVGID_19_);fill:url(#SVGID_20_);}
	.st9{fill:#FFFFFF;}
	.st10{clip-path:url(#SVGID_23_);fill:url(#SVGID_24_);}
	.st11{clip-path:url(#SVGID_27_);fill:url(#SVGID_28_);}
	.st12{display:inline;fill:#5CC5F1;}
	.st13{fill:none;stroke:#222D3A;stroke-width:2;stroke-linecap:round;stroke-linejoin:round;stroke-miterlimit:10;}
	.st14{fill:#222D3A;}
	.st15{fill:none;stroke:#222D3A;stroke-linecap:round;stroke-linejoin:round;stroke-miterlimit:10;}
	.st16{fill:#5CC5F1;}
	.st17{fill:none;stroke:#5CC5F1;stroke-width:2;stroke-linecap:round;stroke-linejoin:round;stroke-miterlimit:10;}
	.st18{fill:none;stroke:#5CC5F1;stroke-width:2;stroke-miterlimit:10;}
	.st19{fill:#5CC5F1;stroke:#5CC5F1;stroke-miterlimit:10;}
</style>
<g id="Layer_2">
	<linearGradient id="SVGID_1_" gradientUnits="userSpaceOnUse" x1="-1.818989e-12" y1="31.3035" x2="65.3435" y2="31.3035">
		<stop  offset="0" style="stop-color:#F0512E"/>
		<stop  offset="0.2764" style="stop-color:#F05230"/>
		<stop  offset="0.5125" style="stop-color:#F15736"/>
		<stop  offset="0.7338" style="stop-color:#F15F42"/>
		<stop  offset="0.9449" style="stop-color:#F26A52"/>
		<stop  offset="0.9988" style="stop-color:#F26D57"/>
	</linearGradient>
	<rect x="0" class="st0" width="65.3" height="62.6"/>
</g>
<g id="Layer_1" class="st1">
	<g class="st2">
		<g>
			<defs>
				<path id="SVGID_2_" d="M1,16.6l20.7,11.7c1.3,0.8,2,1.1,3.7,1c0.3,0,31.9-4.9,31.9-4.9c2.5-0.4,4.7-1.8,6.2-4.1
					c1.4-2.2,2-5,1.6-7.8C64.9,9.7,63.6,7,61.6,5l0,0c-2-2.1-4.6-3.3-7.2-3.4c0,0-32.5-1.6-32.8-1.6c-1.5,0.1-4.3,2.1-4.4,2.2
					L4.5,12.6 M14.8,15.1c0.2,1.5,0.5,2.9,0.9,4.3l-6.9-4l5.8-4.8C14.5,12,14.6,13.6,14.8,15.1z M25.2,24.5c0,0-0.9,0.4-2.4-1.1
					c-1.5-1.6-3-4.8-3.5-8.6c-0.7-5.5,0.9-9.9,2.9-10.1l0.4,0c2,0.4,4.5,4.4,5.3,9.7C28.5,19.7,27,24,25.2,24.5L25.2,24.5z
					 M39.5,22.3l-7.9,1.2c0.9-2.6,1.1-5.9,0.7-9.3c-0.4-3.4-1.6-6.6-3.1-9.1l8.1,0.4c1.2,2.2,2.2,5.2,2.6,8.4
					C40.2,17,40.1,20.1,39.5,22.3z M51.6,20.5l-7.2,1.1c0.2-2.4,0.2-5.1-0.2-7.9c-0.4-2.9-1.1-5.6-2-7.9l7.4,0.4
					c1.2,1.8,2.1,4.4,2.4,7.1C52.4,15.9,52.3,18.6,51.6,20.5L51.6,20.5z M60.8,12.8c0.5,3.4-1.4,6.3-4.2,6.9
					c0.2-2.1,0.2-4.4-0.1-6.7c-0.3-2.3-0.9-4.6-1.7-6.6C57.8,6.7,60.4,9.4,60.8,12.8L60.8,12.8z"/>
			</defs>
			<clipPath id="SVGID_3_">
				<use xlink:href="#SVGID_2_"  style="overflow:visible;"/>
			</clipPath>
			<linearGradient id="SVGID_4_" gradientUnits="userSpaceOnUse" x1="24.6715" y1="45.2052" x2="43.7832" y2="10.8088">
				<stop  offset="0" style="stop-color:#F0512E"/>
				<stop  offset="0.2764" style="stop-color:#F05230"/>
				<stop  offset="0.5125" style="stop-color:#F15736"/>
				<stop  offset="0.7338" style="stop-color:#F15F42"/>
				<stop  offset="0.9449" style="stop-color:#F26A52"/>
				<stop  offset="0.9988" style="stop-color:#F26D57"/>
			</linearGradient>
			<rect x="-1" y="-0.4" class="st3" width="67" height="63"/>
		</g>
		<g>
			<defs>
				<path id="SVGID_5_" d="M4.3,11.3V7c0-1.3-1-2.4-2.2-2.4C1,4.6,0,5.7,0,7v53.2c0,1.3,1,2.4,2.2,2.4s2.2-1.1,2.2-2.4V20.7"/>
			</defs>
			<clipPath id="SVGID_6_">
				<use xlink:href="#SVGID_5_"  style="overflow:visible;"/>
			</clipPath>
			<linearGradient id="SVGID_7_" gradientUnits="userSpaceOnUse" x1="25.6715" y1="45.2052" x2="44.7832" y2="10.8088">
				<stop  offset="0" style="stop-color:#F0512E"/>
				<stop  offset="0.2764" style="stop-color:#F05230"/>
				<stop  offset="0.5125" style="stop-color:#F15736"/>
				<stop  offset="0.7338" style="stop-color:#F15F42"/>
				<stop  offset="0.9449" style="stop-color:#F26A52"/>
				<stop  offset="0.9988" style="stop-color:#F26D57"/>
			</linearGradient>
			<rect x="0" y="-0.4" class="st4" width="67" height="63"/>
		</g>
	</g>
</g>
<g id="Layer_3" class="st1">
	<g class="st2">
		<defs>
			<path id="SVGID_8_" d="M57.6,33.2c-0.7-2.8-2.3-5.1-4.5-6.5c0,0-27.3-17.6-27.6-17.8c-1.4-0.7-4.8-0.3-5-0.3L4.3,11.3V7
				c0-1.3-1-2.4-2.2-2.4C1,4.6,0,5.7,0,7v53.2c0,1.3,1,2.4,2.2,2.4s2.2-1.1,2.2-2.4V20.7l7.1,12.7c0.8,1.3,1.1,2,2.7,2.8
				C14.5,36.4,44.3,48,44.3,48c2.4,0.9,5,0.8,7.4-0.4c2.3-1.2,4.2-3.3,5.3-6C58.1,39,58.3,36,57.6,33.2L57.6,33.2z M12,18.6
				c-0.6,1.4-1,2.8-1.3,4.2l-4-6.9l7.4-1.3C13.3,15.8,12.6,17.2,12,18.6z M16.3,32c0,0-1-0.1-1.6-2.1c-0.5-2.2-0.2-5.7,1.2-9.2
				c2.1-5.2,5.8-8.1,7.6-7.3l0.4,0.2c1.5,1.3,1.7,6.1-0.3,11C21.6,29.4,18.2,32.4,16.3,32L16.3,32z M29.8,37.2l-7.5-2.9
				c2.1-1.9,3.9-4.6,5.2-7.8s2-6.5,1.9-9.5l6.8,4.4c0,2.5-0.7,5.6-2,8.6C33.1,33,31.5,35.6,29.8,37.2z M41.2,41.7L34.5,39
				c1.4-2,2.7-4.3,3.8-6.9c1.1-2.7,1.9-5.4,2.3-7.9l6.2,4c0.1,2.2-0.4,4.9-1.5,7.4C44.2,38.1,42.7,40.3,41.2,41.7L41.2,41.7z
				 M53,39.6c-1.3,3.1-4.4,4.8-7.1,3.9c1.3-1.7,2.4-3.7,3.3-5.9c0.9-2.2,1.5-4.4,1.9-6.6C53.5,32.8,54.3,36.5,53,39.6L53,39.6z"/>
		</defs>
		<linearGradient id="SVGID_9_" gradientUnits="userSpaceOnUse" x1="14.7731" y1="48.7518" x2="27.5314" y2="25.7901">
			<stop  offset="0" style="stop-color:#EEBF39"/>
			<stop  offset="0.3391" style="stop-color:#EFC03C"/>
			<stop  offset="0.6287" style="stop-color:#F3C646"/>
			<stop  offset="0.8993" style="stop-color:#F9D158"/>
			<stop  offset="0.9976" style="stop-color:#FCD660"/>
		</linearGradient>
		<use xlink:href="#SVGID_8_"  style="overflow:visible;fill:url(#SVGID_9_);"/>
		<clipPath id="SVGID_10_">
			<use xlink:href="#SVGID_8_"  style="overflow:visible;"/>
		</clipPath>
		<linearGradient id="SVGID_11_" gradientUnits="userSpaceOnUse" x1="24.9879" y1="40.8365" x2="42.1926" y2="9.8722">
			<stop  offset="0" style="stop-color:#EEBF39"/>
			<stop  offset="0.3391" style="stop-color:#EFC03C"/>
			<stop  offset="0.6287" style="stop-color:#F3C646"/>
			<stop  offset="0.8993" style="stop-color:#F9D158"/>
			<stop  offset="0.9976" style="stop-color:#FCD660"/>
		</linearGradient>
		<rect x="0" y="4.6" class="st5" width="58" height="58"/>
	</g>
</g>
<g id="Layer_4" class="st1">
	<g class="st2">
		<g>
			<defs>
				<path id="SVGID_12_" d="M0.1,16l0.5,12.7c0.1,1.3,0.1,2,1,3.2C1.8,32.2,20.3,53,20.3,53c1.5,1.7,3.6,2.6,5.9,2.6
					c2.3,0,4.6-0.9,6.5-2.5c1.9-1.6,3.3-3.8,3.8-6.3v0c0.5-2.5,0.2-4.9-0.9-6.9c0,0-14.2-24.5-14.4-24.8c-0.8-1.1-3.6-2.2-3.7-2.2
					L3.9,8.7 M7,17.4c-1,0.8-1.9,1.8-2.7,2.7l-0.3-7l6.3,2C9.1,15.8,8,16.5,7,17.4z M5,29.5c0,0-0.7-0.5-0.4-2.3
					c0.4-1.9,2.1-4.5,4.6-6.7c3.7-3.2,7.7-4,8.8-2.7l0.2,0.3c0.6,1.6-1.1,5.4-4.6,8.4C10.1,29.6,6.3,30.5,5,29.5L5,29.5z M13.4,38.9
					l-4.6-5.2c2.3-0.6,4.9-2,7.1-3.9s4.1-4.3,5.2-6.6l3.5,6.1c-1,1.9-2.8,4.1-4.9,5.9C17.6,36.9,15.3,38.3,13.4,38.9z M20.5,46.9
					l-4.2-4.7c1.9-1,3.8-2.3,5.7-3.9c1.9-1.7,3.6-3.4,4.9-5.2l3.2,5.6c-0.8,1.7-2.2,3.6-4.1,5.1C24.2,45.4,22.2,46.5,20.5,46.9
					L20.5,46.9z M30.5,50c-2.2,1.9-5.3,2-7,0.2c1.6-0.8,3.3-1.9,4.9-3.3s2.9-2.8,4.1-4.4C33.5,44.9,32.7,48.1,30.5,50L30.5,50z"/>
			</defs>
			<clipPath id="SVGID_13_">
				<use xlink:href="#SVGID_12_"  style="overflow:visible;"/>
			</clipPath>
			
				<linearGradient id="SVGID_14_" gradientUnits="userSpaceOnUse" x1="-20.6137" y1="84.8237" x2="-3.2183" y2="53.5163" gradientTransform="matrix(0.9982 -6.078641e-02 6.078641e-02 0.9982 37.3544 -40.0479)">
				<stop  offset="0" style="stop-color:#5ABC73"/>
				<stop  offset="0.2654" style="stop-color:#5EBD74"/>
				<stop  offset="0.4921" style="stop-color:#6BC178"/>
				<stop  offset="0.7047" style="stop-color:#7FC67D"/>
				<stop  offset="0.9074" style="stop-color:#98CE84"/>
				<stop  offset="0.9976" style="stop-color:#A5D288"/>
			</linearGradient>
			<polyline class="st6" points="-2.6,5.8 0.9,63.7 58.8,60.2 55.2,1.3 			"/>
		</g>
		<g>
			<defs>
				<path id="SVGID_15_" d="M4.3,11.3V7c0-1.3-1-2.4-2.2-2.4C1,4.6,0,5.7,0,7v53.2c0,1.3,1,2.4,2.2,2.4s2.2-1.1,2.2-2.4V20.7"/>
			</defs>
			<clipPath id="SVGID_16_">
				<use xlink:href="#SVGID_15_"  style="overflow:visible;"/>
			</clipPath>
			<linearGradient id="SVGID_17_" gradientUnits="userSpaceOnUse" x1="22.0868" y1="46.0579" x2="39.4822" y2="14.7504">
				<stop  offset="0" style="stop-color:#5ABC73"/>
				<stop  offset="0.2654" style="stop-color:#5EBD74"/>
				<stop  offset="0.4921" style="stop-color:#6BC178"/>
				<stop  offset="0.7047" style="stop-color:#7FC67D"/>
				<stop  offset="0.9074" style="stop-color:#98CE84"/>
				<stop  offset="0.9976" style="stop-color:#A5D288"/>
			</linearGradient>
			<polyline class="st7" points="0,4.6 0,62.6 58,62.6 58,3.6 			"/>
		</g>
	</g>
</g>
<g id="Layer_5">
	<g>
		<g>
			<defs>
				<path id="SVGID_18_" d="M43.5,13.7C40.3,9.7,37,5.4,34.4,0.9c-0.7-1.2-2.7-1.2-3.4,0c-2.7,4.5-6,8.7-9.2,12.8
					C15.3,22,9.2,29.8,9.2,39.1c0,12.9,10.5,23.5,23.5,23.5S56.1,52,56.1,39.1C56.1,29.8,50,22,43.5,13.7z"/>
			</defs>
			<clipPath id="SVGID_19_">
				<use xlink:href="#SVGID_18_"  style="overflow:visible;"/>
			</clipPath>
			<linearGradient id="SVGID_20_" gradientUnits="userSpaceOnUse" x1="25.0153" y1="44.6375" x2="42.3794" y2="13.3864">
				<stop  offset="0" style="stop-color:#F0512E"/>
				<stop  offset="0.2764" style="stop-color:#F05230"/>
				<stop  offset="0.5125" style="stop-color:#F15736"/>
				<stop  offset="0.7338" style="stop-color:#F15F42"/>
				<stop  offset="0.9449" style="stop-color:#F26A52"/>
				<stop  offset="0.9988" style="stop-color:#F26D57"/>
			</linearGradient>
			<rect x="7.4" y="0" class="st8" width="49.4" height="63.6"/>
		</g>
		<g>
			<path class="st9" d="M26.8,34.1c-3.2,0-5.9-2.6-5.9-5.9s2.6-5.9,5.9-5.9s5.9,2.6,5.9,5.9S30,34.1,26.8,34.1z M26.8,26.2
				c-1.1,0-2,0.9-2,2s0.9,2,2,2s2-0.9,2-2S27.9,26.2,26.8,26.2z"/>
			<path class="st9" d="M38.5,53.6c-3.2,0-5.9-2.6-5.9-5.9s2.6-5.9,5.9-5.9c3.2,0,5.9,2.6,5.9,5.9S41.8,53.6,38.5,53.6z M38.5,45.8
				c-1.1,0-2,0.9-2,2s0.9,2,2,2c1.1,0,2-0.9,2-2S39.6,45.8,38.5,45.8z"/>
			<path class="st9" d="M22.9,49.7c-0.5,0-1-0.2-1.4-0.6c-0.8-0.8-0.8-2,0-2.8l19.6-19.6c0.8-0.8,2-0.8,2.8,0s0.8,2,0,2.8L24.3,49.1
				C23.9,49.5,23.4,49.7,22.9,49.7z"/>
		</g>
	</g>
</g>
<g id="Layer_6" class="st1">
	<g class="st2">
		<g>
			<defs>
				<path id="SVGID_21_" d="M49.5,48c-1.3,0-2.4,1.1-2.4,2.4c0,4-3.3,7.3-7.3,7.3s-7.3-3.3-7.3-7.3V21.7c0-4,3.3-7.3,7.3-7.3
					s7.3,3.3,7.3,7.3c0,1.3,1.1,2.4,2.4,2.4s2.4-1.1,2.4-2.4c0-6.7-5.5-12.2-12.2-12.2S27.6,15,27.6,21.7v28.7
					c0,6.7,5.5,12.2,12.2,12.2s12.2-5.5,12.2-12.2C51.9,49.1,50.8,48,49.5,48z"/>
			</defs>
			<linearGradient id="SVGID_22_" gradientUnits="userSpaceOnUse" x1="27.5603" y1="36.0763" x2="51.9005" y2="36.0763">
				<stop  offset="0" style="stop-color:#5ABC73"/>
				<stop  offset="0.2654" style="stop-color:#5EBD74"/>
				<stop  offset="0.4921" style="stop-color:#6BC178"/>
				<stop  offset="0.7047" style="stop-color:#7FC67D"/>
				<stop  offset="0.9074" style="stop-color:#98CE84"/>
				<stop  offset="0.9976" style="stop-color:#A5D288"/>
			</linearGradient>
			<use xlink:href="#SVGID_21_"  style="overflow:visible;fill:url(#SVGID_22_);"/>
			<clipPath id="SVGID_23_">
				<use xlink:href="#SVGID_21_"  style="overflow:visible;"/>
			</clipPath>
			<linearGradient id="SVGID_24_" gradientUnits="userSpaceOnUse" x1="27.4982" y1="45.7817" x2="45.7444" y2="12.943">
				<stop  offset="0" style="stop-color:#5ABC73"/>
				<stop  offset="0.2654" style="stop-color:#5EBD74"/>
				<stop  offset="0.4921" style="stop-color:#6BC178"/>
				<stop  offset="0.7047" style="stop-color:#7FC67D"/>
				<stop  offset="0.9074" style="stop-color:#98CE84"/>
				<stop  offset="0.9976" style="stop-color:#A5D288"/>
			</linearGradient>
			<rect x="15" y="-4.4" class="st10" width="39.9" height="73.5"/>
		</g>
		<g>
			<defs>
				<path id="SVGID_25_" d="M20.1,0.3c-3.7,0-6.7,3-6.7,6.7s3,6.7,6.7,6.7s6.7-3,6.7-6.7S23.8,0.3,20.1,0.3z M20.1,8.8
					c-1,0-1.8-0.8-1.8-1.8s0.8-1.8,1.8-1.8S22,6,22,7S21.1,8.8,20.1,8.8z"/>
			</defs>
			<linearGradient id="SVGID_26_" gradientUnits="userSpaceOnUse" x1="13.443" y1="6.9897" x2="26.8301" y2="6.9897">
				<stop  offset="0" style="stop-color:#5ABC73"/>
				<stop  offset="0.2654" style="stop-color:#5EBD74"/>
				<stop  offset="0.4921" style="stop-color:#6BC178"/>
				<stop  offset="0.7047" style="stop-color:#7FC67D"/>
				<stop  offset="0.9074" style="stop-color:#98CE84"/>
				<stop  offset="0.9976" style="stop-color:#A5D288"/>
			</linearGradient>
			<use xlink:href="#SVGID_25_"  style="overflow:visible;fill:url(#SVGID_26_);"/>
			<clipPath id="SVGID_27_">
				<use xlink:href="#SVGID_25_"  style="overflow:visible;"/>
			</clipPath>
			<linearGradient id="SVGID_28_" gradientUnits="userSpaceOnUse" x1="21.1074" y1="45.7418" x2="39.3535" y2="12.9031">
				<stop  offset="0" style="stop-color:#5ABC73"/>
				<stop  offset="0.2654" style="stop-color:#5EBD74"/>
				<stop  offset="0.4921" style="stop-color:#6BC178"/>
				<stop  offset="0.7047" style="stop-color:#7FC67D"/>
				<stop  offset="0.9074" style="stop-color:#98CE84"/>
				<stop  offset="0.9976" style="stop-color:#A5D288"/>
			</linearGradient>
			<rect x="8.6" y="-4.5" class="st11" width="39.9" height="73.5"/>
		</g>
	</g>
</g>
<g id="Layer_7" class="st1">
	<path class="st12" d="M36.7,57h15.7V6H37.2C23,6,11.5,17.5,11.5,31.7v0C11.5,45.7,22.8,57,36.7,57z"/>
	<g class="st2">
		<polygon class="st13" points="42.8,30.2 36.5,30.2 43.5,17 32.8,17 28.5,32.5 32.8,32.5 29.1,45.6 		"/>
	</g>
</g>
<g id="Layer_8" class="st1">
	<path class="st12" d="M36.7,57h15.7V6H37.2C23,6,11.5,17.5,11.5,31.7v0C11.5,45.7,22.8,57,36.7,57z"/>
	<g class="st2">
		<circle class="st13" cx="23.9" cy="21" r="3"/>
		<circle class="st13" cx="29.9" cy="39.2" r="3"/>
		<circle class="st13" cx="39" cy="30.1" r="3"/>
		<path class="st13" d="M27.7,21h15.2c0,0,5.3,0,5.3,4.5s-4.5,4.5-5.3,4.5"/>
		<path class="st13" d="M35.2,30.1h-9.8c0,0-4.5,0-4.5,4.5s5.3,3.9,5.3,3.9"/>
		<polyline class="st13" points="33.7,39.2 47.4,39.2 43.6,35.4 		"/>
		<line class="st13" x1="47.4" y1="39.2" x2="43.6" y2="43"/>
	</g>
</g>
<g id="Layer_9" class="st1">
	<path class="st12" d="M36.7,57h15.7V6H37.2C23,6,11.5,17.5,11.5,31.7v0C11.5,45.7,22.8,57,36.7,57z"/>
	<g class="st2">
		<line class="st13" x1="33.5" y1="40" x2="40.5" y2="40"/>
		<path class="st13" d="M42.5,36h3.9c1.1,0,2.1,0.9,2.1,2.1v3.9c0,1.1-0.9,2.1-2.1,2.1h-3.9c-1.1,0-2.1-0.9-2.1-2.1v-3.9
			C40.5,36.9,41.4,36,42.5,36z"/>
		<g>
			<line class="st13" x1="33.5" y1="16" x2="33.5" y2="47"/>
			<line class="st13" x1="26.5" y1="31" x2="33.5" y2="31"/>
			<line class="st13" x1="33.5" y1="23" x2="40.5" y2="23"/>
			<path class="st13" d="M42.5,19h3.9c1.1,0,2.1,0.9,2.1,2.1v3.9c0,1.1-0.9,2.1-2.1,2.1h-3.9c-1.1,0-2.1-0.9-2.1-2.1v-3.9
				C40.5,19.9,41.4,19,42.5,19z"/>
			<path class="st13" d="M20.5,27h3.9c1.1,0,2.1,0.9,2.1,2.1v3.9c0,1.1-0.9,2.1-2.1,2.1h-3.9c-1.1,0-2.1-0.9-2.1-2.1v-3.9
				C18.5,27.9,19.4,27,20.5,27z"/>
		</g>
	</g>
</g>
<g id="Layer_10" class="st1">
	<path class="st12" d="M36.7,57h15.7V6H37.2C23,6,11.5,17.5,11.5,31.7v0C11.5,45.7,22.8,57,36.7,57z"/>
	<g class="st2">
		<g>
			<path class="st14" d="M40.7,23l2.4-2.4c0.3-0.3,0.3-0.7,0-1.1c-0.3-0.3-0.8-0.3-1.1,0l-2.3,2.4c-0.3,0.3-0.3,0.7,0,1.1
				C40,23.3,40.4,23.3,40.7,23z"/>
			<path class="st14" d="M34.4,20.9c0.4,0,0.8-0.3,0.8-0.8v-3.3c0-0.4-0.3-0.8-0.8-0.8s-0.8,0.3-0.8,0.8v3.3
				C33.7,20.5,34,20.9,34.4,20.9z"/>
			<path class="st14" d="M28.2,23c0.3,0.3,0.8,0.3,1.1,0c0.3-0.3,0.3-0.8,0-1.1l-2.4-2.4c-0.3-0.3-0.8-0.3-1.1,0
				c-0.3,0.3-0.3,0.8,0,1.1L28.2,23z"/>
			<path class="st14" d="M23,29l3.3,0c0.4,0,0.8-0.3,0.8-0.8c0-0.4-0.3-0.8-0.8-0.8H23c-0.4,0-0.8,0.4-0.8,0.8
				C22.2,28.6,22.6,29,23,29z"/>
			<path class="st14" d="M49.6,34.2c-0.6-1-1.3-1.9-2.3-2.5c-0.2-1.8-0.9-3.3-2.1-4.5c-1.4-1.5-3.2-2.3-5.2-2.3h-0.6
				c-0.5-0.8-1.3-1.4-2.1-1.9c-0.9-0.5-1.8-0.7-2.8-0.7c-1.6,0-3,0.6-4.2,1.7c-1.2,1.1-1.7,2.5-1.7,4.2c0,0.6,0.3,1.6,0.8,2.8
				c-0.8,0.7-1.4,1.5-1.7,2.5h-0.3c-1.4,0-2.6,0.5-3.6,1.6c-1,1.1-1.5,2.3-1.5,3.8c0,1.3,0.4,2.5,1.2,3.5c0.8,1,1.9,1.6,3.1,1.8
				c0.3,0,0.5,0.1,0.7,0.1h13.3h0.8h2.8c0.4,0,0.7,0,0.9-0.1c1.6-0.2,2.9-1,3.9-2.3c1-1.3,1.5-2.7,1.5-4.4
				C50.5,36.4,50.2,35.2,49.6,34.2z M31.3,25.1c0.9-0.9,1.9-1.3,3.1-1.3c1.3,0,2.4,0.5,3.3,1.4C35.5,26,33.8,27.7,33,30
				c-0.3,0-0.5-0.1-0.7-0.1c-0.6,0-1.2,0.1-1.7,0.3c-0.3-0.6-0.5-1.3-0.5-2.1C30.1,27,30.5,26,31.3,25.1z M47.8,41
				c-0.8,1-1.8,1.6-3,1.7c-0.1,0-0.3,0.1-0.6,0.1h-2.8h-0.8H27.2c-0.1,0-0.3,0-0.4,0c-0.9-0.1-1.6-0.6-2.2-1.3
				c-0.6-0.7-0.9-1.6-0.9-2.5c0-1.1,0.3-2,1-2.7c0.7-0.8,1.6-1.1,2.5-1.1c0.6,0,1.2,0.1,1.7,0.4c0-0.1,0-0.2,0-0.4
				c0-1,0.3-1.8,1-2.5c0.7-0.7,1.4-1.1,2.4-1.1c0.6,0,1.2,0.2,1.8,0.5c0.2-1.6,0.8-2.9,1.9-4c1.1-1.1,2.4-1.6,3.9-1.6
				c1.6,0,3,0.6,4.1,1.8c1.1,1.2,1.7,2.7,1.8,4.4c0.9,0.4,1.7,1,2.2,1.9s0.9,1.9,0.9,3C48.9,38.9,48.5,40.1,47.8,41z"/>
		</g>
	</g>
</g>
<g id="Layer_11" class="st1">
	<path class="st12" d="M36.7,57h15.7V6H37.2C23,6,11.5,17.5,11.5,31.7v0C11.5,45.7,22.8,57,36.7,57z"/>
	<g class="st2">
		<polyline class="st15" points="24.2,46.8 26.6,46.8 39.1,46.8 		"/>
		<path class="st15" d="M28.7,32.6c0-1.4,1.2-2.6,2.6-2.6c1.3,0,2.3,0.9,2.5,2.1c0,0.2,0.1,0.3,0.1,0.5c0,1.4-1.2,2.6-2.6,2.6
			S28.7,34,28.7,32.6z"/>
		<line class="st15" x1="36.4" y1="46.8" x2="33.9" y2="32.6"/>
		<line class="st15" x1="28.7" y1="32.6" x2="27" y2="46.8"/>
		<path class="st15" d="M34.8,36.8c1,0.2,2,0.4,3,0.4c3.5,0,6.8-1.4,9.2-3.8l-9.2-9.1L28.6,15c-2.4,2.4-3.8,5.7-3.8,9.2
			c0,3.5,1.5,6.8,3.8,9.1"/>
		<path class="st15" d="M40.1,22.6l-1.3-1.3c0.7-0.7,1.9-0.7,2.6,0c0.7,0.7,0.7,1.9,0,2.6L40.1,22.6z"/>
		<path class="st15" d="M36.5,19.6c1.8-1.8,4.7-1.8,6.5,0c1.8,1.8,1.8,4.7,0,6.5"/>
		<path class="st15" d="M34.6,17.7c2.8-2.8,7.5-2.8,10.4,0c2.8,2.8,2.8,7.5,0,10.4"/>
		<line class="st15" x1="40.1" y1="22.6" x2="38" y2="24.4"/>
	</g>
</g>
<g id="Layer_12" class="st1">
	<g class="st2">
		<g id="_x33__4_">
			<g>
				<path class="st16" d="M32.7,11.3c-11,0-20,9-20,20c0,11,9,20,20,20s20-9,20-20S43.7,11.3,32.7,11.3z M47.2,21.5
					c1.7,2.5,2.7,5.4,3,8.5h-10c-0.1-2.3-0.3-4.6-0.6-6.8C42.2,22.9,44.8,22.3,47.2,21.5z M45.4,19.4c-2,0.6-4.2,1.1-6.4,1.5
					c-0.5-2.3-1.2-4.5-2-6.5C40.3,15.2,43.2,17,45.4,19.4z M27.7,30.1c0.1-2.2,0.3-4.4,0.6-6.4c1.4,0.1,2.8,0.2,4.3,0.2
					c1.5,0,2.9-0.1,4.3-0.2c0.4,2.1,0.6,4.2,0.6,6.4H27.7z M37.6,32.6c-0.1,2.2-0.3,4.4-0.6,6.4c-1.4-0.1-2.8-0.2-4.3-0.2
					c-1.5,0-2.9,0.1-4.3,0.2c-0.4-2.1-0.6-4.2-0.6-6.4H37.6z M31.5,13.9c0.4,0,0.8-0.1,1.2-0.1c0.4,0,0.8,0,1.2,0.1
					c1.1,2.2,1.9,4.7,2.6,7.3c-1.2,0.1-2.5,0.2-3.8,0.2c-1.3,0-2.5-0.1-3.8-0.2C29.5,18.5,30.4,16.1,31.5,13.9z M28.4,14.4
					c-0.8,2-1.5,4.2-2,6.5c-2.2-0.3-4.4-0.8-6.4-1.5C22.2,17,25.1,15.2,28.4,14.4z M18.2,21.5c2.4,0.8,5,1.4,7.7,1.8
					c-0.4,2.2-0.6,4.4-0.6,6.8h-10C15.4,26.9,16.5,24,18.2,21.5z M18.2,41.1c-1.7-2.5-2.7-5.4-3-8.5h10c0.1,2.3,0.3,4.6,0.6,6.8
					C23.1,39.7,20.6,40.3,18.2,41.1z M19.9,43.2c2-0.6,4.2-1.1,6.4-1.5c0.5,2.3,1.2,4.5,2,6.5C25.1,47.4,22.2,45.6,19.9,43.2z
					 M33.9,48.7c-0.4,0-0.8,0.1-1.2,0.1c-0.4,0-0.8,0-1.2-0.1c-1.1-2.2-1.9-4.7-2.6-7.3c1.2-0.1,2.5-0.2,3.8-0.2
					c1.3,0,2.5,0.1,3.8,0.2C35.8,44.1,34.9,46.5,33.9,48.7z M37,48.3c0.8-2,1.5-4.2,2-6.5c2.2,0.3,4.4,0.8,6.4,1.5
					C43.2,45.6,40.3,47.4,37,48.3z M47.2,41.1c-2.4-0.8-5-1.4-7.7-1.8c0.4-2.2,0.6-4.4,0.6-6.8h10C49.9,35.7,48.8,38.6,47.2,41.1z"
					/>
			</g>
		</g>
	</g>
</g>
<g id="Layer_13" class="st1">
	<g class="st2">
		<g>
			<path class="st16" d="M38.8,21.2l3.3-3.3c0.4-0.4,0.4-1.1,0-1.5c-0.4-0.4-1.1-0.4-1.5,0l-3.3,3.3c-0.4,0.4-0.4,1.1,0,1.5
				C37.8,21.7,38.4,21.7,38.8,21.2z"/>
			<path class="st16" d="M30,18.2c0.6,0,1.1-0.5,1.1-1.1v-4.7c0-0.6-0.5-1.1-1.1-1.1s-1.1,0.5-1.1,1.1v4.7
				C28.9,17.7,29.4,18.2,30,18.2z"/>
			<path class="st16" d="M21.2,21.2c0.5,0.4,1.1,0.5,1.5,0c0.4-0.4,0.4-1.1,0-1.5l-3.3-3.3c-0.4-0.4-1.1-0.4-1.5,0
				c-0.4,0.5-0.4,1.1,0,1.5L21.2,21.2z"/>
			<path class="st16" d="M13.9,29.7l4.7-0.1c0.6,0,1.1-0.5,1.1-1.1c0-0.6-0.5-1.1-1.1-1.1h-4.7c-0.6,0.1-1.1,0.5-1.1,1.1
				C12.8,29.1,13.3,29.7,13.9,29.7z"/>
			<path class="st16" d="M51.3,36.9c-0.8-1.5-1.9-2.6-3.2-3.5c-0.3-2.5-1.3-4.6-3-6.3c-1.9-2-4.6-3.2-7.3-3.2h-0.8
				c-0.8-1.1-1.8-2-3-2.7c-1.2-0.7-2.5-1-4-1c-2.3,0-4.3,0.8-5.9,2.4c-1.6,1.6-2.4,3.6-2.4,5.9c0,0.9,0.4,2.2,1.2,4
				c-1.1,0.9-1.9,2.1-2.4,3.5H20c-2,0-3.7,0.7-5.1,2.2c-1.4,1.5-2.1,3.3-2.1,5.4c0,1.9,0.6,3.5,1.7,4.9c1.2,1.4,2.6,2.3,4.4,2.6
				c0.4,0.1,0.7,0.1,1,0.1h18.7h1.1h4c0.5,0,1,0,1.3-0.1c2.2-0.3,4-1.4,5.5-3.2c1.4-1.8,2.1-3.9,2.1-6.2
				C52.5,40,52.1,38.4,51.3,36.9z M25.6,24.2c1.2-1.2,2.6-1.8,4.3-1.8c1.8,0,3.3,0.7,4.6,2c-3.1,1-5.5,3.5-6.6,6.7
				C27.6,31,27.2,31,27,31c-0.8,0-1.6,0.2-2.4,0.5c-0.5-0.9-0.7-1.8-0.7-3C23.9,26.8,24.5,25.4,25.6,24.2z M48.7,46.5
				c-1.1,1.4-2.5,2.2-4.2,2.5c-0.2,0.1-0.4,0.1-0.9,0.1h-4h-1.1H19.9c-0.2,0-0.4,0-0.6,0c-1.2-0.2-2.2-0.8-3.1-1.8
				c-0.8-1-1.2-2.2-1.2-3.6c0-1.5,0.5-2.8,1.5-3.8c1-1.1,2.2-1.6,3.6-1.6c0.8,0,1.6,0.2,2.4,0.6c0-0.1,0-0.3,0-0.6
				c0-1.4,0.4-2.6,1.4-3.6c0.9-1,2-1.5,3.3-1.5c0.9,0,1.7,0.3,2.5,0.8c0.3-2.2,1.2-4.1,2.7-5.6c1.6-1.5,3.4-2.3,5.5-2.3
				c2.2,0,4.2,0.9,5.8,2.6c1.6,1.7,2.4,3.7,2.5,6.2c1.3,0.5,2.3,1.4,3.1,2.7s1.2,2.6,1.2,4.2C50.3,43.5,49.8,45.2,48.7,46.5z"/>
		</g>
	</g>
</g>
<g id="Layer_14" class="st1">
	<g class="st2">
		<polyline class="st17" points="15,55.9 18.7,55.9 38,55.9 		"/>
		<path class="st17" d="M22,33.9c0-2.2,1.8-4,4-4c1.9,0,3.5,1.4,3.9,3.2c0.1,0.3,0.1,0.5,0.1,0.8c0,2.2-1.8,4-4,4S22,36.1,22,33.9z"
			/>
		<line class="st17" x1="33.8" y1="55.9" x2="30" y2="33.9"/>
		<line class="st17" x1="22" y1="33.9" x2="19.4" y2="55.9"/>
		<path class="st17" d="M31.4,40.3c1.5,0.4,3,0.5,4.6,0.5c5.3,0,10.4-2.1,14.2-5.9L36,20.9L21.9,6.7c-3.8,3.8-5.9,8.8-5.9,14.2
			c0,5.5,2.2,10.5,5.9,14.1"/>
		<path class="st16" d="M39.5,18.4l-2-2c1.1-1.1,2.9-1.1,4,0c1.1,1.1,1.1,2.9,0,4L39.5,18.4z"/>
		<path class="st18" d="M34,13.9c2.7-2.7,7.3-2.7,10,0c2.7,2.7,2.7,7.3,0,10"/>
		<path class="st18" d="M31,10.9c4.4-4.4,11.6-4.4,16,0c4.4,4.4,4.4,11.6,0,16"/>
		<line class="st17" x1="39.5" y1="18.4" x2="36.4" y2="21.3"/>
	</g>
</g>
<g id="Layer_15" class="st1">
	<g class="st2">
		<circle class="st17" cx="17.9" cy="18.1" r="4.2"/>
		<circle class="st17" cx="26.3" cy="43.4" r="4.2"/>
		<circle class="st17" cx="39" cy="30.8" r="4.2"/>
		<path class="st17" d="M23.2,18.1h21.1c0,0,7.4,0,7.4,6.3s-6.3,6.3-7.4,6.3"/>
		<path class="st17" d="M33.7,30.8H20c0,0-6.3,0-6.3,6.3s7.4,5.4,7.4,5.4"/>
		<polyline class="st17" points="31.6,43.4 50.6,43.4 45.3,38.2 		"/>
		<line class="st17" x1="50.6" y1="43.4" x2="45.3" y2="48.7"/>
	</g>
</g>
<g id="Layer_16" class="st1">
	<g class="st2">
		<polygon class="st17" points="43.8,29.3 33.6,29.3 44.9,7.9 27.4,7.9 20.5,33 27.5,33 21.5,54.4 		"/>
	</g>
</g>
<g id="Layer_17" class="st1">
	<g class="st2">
		<g>
			<g>
				<path class="st19" d="M51,35.7v10.6l-0.3,0.4H40.2l-1.7,0H14.8l-0.4-0.4V33.8v-1.7V16.4l0.4-0.5h23.7l1.7,0h10.5l0.3,0.5v11.8
					l0,0l1.2-0.3l0.5-2.8v-9.9V15c0-0.5-0.4-0.8-0.8-0.8H13.5c-0.5,0-0.8,0.4-0.8,0.8v0.1v32.3v0.1c0,0.5,0.4,0.8,0.8,0.8h38.3
					c0.5,0,0.8-0.4,0.8-0.8v-0.1V36.3L51,35.7z"/>
			</g>
		</g>
		<g>
			<g>
				<path class="st19" d="M51,27.2L51,27.2c-3.9,0.4-6.9,3.7-6.9,7.7c0,0.5,0.4,0.8,0.8,0.8H51l1.7,0.6v-1.5c0-0.5-0.4-0.8-0.8-0.8
					h-6c0.4-3,2.9-5.2,6-5.2c0.5,0,0.8-0.4,0.8-0.8L51,27.2z M40.2,46.7v-3.8c0-0.5-0.4-0.8-0.8-0.8h-6c0.4-3,2.9-5.2,6-5.2
					c0.5,0,0.8-0.4,0.8-0.8V15.9l-1.7,0v15.2H25.7c-0.4-3.9-3.7-6.9-7.7-6.9c-0.5,0-0.8,0.4-0.8,0.8v6.1h-2.8v1.7H18
					c0.5,0,0.8-0.4,0.8-0.8c0,0,0-0.1,0-0.1c0,0,0-0.1,0-0.1V26c3,0.4,5.2,2.9,5.2,6c0,0.5,0.4,0.8,0.8,0.8h13.6v2.4
					c-3.9,0.4-6.9,3.7-6.9,7.7c0,0.5,0.4,0.8,0.8,0.8h6.1v3L40.2,46.7z"/>
			</g>
		</g>
		<path class="st19" d="M15.3,17.9h-1.1c-0.5,0-0.9-0.4-0.9-0.9v-1.1c0-0.5,0.4-0.9,0.9-0.9h1.1c0.5,0,0.9,0.4,0.9,0.9v1.1
			C16.3,17.5,15.9,17.9,15.3,17.9z"/>
		<path class="st19" d="M51.2,17.9h-1.1c-0.5,0-0.9-0.4-0.9-0.9v-1.1c0-0.5,0.4-0.9,0.9-0.9h1.1c0.5,0,0.9,0.4,0.9,0.9v1.1
			C52.2,17.5,51.8,17.9,51.2,17.9z"/>
		<path class="st19" d="M15.3,47.8h-1.1c-0.5,0-0.9-0.4-0.9-0.9v-1.1c0-0.5,0.4-0.9,0.9-0.9h1.1c0.5,0,0.9,0.4,0.9,0.9v1.1
			C16.3,47.4,15.9,47.8,15.3,47.8z"/>
		<path class="st19" d="M51.2,47.8h-1.1c-0.5,0-0.9-0.4-0.9-0.9v-1.1c0-0.5,0.4-0.9,0.9-0.9h1.1c0.5,0,0.9,0.4,0.9,0.9v1.1
			C52.2,47.4,51.8,47.8,51.2,47.8z"/>
	</g>
</g>
</svg>
