<?xml version="1.0" encoding="UTF-8" standalone="no"?>
<!-- Created with Inkscape (http://www.inkscape.org/) -->

<svg
   xmlns:dc="http://purl.org/dc/elements/1.1/"
   xmlns:cc="http://creativecommons.org/ns#"
   xmlns:rdf="http://www.w3.org/1999/02/22-rdf-syntax-ns#"
   xmlns:svg="http://www.w3.org/2000/svg"
   xmlns="http://www.w3.org/2000/svg"
   xmlns:xlink="http://www.w3.org/1999/xlink"
   xmlns:sodipodi="http://sodipodi.sourceforge.net/DTD/sodipodi-0.dtd"
   xmlns:inkscape="http://www.inkscape.org/namespaces/inkscape"
   width="17.277292mm"
   height="16.562916mm"
   viewBox="0 0 17.277292 16.562916"
   version="1.1"
   id="svg8899"
   inkscape:version="0.92.3 (2405546, 2018-03-11)"
   sodipodi:docname="humidity-1-non-active.svg">
  <defs
     id="defs8893"><path
   d="m 1,16.6 20.7,11.7 c 1.3,0.8 2,1.1 3.7,1 0.3,0 31.9,-4.9 31.9,-4.9 2.5,-0.4 4.7,-1.8 6.2,-4.1 1.4,-2.2 2,-5 1.6,-7.8 C 64.9,9.7 63.6,7 61.6,5 V 5 C 59.6,2.9 57,1.7 54.4,1.6 54.4,1.6 21.9,0 21.6,0 20.1,0.1 17.3,2.1 17.2,2.2 L 4.5,12.6 m 10.3,2.5 c 0.2,1.5 0.5,2.9 0.9,4.3 l -6.9,-4 5.8,-4.8 c -0.1,1.4 0,3 0.2,4.5 z m 10.4,9.4 c 0,0 -0.9,0.4 -2.4,-1.1 -1.5,-1.6 -3,-4.8 -3.5,-8.6 -0.7,-5.5 0.9,-9.9 2.9,-10.1 h 0.4 c 2,0.4 4.5,4.4 5.3,9.7 0.6,5.3 -0.9,9.6 -2.7,10.1 z m 14.3,-2.2 -7.9,1.2 c 0.9,-2.6 1.1,-5.9 0.7,-9.3 -0.4,-3.4 -1.6,-6.6 -3.1,-9.1 l 8.1,0.4 c 1.2,2.2 2.2,5.2 2.6,8.4 0.3,3.1 0.2,6.2 -0.4,8.4 z m 12.1,-1.8 -7.2,1.1 c 0.2,-2.4 0.2,-5.1 -0.2,-7.9 -0.4,-2.9 -1.1,-5.6 -2,-7.9 l 7.4,0.4 c 1.2,1.8 2.1,4.4 2.4,7.1 0.4,2.6 0.3,5.3 -0.4,7.2 z m 9.2,-7.7 c 0.5,3.4 -1.4,6.3 -4.2,6.9 0.2,-2.1 0.2,-4.4 -0.1,-6.7 -0.3,-2.3 -0.9,-4.6 -1.7,-6.6 3,0.3 5.6,3 6,6.4 z"
   id="SVGID_2_"
   inkscape:connector-curvature="0" />
<path
   d="M 4.3,11.3 V 7 C 4.3,5.7 3.3,4.6 2.1,4.6 1,4.6 0,5.7 0,7 v 53.2 c 0,1.3 1,2.4 2.2,2.4 1.2,0 2.2,-1.1 2.2,-2.4 V 20.7"
   id="SVGID_5_"
   inkscape:connector-curvature="0" />
<path
   d="M 57.6,33.2 C 56.9,30.4 55.3,28.1 53.1,26.7 53.1,26.7 25.8,9.1 25.5,8.9 24.1,8.2 20.7,8.6 20.5,8.6 L 4.3,11.3 V 7 C 4.3,5.7 3.3,4.6 2.1,4.6 1,4.6 0,5.7 0,7 v 53.2 c 0,1.3 1,2.4 2.2,2.4 1.2,0 2.2,-1.1 2.2,-2.4 V 20.7 l 7.1,12.7 c 0.8,1.3 1.1,2 2.7,2.8 0.3,0.2 30.1,11.8 30.1,11.8 2.4,0.9 5,0.8 7.4,-0.4 2.3,-1.2 4.2,-3.3 5.3,-6 1.1,-2.6 1.3,-5.6 0.6,-8.4 z M 12,18.6 c -0.6,1.4 -1,2.8 -1.3,4.2 l -4,-6.9 7.4,-1.3 c -0.8,1.2 -1.5,2.6 -2.1,4 z M 16.3,32 c 0,0 -1,-0.1 -1.6,-2.1 -0.5,-2.2 -0.2,-5.7 1.2,-9.2 2.1,-5.2 5.8,-8.1 7.6,-7.3 l 0.4,0.2 c 1.5,1.3 1.7,6.1 -0.3,11 -2,4.8 -5.4,7.8 -7.3,7.4 z m 13.5,5.2 -7.5,-2.9 c 2.1,-1.9 3.9,-4.6 5.2,-7.8 1.3,-3.2 2,-6.5 1.9,-9.5 l 6.8,4.4 c 0,2.5 -0.7,5.6 -2,8.6 -1.1,3 -2.7,5.6 -4.4,7.2 z M 41.2,41.7 34.5,39 c 1.4,-2 2.7,-4.3 3.8,-6.9 1.1,-2.7 1.9,-5.4 2.3,-7.9 l 6.2,4 c 0.1,2.2 -0.4,4.9 -1.5,7.4 -1.1,2.5 -2.6,4.7 -4.1,6.1 z M 53,39.6 c -1.3,3.1 -4.4,4.8 -7.1,3.9 1.3,-1.7 2.4,-3.7 3.3,-5.9 0.9,-2.2 1.5,-4.4 1.9,-6.6 2.4,1.8 3.2,5.5 1.9,8.6 z"
   id="SVGID_8_"
   inkscape:connector-curvature="0" />
<path
   d="m 0.1,16 0.5,12.7 c 0.1,1.3 0.1,2 1,3.2 0.2,0.3 18.7,21.1 18.7,21.1 1.5,1.7 3.6,2.6 5.9,2.6 2.3,0 4.6,-0.9 6.5,-2.5 1.9,-1.6 3.3,-3.8 3.8,-6.3 v 0 C 37,44.3 36.7,41.9 35.6,39.9 35.6,39.9 21.4,15.4 21.2,15.1 20.4,14 17.6,12.9 17.5,12.9 L 3.9,8.7 M 7,17.4 c -1,0.8 -1.9,1.8 -2.7,2.7 l -0.3,-7 6.3,2 C 9.1,15.8 8,16.5 7,17.4 Z M 5,29.5 C 5,29.5 4.3,29 4.6,27.2 5,25.3 6.7,22.7 9.2,20.5 c 3.7,-3.2 7.7,-4 8.8,-2.7 l 0.2,0.3 c 0.6,1.6 -1.1,5.4 -4.6,8.4 -3.5,3.1 -7.3,4 -8.6,3 z m 8.4,9.4 -4.6,-5.2 c 2.3,-0.6 4.9,-2 7.1,-3.9 2.2,-1.9 4.1,-4.3 5.2,-6.6 l 3.5,6.1 c -1,1.9 -2.8,4.1 -4.9,5.9 -2.1,1.7 -4.4,3.1 -6.3,3.7 z m 7.1,8 -4.2,-4.7 c 1.9,-1 3.8,-2.3 5.7,-3.9 1.9,-1.7 3.6,-3.4 4.9,-5.2 l 3.2,5.6 c -0.8,1.7 -2.2,3.6 -4.1,5.1 -1.8,1.6 -3.8,2.7 -5.5,3.1 z m 10,3.1 c -2.2,1.9 -5.3,2 -7,0.2 1.6,-0.8 3.3,-1.9 4.9,-3.3 1.6,-1.4 2.9,-2.8 4.1,-4.4 1,2.4 0.2,5.6 -2,7.5 z"
   id="SVGID_12_"
   inkscape:connector-curvature="0" />
<path
   d="M 4.3,11.3 V 7 C 4.3,5.7 3.3,4.6 2.1,4.6 1,4.6 0,5.7 0,7 v 53.2 c 0,1.3 1,2.4 2.2,2.4 1.2,0 2.2,-1.1 2.2,-2.4 V 20.7"
   id="SVGID_15_"
   inkscape:connector-curvature="0" />
<path
   d="M 43.5,13.7 C 40.3,9.7 37,5.4 34.4,0.9 33.7,-0.3 31.7,-0.3 31,0.9 28.3,5.4 25,9.6 21.8,13.7 15.3,22 9.2,29.8 9.2,39.1 9.2,52 19.7,62.6 32.7,62.6 45.7,62.6 56.1,52 56.1,39.1 56.1,29.8 50,22 43.5,13.7 Z"
   id="SVGID_18_"
   inkscape:connector-curvature="0" />
<path
   d="m 49.5,48 c -1.3,0 -2.4,1.1 -2.4,2.4 0,4 -3.3,7.3 -7.3,7.3 -4,0 -7.3,-3.3 -7.3,-7.3 V 21.7 c 0,-4 3.3,-7.3 7.3,-7.3 4,0 7.3,3.3 7.3,7.3 0,1.3 1.1,2.4 2.4,2.4 1.3,0 2.4,-1.1 2.4,-2.4 C 51.9,15 46.4,9.5 39.7,9.5 33,9.5 27.6,15 27.6,21.7 v 28.7 c 0,6.7 5.5,12.2 12.2,12.2 C 46.5,62.6 52,57.1 52,50.4 51.9,49.1 50.8,48 49.5,48 Z"
   id="SVGID_21_"
   inkscape:connector-curvature="0" />
<path
   d="m 20.1,0.3 c -3.7,0 -6.7,3 -6.7,6.7 0,3.7 3,6.7 6.7,6.7 3.7,0 6.7,-3 6.7,-6.7 0,-3.7 -3,-6.7 -6.7,-6.7 z m 0,8.5 c -1,0 -1.8,-0.8 -1.8,-1.8 0,-1 0.8,-1.8 1.8,-1.8 1,0 1.9,0.8 1.9,1.8 0,1 -0.9,1.8 -1.9,1.8 z"
   id="SVGID_25_"
   inkscape:connector-curvature="0" />

		
		
	</defs>
  <sodipodi:namedview
     id="base"
     pagecolor="#ffffff"
     bordercolor="#666666"
     borderopacity="1.0"
     inkscape:pageopacity="0.0"
     inkscape:pageshadow="2"
     inkscape:zoom="1.87"
     inkscape:cx="39.655332"
     inkscape:cy="-95.853283"
     inkscape:document-units="mm"
     inkscape:current-layer="Layer_5"
     showgrid="false"
     fit-margin-top="0"
     fit-margin-left="0"
     fit-margin-right="0"
     fit-margin-bottom="0"
     inkscape:window-width="1920"
     inkscape:window-height="1186"
     inkscape:window-x="-11"
     inkscape:window-y="-11"
     inkscape:window-maximized="1" />
  <metadata
     id="metadata8896">
    <rdf:RDF>
      <cc:Work
         rdf:about="">
        <dc:format>image/svg+xml</dc:format>
        <dc:type
           rdf:resource="http://purl.org/dc/dcmitype/StillImage" />
        <dc:title></dc:title>
      </cc:Work>
    </rdf:RDF>
  </metadata>
  <g
     inkscape:label="Layer 1"
     inkscape:groupmode="layer"
     id="layer1"
     transform="translate(-76.028025,-55.885209)">
    <g
       id="Layer_2"
       transform="matrix(0.26458333,0,0,0.26458333,76.028025,55.885209)">
	<linearGradient
   id="SVGID_1_"
   gradientUnits="userSpaceOnUse"
   x1="-1.818989e-012"
   y1="31.303499"
   x2="65.343498"
   y2="31.303499">
		<stop
   offset="0"
   style="stop-color:#F0512E"
   id="stop10245" />

		<stop
   offset="0.2764"
   style="stop-color:#F05230"
   id="stop10247" />

		<stop
   offset="0.5125"
   style="stop-color:#F15736"
   id="stop10249" />

		<stop
   offset="0.7338"
   style="stop-color:#F15F42"
   id="stop10251" />

		<stop
   offset="0.9449"
   style="stop-color:#F26A52"
   id="stop10253" />

		<stop
   offset="0.9988"
   style="stop-color:#F26D57"
   id="stop10255" />

	</linearGradient>

	<rect
   style="opacity:0;fill:url(#SVGID_1_)"
   y="0"
   x="0"
   class="st0"
   width="65.300003"
   height="62.599998"
   id="rect10258" />

</g>
    <g
       style="display:none"
       id="Layer_1"
       class="st1"
       transform="matrix(0.26458333,0,0,0.26458333,76.028025,55.885209)">
	<g
   style="display:inline"
   class="st2"
   id="g10307">
		<g
   id="g10282">
			<defs
   id="defs10262">
				<path
   inkscape:connector-curvature="0"
   id="path10709"
   d="m 1,16.6 20.7,11.7 c 1.3,0.8 2,1.1 3.7,1 0.3,0 31.9,-4.9 31.9,-4.9 2.5,-0.4 4.7,-1.8 6.2,-4.1 1.4,-2.2 2,-5 1.6,-7.8 C 64.9,9.7 63.6,7 61.6,5 V 5 C 59.6,2.9 57,1.7 54.4,1.6 54.4,1.6 21.9,0 21.6,0 20.1,0.1 17.3,2.1 17.2,2.2 L 4.5,12.6 m 10.3,2.5 c 0.2,1.5 0.5,2.9 0.9,4.3 l -6.9,-4 5.8,-4.8 c -0.1,1.4 0,3 0.2,4.5 z m 10.4,9.4 c 0,0 -0.9,0.4 -2.4,-1.1 -1.5,-1.6 -3,-4.8 -3.5,-8.6 -0.7,-5.5 0.9,-9.9 2.9,-10.1 h 0.4 c 2,0.4 4.5,4.4 5.3,9.7 0.6,5.3 -0.9,9.6 -2.7,10.1 z m 14.3,-2.2 -7.9,1.2 c 0.9,-2.6 1.1,-5.9 0.7,-9.3 -0.4,-3.4 -1.6,-6.6 -3.1,-9.1 l 8.1,0.4 c 1.2,2.2 2.2,5.2 2.6,8.4 0.3,3.1 0.2,6.2 -0.4,8.4 z m 12.1,-1.8 -7.2,1.1 c 0.2,-2.4 0.2,-5.1 -0.2,-7.9 -0.4,-2.9 -1.1,-5.6 -2,-7.9 l 7.4,0.4 c 1.2,1.8 2.1,4.4 2.4,7.1 0.4,2.6 0.3,5.3 -0.4,7.2 z m 9.2,-7.7 c 0.5,3.4 -1.4,6.3 -4.2,6.9 0.2,-2.1 0.2,-4.4 -0.1,-6.7 -0.3,-2.3 -0.9,-4.6 -1.7,-6.6 3,0.3 5.6,3 6,6.4 z" />

			</defs>

			<clipPath
   id="SVGID_3_">
				<use
   height="100%"
   width="100%"
   y="0"
   x="0"
   xlink:href="#SVGID_2_"
   style="overflow:visible"
   id="use10264" />

			</clipPath>

			<linearGradient
   id="SVGID_4_"
   gradientUnits="userSpaceOnUse"
   x1="24.671499"
   y1="45.2052"
   x2="43.783199"
   y2="10.8088">
				<stop
   offset="0"
   style="stop-color:#F0512E"
   id="stop10267" />

				<stop
   offset="0.2764"
   style="stop-color:#F05230"
   id="stop10269" />

				<stop
   offset="0.5125"
   style="stop-color:#F15736"
   id="stop10271" />

				<stop
   offset="0.7338"
   style="stop-color:#F15F42"
   id="stop10273" />

				<stop
   offset="0.9449"
   style="stop-color:#F26A52"
   id="stop10275" />

				<stop
   offset="0.9988"
   style="stop-color:#F26D57"
   id="stop10277" />

			</linearGradient>

			<rect
   style="fill:url(#SVGID_4_)"
   x="-1"
   y="-0.40000001"
   class="st3"
   width="67"
   height="63"
   clip-path="url(#SVGID_3_)"
   id="rect10280" />

		</g>

		<g
   id="g10305">
			<defs
   id="defs10285">
				<path
   inkscape:connector-curvature="0"
   id="path10723"
   d="M 4.3,11.3 V 7 C 4.3,5.7 3.3,4.6 2.1,4.6 1,4.6 0,5.7 0,7 v 53.2 c 0,1.3 1,2.4 2.2,2.4 1.2,0 2.2,-1.1 2.2,-2.4 V 20.7" />

			</defs>

			<clipPath
   id="SVGID_6_">
				<use
   height="100%"
   width="100%"
   y="0"
   x="0"
   xlink:href="#SVGID_5_"
   style="overflow:visible"
   id="use10287" />

			</clipPath>

			<linearGradient
   id="SVGID_7_"
   gradientUnits="userSpaceOnUse"
   x1="25.671499"
   y1="45.2052"
   x2="44.783199"
   y2="10.8088">
				<stop
   offset="0"
   style="stop-color:#F0512E"
   id="stop10290" />

				<stop
   offset="0.2764"
   style="stop-color:#F05230"
   id="stop10292" />

				<stop
   offset="0.5125"
   style="stop-color:#F15736"
   id="stop10294" />

				<stop
   offset="0.7338"
   style="stop-color:#F15F42"
   id="stop10296" />

				<stop
   offset="0.9449"
   style="stop-color:#F26A52"
   id="stop10298" />

				<stop
   offset="0.9988"
   style="stop-color:#F26D57"
   id="stop10300" />

			</linearGradient>

			<rect
   style="fill:url(#SVGID_7_)"
   x="0"
   y="-0.40000001"
   class="st4"
   width="67"
   height="63"
   clip-path="url(#SVGID_6_)"
   id="rect10303" />

		</g>

	</g>

</g>
    <g
       style="display:none"
       id="Layer_3"
       class="st1"
       transform="matrix(0.26458333,0,0,0.26458333,76.028025,55.885209)">
	<g
   style="display:inline"
   class="st2"
   id="g10342">
		<defs
   id="defs10311">
			<path
   inkscape:connector-curvature="0"
   id="path10739"
   d="M 57.6,33.2 C 56.9,30.4 55.3,28.1 53.1,26.7 53.1,26.7 25.8,9.1 25.5,8.9 24.1,8.2 20.7,8.6 20.5,8.6 L 4.3,11.3 V 7 C 4.3,5.7 3.3,4.6 2.1,4.6 1,4.6 0,5.7 0,7 v 53.2 c 0,1.3 1,2.4 2.2,2.4 1.2,0 2.2,-1.1 2.2,-2.4 V 20.7 l 7.1,12.7 c 0.8,1.3 1.1,2 2.7,2.8 0.3,0.2 30.1,11.8 30.1,11.8 2.4,0.9 5,0.8 7.4,-0.4 2.3,-1.2 4.2,-3.3 5.3,-6 1.1,-2.6 1.3,-5.6 0.6,-8.4 z M 12,18.6 c -0.6,1.4 -1,2.8 -1.3,4.2 l -4,-6.9 7.4,-1.3 c -0.8,1.2 -1.5,2.6 -2.1,4 z M 16.3,32 c 0,0 -1,-0.1 -1.6,-2.1 -0.5,-2.2 -0.2,-5.7 1.2,-9.2 2.1,-5.2 5.8,-8.1 7.6,-7.3 l 0.4,0.2 c 1.5,1.3 1.7,6.1 -0.3,11 -2,4.8 -5.4,7.8 -7.3,7.4 z m 13.5,5.2 -7.5,-2.9 c 2.1,-1.9 3.9,-4.6 5.2,-7.8 1.3,-3.2 2,-6.5 1.9,-9.5 l 6.8,4.4 c 0,2.5 -0.7,5.6 -2,8.6 -1.1,3 -2.7,5.6 -4.4,7.2 z M 41.2,41.7 34.5,39 c 1.4,-2 2.7,-4.3 3.8,-6.9 1.1,-2.7 1.9,-5.4 2.3,-7.9 l 6.2,4 c 0.1,2.2 -0.4,4.9 -1.5,7.4 -1.1,2.5 -2.6,4.7 -4.1,6.1 z M 53,39.6 c -1.3,3.1 -4.4,4.8 -7.1,3.9 1.3,-1.7 2.4,-3.7 3.3,-5.9 0.9,-2.2 1.5,-4.4 1.9,-6.6 2.4,1.8 3.2,5.5 1.9,8.6 z" />

		</defs>

		<linearGradient
   id="SVGID_9_"
   gradientUnits="userSpaceOnUse"
   x1="14.7731"
   y1="48.751801"
   x2="27.531401"
   y2="25.7901">
			<stop
   offset="0"
   style="stop-color:#EEBF39"
   id="stop10313" />

			<stop
   offset="0.3391"
   style="stop-color:#EFC03C"
   id="stop10315" />

			<stop
   offset="0.6287"
   style="stop-color:#F3C646"
   id="stop10317" />

			<stop
   offset="0.8993"
   style="stop-color:#F9D158"
   id="stop10319" />

			<stop
   offset="0.9976"
   style="stop-color:#FCD660"
   id="stop10321" />

		</linearGradient>

		<use
   height="100%"
   width="100%"
   y="0"
   x="0"
   xlink:href="#SVGID_8_"
   style="overflow:visible;fill:url(#SVGID_9_)"
   id="use10324" />

		<clipPath
   id="SVGID_10_">
			<use
   height="100%"
   width="100%"
   y="0"
   x="0"
   xlink:href="#SVGID_8_"
   style="overflow:visible"
   id="use10326" />

		</clipPath>

		<linearGradient
   id="SVGID_11_"
   gradientUnits="userSpaceOnUse"
   x1="24.9879"
   y1="40.836498"
   x2="42.1926"
   y2="9.8722">
			<stop
   offset="0"
   style="stop-color:#EEBF39"
   id="stop10329" />

			<stop
   offset="0.3391"
   style="stop-color:#EFC03C"
   id="stop10331" />

			<stop
   offset="0.6287"
   style="stop-color:#F3C646"
   id="stop10333" />

			<stop
   offset="0.8993"
   style="stop-color:#F9D158"
   id="stop10335" />

			<stop
   offset="0.9976"
   style="stop-color:#FCD660"
   id="stop10337" />

		</linearGradient>

		<rect
   style="fill:url(#SVGID_11_)"
   x="0"
   y="4.5999999"
   class="st5"
   width="58"
   height="58"
   clip-path="url(#SVGID_10_)"
   id="rect10340" />

	</g>

</g>
    <g
       style="display:none"
       id="Layer_4"
       class="st1"
       transform="matrix(0.26458333,0,0,0.26458333,76.028025,55.885209)">
	<g
   style="display:inline"
   class="st2"
   id="g10391">
		<g
   id="g10366">
			<defs
   id="defs10346">
				<path
   inkscape:connector-curvature="0"
   id="path10760"
   d="m 0.1,16 0.5,12.7 c 0.1,1.3 0.1,2 1,3.2 0.2,0.3 18.7,21.1 18.7,21.1 1.5,1.7 3.6,2.6 5.9,2.6 2.3,0 4.6,-0.9 6.5,-2.5 1.9,-1.6 3.3,-3.8 3.8,-6.3 v 0 C 37,44.3 36.7,41.9 35.6,39.9 35.6,39.9 21.4,15.4 21.2,15.1 20.4,14 17.6,12.9 17.5,12.9 L 3.9,8.7 M 7,17.4 c -1,0.8 -1.9,1.8 -2.7,2.7 l -0.3,-7 6.3,2 C 9.1,15.8 8,16.5 7,17.4 Z M 5,29.5 C 5,29.5 4.3,29 4.6,27.2 5,25.3 6.7,22.7 9.2,20.5 c 3.7,-3.2 7.7,-4 8.8,-2.7 l 0.2,0.3 c 0.6,1.6 -1.1,5.4 -4.6,8.4 -3.5,3.1 -7.3,4 -8.6,3 z m 8.4,9.4 -4.6,-5.2 c 2.3,-0.6 4.9,-2 7.1,-3.9 2.2,-1.9 4.1,-4.3 5.2,-6.6 l 3.5,6.1 c -1,1.9 -2.8,4.1 -4.9,5.9 -2.1,1.7 -4.4,3.1 -6.3,3.7 z m 7.1,8 -4.2,-4.7 c 1.9,-1 3.8,-2.3 5.7,-3.9 1.9,-1.7 3.6,-3.4 4.9,-5.2 l 3.2,5.6 c -0.8,1.7 -2.2,3.6 -4.1,5.1 -1.8,1.6 -3.8,2.7 -5.5,3.1 z m 10,3.1 c -2.2,1.9 -5.3,2 -7,0.2 1.6,-0.8 3.3,-1.9 4.9,-3.3 1.6,-1.4 2.9,-2.8 4.1,-4.4 1,2.4 0.2,5.6 -2,7.5 z" />

			</defs>

			<clipPath
   id="SVGID_13_">
				<use
   height="100%"
   width="100%"
   y="0"
   x="0"
   xlink:href="#SVGID_12_"
   style="overflow:visible"
   id="use10348" />

			</clipPath>

			
				<linearGradient
   id="SVGID_14_"
   gradientUnits="userSpaceOnUse"
   x1="-20.613701"
   y1="84.8237"
   x2="-3.2183001"
   y2="53.5163"
   gradientTransform="matrix(0.9982,-0.06078641,0.06078641,0.9982,37.3544,-40.0479)">
				<stop
   offset="0"
   style="stop-color:#5ABC73"
   id="stop10351" />

				<stop
   offset="0.2654"
   style="stop-color:#5EBD74"
   id="stop10353" />

				<stop
   offset="0.4921"
   style="stop-color:#6BC178"
   id="stop10355" />

				<stop
   offset="0.7047"
   style="stop-color:#7FC67D"
   id="stop10357" />

				<stop
   offset="0.9074"
   style="stop-color:#98CE84"
   id="stop10359" />

				<stop
   offset="0.9976"
   style="stop-color:#A5D288"
   id="stop10361" />

			</linearGradient>

			<polyline
   style="fill:url(#SVGID_14_)"
   class="st6"
   points="-2.6,5.8 0.9,63.7 58.8,60.2 55.2,1.3    "
   clip-path="url(#SVGID_13_)"
   id="polyline10364" />

		</g>

		<g
   id="g10389">
			<defs
   id="defs10369">
				<path
   inkscape:connector-curvature="0"
   id="path10774"
   d="M 4.3,11.3 V 7 C 4.3,5.7 3.3,4.6 2.1,4.6 1,4.6 0,5.7 0,7 v 53.2 c 0,1.3 1,2.4 2.2,2.4 1.2,0 2.2,-1.1 2.2,-2.4 V 20.7" />

			</defs>

			<clipPath
   id="SVGID_16_">
				<use
   height="100%"
   width="100%"
   y="0"
   x="0"
   xlink:href="#SVGID_15_"
   style="overflow:visible"
   id="use10371" />

			</clipPath>

			<linearGradient
   id="SVGID_17_"
   gradientUnits="userSpaceOnUse"
   x1="22.0868"
   y1="46.057899"
   x2="39.482201"
   y2="14.7504">
				<stop
   offset="0"
   style="stop-color:#5ABC73"
   id="stop10374" />

				<stop
   offset="0.2654"
   style="stop-color:#5EBD74"
   id="stop10376" />

				<stop
   offset="0.4921"
   style="stop-color:#6BC178"
   id="stop10378" />

				<stop
   offset="0.7047"
   style="stop-color:#7FC67D"
   id="stop10380" />

				<stop
   offset="0.9074"
   style="stop-color:#98CE84"
   id="stop10382" />

				<stop
   offset="0.9976"
   style="stop-color:#A5D288"
   id="stop10384" />

			</linearGradient>

			<polyline
   style="fill:url(#SVGID_17_)"
   class="st7"
   points="0,4.6 0,62.6 58,62.6 58,3.6    "
   clip-path="url(#SVGID_16_)"
   id="polyline10387" />

		</g>

	</g>

</g>
    <g
       id="Layer_5"
       transform="matrix(0.26458333,0,0,0.26458333,76.028025,55.885209)">
	<g
   id="g10415"
   style="fill:#00ccff">
			<defs
   id="defs10395">
				<path
   d="M 43.5,13.7 C 40.3,9.7 37,5.4 34.4,0.9 33.7,-0.3 31.7,-0.3 31,0.9 28.3,5.4 25,9.6 21.8,13.7 15.3,22 9.2,29.8 9.2,39.1 9.2,52 19.7,62.6 32.7,62.6 45.7,62.6 56.1,52 56.1,39.1 56.1,29.8 50,22 43.5,13.7 Z"
   id="path10790"
   inkscape:connector-curvature="0" />

			</defs>

			<clipPath
   id="SVGID_19_">
				<use
   id="use10397"
   style="overflow:visible"
   xlink:href="#SVGID_18_"
   x="0"
   y="0"
   width="100%"
   height="100%" />

			</clipPath>

			<linearGradient
   y2="13.3864"
   x2="42.379398"
   y1="44.637501"
   x1="25.015301"
   gradientUnits="userSpaceOnUse"
   id="SVGID_20_">
				<stop
   id="stop10400"
   style="stop-color:#5ABC73"
   offset="0" />

				<stop
   id="stop10402"
   style="stop-color:#5EBD74"
   offset="0.2654" />

				<stop
   id="stop10404"
   style="stop-color:#6BC178"
   offset="0.4921" />

				<stop
   id="stop10406"
   style="stop-color:#7FC67D"
   offset="0.7047" />

				<stop
   id="stop10408"
   style="stop-color:#98CE84"
   offset="0.9074" />

				<stop
   id="stop10410"
   style="stop-color:#A5D288"
   offset="0.9976" />

			</linearGradient>

			<rect
   id="rect10413"
   clip-path="url(#SVGID_19_)"
   height="63.599998"
   width="49.400002"
   class="st8"
   y="0"
   x="7.4000001"
   style="fill:#00ccff" />

		</g>

<g
   transform="translate(0.53821953,-1.4218552)"
   id="g10423">
  <path
     id="path10417"
     d="m 26.8,34.1 c -3.2,0 -5.9,-2.6 -5.9,-5.9 0,-3.3 2.6,-5.9 5.9,-5.9 3.3,0 5.9,2.6 5.9,5.9 0,3.3 -2.7,5.9 -5.9,5.9 z m 0,-7.9 c -1.1,0 -2,0.9 -2,2 0,1.1 0.9,2 2,2 1.1,0 2,-0.9 2,-2 0,-1.1 -0.9,-2 -2,-2 z"
     class="st9"
     inkscape:connector-curvature="0"
     style="fill:#ffffff" />
  <path
     id="path10419"
     d="m 38.5,53.6 c -3.2,0 -5.9,-2.6 -5.9,-5.9 0,-3.3 2.6,-5.9 5.9,-5.9 3.2,0 5.9,2.6 5.9,5.9 0,3.3 -2.6,5.9 -5.9,5.9 z m 0,-7.8 c -1.1,0 -2,0.9 -2,2 0,1.1 0.9,2 2,2 1.1,0 2,-0.9 2,-2 0,-1.1 -0.9,-2 -2,-2 z"
     class="st9"
     inkscape:connector-curvature="0"
     style="fill:#ffffff" />
  <path
     id="path10421"
     d="m 22.9,49.7 c -0.5,0 -1,-0.2 -1.4,-0.6 -0.8,-0.8 -0.8,-2 0,-2.8 L 41.1,26.7 c 0.8,-0.8 2,-0.8 2.8,0 0.8,0.8 0.8,2 0,2.8 L 24.3,49.1 c -0.4,0.4 -0.9,0.6 -1.4,0.6 z"
     class="st9"
     inkscape:connector-curvature="0"
     style="fill:#ffffff" />
</g>
</g>
    <g
       style="display:none"
       id="Layer_6"
       class="st1"
       transform="matrix(0.26458333,0,0,0.26458333,76.028025,55.885209)">
	<g
   style="display:inline"
   class="st2"
   id="g10504">
		<g
   id="g10464">
			<defs
   id="defs10429">
				<path
   inkscape:connector-curvature="0"
   id="path10810"
   d="m 49.5,48 c -1.3,0 -2.4,1.1 -2.4,2.4 0,4 -3.3,7.3 -7.3,7.3 -4,0 -7.3,-3.3 -7.3,-7.3 V 21.7 c 0,-4 3.3,-7.3 7.3,-7.3 4,0 7.3,3.3 7.3,7.3 0,1.3 1.1,2.4 2.4,2.4 1.3,0 2.4,-1.1 2.4,-2.4 C 51.9,15 46.4,9.5 39.7,9.5 33,9.5 27.6,15 27.6,21.7 v 28.7 c 0,6.7 5.5,12.2 12.2,12.2 C 46.5,62.6 52,57.1 52,50.4 51.9,49.1 50.8,48 49.5,48 Z" />

			</defs>

			<linearGradient
   id="SVGID_22_"
   gradientUnits="userSpaceOnUse"
   x1="27.560301"
   y1="36.076302"
   x2="51.900501"
   y2="36.076302">
				<stop
   offset="0"
   style="stop-color:#5ABC73"
   id="stop10431" />

				<stop
   offset="0.2654"
   style="stop-color:#5EBD74"
   id="stop10433" />

				<stop
   offset="0.4921"
   style="stop-color:#6BC178"
   id="stop10435" />

				<stop
   offset="0.7047"
   style="stop-color:#7FC67D"
   id="stop10437" />

				<stop
   offset="0.9074"
   style="stop-color:#98CE84"
   id="stop10439" />

				<stop
   offset="0.9976"
   style="stop-color:#A5D288"
   id="stop10441" />

			</linearGradient>

			<use
   height="100%"
   width="100%"
   y="0"
   x="0"
   xlink:href="#SVGID_21_"
   style="overflow:visible;fill:url(#SVGID_22_)"
   id="use10444" />

			<clipPath
   id="SVGID_23_">
				<use
   height="100%"
   width="100%"
   y="0"
   x="0"
   xlink:href="#SVGID_21_"
   style="overflow:visible"
   id="use10446" />

			</clipPath>

			<linearGradient
   id="SVGID_24_"
   gradientUnits="userSpaceOnUse"
   x1="27.498199"
   y1="45.7817"
   x2="45.7444"
   y2="12.943">
				<stop
   offset="0"
   style="stop-color:#5ABC73"
   id="stop10449" />

				<stop
   offset="0.2654"
   style="stop-color:#5EBD74"
   id="stop10451" />

				<stop
   offset="0.4921"
   style="stop-color:#6BC178"
   id="stop10453" />

				<stop
   offset="0.7047"
   style="stop-color:#7FC67D"
   id="stop10455" />

				<stop
   offset="0.9074"
   style="stop-color:#98CE84"
   id="stop10457" />

				<stop
   offset="0.9976"
   style="stop-color:#A5D288"
   id="stop10459" />

			</linearGradient>

			<rect
   style="fill:url(#SVGID_24_)"
   x="15"
   y="-4.4000001"
   class="st10"
   width="39.900002"
   height="73.5"
   clip-path="url(#SVGID_23_)"
   id="rect10462" />

		</g>

		<g
   id="g10502">
			<defs
   id="defs10467">
				<path
   inkscape:connector-curvature="0"
   id="path10832"
   d="m 20.1,0.3 c -3.7,0 -6.7,3 -6.7,6.7 0,3.7 3,6.7 6.7,6.7 3.7,0 6.7,-3 6.7,-6.7 0,-3.7 -3,-6.7 -6.7,-6.7 z m 0,8.5 c -1,0 -1.8,-0.8 -1.8,-1.8 0,-1 0.8,-1.8 1.8,-1.8 1,0 1.9,0.8 1.9,1.8 0,1 -0.9,1.8 -1.9,1.8 z" />

			</defs>

			<linearGradient
   id="SVGID_26_"
   gradientUnits="userSpaceOnUse"
   x1="13.443"
   y1="6.9896998"
   x2="26.830099"
   y2="6.9896998">
				<stop
   offset="0"
   style="stop-color:#5ABC73"
   id="stop10469" />

				<stop
   offset="0.2654"
   style="stop-color:#5EBD74"
   id="stop10471" />

				<stop
   offset="0.4921"
   style="stop-color:#6BC178"
   id="stop10473" />

				<stop
   offset="0.7047"
   style="stop-color:#7FC67D"
   id="stop10475" />

				<stop
   offset="0.9074"
   style="stop-color:#98CE84"
   id="stop10477" />

				<stop
   offset="0.9976"
   style="stop-color:#A5D288"
   id="stop10479" />

			</linearGradient>

			<use
   height="100%"
   width="100%"
   y="0"
   x="0"
   xlink:href="#SVGID_25_"
   style="overflow:visible;fill:url(#SVGID_26_)"
   id="use10482" />

			<clipPath
   id="SVGID_27_">
				<use
   height="100%"
   width="100%"
   y="0"
   x="0"
   xlink:href="#SVGID_25_"
   style="overflow:visible"
   id="use10484" />

			</clipPath>

			<linearGradient
   id="SVGID_28_"
   gradientUnits="userSpaceOnUse"
   x1="21.107401"
   y1="45.741798"
   x2="39.3535"
   y2="12.9031">
				<stop
   offset="0"
   style="stop-color:#5ABC73"
   id="stop10487" />

				<stop
   offset="0.2654"
   style="stop-color:#5EBD74"
   id="stop10489" />

				<stop
   offset="0.4921"
   style="stop-color:#6BC178"
   id="stop10491" />

				<stop
   offset="0.7047"
   style="stop-color:#7FC67D"
   id="stop10493" />

				<stop
   offset="0.9074"
   style="stop-color:#98CE84"
   id="stop10495" />

				<stop
   offset="0.9976"
   style="stop-color:#A5D288"
   id="stop10497" />

			</linearGradient>

			<rect
   style="fill:url(#SVGID_28_)"
   x="8.6000004"
   y="-4.5"
   class="st11"
   width="39.900002"
   height="73.5"
   clip-path="url(#SVGID_27_)"
   id="rect10500" />

		</g>

	</g>

</g>
    <g
       style="display:none"
       id="Layer_7"
       class="st1"
       transform="matrix(0.26458333,0,0,0.26458333,76.028025,55.885209)">
	<path
   style="display:inline;fill:#5cc5f1"
   inkscape:connector-curvature="0"
   class="st12"
   d="M 36.7,57 H 52.4 V 6 H 37.2 C 23,6 11.5,17.5 11.5,31.7 v 0 c 0,14 11.3,25.3 25.2,25.3 z"
   id="path10507" />

	<g
   style="display:inline"
   class="st2"
   id="g10511">
		<polygon
   style="fill:none;stroke:#222d3a;stroke-width:2;stroke-linecap:round;stroke-linejoin:round;stroke-miterlimit:10"
   class="st13"
   points="42.8,30.2 36.5,30.2 43.5,17 32.8,17 28.5,32.5 32.8,32.5 29.1,45.6 "
   id="polygon10509" />

	</g>

</g>
    <g
       style="display:none"
       id="Layer_8"
       class="st1"
       transform="matrix(0.26458333,0,0,0.26458333,76.028025,55.885209)">
	<path
   style="display:inline;fill:#5cc5f1"
   inkscape:connector-curvature="0"
   class="st12"
   d="M 36.7,57 H 52.4 V 6 H 37.2 C 23,6 11.5,17.5 11.5,31.7 v 0 c 0,14 11.3,25.3 25.2,25.3 z"
   id="path10514" />

	<g
   style="display:inline"
   class="st2"
   id="g10530">
		<circle
   style="fill:none;stroke:#222d3a;stroke-width:2;stroke-linecap:round;stroke-linejoin:round;stroke-miterlimit:10"
   class="st13"
   cx="23.9"
   cy="21"
   r="3"
   id="circle10516" />

		<circle
   style="fill:none;stroke:#222d3a;stroke-width:2;stroke-linecap:round;stroke-linejoin:round;stroke-miterlimit:10"
   class="st13"
   cx="29.9"
   cy="39.200001"
   r="3"
   id="circle10518" />

		<circle
   style="fill:none;stroke:#222d3a;stroke-width:2;stroke-linecap:round;stroke-linejoin:round;stroke-miterlimit:10"
   class="st13"
   cx="39"
   cy="30.1"
   r="3"
   id="circle10520" />

		<path
   style="fill:none;stroke:#222d3a;stroke-width:2;stroke-linecap:round;stroke-linejoin:round;stroke-miterlimit:10"
   inkscape:connector-curvature="0"
   class="st13"
   d="m 27.7,21 h 15.2 c 0,0 5.3,0 5.3,4.5 0,4.5 -4.5,4.5 -5.3,4.5"
   id="path10522" />

		<path
   style="fill:none;stroke:#222d3a;stroke-width:2;stroke-linecap:round;stroke-linejoin:round;stroke-miterlimit:10"
   inkscape:connector-curvature="0"
   class="st13"
   d="m 35.2,30.1 h -9.8 c 0,0 -4.5,0 -4.5,4.5 0,4.5 5.3,3.9 5.3,3.9"
   id="path10524" />

		<polyline
   style="fill:none;stroke:#222d3a;stroke-width:2;stroke-linecap:round;stroke-linejoin:round;stroke-miterlimit:10"
   class="st13"
   points="33.7,39.2 47.4,39.2 43.6,35.4   "
   id="polyline10526" />

		<line
   style="fill:none;stroke:#222d3a;stroke-width:2;stroke-linecap:round;stroke-linejoin:round;stroke-miterlimit:10"
   class="st13"
   x1="47.400002"
   y1="39.200001"
   x2="43.599998"
   y2="43"
   id="line10528" />

	</g>

</g>
    <g
       style="display:none"
       id="Layer_9"
       class="st1"
       transform="matrix(0.26458333,0,0,0.26458333,76.028025,55.885209)">
	<path
   style="display:inline;fill:#5cc5f1"
   inkscape:connector-curvature="0"
   class="st12"
   d="M 36.7,57 H 52.4 V 6 H 37.2 C 23,6 11.5,17.5 11.5,31.7 v 0 c 0,14 11.3,25.3 25.2,25.3 z"
   id="path10533" />

	<g
   style="display:inline"
   class="st2"
   id="g10551">
		<line
   style="fill:none;stroke:#222d3a;stroke-width:2;stroke-linecap:round;stroke-linejoin:round;stroke-miterlimit:10"
   class="st13"
   x1="33.5"
   y1="40"
   x2="40.5"
   y2="40"
   id="line10535" />

		<path
   style="fill:none;stroke:#222d3a;stroke-width:2;stroke-linecap:round;stroke-linejoin:round;stroke-miterlimit:10"
   inkscape:connector-curvature="0"
   class="st13"
   d="m 42.5,36 h 3.9 c 1.1,0 2.1,0.9 2.1,2.1 V 42 c 0,1.1 -0.9,2.1 -2.1,2.1 h -3.9 c -1.1,0 -2.1,-0.9 -2.1,-2.1 v -3.9 c 0.1,-1.2 1,-2.1 2.1,-2.1 z"
   id="path10537" />

		<g
   id="g10549">
			<line
   style="fill:none;stroke:#222d3a;stroke-width:2;stroke-linecap:round;stroke-linejoin:round;stroke-miterlimit:10"
   class="st13"
   x1="33.5"
   y1="16"
   x2="33.5"
   y2="47"
   id="line10539" />

			<line
   style="fill:none;stroke:#222d3a;stroke-width:2;stroke-linecap:round;stroke-linejoin:round;stroke-miterlimit:10"
   class="st13"
   x1="26.5"
   y1="31"
   x2="33.5"
   y2="31"
   id="line10541" />

			<line
   style="fill:none;stroke:#222d3a;stroke-width:2;stroke-linecap:round;stroke-linejoin:round;stroke-miterlimit:10"
   class="st13"
   x1="33.5"
   y1="23"
   x2="40.5"
   y2="23"
   id="line10543" />

			<path
   style="fill:none;stroke:#222d3a;stroke-width:2;stroke-linecap:round;stroke-linejoin:round;stroke-miterlimit:10"
   inkscape:connector-curvature="0"
   class="st13"
   d="m 42.5,19 h 3.9 c 1.1,0 2.1,0.9 2.1,2.1 V 25 c 0,1.1 -0.9,2.1 -2.1,2.1 h -3.9 c -1.1,0 -2.1,-0.9 -2.1,-2.1 v -3.9 c 0.1,-1.2 1,-2.1 2.1,-2.1 z"
   id="path10545" />

			<path
   style="fill:none;stroke:#222d3a;stroke-width:2;stroke-linecap:round;stroke-linejoin:round;stroke-miterlimit:10"
   inkscape:connector-curvature="0"
   class="st13"
   d="m 20.5,27 h 3.9 c 1.1,0 2.1,0.9 2.1,2.1 V 33 c 0,1.1 -0.9,2.1 -2.1,2.1 h -3.9 c -1.1,0 -2.1,-0.9 -2.1,-2.1 v -3.9 c 0.1,-1.2 1,-2.1 2.1,-2.1 z"
   id="path10547" />

		</g>

	</g>

</g>
    <g
       style="display:none"
       id="Layer_10"
       class="st1"
       transform="matrix(0.26458333,0,0,0.26458333,76.028025,55.885209)">
	<path
   style="display:inline;fill:#5cc5f1"
   inkscape:connector-curvature="0"
   class="st12"
   d="M 36.7,57 H 52.4 V 6 H 37.2 C 23,6 11.5,17.5 11.5,31.7 v 0 c 0,14 11.3,25.3 25.2,25.3 z"
   id="path10554" />

	<g
   style="display:inline"
   class="st2"
   id="g10568">
		<g
   id="g10566">
			<path
   style="fill:#222d3a"
   inkscape:connector-curvature="0"
   class="st14"
   d="m 40.7,23 2.4,-2.4 c 0.3,-0.3 0.3,-0.7 0,-1.1 -0.3,-0.3 -0.8,-0.3 -1.1,0 l -2.3,2.4 c -0.3,0.3 -0.3,0.7 0,1.1 0.3,0.3 0.7,0.3 1,0 z"
   id="path10556" />

			<path
   style="fill:#222d3a"
   inkscape:connector-curvature="0"
   class="st14"
   d="m 34.4,20.9 c 0.4,0 0.8,-0.3 0.8,-0.8 v -3.3 c 0,-0.4 -0.3,-0.8 -0.8,-0.8 -0.5,0 -0.8,0.3 -0.8,0.8 v 3.3 c 0.1,0.4 0.4,0.8 0.8,0.8 z"
   id="path10558" />

			<path
   style="fill:#222d3a"
   inkscape:connector-curvature="0"
   class="st14"
   d="m 28.2,23 c 0.3,0.3 0.8,0.3 1.1,0 0.3,-0.3 0.3,-0.8 0,-1.1 l -2.4,-2.4 c -0.3,-0.3 -0.8,-0.3 -1.1,0 -0.3,0.3 -0.3,0.8 0,1.1 z"
   id="path10560" />

			<path
   style="fill:#222d3a"
   inkscape:connector-curvature="0"
   class="st14"
   d="m 23,29 h 3.3 c 0.4,0 0.8,-0.3 0.8,-0.8 0,-0.4 -0.3,-0.8 -0.8,-0.8 H 23 c -0.4,0 -0.8,0.4 -0.8,0.8 0,0.4 0.4,0.8 0.8,0.8 z"
   id="path10562" />

			<path
   style="fill:#222d3a"
   inkscape:connector-curvature="0"
   class="st14"
   d="M 49.6,34.2 C 49,33.2 48.3,32.3 47.3,31.7 47.1,29.9 46.4,28.4 45.2,27.2 43.8,25.7 42,24.9 40,24.9 h -0.6 c -0.5,-0.8 -1.3,-1.4 -2.1,-1.9 -0.9,-0.5 -1.8,-0.7 -2.8,-0.7 -1.6,0 -3,0.6 -4.2,1.7 -1.2,1.1 -1.7,2.5 -1.7,4.2 0,0.6 0.3,1.6 0.8,2.8 -0.8,0.7 -1.4,1.5 -1.7,2.5 h -0.3 c -1.4,0 -2.6,0.5 -3.6,1.6 -1,1.1 -1.5,2.3 -1.5,3.8 0,1.3 0.4,2.5 1.2,3.5 0.8,1 1.9,1.6 3.1,1.8 0.3,0 0.5,0.1 0.7,0.1 h 13.3 0.8 2.8 c 0.4,0 0.7,0 0.9,-0.1 1.6,-0.2 2.9,-1 3.9,-2.3 1,-1.3 1.5,-2.7 1.5,-4.4 0,-1.1 -0.3,-2.3 -0.9,-3.3 z M 31.3,25.1 c 0.9,-0.9 1.9,-1.3 3.1,-1.3 1.3,0 2.4,0.5 3.3,1.4 -2.2,0.8 -3.9,2.5 -4.7,4.8 -0.3,0 -0.5,-0.1 -0.7,-0.1 -0.6,0 -1.2,0.1 -1.7,0.3 -0.3,-0.6 -0.5,-1.3 -0.5,-2.1 0,-1.1 0.4,-2.1 1.2,-3 z M 47.8,41 c -0.8,1 -1.8,1.6 -3,1.7 -0.1,0 -0.3,0.1 -0.6,0.1 H 41.4 40.6 27.2 c -0.1,0 -0.3,0 -0.4,0 -0.9,-0.1 -1.6,-0.6 -2.2,-1.3 -0.6,-0.7 -0.9,-1.6 -0.9,-2.5 0,-1.1 0.3,-2 1,-2.7 0.7,-0.8 1.6,-1.1 2.5,-1.1 0.6,0 1.2,0.1 1.7,0.4 0,-0.1 0,-0.2 0,-0.4 0,-1 0.3,-1.8 1,-2.5 0.7,-0.7 1.4,-1.1 2.4,-1.1 0.6,0 1.2,0.2 1.8,0.5 0.2,-1.6 0.8,-2.9 1.9,-4 1.1,-1.1 2.4,-1.6 3.9,-1.6 1.6,0 3,0.6 4.1,1.8 1.1,1.2 1.7,2.7 1.8,4.4 0.9,0.4 1.7,1 2.2,1.9 0.5,0.9 0.9,1.9 0.9,3 0,1.3 -0.4,2.5 -1.1,3.4 z"
   id="path10564" />

		</g>

	</g>

</g>
    <g
       style="display:none"
       id="Layer_11"
       class="st1"
       transform="matrix(0.26458333,0,0,0.26458333,76.028025,55.885209)">
	<path
   style="display:inline;fill:#5cc5f1"
   inkscape:connector-curvature="0"
   class="st12"
   d="M 36.7,57 H 52.4 V 6 H 37.2 C 23,6 11.5,17.5 11.5,31.7 v 0 c 0,14 11.3,25.3 25.2,25.3 z"
   id="path10571" />

	<g
   style="display:inline"
   class="st2"
   id="g10591">
		<polyline
   style="fill:none;stroke:#222d3a;stroke-linecap:round;stroke-linejoin:round;stroke-miterlimit:10"
   class="st15"
   points="24.2,46.8 26.6,46.8 39.1,46.8   "
   id="polyline10573" />

		<path
   style="fill:none;stroke:#222d3a;stroke-linecap:round;stroke-linejoin:round;stroke-miterlimit:10"
   inkscape:connector-curvature="0"
   class="st15"
   d="m 28.7,32.6 c 0,-1.4 1.2,-2.6 2.6,-2.6 1.3,0 2.3,0.9 2.5,2.1 0,0.2 0.1,0.3 0.1,0.5 0,1.4 -1.2,2.6 -2.6,2.6 -1.4,0 -2.6,-1.2 -2.6,-2.6 z"
   id="path10575" />

		<line
   style="fill:none;stroke:#222d3a;stroke-linecap:round;stroke-linejoin:round;stroke-miterlimit:10"
   class="st15"
   x1="36.400002"
   y1="46.799999"
   x2="33.900002"
   y2="32.599998"
   id="line10577" />

		<line
   style="fill:none;stroke:#222d3a;stroke-linecap:round;stroke-linejoin:round;stroke-miterlimit:10"
   class="st15"
   x1="28.700001"
   y1="32.599998"
   x2="27"
   y2="46.799999"
   id="line10579" />

		<path
   style="fill:none;stroke:#222d3a;stroke-linecap:round;stroke-linejoin:round;stroke-miterlimit:10"
   inkscape:connector-curvature="0"
   class="st15"
   d="m 34.8,36.8 c 1,0.2 2,0.4 3,0.4 3.5,0 6.8,-1.4 9.2,-3.8 L 37.8,24.3 28.6,15 c -2.4,2.4 -3.8,5.7 -3.8,9.2 0,3.5 1.5,6.8 3.8,9.1"
   id="path10581" />

		<path
   style="fill:none;stroke:#222d3a;stroke-linecap:round;stroke-linejoin:round;stroke-miterlimit:10"
   inkscape:connector-curvature="0"
   class="st15"
   d="m 40.1,22.6 -1.3,-1.3 c 0.7,-0.7 1.9,-0.7 2.6,0 0.7,0.7 0.7,1.9 0,2.6 z"
   id="path10583" />

		<path
   style="fill:none;stroke:#222d3a;stroke-linecap:round;stroke-linejoin:round;stroke-miterlimit:10"
   inkscape:connector-curvature="0"
   class="st15"
   d="m 36.5,19.6 c 1.8,-1.8 4.7,-1.8 6.5,0 1.8,1.8 1.8,4.7 0,6.5"
   id="path10585" />

		<path
   style="fill:none;stroke:#222d3a;stroke-linecap:round;stroke-linejoin:round;stroke-miterlimit:10"
   inkscape:connector-curvature="0"
   class="st15"
   d="m 34.6,17.7 c 2.8,-2.8 7.5,-2.8 10.4,0 2.8,2.8 2.8,7.5 0,10.4"
   id="path10587" />

		<line
   style="fill:none;stroke:#222d3a;stroke-linecap:round;stroke-linejoin:round;stroke-miterlimit:10"
   class="st15"
   x1="40.099998"
   y1="22.6"
   x2="38"
   y2="24.4"
   id="line10589" />

	</g>

</g>
    <g
       style="display:none"
       id="Layer_12"
       class="st1"
       transform="matrix(0.26458333,0,0,0.26458333,76.028025,55.885209)">
	<g
   style="display:inline"
   class="st2"
   id="g10599">
		<g
   id="_x33__4_">
			<g
   id="g10596">
				<path
   style="fill:#5cc5f1"
   inkscape:connector-curvature="0"
   class="st16"
   d="m 32.7,11.3 c -11,0 -20,9 -20,20 0,11 9,20 20,20 11,0 20,-9 20,-20 0,-11 -9,-20 -20,-20 z m 14.5,10.2 c 1.7,2.5 2.7,5.4 3,8.5 h -10 c -0.1,-2.3 -0.3,-4.6 -0.6,-6.8 2.6,-0.3 5.2,-0.9 7.6,-1.7 z m -1.8,-2.1 c -2,0.6 -4.2,1.1 -6.4,1.5 -0.5,-2.3 -1.2,-4.5 -2,-6.5 3.3,0.8 6.2,2.6 8.4,5 z M 27.7,30.1 c 0.1,-2.2 0.3,-4.4 0.6,-6.4 1.4,0.1 2.8,0.2 4.3,0.2 1.5,0 2.9,-0.1 4.3,-0.2 0.4,2.1 0.6,4.2 0.6,6.4 z m 9.9,2.5 C 37.5,34.8 37.3,37 37,39 35.6,38.9 34.2,38.8 32.7,38.8 31.2,38.8 29.8,38.9 28.4,39 28,36.9 27.8,34.8 27.8,32.6 Z M 31.5,13.9 c 0.4,0 0.8,-0.1 1.2,-0.1 0.4,0 0.8,0 1.2,0.1 1.1,2.2 1.9,4.7 2.6,7.3 -1.2,0.1 -2.5,0.2 -3.8,0.2 -1.3,0 -2.5,-0.1 -3.8,-0.2 0.6,-2.7 1.5,-5.1 2.6,-7.3 z m -3.1,0.5 c -0.8,2 -1.5,4.2 -2,6.5 -2.2,-0.3 -4.4,-0.8 -6.4,-1.5 2.2,-2.4 5.1,-4.2 8.4,-5 z m -10.2,7.1 c 2.4,0.8 5,1.4 7.7,1.8 -0.4,2.2 -0.6,4.4 -0.6,6.8 h -10 c 0.1,-3.2 1.2,-6.1 2.9,-8.6 z m 0,19.6 c -1.7,-2.5 -2.7,-5.4 -3,-8.5 h 10 c 0.1,2.3 0.3,4.6 0.6,6.8 -2.7,0.3 -5.2,0.9 -7.6,1.7 z m 1.7,2.1 c 2,-0.6 4.2,-1.1 6.4,-1.5 0.5,2.3 1.2,4.5 2,6.5 -3.2,-0.8 -6.1,-2.6 -8.4,-5 z m 14,5.5 c -0.4,0 -0.8,0.1 -1.2,0.1 -0.4,0 -0.8,0 -1.2,-0.1 -1.1,-2.2 -1.9,-4.7 -2.6,-7.3 1.2,-0.1 2.5,-0.2 3.8,-0.2 1.3,0 2.5,0.1 3.8,0.2 -0.7,2.7 -1.6,5.1 -2.6,7.3 z M 37,48.3 c 0.8,-2 1.5,-4.2 2,-6.5 2.2,0.3 4.4,0.8 6.4,1.5 -2.2,2.3 -5.1,4.1 -8.4,5 z m 10.2,-7.2 c -2.4,-0.8 -5,-1.4 -7.7,-1.8 0.4,-2.2 0.6,-4.4 0.6,-6.8 h 10 c -0.2,3.2 -1.3,6.1 -2.9,8.6 z"
   id="path10594" />

			</g>

		</g>

	</g>

</g>
    <g
       style="display:none"
       id="Layer_13"
       class="st1"
       transform="matrix(0.26458333,0,0,0.26458333,76.028025,55.885209)">
	<g
   style="display:inline"
   class="st2"
   id="g10614">
		<g
   id="g10612">
			<path
   style="fill:#5cc5f1"
   inkscape:connector-curvature="0"
   class="st16"
   d="m 38.8,21.2 3.3,-3.3 c 0.4,-0.4 0.4,-1.1 0,-1.5 C 41.7,16 41,16 40.6,16.4 l -3.3,3.3 c -0.4,0.4 -0.4,1.1 0,1.5 0.5,0.5 1.1,0.5 1.5,0 z"
   id="path10602" />

			<path
   style="fill:#5cc5f1"
   inkscape:connector-curvature="0"
   class="st16"
   d="m 30,18.2 c 0.6,0 1.1,-0.5 1.1,-1.1 v -4.7 c 0,-0.6 -0.5,-1.1 -1.1,-1.1 -0.6,0 -1.1,0.5 -1.1,1.1 v 4.7 c 0,0.6 0.5,1.1 1.1,1.1 z"
   id="path10604" />

			<path
   style="fill:#5cc5f1"
   inkscape:connector-curvature="0"
   class="st16"
   d="m 21.2,21.2 c 0.5,0.4 1.1,0.5 1.5,0 0.4,-0.4 0.4,-1.1 0,-1.5 L 19.4,16.4 C 19,16 18.3,16 17.9,16.4 c -0.4,0.5 -0.4,1.1 0,1.5 z"
   id="path10606" />

			<path
   style="fill:#5cc5f1"
   inkscape:connector-curvature="0"
   class="st16"
   d="m 13.9,29.7 4.7,-0.1 c 0.6,0 1.1,-0.5 1.1,-1.1 0,-0.6 -0.5,-1.1 -1.1,-1.1 h -4.7 c -0.6,0.1 -1.1,0.5 -1.1,1.1 0,0.6 0.5,1.2 1.1,1.2 z"
   id="path10608" />

			<path
   style="fill:#5cc5f1"
   inkscape:connector-curvature="0"
   class="st16"
   d="m 51.3,36.9 c -0.8,-1.5 -1.9,-2.6 -3.2,-3.5 -0.3,-2.5 -1.3,-4.6 -3,-6.3 -1.9,-2 -4.6,-3.2 -7.3,-3.2 H 37 c -0.8,-1.1 -1.8,-2 -3,-2.7 -1.2,-0.7 -2.5,-1 -4,-1 -2.3,0 -4.3,0.8 -5.9,2.4 -1.6,1.6 -2.4,3.6 -2.4,5.9 0,0.9 0.4,2.2 1.2,4 -1.1,0.9 -1.9,2.1 -2.4,3.5 H 20 c -2,0 -3.7,0.7 -5.1,2.2 -1.4,1.5 -2.1,3.3 -2.1,5.4 0,1.9 0.6,3.5 1.7,4.9 1.2,1.4 2.6,2.3 4.4,2.6 0.4,0.1 0.7,0.1 1,0.1 h 18.7 1.1 4 c 0.5,0 1,0 1.3,-0.1 2.2,-0.3 4,-1.4 5.5,-3.2 1.4,-1.8 2.1,-3.9 2.1,-6.2 C 52.5,40 52.1,38.4 51.3,36.9 Z M 25.6,24.2 c 1.2,-1.2 2.6,-1.8 4.3,-1.8 1.8,0 3.3,0.7 4.6,2 -3.1,1 -5.5,3.5 -6.6,6.7 C 27.6,31 27.2,31 27,31 c -0.8,0 -1.6,0.2 -2.4,0.5 -0.5,-0.9 -0.7,-1.8 -0.7,-3 0,-1.7 0.6,-3.1 1.7,-4.3 z m 23.1,22.3 c -1.1,1.4 -2.5,2.2 -4.2,2.5 -0.2,0.1 -0.4,0.1 -0.9,0.1 h -4 -1.1 -18.6 c -0.2,0 -0.4,0 -0.6,0 -1.2,-0.2 -2.2,-0.8 -3.1,-1.8 -0.8,-1 -1.2,-2.2 -1.2,-3.6 0,-1.5 0.5,-2.8 1.5,-3.8 1,-1.1 2.2,-1.6 3.6,-1.6 0.8,0 1.6,0.2 2.4,0.6 0,-0.1 0,-0.3 0,-0.6 0,-1.4 0.4,-2.6 1.4,-3.6 0.9,-1 2,-1.5 3.3,-1.5 0.9,0 1.7,0.3 2.5,0.8 0.3,-2.2 1.2,-4.1 2.7,-5.6 1.6,-1.5 3.4,-2.3 5.5,-2.3 2.2,0 4.2,0.9 5.8,2.6 1.6,1.7 2.4,3.7 2.5,6.2 1.3,0.5 2.3,1.4 3.1,2.7 0.8,1.3 1.2,2.6 1.2,4.2 -0.2,1.7 -0.7,3.4 -1.8,4.7 z"
   id="path10610" />

		</g>

	</g>

</g>
    <g
       style="display:none"
       id="Layer_14"
       class="st1"
       transform="matrix(0.26458333,0,0,0.26458333,76.028025,55.885209)">
	<g
   style="display:inline"
   class="st2"
   id="g10635">
		<polyline
   style="fill:none;stroke:#5cc5f1;stroke-width:2;stroke-linecap:round;stroke-linejoin:round;stroke-miterlimit:10"
   class="st17"
   points="15,55.9 18.7,55.9 38,55.9   "
   id="polyline10617" />

		<path
   style="fill:none;stroke:#5cc5f1;stroke-width:2;stroke-linecap:round;stroke-linejoin:round;stroke-miterlimit:10"
   inkscape:connector-curvature="0"
   class="st17"
   d="m 22,33.9 c 0,-2.2 1.8,-4 4,-4 1.9,0 3.5,1.4 3.9,3.2 0.1,0.3 0.1,0.5 0.1,0.8 0,2.2 -1.8,4 -4,4 -2.2,0 -4,-1.8 -4,-4 z"
   id="path10619" />

		<line
   style="fill:none;stroke:#5cc5f1;stroke-width:2;stroke-linecap:round;stroke-linejoin:round;stroke-miterlimit:10"
   class="st17"
   x1="33.799999"
   y1="55.900002"
   x2="30"
   y2="33.900002"
   id="line10621" />

		<line
   style="fill:none;stroke:#5cc5f1;stroke-width:2;stroke-linecap:round;stroke-linejoin:round;stroke-miterlimit:10"
   class="st17"
   x1="22"
   y1="33.900002"
   x2="19.4"
   y2="55.900002"
   id="line10623" />

		<path
   style="fill:none;stroke:#5cc5f1;stroke-width:2;stroke-linecap:round;stroke-linejoin:round;stroke-miterlimit:10"
   inkscape:connector-curvature="0"
   class="st17"
   d="m 31.4,40.3 c 1.5,0.4 3,0.5 4.6,0.5 5.3,0 10.4,-2.1 14.2,-5.9 L 36,20.9 21.9,6.7 c -3.8,3.8 -5.9,8.8 -5.9,14.2 0,5.5 2.2,10.5 5.9,14.1"
   id="path10625" />

		<path
   style="fill:#5cc5f1"
   inkscape:connector-curvature="0"
   class="st16"
   d="m 39.5,18.4 -2,-2 c 1.1,-1.1 2.9,-1.1 4,0 1.1,1.1 1.1,2.9 0,4 z"
   id="path10627" />

		<path
   style="fill:none;stroke:#5cc5f1;stroke-width:2;stroke-miterlimit:10"
   inkscape:connector-curvature="0"
   class="st18"
   d="m 34,13.9 c 2.7,-2.7 7.3,-2.7 10,0 2.7,2.7 2.7,7.3 0,10"
   id="path10629" />

		<path
   style="fill:none;stroke:#5cc5f1;stroke-width:2;stroke-miterlimit:10"
   inkscape:connector-curvature="0"
   class="st18"
   d="m 31,10.9 c 4.4,-4.4 11.6,-4.4 16,0 4.4,4.4 4.4,11.6 0,16"
   id="path10631" />

		<line
   style="fill:none;stroke:#5cc5f1;stroke-width:2;stroke-linecap:round;stroke-linejoin:round;stroke-miterlimit:10"
   class="st17"
   x1="39.5"
   y1="18.4"
   x2="36.400002"
   y2="21.299999"
   id="line10633" />

	</g>

</g>
    <g
       style="display:none"
       id="Layer_15"
       class="st1"
       transform="matrix(0.26458333,0,0,0.26458333,76.028025,55.885209)">
	<g
   style="display:inline"
   class="st2"
   id="g10652">
		<circle
   style="fill:none;stroke:#5cc5f1;stroke-width:2;stroke-linecap:round;stroke-linejoin:round;stroke-miterlimit:10"
   class="st17"
   cx="17.9"
   cy="18.1"
   r="4.1999998"
   id="circle10638" />

		<circle
   style="fill:none;stroke:#5cc5f1;stroke-width:2;stroke-linecap:round;stroke-linejoin:round;stroke-miterlimit:10"
   class="st17"
   cx="26.299999"
   cy="43.400002"
   r="4.1999998"
   id="circle10640" />

		<circle
   style="fill:none;stroke:#5cc5f1;stroke-width:2;stroke-linecap:round;stroke-linejoin:round;stroke-miterlimit:10"
   class="st17"
   cx="39"
   cy="30.799999"
   r="4.1999998"
   id="circle10642" />

		<path
   style="fill:none;stroke:#5cc5f1;stroke-width:2;stroke-linecap:round;stroke-linejoin:round;stroke-miterlimit:10"
   inkscape:connector-curvature="0"
   class="st17"
   d="m 23.2,18.1 h 21.1 c 0,0 7.4,0 7.4,6.3 0,6.3 -6.3,6.3 -7.4,6.3"
   id="path10644" />

		<path
   style="fill:none;stroke:#5cc5f1;stroke-width:2;stroke-linecap:round;stroke-linejoin:round;stroke-miterlimit:10"
   inkscape:connector-curvature="0"
   class="st17"
   d="M 33.7,30.8 H 20 c 0,0 -6.3,0 -6.3,6.3 0,6.3 7.4,5.4 7.4,5.4"
   id="path10646" />

		<polyline
   style="fill:none;stroke:#5cc5f1;stroke-width:2;stroke-linecap:round;stroke-linejoin:round;stroke-miterlimit:10"
   class="st17"
   points="31.6,43.4 50.6,43.4 45.3,38.2   "
   id="polyline10648" />

		<line
   style="fill:none;stroke:#5cc5f1;stroke-width:2;stroke-linecap:round;stroke-linejoin:round;stroke-miterlimit:10"
   class="st17"
   x1="50.599998"
   y1="43.400002"
   x2="45.299999"
   y2="48.700001"
   id="line10650" />

	</g>

</g>
    <g
       style="display:none"
       id="Layer_16"
       class="st1"
       transform="matrix(0.26458333,0,0,0.26458333,76.028025,55.885209)">
	<g
   style="display:inline"
   class="st2"
   id="g10657">
		<polygon
   style="fill:none;stroke:#5cc5f1;stroke-width:2;stroke-linecap:round;stroke-linejoin:round;stroke-miterlimit:10"
   class="st17"
   points="43.8,29.3 33.6,29.3 44.9,7.9 27.4,7.9 20.5,33 27.5,33 21.5,54.4 "
   id="polygon10655" />

	</g>

</g>
    <g
       style="display:none"
       id="Layer_17"
       class="st1"
       transform="matrix(0.26458333,0,0,0.26458333,76.028025,55.885209)">
	<g
   style="display:inline"
   class="st2"
   id="g10680">
		<g
   id="g10664">
			<g
   id="g10662">
				<path
   style="fill:#5cc5f1;stroke:#5cc5f1;stroke-miterlimit:10"
   inkscape:connector-curvature="0"
   class="st19"
   d="m 51,35.7 v 10.6 l -0.3,0.4 H 40.2 38.5 14.8 L 14.4,46.3 V 33.8 32.1 16.4 l 0.4,-0.5 h 23.7 1.7 10.5 l 0.3,0.5 v 11.8 0 l 1.2,-0.3 0.5,-2.8 V 15.2 15 c 0,-0.5 -0.4,-0.8 -0.8,-0.8 H 13.5 c -0.5,0 -0.8,0.4 -0.8,0.8 v 0.1 32.3 0.1 c 0,0.5 0.4,0.8 0.8,0.8 h 38.3 c 0.5,0 0.8,-0.4 0.8,-0.8 V 47.4 36.3 Z"
   id="path10660" />

			</g>

		</g>

		<g
   id="g10670">
			<g
   id="g10668">
				<path
   style="fill:#5cc5f1;stroke:#5cc5f1;stroke-miterlimit:10"
   inkscape:connector-curvature="0"
   class="st19"
   d="m 51,27.2 v 0 c -3.9,0.4 -6.9,3.7 -6.9,7.7 0,0.5 0.4,0.8 0.8,0.8 H 51 l 1.7,0.6 V 34.8 C 52.7,34.3 52.3,34 51.9,34 h -6 c 0.4,-3 2.9,-5.2 6,-5.2 0.5,0 0.8,-0.4 0.8,-0.8 z M 40.2,46.7 v -3.8 c 0,-0.5 -0.4,-0.8 -0.8,-0.8 h -6 c 0.4,-3 2.9,-5.2 6,-5.2 0.5,0 0.8,-0.4 0.8,-0.8 V 15.9 H 38.5 V 31.1 H 25.7 C 25.3,27.2 22,24.2 18,24.2 c -0.5,0 -0.8,0.4 -0.8,0.8 v 6.1 h -2.8 v 1.7 H 18 c 0.5,0 0.8,-0.4 0.8,-0.8 0,0 0,-0.1 0,-0.1 0,0 0,-0.1 0,-0.1 V 26 c 3,0.4 5.2,2.9 5.2,6 0,0.5 0.4,0.8 0.8,0.8 h 13.6 v 2.4 c -3.9,0.4 -6.9,3.7 -6.9,7.7 0,0.5 0.4,0.8 0.8,0.8 h 6.1 v 3 z"
   id="path10666" />

			</g>

		</g>

		<path
   style="fill:#5cc5f1;stroke:#5cc5f1;stroke-miterlimit:10"
   inkscape:connector-curvature="0"
   class="st19"
   d="m 15.3,17.9 h -1.1 c -0.5,0 -0.9,-0.4 -0.9,-0.9 v -1.1 c 0,-0.5 0.4,-0.9 0.9,-0.9 h 1.1 c 0.5,0 0.9,0.4 0.9,0.9 V 17 c 0.1,0.5 -0.3,0.9 -0.9,0.9 z"
   id="path10672" />

		<path
   style="fill:#5cc5f1;stroke:#5cc5f1;stroke-miterlimit:10"
   inkscape:connector-curvature="0"
   class="st19"
   d="m 51.2,17.9 h -1.1 c -0.5,0 -0.9,-0.4 -0.9,-0.9 v -1.1 c 0,-0.5 0.4,-0.9 0.9,-0.9 h 1.1 c 0.5,0 0.9,0.4 0.9,0.9 V 17 c 0.1,0.5 -0.3,0.9 -0.9,0.9 z"
   id="path10674" />

		<path
   style="fill:#5cc5f1;stroke:#5cc5f1;stroke-miterlimit:10"
   inkscape:connector-curvature="0"
   class="st19"
   d="m 15.3,47.8 h -1.1 c -0.5,0 -0.9,-0.4 -0.9,-0.9 v -1.1 c 0,-0.5 0.4,-0.9 0.9,-0.9 h 1.1 c 0.5,0 0.9,0.4 0.9,0.9 v 1.1 c 0.1,0.5 -0.3,0.9 -0.9,0.9 z"
   id="path10676" />

		<path
   style="fill:#5cc5f1;stroke:#5cc5f1;stroke-miterlimit:10"
   inkscape:connector-curvature="0"
   class="st19"
   d="m 51.2,47.8 h -1.1 c -0.5,0 -0.9,-0.4 -0.9,-0.9 v -1.1 c 0,-0.5 0.4,-0.9 0.9,-0.9 h 1.1 c 0.5,0 0.9,0.4 0.9,0.9 v 1.1 c 0.1,0.5 -0.3,0.9 -0.9,0.9 z"
   id="path10678" />

	</g>

</g>
  </g>
  <style
     id="style10243"
     type="text/css">
	.st0{opacity:0;fill:url(#SVGID_1_);}
	.st1{display:none;}
	.st2{display:inline;}
	.st3{clip-path:url(#SVGID_3_);fill:url(#SVGID_4_);}
	.st4{clip-path:url(#SVGID_6_);fill:url(#SVGID_7_);}
	.st5{clip-path:url(#SVGID_10_);fill:url(#SVGID_11_);}
	.st6{clip-path:url(#SVGID_13_);fill:url(#SVGID_14_);}
	.st7{clip-path:url(#SVGID_16_);fill:url(#SVGID_17_);}
	.st8{clip-path:url(#SVGID_19_);fill:url(#SVGID_20_);}
	.st9{fill:#FFFFFF;}
	.st10{clip-path:url(#SVGID_23_);fill:url(#SVGID_24_);}
	.st11{clip-path:url(#SVGID_27_);fill:url(#SVGID_28_);}
	.st12{display:inline;fill:#5CC5F1;}
	.st13{fill:none;stroke:#222D3A;stroke-width:2;stroke-linecap:round;stroke-linejoin:round;stroke-miterlimit:10;}
	.st14{fill:#222D3A;}
	.st15{fill:none;stroke:#222D3A;stroke-linecap:round;stroke-linejoin:round;stroke-miterlimit:10;}
	.st16{fill:#5CC5F1;}
	.st17{fill:none;stroke:#5CC5F1;stroke-width:2;stroke-linecap:round;stroke-linejoin:round;stroke-miterlimit:10;}
	.st18{fill:none;stroke:#5CC5F1;stroke-width:2;stroke-miterlimit:10;}
	.st19{fill:#5CC5F1;stroke:#5CC5F1;stroke-miterlimit:10;}
</style>
</svg>
