<svg xmlns="http://www.w3.org/2000/svg" viewbox="5 6 48 48">
  <style>.ias-icon-overview {fill:currentColor;stroke:currentColor;stroke-width:0.25;} </style>
  <path class=".ias-icon-overview"
    d="M32.7,11.3c-11,0-20,9-20,20c0,11,9,20,20,20s20-9,20-20S43.7,11.3,32.7,11.3z M47.2,21.5
    c1.7,2.5,2.7,5.4,3,8.5h-10c-0.1-2.3-0.3-4.6-0.6-6.8C42.2,22.9,44.8,22.3,47.2,21.5z M45.4,19.4c-2,0.6-4.2,1.1-6.4,1.5
    c-0.5-2.3-1.2-4.5-2-6.5C40.3,15.2,43.2,17,45.4,19.4z M27.7,30.1c0.1-2.2,0.3-4.4,0.6-6.4c1.4,0.1,2.8,0.2,4.3,0.2
    c1.5,0,2.9-0.1,4.3-0.2c0.4,2.1,0.6,4.2,0.6,6.4H27.7z M37.6,32.6c-0.1,2.2-0.3,4.4-0.6,6.4c-1.4-0.1-2.8-0.2-4.3-0.2
    c-1.5,0-2.9,0.1-4.3,0.2c-0.4-2.1-0.6-4.2-0.6-6.4H37.6z M31.5,13.9c0.4,0,0.8-0.1,1.2-0.1c0.4,0,0.8,0,1.2,0.1
    c1.1,2.2,1.9,4.7,2.6,7.3c-1.2,0.1-2.5,0.2-3.8,0.2c-1.3,0-2.5-0.1-3.8-0.2C29.5,18.5,30.4,16.1,31.5,13.9z M28.4,14.4
    c-0.8,2-1.5,4.2-2,6.5c-2.2-0.3-4.4-0.8-6.4-1.5C22.2,17,25.1,15.2,28.4,14.4z M18.2,21.5c2.4,0.8,5,1.4,7.7,1.8
    c-0.4,2.2-0.6,4.4-0.6,6.8h-10C15.4,26.9,16.5,24,18.2,21.5z M18.2,41.1c-1.7-2.5-2.7-5.4-3-8.5h10c0.1,2.3,0.3,4.6,0.6,6.8
    C23.1,39.7,20.6,40.3,18.2,41.1z M19.9,43.2c2-0.6,4.2-1.1,6.4-1.5c0.5,2.3,1.2,4.5,2,6.5C25.1,47.4,22.2,45.6,19.9,43.2z
    M33.9,48.7c-0.4,0-0.8,0.1-1.2,0.1c-0.4,0-0.8,0-1.2-0.1c-1.1-2.2-1.9-4.7-2.6-7.3c1.2-0.1,2.5-0.2,3.8-0.2
    c1.3,0,2.5,0.1,3.8,0.2C35.8,44.1,34.9,46.5,33.9,48.7z M37,48.3c0.8-2,1.5-4.2,2-6.5c2.2,0.3,4.4,0.8,6.4,1.5
    C43.2,45.6,40.3,47.4,37,48.3z M47.2,41.1c-2.4-0.8-5-1.4-7.7-1.8c0.4-2.2,0.6-4.4,0.6-6.8h10C49.9,35.7,48.8,38.6,47.2,41.1z"/>
</svg>
