<svg xmlns="http://www.w3.org/2000/svg" viewbox="16 14 36 36">
  <style>.ias-icon-weather {fill:currentColor;stroke:currentColor;stroke-width:0.25;} </style>
  <path class="ias-icon-weather" d="M40.7,23l2.4-2.4c0.3-0.3,0.3-0.7,0-1.1c-0.3-0.3-0.8-0.3-1.1,0l-2.3,2.4c-0.3,0.3-0.3,0.7,0,1.1
    C40,23.3,40.4,23.3,40.7,23z"/>
  <path class="ias-icon-weather" d="M34.4,20.9c0.4,0,0.8-0.3,0.8-0.8v-3.3c0-0.4-0.3-0.8-0.8-0.8s-0.8,0.3-0.8,0.8v3.3
    C33.7,20.5,34,20.9,34.4,20.9z"/>
  <path class="ias-icon-weather" d="M28.2,23c0.3,0.3,0.8,0.3,1.1,0c0.3-0.3,0.3-0.8,0-1.1l-2.4-2.4c-0.3-0.3-0.8-0.3-1.1,0
    c-0.3,0.3-0.3,0.8,0,1.1L28.2,23z"/>
  <path class="ias-icon-weather" d="M23,29l3.3,0c0.4,0,0.8-0.3,0.8-0.8c0-0.4-0.3-0.8-0.8-0.8H23c-0.4,0-0.8,0.4-0.8,0.8
    C22.2,28.6,22.6,29,23,29z"/>
  <path class="ias-icon-weather" d="M49.6,34.2c-0.6-1-1.3-1.9-2.3-2.5c-0.2-1.8-0.9-3.3-2.1-4.5c-1.4-1.5-3.2-2.3-5.2-2.3h-0.6
    c-0.5-0.8-1.3-1.4-2.1-1.9c-0.9-0.5-1.8-0.7-2.8-0.7c-1.6,0-3,0.6-4.2,1.7c-1.2,1.1-1.7,2.5-1.7,4.2c0,0.6,0.3,1.6,0.8,2.8
    c-0.8,0.7-1.4,1.5-1.7,2.5h-0.3c-1.4,0-2.6,0.5-3.6,1.6c-1,1.1-1.5,2.3-1.5,3.8c0,1.3,0.4,2.5,1.2,3.5c0.8,1,1.9,1.6,3.1,1.8
    c0.3,0,0.5,0.1,0.7,0.1h13.3h0.8h2.8c0.4,0,0.7,0,0.9-0.1c1.6-0.2,2.9-1,3.9-2.3c1-1.3,1.5-2.7,1.5-4.4
    C50.5,36.4,50.2,35.2,49.6,34.2z M31.3,25.1c0.9-0.9,1.9-1.3,3.1-1.3c1.3,0,2.4,0.5,3.3,1.4C35.5,26,33.8,27.7,33,30
    c-0.3,0-0.5-0.1-0.7-0.1c-0.6,0-1.2,0.1-1.7,0.3c-0.3-0.6-0.5-1.3-0.5-2.1C30.1,27,30.5,26,31.3,25.1z M47.8,41
    c-0.8,1-1.8,1.6-3,1.7c-0.1,0-0.3,0.1-0.6,0.1h-2.8h-0.8H27.2c-0.1,0-0.3,0-0.4,0c-0.9-0.1-1.6-0.6-2.2-1.3
    c-0.6-0.7-0.9-1.6-0.9-2.5c0-1.1,0.3-2,1-2.7c0.7-0.8,1.6-1.1,2.5-1.1c0.6,0,1.2,0.1,1.7,0.4c0-0.1,0-0.2,0-0.4
    c0-1,0.3-1.8,1-2.5c0.7-0.7,1.4-1.1,2.4-1.1c0.6,0,1.2,0.2,1.8,0.5c0.2-1.6,0.8-2.9,1.9-4c1.1-1.1,2.4-1.6,3.9-1.6
    c1.6,0,3,0.6,4.1,1.8c1.1,1.2,1.7,2.7,1.8,4.4c0.9,0.4,1.7,1,2.2,1.9s0.9,1.9,0.9,3C48.9,38.9,48.5,40.1,47.8,41z"/>
</svg>
