<?xml version="1.0" encoding="utf-8"?>
<!-- Generator: Adobe Illustrator 22.1.0, SVG Export Plug-In . SVG Version: 6.00 Build 0)  -->
<svg version="1.1" id="Layer_1" xmlns="http://www.w3.org/2000/svg" xmlns:xlink="http://www.w3.org/1999/xlink" x="0px" y="0px"
	 viewBox="0 0 74.6 52" style="enable-background:new 0 0 74.6 52;" xml:space="preserve">
<style type="text/css">.st0{fill:#E8ECEF;fill-opacity:0;}.st1{fill:none;}.st2{fill:#0081b9;}.st3{fill:none;stroke:#0081b9;stroke-linecap:round;stroke-miterlimit:10;}.st4{fill:#0081b9;}</style>
<title>ias_health-valid-unkn</title>
<rect class="st0" width="74.6" height="52"/>
<path class="st1" d="M71,7.6c0-3.8-3.1-6.8-6.8-6.8l0,0c-1.5,0-2.9,1.5-4.1,2.3C59,2.3,57.5,0.9,56,0.9c-3.8,0-6.8,3.1-6.8,6.8
	c0,0,0,0,0,0l0,0c0,3.6,10.9,11.5,10.9,11.5S71,11.2,71,7.6z"/>
<path class="st2" d="M60.3,19.2c0,0,10.9-7.9,10.9-11.5c0-3.8-3.1-6.8-6.8-6.8c0,0,0,0,0,0l0,0c-1.5,0-2.9,1.5-4.1,2.3L60.3,19.2z"
	/>
<path class="st1" d="M73.6,31H46.3l-4.1,9.3c-0.4,1.1-1.6,1.8-2.7,1.4c-0.9-0.3-1.5-1.1-1.5-2.1l-1.3-16.3l-2.2,6.1
	c-0.3,0.9-1.1,1.5-2.1,1.5h-32v-4.3h30.4L35,16.3c0.3-1.1,1.5-1.7,2.6-1.5c0.9,0.2,1.6,1,1.7,2l1.4,17.6l3.2-6.4
	c0.3-0.8,1.1-1.4,2-1.4h27.8V31z"/>
<g>
	<path class="st3" d="M71,7.7c0-3.8-3.1-6.8-6.8-6.8c0,0,0,0,0,0l0,0c-1.5,0-2.9,1.5-4.1,2.3c-1.1-0.8-2.6-2.3-4.1-2.3
		c-3.8,0-6.8,3.1-6.8,6.8c0,0,0,0,0,0l0,0c0,3.6,10.9,11.4,10.9,11.4S71,11.3,71,7.7z"/>
	<path class="st3" d="M60.3,19.2c0,0,10.9-7.9,10.9-11.5c0-3.8-3.1-6.8-6.8-6.8c0,0,0,0,0,0l0,0c-1.5,0-2.9,1.5-4.1,2.3L60.3,19.2z"
		/>
	<path class="st3" d="M73.6,31.1H46.3l-4.1,9.3c-0.4,1.1-1.6,1.7-2.8,1.3c-0.8-0.3-1.4-1.1-1.4-1.9l-1.3-16.3l-2.2,6.1
		c-0.3,0.9-1.1,1.5-2.1,1.5h-32v-4.3h30.4l4.1-10.4c0.3-1.1,1.5-1.7,2.6-1.5c0.9,0.2,1.6,1,1.7,2l1.4,17.6l3.1-6.3
		c0.3-0.8,1.1-1.4,2-1.4h27.9V31.1z"/>
	<rect class="st4" x="0.5" y="26.8" width="3.3" height="4.3"/>
	<rect class="st4" x="70.2" y="26.8" width="3.3" height="4.3"/>
</g>
</svg>
