  <svg xmlns="http://www.w3.org/2000/svg" viewBox="-4 0 30 40">
    <style>.ias-icon-antenna {fill:none;stroke:#f0c13c;stroke-width:1.4;stroke-linecap:round;stroke-linejoin:round;stroke-miterlimit:10;} </style>
    <polyline class="ias-icon-antenna" points="24.2,46.8 26.6,46.8 39.1,46.8" transform="translate(-23.412746,-14.280394)" />
    <path class="ias-icon-antenna" d="m 5.287254,18.319606 c 0,-1.4 1.2,-2.6 2.6,-2.6 1.3,0 2.3,0.9 2.5,2.1 0,0.2 0.1,0.3 0.1,0.5 0,1.4 -1.2,2.6 -2.6,2.6 -1.4,0 -2.6,-1.2 -2.6,-2.6 z" />
    <line class="ias-icon-antenna" x1="12.987255" y1="32.519604" x2="10.487255" y2="18.319605" />
    <line class="ias-icon-antenna" x1="5.2872548" y1="18.319605" x2="3.587254" y2="32.519604" />
    <path class="ias-icon-antenna" d="m 11.387254,22.519606 c 1,0.2 2,0.4 3,0.4 3.5,0 6.8,-1.4 9.2,-3.8 l -9.2,-9.1 -9.2,-9.3 c -2.4,2.4 -3.8,5.7 -3.8,9.2 0,3.5 1.5,6.8 3.8,9.1" />
    <path class="ias-icon-antenna" d="m 16.687254,8.319606 -1.3,-1.3 c 0.7,-0.7 1.9,-0.7 2.6,0 0.7,0.7 0.7,1.9 0,2.6 l -1.3,-1.3 z" />
    <path class="ias-icon-antenna" d="m 13.087254,5.319606 c 1.8,-1.8 4.7,-1.8 6.5,0 1.8,1.8 1.8,4.7 0,6.5" />
    <path class="ias-icon-antenna" d="m 11.187254,3.419606 c 2.8,-2.8 7.5,-2.8 10.4,0 2.8,2.8 2.8,7.5 0,10.4" />
    <line class="ias-icon-antenna" x1="16.687252" y1="8.3196068" x2="14.587254" y2="10.119606" />
  </svg>
