<svg id="Layer_1" data-name="Layer 1" xmlns="http://www.w3.org/2000/svg" xmlns:xlink="http://www.w3.org/1999/xlink" viewBox="0 0 74.6 51.98"><defs><style>.cls-1,.cls-2,.cls-3{fill:none;stroke-miterlimit:10;}.cls-1{stroke:url(#linear-gradient);}.cls-2{stroke:url(#linear-gradient-2);}.cls-3{stroke:url(#linear-gradient-3);}.cls-4{fill:url(#linear-gradient-4);}.cls-5{fill:url(#linear-gradient-5);}.cls-6{fill:#e8ecef;opacity:0;}</style><linearGradient id="linear-gradient" x1="48.96" y1="9.91" x2="71.77" y2="9.91" gradientUnits="userSpaceOnUse"><stop offset="0" stop-color="#b5b5b5"/><stop offset="0.65" stop-color="#e8e8e8"/><stop offset="1" stop-color="#fff"/></linearGradient><linearGradient id="linear-gradient-2" x1="60.01" y1="10.09" x2="71.93" y2="10.09" xlink:href="#linear-gradient"/><linearGradient id="linear-gradient-3" x1="0.29" y1="28.12" x2="74.37" y2="28.12" xlink:href="#linear-gradient"/><linearGradient id="linear-gradient-4" x1="0.75" y1="28.87" x2="4.09" y2="28.87" xlink:href="#linear-gradient"/><linearGradient id="linear-gradient-5" x1="70.45" y1="28.87" x2="73.79" y2="28.87" xlink:href="#linear-gradient"/></defs><title>ias_health-invalid-maint</title><path class="cls-1" d="M71.27,7.49A6.82,6.82,0,0,0,64.43.69h0C62.9.69,61.49,2.17,60.35,3,59.21,2.18,57.79.7,56.26.71a6.82,6.82,0,0,0-6.8,6.84h0C49.47,11.17,60.4,19,60.4,19S71.28,11.11,71.27,7.49Z" transform="translate(-0.03 0.17)"/><path class="cls-2" d="M60.56,19S71.44,11.11,71.43,7.49A6.82,6.82,0,0,0,64.59.69h0C63.06.69,61.65,2.17,60.51,3Z" transform="translate(-0.03 0.17)"/><path class="cls-3" d="M73.87,30.87H46.56l-4.09,9.3a2.16,2.16,0,0,1-4.19-.64L37,23.21l-2.19,6.14a2.17,2.17,0,0,1-2.06,1.52H.79V26.54H31.16l4.09-10.37a2.17,2.17,0,0,1,2.57-1.46,2.22,2.22,0,0,1,1.65,2l1.38,17.61L44,28a2.16,2.16,0,0,1,2-1.42H73.87Z" transform="translate(-0.03 0.17)"/><rect class="cls-4" x="0.75" y="26.71" width="3.34" height="4.33"/><rect class="cls-5" x="70.45" y="26.71" width="3.34" height="4.33"/><rect class="cls-6" width="74.6" height="51.98"/></svg>