<svg id="Layer_1" data-name="Layer 1" xmlns="http://www.w3.org/2000/svg" xmlns:xlink="http://www.w3.org/1999/xlink" viewBox="0 0 74.6 51.98"><defs><style>.cls-1{fill:#e8ecef;opacity:0;}.cls-2,.cls-3,.cls-4{fill:none;stroke-miterlimit:10;}.cls-2{stroke:url(#linear-gradient);}.cls-3{stroke:url(#linear-gradient-2);}.cls-4{stroke:url(#linear-gradient-3);}.cls-5{fill:url(#linear-gradient-4);}.cls-6{fill:url(#linear-gradient-5);}</style><linearGradient id="linear-gradient" x1="48.83" y1="9.96" x2="71.65" y2="9.96" gradientUnits="userSpaceOnUse"><stop offset="0" stop-color="#efbf3a"/><stop offset="0.35" stop-color="#f0c13d"/><stop offset="0.64" stop-color="#f4c748"/><stop offset="0.92" stop-color="#fad259"/><stop offset="1" stop-color="#fcd660"/></linearGradient><linearGradient id="linear-gradient-2" x1="59.89" y1="10.14" x2="71.81" y2="10.14" xlink:href="#linear-gradient"/><linearGradient id="linear-gradient-3" x1="0.16" y1="28.17" x2="74.25" y2="28.17" xlink:href="#linear-gradient"/><linearGradient id="linear-gradient-4" x1="0.63" y1="28.92" x2="3.97" y2="28.92" xlink:href="#linear-gradient"/><linearGradient id="linear-gradient-5" x1="70.33" y1="28.92" x2="73.67" y2="28.92" xlink:href="#linear-gradient"/></defs><title>ias_health-invalid-s_low</title><rect class="cls-1" width="74.6" height="51.98"/><path class="cls-2" d="M71.15,7.54A6.83,6.83,0,0,0,64.31.74h0c-1.53,0-2.94,1.48-4.07,2.34C59.08,2.23,57.67.76,56.14.76A6.83,6.83,0,0,0,49.33,7.6h0c0,3.62,11,11.47,11,11.47S71.16,11.16,71.15,7.54Z" transform="translate(-0.03 0.17)"/><path class="cls-3" d="M60.43,19.07S71.32,11.16,71.31,7.54A6.82,6.82,0,0,0,64.47.74h0c-1.54,0-2.94,1.48-4.08,2.34Z" transform="translate(-0.03 0.17)"/><path class="cls-4" d="M73.75,30.92H46.44l-4.09,9.31a2.16,2.16,0,0,1-4.19-.65L36.87,23.26l-2.18,6.15a2.17,2.17,0,0,1-2.07,1.51H.66V26.6H31l4.08-10.38a2.18,2.18,0,0,1,2.57-1.46,2.22,2.22,0,0,1,1.66,2l1.38,17.61L43.9,28a2.15,2.15,0,0,1,2-1.41H73.75Z" transform="translate(-0.03 0.17)"/><rect class="cls-5" x="0.63" y="26.76" width="3.34" height="4.33"/><rect class="cls-6" x="70.33" y="26.76" width="3.34" height="4.33"/></svg>