<svg id="Layer_1" data-name="Layer 1" xmlns="http://www.w3.org/2000/svg" xmlns:xlink="http://www.w3.org/1999/xlink" viewBox="0 0 74.6 52.22"><defs><style>.cls-1{fill:#e8ecef;opacity:0;}.cls-2,.cls-3,.cls-4{fill:none;stroke-miterlimit:10;}.cls-2{stroke:url(#linear-gradient);}.cls-3{stroke:url(#linear-gradient-2);}.cls-4{stroke:url(#linear-gradient-3);}.cls-5{fill:url(#linear-gradient-4);}.cls-6{fill:url(#linear-gradient-5);}</style><linearGradient id="linear-gradient" x1="48.83" y1="9.88" x2="71.64" y2="9.88" gradientUnits="userSpaceOnUse"><stop offset="0" stop-color="#5abc73"/><stop offset="0.14" stop-color="#74c47a"/><stop offset="0.31" stop-color="#8aca80"/><stop offset="0.49" stop-color="#99cf85"/><stop offset="0.7" stop-color="#a2d187"/><stop offset="1" stop-color="#a5d288"/></linearGradient><linearGradient id="linear-gradient-2" x1="59.88" y1="10.06" x2="71.8" y2="10.06" gradientUnits="userSpaceOnUse"><stop offset="0" stop-color="#5abc73"/><stop offset="0.2" stop-color="#62be75"/><stop offset="0.51" stop-color="#77c47b"/><stop offset="0.88" stop-color="#99cf85"/><stop offset="1" stop-color="#a5d288"/></linearGradient><linearGradient id="linear-gradient-3" x1="0.15" y1="28.59" x2="74.24" y2="28.59" gradientUnits="userSpaceOnUse"><stop offset="0" stop-color="#5abc73"/><stop offset="0.26" stop-color="#5dbd74"/><stop offset="0.48" stop-color="#68c077"/><stop offset="0.68" stop-color="#7ac57c"/><stop offset="0.88" stop-color="#92cc83"/><stop offset="1" stop-color="#a5d288"/></linearGradient><linearGradient id="linear-gradient-4" x1="0.62" y1="28.84" x2="3.96" y2="28.84" xlink:href="#linear-gradient-3"/><linearGradient id="linear-gradient-5" x1="70.32" y1="28.84" x2="73.66" y2="28.84" xlink:href="#linear-gradient-3"/></defs><title>ias_health-invalid-clear</title><rect class="cls-1" width="74.6" height="51.98"/><path class="cls-2" d="M71.14,7.46A6.82,6.82,0,0,0,64.3.65h0C62.77.65,61.36,2.14,60.22,3,59.08,2.14,57.66.67,56.13.68a6.82,6.82,0,0,0-6.8,6.84h0C49.34,11.14,60.27,19,60.27,19S71.15,11.08,71.14,7.46Z" transform="translate(-0.03 0.17)"/><path class="cls-3" d="M60.43,19S71.31,11.08,71.3,7.46A6.82,6.82,0,0,0,64.46.65h0C62.93.65,61.52,2.14,60.38,3Z" transform="translate(-0.03 0.17)"/><path class="cls-4" d="M73.74,30.84H49.43l-7.09,19.3a2.16,2.16,0,0,1-4.19-.64L35.87,19.17,32.68,29.32a2.17,2.17,0,0,1-2.06,1.52H.65V26.51H29L35.12,7.13a2.16,2.16,0,0,1,2.57-1.45,2.21,2.21,0,0,1,1.65,2l2.38,31.61,4.17-11.36a2.16,2.16,0,0,1,2-1.42H73.74Z" transform="translate(-0.03 0.17)"/><rect class="cls-5" x="0.62" y="26.68" width="3.34" height="4.33"/><rect class="cls-6" x="70.32" y="26.68" width="3.34" height="4.33"/></svg>