<svg id="Layer_1" data-name="Layer 1" xmlns="http://www.w3.org/2000/svg" xmlns:xlink="http://www.w3.org/1999/xlink" viewBox="0 0 74.6 51.98"><defs><style>.cls-1{fill:#e8ecef;opacity:0;}.cls-2,.cls-3,.cls-4{fill:none;stroke-miterlimit:10;}.cls-2{stroke:url(#linear-gradient);}.cls-3{stroke:url(#linear-gradient-2);}.cls-4{stroke:url(#linear-gradient-3);}.cls-5{fill:url(#linear-gradient-4);}.cls-6{fill:url(#linear-gradient-5);}</style><linearGradient id="linear-gradient" x1="48.83" y1="9.87" x2="71.64" y2="9.87" gradientUnits="userSpaceOnUse"><stop offset="0" stop-color="#f0512e"/><stop offset="0.26" stop-color="#f15b3d"/><stop offset="0.7" stop-color="#f26850"/><stop offset="1" stop-color="#f26d57"/></linearGradient><linearGradient id="linear-gradient-2" x1="59.88" y1="10.05" x2="71.8" y2="10.05" gradientUnits="userSpaceOnUse"><stop offset="0" stop-color="#f0512e"/><stop offset="0.34" stop-color="#f05331"/><stop offset="0.62" stop-color="#f15a3c"/><stop offset="0.89" stop-color="#f2664d"/><stop offset="1" stop-color="#f26d57"/></linearGradient><linearGradient id="linear-gradient-3" x1="0.18" y1="26.92" x2="74.23" y2="26.92" xlink:href="#linear-gradient-2"/><linearGradient id="linear-gradient-4" x1="0.65" y1="28.82" x2="3.98" y2="28.82" xlink:href="#linear-gradient-2"/><linearGradient id="linear-gradient-5" x1="70.32" y1="28.82" x2="73.65" y2="28.82" xlink:href="#linear-gradient-2"/></defs><title>ias_health-invalid-critical</title><rect class="cls-1" width="74.6" height="51.98"/><path class="cls-2" d="M71.14,7.45A6.82,6.82,0,0,0,64.3.65h0C62.76.65,61.36,2.13,60.22,3,59.08,2.14,57.66.67,56.13.67a6.83,6.83,0,0,0-6.8,6.84C49.33,11.13,60.26,19,60.26,19S71.15,11.07,71.14,7.45Z" transform="translate(-0.03 0.17)"/><path class="cls-3" d="M60.43,19S71.31,11.07,71.3,7.45A6.82,6.82,0,0,0,64.46.65C62.93.65,61.52,2.13,60.38,3Z" transform="translate(-0.03 0.17)"/><path class="cls-4" d="M73.73,30.82H56.26l-1.35,3.87a2.35,2.35,0,0,1-2.17,1.42,2.71,2.71,0,0,1-.4,0,2.09,2.09,0,0,1-1.62-2L49.31,23.87,46.65,29.3a2.17,2.17,0,0,1-2.06,1.52H.68V26.49H44l3.62-7.25a2.16,2.16,0,0,1,2.57-1.45,2.2,2.2,0,0,1,1.65,2l1.6,10.83.85-2.71c.45-1.07,1-1.42,1.89-1.42H73.73Z" transform="translate(-0.03 0.17)"/><rect class="cls-5" x="0.65" y="26.66" width="3.34" height="4.32"/><rect class="cls-6" x="70.32" y="26.66" width="3.34" height="4.32"/></svg>