<svg id="Layer_1" data-name="Layer 1" xmlns="http://www.w3.org/2000/svg" xmlns:xlink="http://www.w3.org/1999/xlink" viewBox="0 0 512 248.51"><defs><style>.cls-1{fill:url(#linear-gradient);}.cls-2{fill:url(#linear-gradient-2);}.cls-3{fill:url(#linear-gradient-3);}.cls-4{fill:#3f3c44;opacity:0.26;isolation:isolate;}</style><linearGradient id="linear-gradient" x1="248.1" y1="65.39" x2="400.93" y2="65.39" gradientUnits="userSpaceOnUse"><stop offset="0" stop-color="#f0512e"/><stop offset="0.26" stop-color="#f15b3d"/><stop offset="0.7" stop-color="#f26850"/><stop offset="1" stop-color="#f26d57"/></linearGradient><linearGradient id="linear-gradient-2" x1="419.43" y1="65.39" x2="495.93" y2="65.39" gradientUnits="userSpaceOnUse"><stop offset="0" stop-color="#f0512e"/><stop offset="0.34" stop-color="#f05331"/><stop offset="0.62" stop-color="#f15a3c"/><stop offset="0.89" stop-color="#f2664d"/><stop offset="1" stop-color="#f26d57"/></linearGradient><linearGradient id="linear-gradient-3" x1="1" y1="185.29" x2="513" y2="185.29" xlink:href="#linear-gradient-2"/></defs><title>lifeline-error</title><path class="cls-1" d="M494.79,48.85A47.81,47.81,0,0,0,446.85,1.17c-10.73,0-20.6,10.39-28.56,16.38-8-5.94-17.93-16.25-28.65-16.22A47.82,47.82,0,0,0,342,49.27C342,74.62,418.6,129.6,418.6,129.6S494.86,74.19,494.79,48.85Z" transform="translate(-1 -1.17)"/><path class="cls-2" d="M419.74,129.6S496,74.19,495.93,48.85A47.81,47.81,0,0,0,448,1.17c-10.73,0-20.6,10.39-28.56,16.38Z" transform="translate(-1 -1.17)"/><path class="cls-3" d="M513,212.61H390.54l-9.44,27.14c-2.21,6-8.94,9.93-15.22,9.93a15.44,15.44,0,0,1-2.85-.27c-6.81-1.29-10.78-7.24-11.3-14.15l-9.92-71.32L323.2,202a15.13,15.13,0,0,1-14.45,10.61H1v-30.3H304.63L330,131.5a15.16,15.16,0,0,1,18-10.19,15.45,15.45,0,0,1,11.58,14l11.18,75.92,6-19c3.1-7.48,6.86-9.93,13.22-9.93H513Z" transform="translate(-1 -1.17)"/><rect class="cls-4" y="181.14" width="23.38" height="30.3"/><rect class="cls-4" x="488.28" y="181.14" width="23.38" height="30.3"/></svg>