<svg id="Layer_1" data-name="Layer 1" xmlns="http://www.w3.org/2000/svg" xmlns:xlink="http://www.w3.org/1999/xlink" viewBox="0 0 512 356.62"><defs><style>.cls-1{fill:url(#linear-gradient);}.cls-2{fill:url(#linear-gradient-2);}.cls-3{fill:url(#linear-gradient-3);}.cls-4{fill:#3f3c44;opacity:0.26;isolation:isolate;}</style><linearGradient id="linear-gradient" x1="272.64" y1="65.91" x2="425.47" y2="65.91" gradientUnits="userSpaceOnUse"><stop offset="0" stop-color="#5abc73"/><stop offset="0.14" stop-color="#74c47a"/><stop offset="0.31" stop-color="#8aca80"/><stop offset="0.49" stop-color="#99cf85"/><stop offset="0.7" stop-color="#a2d187"/><stop offset="1" stop-color="#a5d288"/></linearGradient><linearGradient id="linear-gradient-2" x1="382.62" y1="65.91" x2="548.05" y2="65.91" gradientUnits="userSpaceOnUse"><stop offset="0" stop-color="#5abc73"/><stop offset="0.2" stop-color="#62be75"/><stop offset="0.51" stop-color="#77c47b"/><stop offset="0.88" stop-color="#99cf85"/><stop offset="1" stop-color="#a5d288"/></linearGradient><linearGradient id="linear-gradient-3" x1="0.36" y1="197.39" x2="512.36" y2="197.39" gradientUnits="userSpaceOnUse"><stop offset="0" stop-color="#5abc73"/><stop offset="0.26" stop-color="#5dbd74"/><stop offset="0.48" stop-color="#68c077"/><stop offset="0.68" stop-color="#7ac57c"/><stop offset="0.88" stop-color="#92cc83"/><stop offset="1" stop-color="#a5d288"/></linearGradient></defs><title>lifeline-ok</title><path class="cls-1" d="M494.15,49.37A47.8,47.8,0,0,0,446.21,1.69c-10.73,0-20.6,10.39-28.56,16.38-8-5.94-17.92-16.25-28.65-16.22a47.8,47.8,0,0,0-47.67,47.94C341.4,75.14,418,130.12,418,130.12S494.22,74.71,494.15,49.37Z" transform="translate(-0.36 -1.69)"/><path class="cls-2" d="M419.1,130.12s76.26-55.41,76.19-80.75A47.81,47.81,0,0,0,447.35,1.69c-10.73,0-20.6,10.39-28.56,16.38Z" transform="translate(-0.36 -1.69)"/><path class="cls-3" d="M512.36,213.13H342.06L292.41,348.38a15.16,15.16,0,0,1-14.21,9.93,15.17,15.17,0,0,1-15.15-14.43l-16-212.45-22.33,71.09a15.15,15.15,0,0,1-14.46,10.61H.36v-30.3H199.15L241.79,47.09a15.17,15.17,0,0,1,18-10.19,15.46,15.46,0,0,1,11.59,14l16.66,221.43,29.21-79.56a15.14,15.14,0,0,1,14.22-9.93H512.36Z" transform="translate(-0.36 -1.69)"/><rect class="cls-4" y="181.14" width="23.38" height="30.3"/><rect class="cls-4" x="488.28" y="181.14" width="23.38" height="30.3"/></svg>