<svg id="Layer_1" data-name="Layer 1" xmlns="http://www.w3.org/2000/svg" viewBox="0 0 48.5 34.21"><defs><style>.cls-1{fill:none;stroke:#e4f3f9;stroke-miterlimit:10;stroke-width:3px;}.cls-2{fill:#e4f3f9;}</style></defs><title>logo-ias_white</title><line class="cls-1" x1="1.5" y1="17.1" x2="1.5" y2="6.22"/><line class="cls-1" x1="1.5" y1="34.21" x2="1.5" y2="23.32"/><path class="cls-2" d="M13.24,28.83H9.31l12.58-22h4.55l2.77,22H26.16l-.75-5.24-9.29,0Zm4.6-8.36H25L23.65,10h-.06Z" transform="translate(-0.2 -0.25)"/><path class="cls-2" d="M34.25,24.48a9.24,9.24,0,0,0,5,1.4c2.12,0,4.08-1.14,4.08-3.26,0-1.44-.95-2.41-3.1-3.56-2.55-1.37-4.47-3.13-4.47-5.74,0-4.2,3.65-6.85,8.09-6.85A9.91,9.91,0,0,1,48.7,7.58l-1.24,3.17a8.29,8.29,0,0,0-4-1c-2.41,0-3.78,1.4-3.78,2.87S40.94,15,43,16.19c2.68,1.41,4.28,3.17,4.28,5.84,0,4.4-3.56,7.11-8.49,7.11A10.14,10.14,0,0,1,33,27.61Z" transform="translate(-0.2 -0.25)"/><path class="cls-2" d="M32.8.25l.8,3.55a.39.39,0,0,0,.32.32l3.54.8-3.55.8A.38.38,0,0,0,33.6,6l-.8,3.55L32,6a.39.39,0,0,0-.32-.31l-3.55-.8,3.54-.8A.4.4,0,0,0,32,3.8Z" transform="translate(-0.2 -0.25)"/></svg>