<svg id="Layer_1" data-name="Layer 1" xmlns="http://www.w3.org/2000/svg" viewBox="0 0 41.89 29.76"><defs><style>.cls-1{fill:none;stroke:#212d3a;stroke-miterlimit:10;stroke-width:2px;}.cls-2{fill:#212d3a;}</style></defs><title>logo</title><line class="cls-1" x1="1" y1="14.88" x2="1" y2="5.41"/><line class="cls-1" x1="1" y1="29.76" x2="1" y2="20.29"/><path class="cls-2" d="M11,25.06H7.62L18.56,5.93h4l2.41,19.12H22.28l-.65-4.56-8.09,0Zm4-7.27h6.25L20.1,8.65H20Z" transform="translate(0 -0.21)"/><path class="cls-2" d="M29.32,21.28a8,8,0,0,0,4.31,1.22c1.84,0,3.55-1,3.55-2.84,0-1.25-.83-2.1-2.7-3.09-2.21-1.19-3.89-2.72-3.89-5,0-3.66,3.18-5.95,7-5.95a8.61,8.61,0,0,1,4.26,1L40.81,9.33a7.18,7.18,0,0,0-3.46-.85c-2.1,0-3.3,1.22-3.3,2.5s1.08,2.07,2.87,3.09c2.33,1.22,3.72,2.75,3.72,5.08,0,3.83-3.1,6.19-7.38,6.19A8.81,8.81,0,0,1,28.18,24Z" transform="translate(0 -0.21)"/><path class="cls-2" d="M28.05.21l.7,3.08a.34.34,0,0,0,.28.28l3.08.69L29,5a.32.32,0,0,0-.27.27l-.7,3.09-.7-3.09A.32.32,0,0,0,27.08,5L24,4.26l3.08-.69a.36.36,0,0,0,.29-.28Z" transform="translate(0 -0.21)"/></svg>