<?xml version="1.0" encoding="UTF-8" standalone="no"?>
<svg
   xmlns:dc="http://purl.org/dc/elements/1.1/"
   xmlns:cc="http://creativecommons.org/ns#"
   xmlns:rdf="http://www.w3.org/1999/02/22-rdf-syntax-ns#"
   xmlns:svg="http://www.w3.org/2000/svg"
   xmlns="http://www.w3.org/2000/svg"
   xmlns:sodipodi="http://sodipodi.sourceforge.net/DTD/sodipodi-0.dtd"
   xmlns:inkscape="http://www.inkscape.org/namespaces/inkscape"
   id="Layer_1"
   data-name="Layer 1"
   viewBox="0 0 65 63.000002"
   version="1.1"
   inkscape:version="0.91 r13725"
   sodipodi:docname="logo-ias_black.svg"
   width="65"
   height="63">
  <metadata
     id="metadata21">
    <rdf:RDF>
      <cc:Work
         rdf:about="">
        <dc:format>image/svg+xml</dc:format>
        <dc:type
           rdf:resource="http://purl.org/dc/dcmitype/StillImage" />
        <dc:title>logo-ias_white</dc:title>
      </cc:Work>
    </rdf:RDF>
  </metadata>
  <sodipodi:namedview
     pagecolor="#ffffff"
     bordercolor="#666666"
     borderopacity="1"
     objecttolerance="10"
     gridtolerance="10"
     guidetolerance="10"
     inkscape:pageopacity="0"
     inkscape:pageshadow="2"
     inkscape:window-width="1920"
     inkscape:window-height="1056"
     id="namedview19"
     showgrid="false"
     inkscape:zoom="6.8041235"
     inkscape:cx="25.406713"
     inkscape:cy="28.21832"
     inkscape:window-x="0"
     inkscape:window-y="1464"
     inkscape:window-maximized="1"
     inkscape:current-layer="Layer_1" />
  <defs
     id="defs3">
    <style
       id="style5">.cls-1{fill:none;stroke:#e4f3f9;stroke-miterlimit:10;stroke-width:3px;}.cls-2{fill:#e4f3f9;}</style>
  </defs>
  <title
     id="title7">logo-ias_white</title>
  <line
     class="cls-1"
     x1="3.9803033"
     y1="30.2803"
     x2="3.9803033"
     y2="16.334122"
     id="line9"
     style="fill:#222d3a;fill-opacity:1;stroke:#222d3a;stroke-width:3.84545469px;stroke-miterlimit:10;stroke-opacity:1" />
  <line
     class="cls-1"
     x1="3.9803033"
     y1="52.212212"
     x2="3.9803033"
     y2="38.253212"
     id="line11"
     style="fill:none;stroke:#222d3a;stroke-width:3.84545469px;stroke-miterlimit:10;stroke-opacity:1" />
  <path
     class="cls-2"
     d="m 18.772486,44.995576 -5.037546,0 16.125273,-28.200001 5.832273,0 3.550637,28.200001 -3.909546,0 -0.961364,-6.716728 -11.908091,0 z m 5.896364,-10.716001 9.177818,0 -1.730455,-13.420636 -0.07691,0 z"
     id="path13"
     style="fill:#222d3a;fill-opacity:1"
     inkscape:connector-curvature="0" />
  <path
     class="cls-2"
     d="m 45.703487,39.419666 a 11.844,11.844 0 0 0 6.409091,1.794546 c 2.717454,0 5.229818,-1.461273 5.229818,-4.178727 0,-1.845819 -1.217727,-3.089182 -3.973636,-4.563273 -3.268637,-1.756091 -5.729728,-4.012091 -5.729728,-7.357637 0,-5.383636 4.678637,-8.780455 10.369909,-8.780455 a 12.702819,12.702819 0 0 1 6.216819,1.422818 l -1.589455,4.063364"
     id="path15"
     style="fill:#222d3a;fill-opacity:1"
     inkscape:connector-curvature="0" />
  <path
     class="cls-2"
     d="m 43.84485,8.3612112 1.025455,4.5504548 a 0.49990911,0.49990911 0 0 0 0.410182,0.410181 l 4.537636,1.025455 -4.550455,1.025455 a 0.48709092,0.48709092 0 0 0 -0.397363,0.358909 L 43.84485,20.28212 42.819396,15.731666"
     id="path17"
     style="fill:#222d3a;fill-opacity:1"
     inkscape:connector-curvature="0" />
</svg>
