<?xml version="1.0" encoding="utf-8"?>
<!-- Generator: Adobe Illustrator 22.1.0, SVG Export Plug-In . SVG Version: 6.00 Build 0)  -->
<svg version="1.1" id="Layer_1" xmlns="http://www.w3.org/2000/svg" xmlns:xlink="http://www.w3.org/1999/xlink" x="0px" y="0px"
	 viewBox="0 0 26 15" style="enable-background:new 0 0 26 15;" xml:space="preserve">
<style type="text/css">
	.st0{fill:url(#SVGID_1_);}
	.st1{fill:url(#SVGID_2_);}
	.st2{fill:url(#SVGID_3_);}
	.st3{fill:url(#SVGID_4_);}
</style>
<linearGradient id="SVGID_1_" gradientUnits="userSpaceOnUse" x1="0.6517" y1="7.5939" x2="3.6194" y2="7.5939">
	<stop  offset="0" style="stop-color:#F54E2D"/>
	<stop  offset="0.3427" style="stop-color:#F65130"/>
	<stop  offset="0.6354" style="stop-color:#F9593B"/>
	<stop  offset="0.9089" style="stop-color:#FD674C"/>
	<stop  offset="0.9988" style="stop-color:#FF6D54"/>
</linearGradient>
<path class="st0" d="M2.5,0.1l-0.8,0c-0.6,0-1.1,0.5-1.1,1.1l0,12.8c0,0.6,0.5,1.1,1.1,1.1l0.8,0c0.6,0,1.1-0.5,1.1-1.1l0-12.8
	C3.6,0.6,3.1,0.1,2.5,0.1z"/>
<linearGradient id="SVGID_2_" gradientUnits="userSpaceOnUse" x1="7.8126" y1="7.5833" x2="10.7803" y2="7.5833">
	<stop  offset="0" style="stop-color:#F54E2D"/>
	<stop  offset="0.3427" style="stop-color:#F65130"/>
	<stop  offset="0.6354" style="stop-color:#F9593B"/>
	<stop  offset="0.9089" style="stop-color:#FD674C"/>
	<stop  offset="0.9988" style="stop-color:#FF6D54"/>
</linearGradient>
<path class="st1" d="M9.7,0.1l-0.8,0c-0.6,0-1.1,0.5-1.1,1.1l0,12.8c0,0.6,0.5,1.1,1.1,1.1l0.8,0c0.6,0,1.1-0.5,1.1-1.1l0-12.8
	C10.8,0.6,10.3,0.1,9.7,0.1z"/>
<linearGradient id="SVGID_3_" gradientUnits="userSpaceOnUse" x1="14.9735" y1="7.5727" x2="17.9411" y2="7.5727">
	<stop  offset="0" style="stop-color:#F54E2D"/>
	<stop  offset="0.3427" style="stop-color:#F65130"/>
	<stop  offset="0.6354" style="stop-color:#F9593B"/>
	<stop  offset="0.9089" style="stop-color:#FD674C"/>
	<stop  offset="0.9988" style="stop-color:#FF6D54"/>
</linearGradient>
<path class="st2" d="M16.8,0.1l-0.8,0c-0.6,0-1.1,0.5-1.1,1.1L15,14c0,0.6,0.5,1.1,1.1,1.1l0.8,0c0.6,0,1.1-0.5,1.1-1.1l0-12.8
	C17.9,0.6,17.4,0.1,16.8,0.1z"/>
<linearGradient id="SVGID_4_" gradientUnits="userSpaceOnUse" x1="22.1344" y1="7.562" x2="25.102" y2="7.562">
	<stop  offset="0" style="stop-color:#F54E2D"/>
	<stop  offset="0.3427" style="stop-color:#F65130"/>
	<stop  offset="0.6354" style="stop-color:#F9593B"/>
	<stop  offset="0.9089" style="stop-color:#FD674C"/>
	<stop  offset="0.9988" style="stop-color:#FF6D54"/>
</linearGradient>
<path class="st3" d="M24,0.1l-0.8,0c-0.6,0-1.1,0.5-1.1,1.1l0,12.8c0,0.6,0.5,1.1,1.1,1.1l0.8,0c0.6,0,1.1-0.5,1.1-1.1l0-12.8
	C25.1,0.5,24.6,0.1,24,0.1z"/>
</svg>
