<?xml version="1.0" encoding="utf-8"?>
<!-- Generator: Adobe Illustrator 22.1.0, SVG Export Plug-In . SVG Version: 6.00 Build 0)  -->
<svg version="1.1" id="Layer_1" xmlns="http://www.w3.org/2000/svg" xmlns:xlink="http://www.w3.org/1999/xlink" x="0px" y="0px"
	 viewBox="0 0 26 15" style="enable-background:new 0 0 26 15;" xml:space="preserve">
<style type="text/css">
	.st0{fill:#212D3A;}
</style>
<path class="st0" d="M2.5,0.1l-0.8,0c-0.6,0-1.1,0.5-1.1,1.1l0,12.8c0,0.6,0.5,1.1,1.1,1.1l0.8,0c0.6,0,1.1-0.5,1.1-1.1l0-12.8
	C3.6,0.6,3.1,0.1,2.5,0.1z"/>
<path class="st0" d="M9.7,0.1l-0.8,0c-0.6,0-1.1,0.5-1.1,1.1l0,12.8c0,0.6,0.5,1.1,1.1,1.1l0.8,0c0.6,0,1.1-0.5,1.1-1.1l0-12.8
	C10.8,0.6,10.3,0.1,9.7,0.1z"/>
<path class="st0" d="M16.8,0.1l-0.8,0c-0.6,0-1.1,0.5-1.1,1.1L15,14c0,0.6,0.5,1.1,1.1,1.1l0.8,0c0.6,0,1.1-0.5,1.1-1.1l0-12.8
	C17.9,0.6,17.4,0.1,16.8,0.1z"/>
<path class="st0" d="M24,0.1l-0.8,0c-0.6,0-1.1,0.5-1.1,1.1l0,12.8c0,0.6,0.5,1.1,1.1,1.1l0.8,0c0.6,0,1.1-0.5,1.1-1.1l0-12.8
	C25.1,0.5,24.6,0.1,24,0.1z"/>
</svg>
