<?xml version="1.0" encoding="utf-8"?>
<!-- Generator: Adobe Illustrator 22.1.0, SVG Export Plug-In . SVG Version: 6.00 Build 0)  -->
<svg version="1.1" id="Layer_1" xmlns="http://www.w3.org/2000/svg" xmlns:xlink="http://www.w3.org/1999/xlink" x="0px" y="0px"
	 viewBox="0 0 15.2 13.9" style="enable-background:new 0 0 15.2 13.9;" xml:space="preserve">
<style type="text/css">.st0{fill:none;}.st1{fill:none;stroke:#0081b9;stroke-width:2;stroke-linecap:round;stroke-miterlimit:10;}</style>
<title>set-critical-invalid</title>
<path class="st0" d="M6,1.9l-4.8,8.3c-0.5,0.9-0.2,1.9,0.7,2.4c0.3,0.2,0.6,0.2,0.9,0.2h9.6c1,0,1.8-0.8,1.8-1.8c0,0,0,0,0,0
	c0-0.3-0.1-0.6-0.2-0.9L9.1,1.9C8.6,1,7.5,0.7,6.7,1.2C6.4,1.4,6.2,1.6,6,1.9z"/>
<path class="st1" d="M6,1.9l-4.8,8.3c-0.5,0.9-0.2,1.9,0.7,2.4c0.3,0.2,0.6,0.2,0.9,0.2h9.6c1,0,1.8-0.8,1.8-1.8c0,0,0,0,0,0
	c0-0.3-0.1-0.6-0.2-0.9L9.1,1.9C8.6,1,7.5,0.7,6.7,1.2C6.4,1.4,6.2,1.6,6,1.9z"/>
</svg>
