<?xml version="1.0" encoding="utf-8"?>
<!-- Generator: Adobe Illustrator 22.1.0, SVG Export Plug-In . SVG Version: 6.00 Build 0)  -->
<svg version="1.1" id="Layer_1" xmlns="http://www.w3.org/2000/svg" xmlns:xlink="http://www.w3.org/1999/xlink" x="0px" y="0px"
	 viewBox="0 0 17 15" style="enable-background:new 0 0 17 15;" xml:space="preserve">
<style type="text/css">
	.st0{fill:#4AC8FF;}
</style>
<g>
	<g>
		<g>
			<path class="st0" d="M14.7,4.3H13c-0.2,0-0.3,0.1-0.3,0.3v8H4v-8c0-0.2-0.1-0.3-0.3-0.3H2c-0.2,0-0.3,0.1-0.3,0.3v8.7
				c0,0.9,0.7,1.5,1.5,1.5h10.2c0.9,0,1.5-0.7,1.5-1.5V4.5C15,4.4,14.9,4.3,14.7,4.3z"/>
		</g>
	</g>
</g>
<g>
	<path class="st0" d="M11.6,5.8l-0.3-0.3c-0.1-0.1-0.2-0.2-0.4-0.2c-0.2,0-0.3,0.1-0.4,0.2L8.4,7.6L6.2,5.4C6.1,5.3,6,5.3,5.8,5.3
		c-0.2,0-0.3,0.1-0.4,0.2L5.1,5.8C5,5.9,4.9,6,4.9,6.2c0,0.2,0.1,0.3,0.2,0.4L8,9.4c0.1,0.1,0.2,0.2,0.4,0.2c0.2,0,0.3-0.1,0.4-0.2
		l2.9-2.9c0.1-0.1,0.2-0.2,0.2-0.4C11.8,6,11.7,5.9,11.6,5.8z"/>
</g>
</svg>
