<?xml version="1.0" encoding="utf-8"?>
<!-- Generator: Adobe Illustrator 22.1.0, SVG Export Plug-In . SVG Version: 6.00 Build 0)  -->
<svg version="1.1" id="Layer_1" xmlns="http://www.w3.org/2000/svg" xmlns:xlink="http://www.w3.org/1999/xlink" x="0px" y="0px"
	 viewBox="0 0 17 15" style="enable-background:new 0 0 17 15;" xml:space="preserve">
<style type="text/css">
	.st0{fill:#4AC8FF;}
</style>
<g>
	<g>
		<g>
			<path class="st0" d="M8.3,8.2l3-3c0.3-0.3,0.2-0.5-0.2-0.5H9.4l0-3.6C9.4,0.5,8.9,0,8.3,0l0,0C7.7,0,7.2,0.5,7.2,1.1l0,3.6H5.5
				C5.1,4.7,5,4.9,5.3,5.2L8.3,8.2z"/>
			<path class="st0" d="M14.7,4.3H13c-0.2,0-0.3,0.1-0.3,0.3v8H4v-8c0-0.2-0.1-0.3-0.3-0.3H2c-0.2,0-0.3,0.1-0.3,0.3v8.7
				c0,0.9,0.7,1.5,1.5,1.5h10.2c0.9,0,1.5-0.7,1.5-1.5V4.5C15,4.4,14.9,4.3,14.7,4.3z"/>
		</g>
	</g>
</g>
</svg>
