<?xml version="1.0" encoding="utf-8"?>
<!-- Generator: Adobe Illustrator 22.1.0, SVG Export Plug-In . SVG Version: 6.00 Build 0)  -->
<svg version="1.1" id="Layer_1" xmlns="http://www.w3.org/2000/svg" xmlns:xlink="http://www.w3.org/1999/xlink" x="0px" y="0px"
	 viewBox="0 0 13.2 10.5" style="enable-background:new 0 0 13.2 10.5;" xml:space="preserve">
<style type="text/css">
	.st0{opacity:0;}
	.st1{fill:#22384e;}
</style>
<rect x="0" class="st0" width="13.2" height="10.5"/>
<g>
	<g>
		<g>
			<path class="st1" d="M13,0h-1.7C11.1,0,11,0.1,11,0.3v8H2.3v-8C2.3,0.1,2.2,0,2,0H0.3C0.1,0,0,0.1,0,0.3V9c0,0.9,0.7,1.5,1.5,1.5
				h10.2c0.9,0,1.5-0.7,1.5-1.5V0.2C13.2,0.1,13.2,0,13,0z"/>
		</g>
	</g>
</g>
<g>
	<path class="st1" d="M9.9,1.5L9.6,1.2C9.5,1.1,9.4,1,9.2,1S8.9,1.1,8.8,1.2L6.7,3.3L4.5,1.1C4.4,1,4.3,1,4.1,1
		C3.9,1,3.8,1.1,3.7,1.2L3.4,1.5C3.3,1.6,3.2,1.7,3.2,1.9s0.1,0.3,0.2,0.4l2.9,2.8c0.1,0.1,0.2,0.2,0.4,0.2S7,5.2,7.1,5.1L10,2.2
		c0.2-0.2,0.3-0.3,0.2-0.4C10.1,1.7,10,1.6,9.9,1.5z"/>
</g>
<path class="st1" d="M6.6,3.2L4.5,1.2C4.4,1.1,4.3,1,4.1,1C3.9,1,3.8,1.1,3.7,1.2L3.4,1.5C3.3,1.6,3.2,1.7,3.2,1.9s0.1,0.3,0.2,0.4
	l2.7,2.8c0.1,0.1,0.3,0.2,0.5,0.2l0,0c0.2,0,0.4-0.1,0.5-0.2l2.7-2.8C9.9,2.1,10,2.1,10,1.9S9.9,1.6,9.8,1.4L9.5,1.1
	C9.4,1,9.3,0.9,9.1,0.9c-0.2,0-0.3,0.1-0.4,0.2L6.6,3.2"/>
</svg>
