<?xml version="1.0" encoding="UTF-8" standalone="no"?>
<!-- Created with Inkscape (http://www.inkscape.org/) -->

<svg
   xmlns:dc="http://purl.org/dc/elements/1.1/"
   xmlns:cc="http://creativecommons.org/ns#"
   xmlns:rdf="http://www.w3.org/1999/02/22-rdf-syntax-ns#"
   xmlns:svg="http://www.w3.org/2000/svg"
   xmlns="http://www.w3.org/2000/svg"
   xmlns:xlink="http://www.w3.org/1999/xlink"
   xmlns:sodipodi="http://sodipodi.sourceforge.net/DTD/sodipodi-0.dtd"
   xmlns:inkscape="http://www.inkscape.org/namespaces/inkscape"
   width="17.277292mm"
   height="16.562916mm"
   viewBox="0 0 17.277292 16.562916"
   version="1.1"
   id="svg7294"
   inkscape:version="0.92.3 (2405546, 2018-03-11)"
   sodipodi:docname="temp-1-non-active.svg">
  <defs
     id="defs7288">
    <path
       d="m 1,16.6 20.7,11.7 c 1.3,0.8 2,1.1 3.7,1 0.3,0 31.9,-4.9 31.9,-4.9 2.5,-0.4 4.7,-1.8 6.2,-4.1 1.4,-2.2 2,-5 1.6,-7.8 C 64.9,9.7 63.6,7 61.6,5 V 5 C 59.6,2.9 57,1.7 54.4,1.6 54.4,1.6 21.9,0 21.6,0 20.1,0.1 17.3,2.1 17.2,2.2 L 4.5,12.6 m 10.3,2.5 c 0.2,1.5 0.5,2.9 0.9,4.3 l -6.9,-4 5.8,-4.8 c -0.1,1.4 0,3 0.2,4.5 z m 10.4,9.4 c 0,0 -0.9,0.4 -2.4,-1.1 -1.5,-1.6 -3,-4.8 -3.5,-8.6 -0.7,-5.5 0.9,-9.9 2.9,-10.1 h 0.4 c 2,0.4 4.5,4.4 5.3,9.7 0.6,5.3 -0.9,9.6 -2.7,10.1 z m 14.3,-2.2 -7.9,1.2 c 0.9,-2.6 1.1,-5.9 0.7,-9.3 -0.4,-3.4 -1.6,-6.6 -3.1,-9.1 l 8.1,0.4 c 1.2,2.2 2.2,5.2 2.6,8.4 0.3,3.1 0.2,6.2 -0.4,8.4 z m 12.1,-1.8 -7.2,1.1 c 0.2,-2.4 0.2,-5.1 -0.2,-7.9 -0.4,-2.9 -1.1,-5.6 -2,-7.9 l 7.4,0.4 c 1.2,1.8 2.1,4.4 2.4,7.1 0.4,2.6 0.3,5.3 -0.4,7.2 z m 9.2,-7.7 c 0.5,3.4 -1.4,6.3 -4.2,6.9 0.2,-2.1 0.2,-4.4 -0.1,-6.7 -0.3,-2.3 -0.9,-4.6 -1.7,-6.6 3,0.3 5.6,3 6,6.4 z"
       id="SVGID_2_"
       inkscape:connector-curvature="0" />
    <path
       d="M 4.3,11.3 V 7 C 4.3,5.7 3.3,4.6 2.1,4.6 1,4.6 0,5.7 0,7 v 53.2 c 0,1.3 1,2.4 2.2,2.4 1.2,0 2.2,-1.1 2.2,-2.4 V 20.7"
       id="SVGID_5_"
       inkscape:connector-curvature="0" />
    <path
       d="M 57.6,33.2 C 56.9,30.4 55.3,28.1 53.1,26.7 53.1,26.7 25.8,9.1 25.5,8.9 24.1,8.2 20.7,8.6 20.5,8.6 L 4.3,11.3 V 7 C 4.3,5.7 3.3,4.6 2.1,4.6 1,4.6 0,5.7 0,7 v 53.2 c 0,1.3 1,2.4 2.2,2.4 1.2,0 2.2,-1.1 2.2,-2.4 V 20.7 l 7.1,12.7 c 0.8,1.3 1.1,2 2.7,2.8 0.3,0.2 30.1,11.8 30.1,11.8 2.4,0.9 5,0.8 7.4,-0.4 2.3,-1.2 4.2,-3.3 5.3,-6 1.1,-2.6 1.3,-5.6 0.6,-8.4 z M 12,18.6 c -0.6,1.4 -1,2.8 -1.3,4.2 l -4,-6.9 7.4,-1.3 c -0.8,1.2 -1.5,2.6 -2.1,4 z M 16.3,32 c 0,0 -1,-0.1 -1.6,-2.1 -0.5,-2.2 -0.2,-5.7 1.2,-9.2 2.1,-5.2 5.8,-8.1 7.6,-7.3 l 0.4,0.2 c 1.5,1.3 1.7,6.1 -0.3,11 -2,4.8 -5.4,7.8 -7.3,7.4 z m 13.5,5.2 -7.5,-2.9 c 2.1,-1.9 3.9,-4.6 5.2,-7.8 1.3,-3.2 2,-6.5 1.9,-9.5 l 6.8,4.4 c 0,2.5 -0.7,5.6 -2,8.6 -1.1,3 -2.7,5.6 -4.4,7.2 z M 41.2,41.7 34.5,39 c 1.4,-2 2.7,-4.3 3.8,-6.9 1.1,-2.7 1.9,-5.4 2.3,-7.9 l 6.2,4 c 0.1,2.2 -0.4,4.9 -1.5,7.4 -1.1,2.5 -2.6,4.7 -4.1,6.1 z M 53,39.6 c -1.3,3.1 -4.4,4.8 -7.1,3.9 1.3,-1.7 2.4,-3.7 3.3,-5.9 0.9,-2.2 1.5,-4.4 1.9,-6.6 2.4,1.8 3.2,5.5 1.9,8.6 z"
       id="SVGID_8_"
       inkscape:connector-curvature="0" />
    <path
       d="m 0.1,16 0.5,12.7 c 0.1,1.3 0.1,2 1,3.2 0.2,0.3 18.7,21.1 18.7,21.1 1.5,1.7 3.6,2.6 5.9,2.6 2.3,0 4.6,-0.9 6.5,-2.5 1.9,-1.6 3.3,-3.8 3.8,-6.3 v 0 C 37,44.3 36.7,41.9 35.6,39.9 35.6,39.9 21.4,15.4 21.2,15.1 20.4,14 17.6,12.9 17.5,12.9 L 3.9,8.7 M 7,17.4 c -1,0.8 -1.9,1.8 -2.7,2.7 l -0.3,-7 6.3,2 C 9.1,15.8 8,16.5 7,17.4 Z M 5,29.5 C 5,29.5 4.3,29 4.6,27.2 5,25.3 6.7,22.7 9.2,20.5 c 3.7,-3.2 7.7,-4 8.8,-2.7 l 0.2,0.3 c 0.6,1.6 -1.1,5.4 -4.6,8.4 -3.5,3.1 -7.3,4 -8.6,3 z m 8.4,9.4 -4.6,-5.2 c 2.3,-0.6 4.9,-2 7.1,-3.9 2.2,-1.9 4.1,-4.3 5.2,-6.6 l 3.5,6.1 c -1,1.9 -2.8,4.1 -4.9,5.9 -2.1,1.7 -4.4,3.1 -6.3,3.7 z m 7.1,8 -4.2,-4.7 c 1.9,-1 3.8,-2.3 5.7,-3.9 1.9,-1.7 3.6,-3.4 4.9,-5.2 l 3.2,5.6 c -0.8,1.7 -2.2,3.6 -4.1,5.1 -1.8,1.6 -3.8,2.7 -5.5,3.1 z m 10,3.1 c -2.2,1.9 -5.3,2 -7,0.2 1.6,-0.8 3.3,-1.9 4.9,-3.3 1.6,-1.4 2.9,-2.8 4.1,-4.4 1,2.4 0.2,5.6 -2,7.5 z"
       id="SVGID_12_"
       inkscape:connector-curvature="0" />
    <path
       d="M 4.3,11.3 V 7 C 4.3,5.7 3.3,4.6 2.1,4.6 1,4.6 0,5.7 0,7 v 53.2 c 0,1.3 1,2.4 2.2,2.4 1.2,0 2.2,-1.1 2.2,-2.4 V 20.7"
       id="SVGID_15_"
       inkscape:connector-curvature="0" />
    <path
       d="M 43.5,13.7 C 40.3,9.7 37,5.4 34.4,0.9 33.7,-0.3 31.7,-0.3 31,0.9 28.3,5.4 25,9.6 21.8,13.7 15.3,22 9.2,29.8 9.2,39.1 9.2,52 19.7,62.6 32.7,62.6 45.7,62.6 56.1,52 56.1,39.1 56.1,29.8 50,22 43.5,13.7 Z"
       id="SVGID_18_"
       inkscape:connector-curvature="0" />
    <path
       d="m 49.5,48 c -1.3,0 -2.4,1.1 -2.4,2.4 0,4 -3.3,7.3 -7.3,7.3 -4,0 -7.3,-3.3 -7.3,-7.3 V 21.7 c 0,-4 3.3,-7.3 7.3,-7.3 4,0 7.3,3.3 7.3,7.3 0,1.3 1.1,2.4 2.4,2.4 1.3,0 2.4,-1.1 2.4,-2.4 C 51.9,15 46.4,9.5 39.7,9.5 33,9.5 27.6,15 27.6,21.7 v 28.7 c 0,6.7 5.5,12.2 12.2,12.2 C 46.5,62.6 52,57.1 52,50.4 51.9,49.1 50.8,48 49.5,48 Z"
       id="SVGID_21_"
       inkscape:connector-curvature="0" />
    <path
       d="m 20.1,0.3 c -3.7,0 -6.7,3 -6.7,6.7 0,3.7 3,6.7 6.7,6.7 3.7,0 6.7,-3 6.7,-6.7 0,-3.7 -3,-6.7 -6.7,-6.7 z m 0,8.5 c -1,0 -1.8,-0.8 -1.8,-1.8 0,-1 0.8,-1.8 1.8,-1.8 1,0 1.9,0.8 1.9,1.8 0,1 -0.9,1.8 -1.9,1.8 z"
       id="SVGID_25_"
       inkscape:connector-curvature="0" />
  </defs>
  <sodipodi:namedview
     id="base"
     pagecolor="#ffffff"
     bordercolor="#666666"
     borderopacity="1.0"
     inkscape:pageopacity="0.0"
     inkscape:pageshadow="2"
     inkscape:zoom="1"
     inkscape:cx="244.07858"
     inkscape:cy="80.900683"
     inkscape:document-units="mm"
     inkscape:current-layer="layer1"
     showgrid="false"
     fit-margin-top="0"
     fit-margin-left="0"
     fit-margin-right="0"
     fit-margin-bottom="0"
     inkscape:window-width="1920"
     inkscape:window-height="1186"
     inkscape:window-x="-11"
     inkscape:window-y="-11"
     inkscape:window-maximized="1" />
  <metadata
     id="metadata7291">
    <rdf:RDF>
      <cc:Work
         rdf:about="">
        <dc:format>image/svg+xml</dc:format>
        <dc:type
           rdf:resource="http://purl.org/dc/dcmitype/StillImage" />
        <dc:title></dc:title>
      </cc:Work>
    </rdf:RDF>
  </metadata>
  <g
     inkscape:label="Layer 1"
     inkscape:groupmode="layer"
     id="layer1"
     transform="translate(-41.254208,-106.53402)">
    <g
       id="g8891"
       transform="matrix(0.26458333,0,0,0.26458333,41.254208,106.53402)"
       style="fill:#00ccff">
      <g
         id="Layer_2"
         style="fill:#00ccff">
	<linearGradient
   y2="31.303499"
   x2="65.343498"
   y1="31.303499"
   x1="-1.818989e-012"
   gradientUnits="userSpaceOnUse"
   id="SVGID_1_">
		<stop
   id="stop8186"
   style="stop-color:#F0512E"
   offset="0" />

		<stop
   id="stop8188"
   style="stop-color:#F05230"
   offset="0.2764" />

		<stop
   id="stop8190"
   style="stop-color:#F15736"
   offset="0.5125" />

		<stop
   id="stop8192"
   style="stop-color:#F15F42"
   offset="0.7338" />

		<stop
   id="stop8194"
   style="stop-color:#F26A52"
   offset="0.9449" />

		<stop
   id="stop8196"
   style="stop-color:#F26D57"
   offset="0.9988" />

	</linearGradient>

	<rect
   id="rect8199"
   height="62.599998"
   width="65.300003"
   class="st0"
   x="0"
   y="0"
   style="opacity:0;fill:#00ccff" />

</g>
      <g
         class="st1"
         id="Layer_1"
         style="display:none;fill:#00ccff">
	<g
   id="g8248"
   class="st2"
   style="display:inline;fill:#00ccff">
		<g
   id="g8223"
   style="fill:#00ccff">
			<defs
   id="defs8203">
				<path
   d="m 1,16.6 20.7,11.7 c 1.3,0.8 2,1.1 3.7,1 0.3,0 31.9,-4.9 31.9,-4.9 2.5,-0.4 4.7,-1.8 6.2,-4.1 1.4,-2.2 2,-5 1.6,-7.8 C 64.9,9.7 63.6,7 61.6,5 V 5 C 59.6,2.9 57,1.7 54.4,1.6 54.4,1.6 21.9,0 21.6,0 20.1,0.1 17.3,2.1 17.2,2.2 L 4.5,12.6 m 10.3,2.5 c 0.2,1.5 0.5,2.9 0.9,4.3 l -6.9,-4 5.8,-4.8 c -0.1,1.4 0,3 0.2,4.5 z m 10.4,9.4 c 0,0 -0.9,0.4 -2.4,-1.1 -1.5,-1.6 -3,-4.8 -3.5,-8.6 -0.7,-5.5 0.9,-9.9 2.9,-10.1 h 0.4 c 2,0.4 4.5,4.4 5.3,9.7 0.6,5.3 -0.9,9.6 -2.7,10.1 z m 14.3,-2.2 -7.9,1.2 c 0.9,-2.6 1.1,-5.9 0.7,-9.3 -0.4,-3.4 -1.6,-6.6 -3.1,-9.1 l 8.1,0.4 c 1.2,2.2 2.2,5.2 2.6,8.4 0.3,3.1 0.2,6.2 -0.4,8.4 z m 12.1,-1.8 -7.2,1.1 c 0.2,-2.4 0.2,-5.1 -0.2,-7.9 -0.4,-2.9 -1.1,-5.6 -2,-7.9 l 7.4,0.4 c 1.2,1.8 2.1,4.4 2.4,7.1 0.4,2.6 0.3,5.3 -0.4,7.2 z m 9.2,-7.7 c 0.5,3.4 -1.4,6.3 -4.2,6.9 0.2,-2.1 0.2,-4.4 -0.1,-6.7 -0.3,-2.3 -0.9,-4.6 -1.7,-6.6 3,0.3 5.6,3 6,6.4 z"
   id="path8650"
   inkscape:connector-curvature="0" />

			</defs>

			<clipPath
   id="SVGID_3_">
				<use
   id="use8205"
   style="overflow:visible"
   xlink:href="#SVGID_2_"
   x="0"
   y="0"
   width="100%"
   height="100%" />

			</clipPath>

			<linearGradient
   y2="10.8088"
   x2="43.783199"
   y1="45.2052"
   x1="24.671499"
   gradientUnits="userSpaceOnUse"
   id="SVGID_4_">
				<stop
   id="stop8208"
   style="stop-color:#F0512E"
   offset="0" />

				<stop
   id="stop8210"
   style="stop-color:#F05230"
   offset="0.2764" />

				<stop
   id="stop8212"
   style="stop-color:#F15736"
   offset="0.5125" />

				<stop
   id="stop8214"
   style="stop-color:#F15F42"
   offset="0.7338" />

				<stop
   id="stop8216"
   style="stop-color:#F26A52"
   offset="0.9449" />

				<stop
   id="stop8218"
   style="stop-color:#F26D57"
   offset="0.9988" />

			</linearGradient>

			<rect
   id="rect8221"
   clip-path="url(#SVGID_3_)"
   height="63"
   width="67"
   class="st3"
   y="-0.40000001"
   x="-1"
   style="fill:#00ccff" />

		</g>

		<g
   id="g8246"
   style="fill:#00ccff">
			<defs
   id="defs8226">
				<path
   d="M 4.3,11.3 V 7 C 4.3,5.7 3.3,4.6 2.1,4.6 1,4.6 0,5.7 0,7 v 53.2 c 0,1.3 1,2.4 2.2,2.4 1.2,0 2.2,-1.1 2.2,-2.4 V 20.7"
   id="path8664"
   inkscape:connector-curvature="0" />

			</defs>

			<clipPath
   id="SVGID_6_">
				<use
   id="use8228"
   style="overflow:visible"
   xlink:href="#SVGID_5_"
   x="0"
   y="0"
   width="100%"
   height="100%" />

			</clipPath>

			<linearGradient
   y2="10.8088"
   x2="44.783199"
   y1="45.2052"
   x1="25.671499"
   gradientUnits="userSpaceOnUse"
   id="SVGID_7_">
				<stop
   id="stop8231"
   style="stop-color:#F0512E"
   offset="0" />

				<stop
   id="stop8233"
   style="stop-color:#F05230"
   offset="0.2764" />

				<stop
   id="stop8235"
   style="stop-color:#F15736"
   offset="0.5125" />

				<stop
   id="stop8237"
   style="stop-color:#F15F42"
   offset="0.7338" />

				<stop
   id="stop8239"
   style="stop-color:#F26A52"
   offset="0.9449" />

				<stop
   id="stop8241"
   style="stop-color:#F26D57"
   offset="0.9988" />

			</linearGradient>

			<rect
   id="rect8244"
   clip-path="url(#SVGID_6_)"
   height="63"
   width="67"
   class="st4"
   y="-0.40000001"
   x="0"
   style="fill:#00ccff" />

		</g>

	</g>

</g>
      <g
         class="st1"
         id="Layer_3"
         style="display:none;fill:#00ccff">
	<g
   id="g8283"
   class="st2"
   style="display:inline;fill:#00ccff">
		<defs
   id="defs8252">
			<path
   d="M 57.6,33.2 C 56.9,30.4 55.3,28.1 53.1,26.7 53.1,26.7 25.8,9.1 25.5,8.9 24.1,8.2 20.7,8.6 20.5,8.6 L 4.3,11.3 V 7 C 4.3,5.7 3.3,4.6 2.1,4.6 1,4.6 0,5.7 0,7 v 53.2 c 0,1.3 1,2.4 2.2,2.4 1.2,0 2.2,-1.1 2.2,-2.4 V 20.7 l 7.1,12.7 c 0.8,1.3 1.1,2 2.7,2.8 0.3,0.2 30.1,11.8 30.1,11.8 2.4,0.9 5,0.8 7.4,-0.4 2.3,-1.2 4.2,-3.3 5.3,-6 1.1,-2.6 1.3,-5.6 0.6,-8.4 z M 12,18.6 c -0.6,1.4 -1,2.8 -1.3,4.2 l -4,-6.9 7.4,-1.3 c -0.8,1.2 -1.5,2.6 -2.1,4 z M 16.3,32 c 0,0 -1,-0.1 -1.6,-2.1 -0.5,-2.2 -0.2,-5.7 1.2,-9.2 2.1,-5.2 5.8,-8.1 7.6,-7.3 l 0.4,0.2 c 1.5,1.3 1.7,6.1 -0.3,11 -2,4.8 -5.4,7.8 -7.3,7.4 z m 13.5,5.2 -7.5,-2.9 c 2.1,-1.9 3.9,-4.6 5.2,-7.8 1.3,-3.2 2,-6.5 1.9,-9.5 l 6.8,4.4 c 0,2.5 -0.7,5.6 -2,8.6 -1.1,3 -2.7,5.6 -4.4,7.2 z M 41.2,41.7 34.5,39 c 1.4,-2 2.7,-4.3 3.8,-6.9 1.1,-2.7 1.9,-5.4 2.3,-7.9 l 6.2,4 c 0.1,2.2 -0.4,4.9 -1.5,7.4 -1.1,2.5 -2.6,4.7 -4.1,6.1 z M 53,39.6 c -1.3,3.1 -4.4,4.8 -7.1,3.9 1.3,-1.7 2.4,-3.7 3.3,-5.9 0.9,-2.2 1.5,-4.4 1.9,-6.6 2.4,1.8 3.2,5.5 1.9,8.6 z"
   id="path8680"
   inkscape:connector-curvature="0" />

		</defs>

		<linearGradient
   y2="25.7901"
   x2="27.531401"
   y1="48.751801"
   x1="14.7731"
   gradientUnits="userSpaceOnUse"
   id="SVGID_9_">
			<stop
   id="stop8254"
   style="stop-color:#EEBF39"
   offset="0" />

			<stop
   id="stop8256"
   style="stop-color:#EFC03C"
   offset="0.3391" />

			<stop
   id="stop8258"
   style="stop-color:#F3C646"
   offset="0.6287" />

			<stop
   id="stop8260"
   style="stop-color:#F9D158"
   offset="0.8993" />

			<stop
   id="stop8262"
   style="stop-color:#FCD660"
   offset="0.9976" />

		</linearGradient>

		<use
   id="use8265"
   style="overflow:visible;fill:#00ccff"
   xlink:href="#SVGID_8_"
   x="0"
   y="0"
   width="100%"
   height="100%" />

		<clipPath
   id="SVGID_10_">
			<use
   id="use8267"
   style="overflow:visible"
   xlink:href="#SVGID_8_"
   x="0"
   y="0"
   width="100%"
   height="100%" />

		</clipPath>

		<linearGradient
   y2="9.8722"
   x2="42.1926"
   y1="40.836498"
   x1="24.9879"
   gradientUnits="userSpaceOnUse"
   id="SVGID_11_">
			<stop
   id="stop8270"
   style="stop-color:#EEBF39"
   offset="0" />

			<stop
   id="stop8272"
   style="stop-color:#EFC03C"
   offset="0.3391" />

			<stop
   id="stop8274"
   style="stop-color:#F3C646"
   offset="0.6287" />

			<stop
   id="stop8276"
   style="stop-color:#F9D158"
   offset="0.8993" />

			<stop
   id="stop8278"
   style="stop-color:#FCD660"
   offset="0.9976" />

		</linearGradient>

		<rect
   id="rect8281"
   clip-path="url(#SVGID_10_)"
   height="58"
   width="58"
   class="st5"
   y="4.5999999"
   x="0"
   style="fill:#00ccff" />

	</g>

</g>
      <g
         class="st1"
         id="Layer_4"
         style="display:none;fill:#00ccff">
	<g
   id="g8332"
   class="st2"
   style="display:inline;fill:#00ccff">
		<g
   id="g8307"
   style="fill:#00ccff">
			<defs
   id="defs8287">
				<path
   d="m 0.1,16 0.5,12.7 c 0.1,1.3 0.1,2 1,3.2 0.2,0.3 18.7,21.1 18.7,21.1 1.5,1.7 3.6,2.6 5.9,2.6 2.3,0 4.6,-0.9 6.5,-2.5 1.9,-1.6 3.3,-3.8 3.8,-6.3 v 0 C 37,44.3 36.7,41.9 35.6,39.9 35.6,39.9 21.4,15.4 21.2,15.1 20.4,14 17.6,12.9 17.5,12.9 L 3.9,8.7 M 7,17.4 c -1,0.8 -1.9,1.8 -2.7,2.7 l -0.3,-7 6.3,2 C 9.1,15.8 8,16.5 7,17.4 Z M 5,29.5 C 5,29.5 4.3,29 4.6,27.2 5,25.3 6.7,22.7 9.2,20.5 c 3.7,-3.2 7.7,-4 8.8,-2.7 l 0.2,0.3 c 0.6,1.6 -1.1,5.4 -4.6,8.4 -3.5,3.1 -7.3,4 -8.6,3 z m 8.4,9.4 -4.6,-5.2 c 2.3,-0.6 4.9,-2 7.1,-3.9 2.2,-1.9 4.1,-4.3 5.2,-6.6 l 3.5,6.1 c -1,1.9 -2.8,4.1 -4.9,5.9 -2.1,1.7 -4.4,3.1 -6.3,3.7 z m 7.1,8 -4.2,-4.7 c 1.9,-1 3.8,-2.3 5.7,-3.9 1.9,-1.7 3.6,-3.4 4.9,-5.2 l 3.2,5.6 c -0.8,1.7 -2.2,3.6 -4.1,5.1 -1.8,1.6 -3.8,2.7 -5.5,3.1 z m 10,3.1 c -2.2,1.9 -5.3,2 -7,0.2 1.6,-0.8 3.3,-1.9 4.9,-3.3 1.6,-1.4 2.9,-2.8 4.1,-4.4 1,2.4 0.2,5.6 -2,7.5 z"
   id="path8701"
   inkscape:connector-curvature="0" />

			</defs>

			<clipPath
   id="SVGID_13_">
				<use
   id="use8289"
   style="overflow:visible"
   xlink:href="#SVGID_12_"
   x="0"
   y="0"
   width="100%"
   height="100%" />

			</clipPath>

			
				<linearGradient
   gradientTransform="matrix(0.9982,-0.06078641,0.06078641,0.9982,37.3544,-40.0479)"
   y2="53.5163"
   x2="-3.2183001"
   y1="84.8237"
   x1="-20.613701"
   gradientUnits="userSpaceOnUse"
   id="SVGID_14_">
				<stop
   id="stop8292"
   style="stop-color:#5ABC73"
   offset="0" />

				<stop
   id="stop8294"
   style="stop-color:#5EBD74"
   offset="0.2654" />

				<stop
   id="stop8296"
   style="stop-color:#6BC178"
   offset="0.4921" />

				<stop
   id="stop8298"
   style="stop-color:#7FC67D"
   offset="0.7047" />

				<stop
   id="stop8300"
   style="stop-color:#98CE84"
   offset="0.9074" />

				<stop
   id="stop8302"
   style="stop-color:#A5D288"
   offset="0.9976" />

			</linearGradient>

			<polyline
   id="polyline8305"
   clip-path="url(#SVGID_13_)"
   points="-2.6,5.8 0.9,63.7 58.8,60.2 55.2,1.3    "
   class="st6"
   style="fill:#00ccff" />

		</g>

		<g
   id="g8330"
   style="fill:#00ccff">
			<defs
   id="defs8310">
				<path
   d="M 4.3,11.3 V 7 C 4.3,5.7 3.3,4.6 2.1,4.6 1,4.6 0,5.7 0,7 v 53.2 c 0,1.3 1,2.4 2.2,2.4 1.2,0 2.2,-1.1 2.2,-2.4 V 20.7"
   id="path8715"
   inkscape:connector-curvature="0" />

			</defs>

			<clipPath
   id="SVGID_16_">
				<use
   id="use8312"
   style="overflow:visible"
   xlink:href="#SVGID_15_"
   x="0"
   y="0"
   width="100%"
   height="100%" />

			</clipPath>

			<linearGradient
   y2="14.7504"
   x2="39.482201"
   y1="46.057899"
   x1="22.0868"
   gradientUnits="userSpaceOnUse"
   id="SVGID_17_">
				<stop
   id="stop8315"
   style="stop-color:#5ABC73"
   offset="0" />

				<stop
   id="stop8317"
   style="stop-color:#5EBD74"
   offset="0.2654" />

				<stop
   id="stop8319"
   style="stop-color:#6BC178"
   offset="0.4921" />

				<stop
   id="stop8321"
   style="stop-color:#7FC67D"
   offset="0.7047" />

				<stop
   id="stop8323"
   style="stop-color:#98CE84"
   offset="0.9074" />

				<stop
   id="stop8325"
   style="stop-color:#A5D288"
   offset="0.9976" />

			</linearGradient>

			<polyline
   id="polyline8328"
   clip-path="url(#SVGID_16_)"
   points="0,4.6 0,62.6 58,62.6 58,3.6    "
   class="st7"
   style="fill:#00ccff" />

		</g>

	</g>

</g>
      <g
         class="st1"
         id="Layer_5"
         style="display:none;fill:#00ccff">
	<g
   id="g8366"
   class="st2"
   style="display:inline;fill:#00ccff">
		<g
   id="g8356"
   style="fill:#00ccff">
			<defs
   id="defs8336">
				<path
   d="M 43.5,13.7 C 40.3,9.7 37,5.4 34.4,0.9 33.7,-0.3 31.7,-0.3 31,0.9 28.3,5.4 25,9.6 21.8,13.7 15.3,22 9.2,29.8 9.2,39.1 9.2,52 19.7,62.6 32.7,62.6 45.7,62.6 56.1,52 56.1,39.1 56.1,29.8 50,22 43.5,13.7 Z"
   id="path8731"
   inkscape:connector-curvature="0" />

			</defs>

			<clipPath
   id="SVGID_19_">
				<use
   id="use8338"
   style="overflow:visible"
   xlink:href="#SVGID_18_"
   x="0"
   y="0"
   width="100%"
   height="100%" />

			</clipPath>

			<linearGradient
   y2="13.3864"
   x2="42.379398"
   y1="44.637501"
   x1="25.015301"
   gradientUnits="userSpaceOnUse"
   id="SVGID_20_">
				<stop
   id="stop8341"
   style="stop-color:#5ABC73"
   offset="0" />

				<stop
   id="stop8343"
   style="stop-color:#5EBD74"
   offset="0.2654" />

				<stop
   id="stop8345"
   style="stop-color:#6BC178"
   offset="0.4921" />

				<stop
   id="stop8347"
   style="stop-color:#7FC67D"
   offset="0.7047" />

				<stop
   id="stop8349"
   style="stop-color:#98CE84"
   offset="0.9074" />

				<stop
   id="stop8351"
   style="stop-color:#A5D288"
   offset="0.9976" />

			</linearGradient>

			<rect
   id="rect8354"
   clip-path="url(#SVGID_19_)"
   height="63.599998"
   width="49.400002"
   class="st8"
   y="0"
   x="7.4000001"
   style="fill:#00ccff" />

		</g>

		<g
   id="g8364"
   style="fill:#00ccff">
			<path
   id="path8358"
   d="m 26.8,34.1 c -3.2,0 -5.9,-2.6 -5.9,-5.9 0,-3.3 2.6,-5.9 5.9,-5.9 3.3,0 5.9,2.6 5.9,5.9 0,3.3 -2.7,5.9 -5.9,5.9 z m 0,-7.9 c -1.1,0 -2,0.9 -2,2 0,1.1 0.9,2 2,2 1.1,0 2,-0.9 2,-2 0,-1.1 -0.9,-2 -2,-2 z"
   class="st9"
   inkscape:connector-curvature="0"
   style="fill:#00ccff" />

			<path
   id="path8360"
   d="m 38.5,53.6 c -3.2,0 -5.9,-2.6 -5.9,-5.9 0,-3.3 2.6,-5.9 5.9,-5.9 3.2,0 5.9,2.6 5.9,5.9 0,3.3 -2.6,5.9 -5.9,5.9 z m 0,-7.8 c -1.1,0 -2,0.9 -2,2 0,1.1 0.9,2 2,2 1.1,0 2,-0.9 2,-2 0,-1.1 -0.9,-2 -2,-2 z"
   class="st9"
   inkscape:connector-curvature="0"
   style="fill:#00ccff" />

			<path
   id="path8362"
   d="m 22.9,49.7 c -0.5,0 -1,-0.2 -1.4,-0.6 -0.8,-0.8 -0.8,-2 0,-2.8 L 41.1,26.7 c 0.8,-0.8 2,-0.8 2.8,0 0.8,0.8 0.8,2 0,2.8 L 24.3,49.1 c -0.4,0.4 -0.9,0.6 -1.4,0.6 z"
   class="st9"
   inkscape:connector-curvature="0"
   style="fill:#00ccff" />

		</g>

	</g>

</g>
      <g
         id="Layer_6"
         style="fill:#00ccff">
	<g
   id="g8445"
   style="fill:#00ccff">
		<g
   id="g8405"
   style="fill:#00ccff">
			<defs
   id="defs8370">
				<path
   d="m 49.5,48 c -1.3,0 -2.4,1.1 -2.4,2.4 0,4 -3.3,7.3 -7.3,7.3 -4,0 -7.3,-3.3 -7.3,-7.3 V 21.7 c 0,-4 3.3,-7.3 7.3,-7.3 4,0 7.3,3.3 7.3,7.3 0,1.3 1.1,2.4 2.4,2.4 1.3,0 2.4,-1.1 2.4,-2.4 C 51.9,15 46.4,9.5 39.7,9.5 33,9.5 27.6,15 27.6,21.7 v 28.7 c 0,6.7 5.5,12.2 12.2,12.2 C 46.5,62.6 52,57.1 52,50.4 51.9,49.1 50.8,48 49.5,48 Z"
   id="path8751"
   inkscape:connector-curvature="0" />

			</defs>

			<linearGradient
   y2="36.076302"
   x2="51.900501"
   y1="36.076302"
   x1="27.560301"
   gradientUnits="userSpaceOnUse"
   id="SVGID_22_">
				<stop
   id="stop8372"
   style="stop-color:#5ABC73"
   offset="0" />

				<stop
   id="stop8374"
   style="stop-color:#5EBD74"
   offset="0.2654" />

				<stop
   id="stop8376"
   style="stop-color:#6BC178"
   offset="0.4921" />

				<stop
   id="stop8378"
   style="stop-color:#7FC67D"
   offset="0.7047" />

				<stop
   id="stop8380"
   style="stop-color:#98CE84"
   offset="0.9074" />

				<stop
   id="stop8382"
   style="stop-color:#A5D288"
   offset="0.9976" />

			</linearGradient>

			<use
   id="use8385"
   style="overflow:visible;fill:#00ccff"
   xlink:href="#SVGID_21_"
   x="0"
   y="0"
   width="100%"
   height="100%" />

			<clipPath
   id="SVGID_23_">
				<use
   id="use8387"
   style="overflow:visible"
   xlink:href="#SVGID_21_"
   x="0"
   y="0"
   width="100%"
   height="100%" />

			</clipPath>

			<linearGradient
   y2="12.943"
   x2="45.7444"
   y1="45.7817"
   x1="27.498199"
   gradientUnits="userSpaceOnUse"
   id="SVGID_24_">
				<stop
   id="stop8390"
   style="stop-color:#5ABC73"
   offset="0" />

				<stop
   id="stop8392"
   style="stop-color:#5EBD74"
   offset="0.2654" />

				<stop
   id="stop8394"
   style="stop-color:#6BC178"
   offset="0.4921" />

				<stop
   id="stop8396"
   style="stop-color:#7FC67D"
   offset="0.7047" />

				<stop
   id="stop8398"
   style="stop-color:#98CE84"
   offset="0.9074" />

				<stop
   id="stop8400"
   style="stop-color:#A5D288"
   offset="0.9976" />

			</linearGradient>

			<rect
   id="rect8403"
   clip-path="url(#SVGID_23_)"
   height="73.5"
   width="39.900002"
   class="st10"
   y="-4.4000001"
   x="15"
   style="fill:#00ccff" />

		</g>

		<g
   id="g8443"
   style="fill:#00ccff">
			<defs
   id="defs8408">
				<path
   d="m 20.1,0.3 c -3.7,0 -6.7,3 -6.7,6.7 0,3.7 3,6.7 6.7,6.7 3.7,0 6.7,-3 6.7,-6.7 0,-3.7 -3,-6.7 -6.7,-6.7 z m 0,8.5 c -1,0 -1.8,-0.8 -1.8,-1.8 0,-1 0.8,-1.8 1.8,-1.8 1,0 1.9,0.8 1.9,1.8 0,1 -0.9,1.8 -1.9,1.8 z"
   id="path8773"
   inkscape:connector-curvature="0" />

			</defs>

			<linearGradient
   y2="6.9896998"
   x2="26.830099"
   y1="6.9896998"
   x1="13.443"
   gradientUnits="userSpaceOnUse"
   id="SVGID_26_">
				<stop
   id="stop8410"
   style="stop-color:#5ABC73"
   offset="0" />

				<stop
   id="stop8412"
   style="stop-color:#5EBD74"
   offset="0.2654" />

				<stop
   id="stop8414"
   style="stop-color:#6BC178"
   offset="0.4921" />

				<stop
   id="stop8416"
   style="stop-color:#7FC67D"
   offset="0.7047" />

				<stop
   id="stop8418"
   style="stop-color:#98CE84"
   offset="0.9074" />

				<stop
   id="stop8420"
   style="stop-color:#A5D288"
   offset="0.9976" />

			</linearGradient>

			<use
   id="use8423"
   style="overflow:visible;fill:#00ccff"
   xlink:href="#SVGID_25_"
   x="0"
   y="0"
   width="100%"
   height="100%" />

			<clipPath
   id="SVGID_27_">
				<use
   id="use8425"
   style="overflow:visible"
   xlink:href="#SVGID_25_"
   x="0"
   y="0"
   width="100%"
   height="100%" />

			</clipPath>

			<linearGradient
   y2="12.9031"
   x2="39.3535"
   y1="45.741798"
   x1="21.107401"
   gradientUnits="userSpaceOnUse"
   id="SVGID_28_">
				<stop
   id="stop8428"
   style="stop-color:#5ABC73"
   offset="0" />

				<stop
   id="stop8430"
   style="stop-color:#5EBD74"
   offset="0.2654" />

				<stop
   id="stop8432"
   style="stop-color:#6BC178"
   offset="0.4921" />

				<stop
   id="stop8434"
   style="stop-color:#7FC67D"
   offset="0.7047" />

				<stop
   id="stop8436"
   style="stop-color:#98CE84"
   offset="0.9074" />

				<stop
   id="stop8438"
   style="stop-color:#A5D288"
   offset="0.9976" />

			</linearGradient>

			<rect
   id="rect8441"
   clip-path="url(#SVGID_27_)"
   height="73.5"
   width="39.900002"
   class="st11"
   y="-4.5"
   x="8.6000004"
   style="fill:#00ccff" />

		</g>

	</g>

</g>
      <g
         class="st1"
         id="Layer_7"
         style="display:none;fill:#00ccff">
	<path
   id="path8448"
   d="M 36.7,57 H 52.4 V 6 H 37.2 C 23,6 11.5,17.5 11.5,31.7 v 0 c 0,14 11.3,25.3 25.2,25.3 z"
   class="st12"
   inkscape:connector-curvature="0"
   style="display:inline;fill:#00ccff" />

	<g
   id="g8452"
   class="st2"
   style="display:inline;fill:#00ccff">
		<polygon
   id="polygon8450"
   points="32.8,32.5 29.1,45.6 42.8,30.2 36.5,30.2 43.5,17 32.8,17 28.5,32.5 "
   class="st13"
   style="fill:#00ccff;stroke:#222d3a;stroke-width:2;stroke-linecap:round;stroke-linejoin:round;stroke-miterlimit:10" />

	</g>

</g>
      <g
         class="st1"
         id="Layer_8"
         style="display:none;fill:#00ccff">
	<path
   id="path8455"
   d="M 36.7,57 H 52.4 V 6 H 37.2 C 23,6 11.5,17.5 11.5,31.7 v 0 c 0,14 11.3,25.3 25.2,25.3 z"
   class="st12"
   inkscape:connector-curvature="0"
   style="display:inline;fill:#00ccff" />

	<g
   id="g8471"
   class="st2"
   style="display:inline;fill:#00ccff">
		<circle
   id="circle8457"
   r="3"
   cy="21"
   cx="23.9"
   class="st13"
   style="fill:#00ccff;stroke:#222d3a;stroke-width:2;stroke-linecap:round;stroke-linejoin:round;stroke-miterlimit:10" />

		<circle
   id="circle8459"
   r="3"
   cy="39.200001"
   cx="29.9"
   class="st13"
   style="fill:#00ccff;stroke:#222d3a;stroke-width:2;stroke-linecap:round;stroke-linejoin:round;stroke-miterlimit:10" />

		<circle
   id="circle8461"
   r="3"
   cy="30.1"
   cx="39"
   class="st13"
   style="fill:#00ccff;stroke:#222d3a;stroke-width:2;stroke-linecap:round;stroke-linejoin:round;stroke-miterlimit:10" />

		<path
   id="path8463"
   d="m 27.7,21 h 15.2 c 0,0 5.3,0 5.3,4.5 0,4.5 -4.5,4.5 -5.3,4.5"
   class="st13"
   inkscape:connector-curvature="0"
   style="fill:#00ccff;stroke:#222d3a;stroke-width:2;stroke-linecap:round;stroke-linejoin:round;stroke-miterlimit:10" />

		<path
   id="path8465"
   d="m 35.2,30.1 h -9.8 c 0,0 -4.5,0 -4.5,4.5 0,4.5 5.3,3.9 5.3,3.9"
   class="st13"
   inkscape:connector-curvature="0"
   style="fill:#00ccff;stroke:#222d3a;stroke-width:2;stroke-linecap:round;stroke-linejoin:round;stroke-miterlimit:10" />

		<polyline
   id="polyline8467"
   points="33.7,39.2 47.4,39.2 43.6,35.4   "
   class="st13"
   style="fill:#00ccff;stroke:#222d3a;stroke-width:2;stroke-linecap:round;stroke-linejoin:round;stroke-miterlimit:10" />

		<line
   id="line8469"
   y2="43"
   x2="43.599998"
   y1="39.200001"
   x1="47.400002"
   class="st13"
   style="fill:#00ccff;stroke:#222d3a;stroke-width:2;stroke-linecap:round;stroke-linejoin:round;stroke-miterlimit:10" />

	</g>

</g>
      <g
         class="st1"
         id="Layer_9"
         style="display:none;fill:#00ccff">
	<path
   id="path8474"
   d="M 36.7,57 H 52.4 V 6 H 37.2 C 23,6 11.5,17.5 11.5,31.7 v 0 c 0,14 11.3,25.3 25.2,25.3 z"
   class="st12"
   inkscape:connector-curvature="0"
   style="display:inline;fill:#00ccff" />

	<g
   id="g8492"
   class="st2"
   style="display:inline;fill:#00ccff">
		<line
   id="line8476"
   y2="40"
   x2="40.5"
   y1="40"
   x1="33.5"
   class="st13"
   style="fill:#00ccff;stroke:#222d3a;stroke-width:2;stroke-linecap:round;stroke-linejoin:round;stroke-miterlimit:10" />

		<path
   id="path8478"
   d="m 42.5,36 h 3.9 c 1.1,0 2.1,0.9 2.1,2.1 V 42 c 0,1.1 -0.9,2.1 -2.1,2.1 h -3.9 c -1.1,0 -2.1,-0.9 -2.1,-2.1 v -3.9 c 0.1,-1.2 1,-2.1 2.1,-2.1 z"
   class="st13"
   inkscape:connector-curvature="0"
   style="fill:#00ccff;stroke:#222d3a;stroke-width:2;stroke-linecap:round;stroke-linejoin:round;stroke-miterlimit:10" />

		<g
   id="g8490"
   style="fill:#00ccff">
			<line
   id="line8480"
   y2="47"
   x2="33.5"
   y1="16"
   x1="33.5"
   class="st13"
   style="fill:#00ccff;stroke:#222d3a;stroke-width:2;stroke-linecap:round;stroke-linejoin:round;stroke-miterlimit:10" />

			<line
   id="line8482"
   y2="31"
   x2="33.5"
   y1="31"
   x1="26.5"
   class="st13"
   style="fill:#00ccff;stroke:#222d3a;stroke-width:2;stroke-linecap:round;stroke-linejoin:round;stroke-miterlimit:10" />

			<line
   id="line8484"
   y2="23"
   x2="40.5"
   y1="23"
   x1="33.5"
   class="st13"
   style="fill:#00ccff;stroke:#222d3a;stroke-width:2;stroke-linecap:round;stroke-linejoin:round;stroke-miterlimit:10" />

			<path
   id="path8486"
   d="m 42.5,19 h 3.9 c 1.1,0 2.1,0.9 2.1,2.1 V 25 c 0,1.1 -0.9,2.1 -2.1,2.1 h -3.9 c -1.1,0 -2.1,-0.9 -2.1,-2.1 v -3.9 c 0.1,-1.2 1,-2.1 2.1,-2.1 z"
   class="st13"
   inkscape:connector-curvature="0"
   style="fill:#00ccff;stroke:#222d3a;stroke-width:2;stroke-linecap:round;stroke-linejoin:round;stroke-miterlimit:10" />

			<path
   id="path8488"
   d="m 20.5,27 h 3.9 c 1.1,0 2.1,0.9 2.1,2.1 V 33 c 0,1.1 -0.9,2.1 -2.1,2.1 h -3.9 c -1.1,0 -2.1,-0.9 -2.1,-2.1 v -3.9 c 0.1,-1.2 1,-2.1 2.1,-2.1 z"
   class="st13"
   inkscape:connector-curvature="0"
   style="fill:#00ccff;stroke:#222d3a;stroke-width:2;stroke-linecap:round;stroke-linejoin:round;stroke-miterlimit:10" />

		</g>

	</g>

</g>
      <g
         class="st1"
         id="Layer_10"
         style="display:none;fill:#00ccff">
	<path
   id="path8495"
   d="M 36.7,57 H 52.4 V 6 H 37.2 C 23,6 11.5,17.5 11.5,31.7 v 0 c 0,14 11.3,25.3 25.2,25.3 z"
   class="st12"
   inkscape:connector-curvature="0"
   style="display:inline;fill:#00ccff" />

	<g
   id="g8509"
   class="st2"
   style="display:inline;fill:#00ccff">
		<g
   id="g8507"
   style="fill:#00ccff">
			<path
   id="path8497"
   d="m 40.7,23 2.4,-2.4 c 0.3,-0.3 0.3,-0.7 0,-1.1 -0.3,-0.3 -0.8,-0.3 -1.1,0 l -2.3,2.4 c -0.3,0.3 -0.3,0.7 0,1.1 0.3,0.3 0.7,0.3 1,0 z"
   class="st14"
   inkscape:connector-curvature="0"
   style="fill:#00ccff" />

			<path
   id="path8499"
   d="m 34.4,20.9 c 0.4,0 0.8,-0.3 0.8,-0.8 v -3.3 c 0,-0.4 -0.3,-0.8 -0.8,-0.8 -0.5,0 -0.8,0.3 -0.8,0.8 v 3.3 c 0.1,0.4 0.4,0.8 0.8,0.8 z"
   class="st14"
   inkscape:connector-curvature="0"
   style="fill:#00ccff" />

			<path
   id="path8501"
   d="m 28.2,23 c 0.3,0.3 0.8,0.3 1.1,0 0.3,-0.3 0.3,-0.8 0,-1.1 l -2.4,-2.4 c -0.3,-0.3 -0.8,-0.3 -1.1,0 -0.3,0.3 -0.3,0.8 0,1.1 z"
   class="st14"
   inkscape:connector-curvature="0"
   style="fill:#00ccff" />

			<path
   id="path8503"
   d="m 23,29 h 3.3 c 0.4,0 0.8,-0.3 0.8,-0.8 0,-0.4 -0.3,-0.8 -0.8,-0.8 H 23 c -0.4,0 -0.8,0.4 -0.8,0.8 0,0.4 0.4,0.8 0.8,0.8 z"
   class="st14"
   inkscape:connector-curvature="0"
   style="fill:#00ccff" />

			<path
   id="path8505"
   d="M 49.6,34.2 C 49,33.2 48.3,32.3 47.3,31.7 47.1,29.9 46.4,28.4 45.2,27.2 43.8,25.7 42,24.9 40,24.9 h -0.6 c -0.5,-0.8 -1.3,-1.4 -2.1,-1.9 -0.9,-0.5 -1.8,-0.7 -2.8,-0.7 -1.6,0 -3,0.6 -4.2,1.7 -1.2,1.1 -1.7,2.5 -1.7,4.2 0,0.6 0.3,1.6 0.8,2.8 -0.8,0.7 -1.4,1.5 -1.7,2.5 h -0.3 c -1.4,0 -2.6,0.5 -3.6,1.6 -1,1.1 -1.5,2.3 -1.5,3.8 0,1.3 0.4,2.5 1.2,3.5 0.8,1 1.9,1.6 3.1,1.8 0.3,0 0.5,0.1 0.7,0.1 h 13.3 0.8 2.8 c 0.4,0 0.7,0 0.9,-0.1 1.6,-0.2 2.9,-1 3.9,-2.3 1,-1.3 1.5,-2.7 1.5,-4.4 0,-1.1 -0.3,-2.3 -0.9,-3.3 z M 31.3,25.1 c 0.9,-0.9 1.9,-1.3 3.1,-1.3 1.3,0 2.4,0.5 3.3,1.4 -2.2,0.8 -3.9,2.5 -4.7,4.8 -0.3,0 -0.5,-0.1 -0.7,-0.1 -0.6,0 -1.2,0.1 -1.7,0.3 -0.3,-0.6 -0.5,-1.3 -0.5,-2.1 0,-1.1 0.4,-2.1 1.2,-3 z M 47.8,41 c -0.8,1 -1.8,1.6 -3,1.7 -0.1,0 -0.3,0.1 -0.6,0.1 H 41.4 40.6 27.2 c -0.1,0 -0.3,0 -0.4,0 -0.9,-0.1 -1.6,-0.6 -2.2,-1.3 -0.6,-0.7 -0.9,-1.6 -0.9,-2.5 0,-1.1 0.3,-2 1,-2.7 0.7,-0.8 1.6,-1.1 2.5,-1.1 0.6,0 1.2,0.1 1.7,0.4 0,-0.1 0,-0.2 0,-0.4 0,-1 0.3,-1.8 1,-2.5 0.7,-0.7 1.4,-1.1 2.4,-1.1 0.6,0 1.2,0.2 1.8,0.5 0.2,-1.6 0.8,-2.9 1.9,-4 1.1,-1.1 2.4,-1.6 3.9,-1.6 1.6,0 3,0.6 4.1,1.8 1.1,1.2 1.7,2.7 1.8,4.4 0.9,0.4 1.7,1 2.2,1.9 0.5,0.9 0.9,1.9 0.9,3 0,1.3 -0.4,2.5 -1.1,3.4 z"
   class="st14"
   inkscape:connector-curvature="0"
   style="fill:#00ccff" />

		</g>

	</g>

</g>
      <g
         class="st1"
         id="Layer_11"
         style="display:none;fill:#00ccff">
	<path
   id="path8512"
   d="M 36.7,57 H 52.4 V 6 H 37.2 C 23,6 11.5,17.5 11.5,31.7 v 0 c 0,14 11.3,25.3 25.2,25.3 z"
   class="st12"
   inkscape:connector-curvature="0"
   style="display:inline;fill:#00ccff" />

	<g
   id="g8532"
   class="st2"
   style="display:inline;fill:#00ccff">
		<polyline
   id="polyline8514"
   points="24.2,46.8 26.6,46.8 39.1,46.8   "
   class="st15"
   style="fill:#00ccff;stroke:#222d3a;stroke-linecap:round;stroke-linejoin:round;stroke-miterlimit:10" />

		<path
   id="path8516"
   d="m 28.7,32.6 c 0,-1.4 1.2,-2.6 2.6,-2.6 1.3,0 2.3,0.9 2.5,2.1 0,0.2 0.1,0.3 0.1,0.5 0,1.4 -1.2,2.6 -2.6,2.6 -1.4,0 -2.6,-1.2 -2.6,-2.6 z"
   class="st15"
   inkscape:connector-curvature="0"
   style="fill:#00ccff;stroke:#222d3a;stroke-linecap:round;stroke-linejoin:round;stroke-miterlimit:10" />

		<line
   id="line8518"
   y2="32.599998"
   x2="33.900002"
   y1="46.799999"
   x1="36.400002"
   class="st15"
   style="fill:#00ccff;stroke:#222d3a;stroke-linecap:round;stroke-linejoin:round;stroke-miterlimit:10" />

		<line
   id="line8520"
   y2="46.799999"
   x2="27"
   y1="32.599998"
   x1="28.700001"
   class="st15"
   style="fill:#00ccff;stroke:#222d3a;stroke-linecap:round;stroke-linejoin:round;stroke-miterlimit:10" />

		<path
   id="path8522"
   d="m 34.8,36.8 c 1,0.2 2,0.4 3,0.4 3.5,0 6.8,-1.4 9.2,-3.8 L 37.8,24.3 28.6,15 c -2.4,2.4 -3.8,5.7 -3.8,9.2 0,3.5 1.5,6.8 3.8,9.1"
   class="st15"
   inkscape:connector-curvature="0"
   style="fill:#00ccff;stroke:#222d3a;stroke-linecap:round;stroke-linejoin:round;stroke-miterlimit:10" />

		<path
   id="path8524"
   d="m 40.1,22.6 -1.3,-1.3 c 0.7,-0.7 1.9,-0.7 2.6,0 0.7,0.7 0.7,1.9 0,2.6 z"
   class="st15"
   inkscape:connector-curvature="0"
   style="fill:#00ccff;stroke:#222d3a;stroke-linecap:round;stroke-linejoin:round;stroke-miterlimit:10" />

		<path
   id="path8526"
   d="m 36.5,19.6 c 1.8,-1.8 4.7,-1.8 6.5,0 1.8,1.8 1.8,4.7 0,6.5"
   class="st15"
   inkscape:connector-curvature="0"
   style="fill:#00ccff;stroke:#222d3a;stroke-linecap:round;stroke-linejoin:round;stroke-miterlimit:10" />

		<path
   id="path8528"
   d="m 34.6,17.7 c 2.8,-2.8 7.5,-2.8 10.4,0 2.8,2.8 2.8,7.5 0,10.4"
   class="st15"
   inkscape:connector-curvature="0"
   style="fill:#00ccff;stroke:#222d3a;stroke-linecap:round;stroke-linejoin:round;stroke-miterlimit:10" />

		<line
   id="line8530"
   y2="24.4"
   x2="38"
   y1="22.6"
   x1="40.099998"
   class="st15"
   style="fill:#00ccff;stroke:#222d3a;stroke-linecap:round;stroke-linejoin:round;stroke-miterlimit:10" />

	</g>

</g>
      <g
         class="st1"
         id="Layer_12"
         style="display:none;fill:#00ccff">
	<g
   id="g8540"
   class="st2"
   style="display:inline;fill:#00ccff">
		<g
   id="_x33__4_"
   style="fill:#00ccff">
			<g
   id="g8537"
   style="fill:#00ccff">
				<path
   id="path8535"
   d="m 32.7,11.3 c -11,0 -20,9 -20,20 0,11 9,20 20,20 11,0 20,-9 20,-20 0,-11 -9,-20 -20,-20 z m 14.5,10.2 c 1.7,2.5 2.7,5.4 3,8.5 h -10 c -0.1,-2.3 -0.3,-4.6 -0.6,-6.8 2.6,-0.3 5.2,-0.9 7.6,-1.7 z m -1.8,-2.1 c -2,0.6 -4.2,1.1 -6.4,1.5 -0.5,-2.3 -1.2,-4.5 -2,-6.5 3.3,0.8 6.2,2.6 8.4,5 z M 27.7,30.1 c 0.1,-2.2 0.3,-4.4 0.6,-6.4 1.4,0.1 2.8,0.2 4.3,0.2 1.5,0 2.9,-0.1 4.3,-0.2 0.4,2.1 0.6,4.2 0.6,6.4 z m 9.9,2.5 C 37.5,34.8 37.3,37 37,39 35.6,38.9 34.2,38.8 32.7,38.8 31.2,38.8 29.8,38.9 28.4,39 28,36.9 27.8,34.8 27.8,32.6 Z M 31.5,13.9 c 0.4,0 0.8,-0.1 1.2,-0.1 0.4,0 0.8,0 1.2,0.1 1.1,2.2 1.9,4.7 2.6,7.3 -1.2,0.1 -2.5,0.2 -3.8,0.2 -1.3,0 -2.5,-0.1 -3.8,-0.2 0.6,-2.7 1.5,-5.1 2.6,-7.3 z m -3.1,0.5 c -0.8,2 -1.5,4.2 -2,6.5 -2.2,-0.3 -4.4,-0.8 -6.4,-1.5 2.2,-2.4 5.1,-4.2 8.4,-5 z m -10.2,7.1 c 2.4,0.8 5,1.4 7.7,1.8 -0.4,2.2 -0.6,4.4 -0.6,6.8 h -10 c 0.1,-3.2 1.2,-6.1 2.9,-8.6 z m 0,19.6 c -1.7,-2.5 -2.7,-5.4 -3,-8.5 h 10 c 0.1,2.3 0.3,4.6 0.6,6.8 -2.7,0.3 -5.2,0.9 -7.6,1.7 z m 1.7,2.1 c 2,-0.6 4.2,-1.1 6.4,-1.5 0.5,2.3 1.2,4.5 2,6.5 -3.2,-0.8 -6.1,-2.6 -8.4,-5 z m 14,5.5 c -0.4,0 -0.8,0.1 -1.2,0.1 -0.4,0 -0.8,0 -1.2,-0.1 -1.1,-2.2 -1.9,-4.7 -2.6,-7.3 1.2,-0.1 2.5,-0.2 3.8,-0.2 1.3,0 2.5,0.1 3.8,0.2 -0.7,2.7 -1.6,5.1 -2.6,7.3 z M 37,48.3 c 0.8,-2 1.5,-4.2 2,-6.5 2.2,0.3 4.4,0.8 6.4,1.5 -2.2,2.3 -5.1,4.1 -8.4,5 z m 10.2,-7.2 c -2.4,-0.8 -5,-1.4 -7.7,-1.8 0.4,-2.2 0.6,-4.4 0.6,-6.8 h 10 c -0.2,3.2 -1.3,6.1 -2.9,8.6 z"
   class="st16"
   inkscape:connector-curvature="0"
   style="fill:#00ccff" />

			</g>

		</g>

	</g>

</g>
      <g
         class="st1"
         id="Layer_13"
         style="display:none;fill:#00ccff">
	<g
   id="g8555"
   class="st2"
   style="display:inline;fill:#00ccff">
		<g
   id="g8553"
   style="fill:#00ccff">
			<path
   id="path8543"
   d="m 38.8,21.2 3.3,-3.3 c 0.4,-0.4 0.4,-1.1 0,-1.5 C 41.7,16 41,16 40.6,16.4 l -3.3,3.3 c -0.4,0.4 -0.4,1.1 0,1.5 0.5,0.5 1.1,0.5 1.5,0 z"
   class="st16"
   inkscape:connector-curvature="0"
   style="fill:#00ccff" />

			<path
   id="path8545"
   d="m 30,18.2 c 0.6,0 1.1,-0.5 1.1,-1.1 v -4.7 c 0,-0.6 -0.5,-1.1 -1.1,-1.1 -0.6,0 -1.1,0.5 -1.1,1.1 v 4.7 c 0,0.6 0.5,1.1 1.1,1.1 z"
   class="st16"
   inkscape:connector-curvature="0"
   style="fill:#00ccff" />

			<path
   id="path8547"
   d="m 21.2,21.2 c 0.5,0.4 1.1,0.5 1.5,0 0.4,-0.4 0.4,-1.1 0,-1.5 L 19.4,16.4 C 19,16 18.3,16 17.9,16.4 c -0.4,0.5 -0.4,1.1 0,1.5 z"
   class="st16"
   inkscape:connector-curvature="0"
   style="fill:#00ccff" />

			<path
   id="path8549"
   d="m 13.9,29.7 4.7,-0.1 c 0.6,0 1.1,-0.5 1.1,-1.1 0,-0.6 -0.5,-1.1 -1.1,-1.1 h -4.7 c -0.6,0.1 -1.1,0.5 -1.1,1.1 0,0.6 0.5,1.2 1.1,1.2 z"
   class="st16"
   inkscape:connector-curvature="0"
   style="fill:#00ccff" />

			<path
   id="path8551"
   d="m 51.3,36.9 c -0.8,-1.5 -1.9,-2.6 -3.2,-3.5 -0.3,-2.5 -1.3,-4.6 -3,-6.3 -1.9,-2 -4.6,-3.2 -7.3,-3.2 H 37 c -0.8,-1.1 -1.8,-2 -3,-2.7 -1.2,-0.7 -2.5,-1 -4,-1 -2.3,0 -4.3,0.8 -5.9,2.4 -1.6,1.6 -2.4,3.6 -2.4,5.9 0,0.9 0.4,2.2 1.2,4 -1.1,0.9 -1.9,2.1 -2.4,3.5 H 20 c -2,0 -3.7,0.7 -5.1,2.2 -1.4,1.5 -2.1,3.3 -2.1,5.4 0,1.9 0.6,3.5 1.7,4.9 1.2,1.4 2.6,2.3 4.4,2.6 0.4,0.1 0.7,0.1 1,0.1 h 18.7 1.1 4 c 0.5,0 1,0 1.3,-0.1 2.2,-0.3 4,-1.4 5.5,-3.2 1.4,-1.8 2.1,-3.9 2.1,-6.2 C 52.5,40 52.1,38.4 51.3,36.9 Z M 25.6,24.2 c 1.2,-1.2 2.6,-1.8 4.3,-1.8 1.8,0 3.3,0.7 4.6,2 -3.1,1 -5.5,3.5 -6.6,6.7 C 27.6,31 27.2,31 27,31 c -0.8,0 -1.6,0.2 -2.4,0.5 -0.5,-0.9 -0.7,-1.8 -0.7,-3 0,-1.7 0.6,-3.1 1.7,-4.3 z m 23.1,22.3 c -1.1,1.4 -2.5,2.2 -4.2,2.5 -0.2,0.1 -0.4,0.1 -0.9,0.1 h -4 -1.1 -18.6 c -0.2,0 -0.4,0 -0.6,0 -1.2,-0.2 -2.2,-0.8 -3.1,-1.8 -0.8,-1 -1.2,-2.2 -1.2,-3.6 0,-1.5 0.5,-2.8 1.5,-3.8 1,-1.1 2.2,-1.6 3.6,-1.6 0.8,0 1.6,0.2 2.4,0.6 0,-0.1 0,-0.3 0,-0.6 0,-1.4 0.4,-2.6 1.4,-3.6 0.9,-1 2,-1.5 3.3,-1.5 0.9,0 1.7,0.3 2.5,0.8 0.3,-2.2 1.2,-4.1 2.7,-5.6 1.6,-1.5 3.4,-2.3 5.5,-2.3 2.2,0 4.2,0.9 5.8,2.6 1.6,1.7 2.4,3.7 2.5,6.2 1.3,0.5 2.3,1.4 3.1,2.7 0.8,1.3 1.2,2.6 1.2,4.2 -0.2,1.7 -0.7,3.4 -1.8,4.7 z"
   class="st16"
   inkscape:connector-curvature="0"
   style="fill:#00ccff" />

		</g>

	</g>

</g>
      <g
         class="st1"
         id="Layer_14"
         style="display:none;fill:#00ccff">
	<g
   id="g8576"
   class="st2"
   style="display:inline;fill:#00ccff">
		<polyline
   id="polyline8558"
   points="15,55.9 18.7,55.9 38,55.9   "
   class="st17"
   style="fill:#00ccff;stroke:#5cc5f1;stroke-width:2;stroke-linecap:round;stroke-linejoin:round;stroke-miterlimit:10" />

		<path
   id="path8560"
   d="m 22,33.9 c 0,-2.2 1.8,-4 4,-4 1.9,0 3.5,1.4 3.9,3.2 0.1,0.3 0.1,0.5 0.1,0.8 0,2.2 -1.8,4 -4,4 -2.2,0 -4,-1.8 -4,-4 z"
   class="st17"
   inkscape:connector-curvature="0"
   style="fill:#00ccff;stroke:#5cc5f1;stroke-width:2;stroke-linecap:round;stroke-linejoin:round;stroke-miterlimit:10" />

		<line
   id="line8562"
   y2="33.900002"
   x2="30"
   y1="55.900002"
   x1="33.799999"
   class="st17"
   style="fill:#00ccff;stroke:#5cc5f1;stroke-width:2;stroke-linecap:round;stroke-linejoin:round;stroke-miterlimit:10" />

		<line
   id="line8564"
   y2="55.900002"
   x2="19.4"
   y1="33.900002"
   x1="22"
   class="st17"
   style="fill:#00ccff;stroke:#5cc5f1;stroke-width:2;stroke-linecap:round;stroke-linejoin:round;stroke-miterlimit:10" />

		<path
   id="path8566"
   d="m 31.4,40.3 c 1.5,0.4 3,0.5 4.6,0.5 5.3,0 10.4,-2.1 14.2,-5.9 L 36,20.9 21.9,6.7 c -3.8,3.8 -5.9,8.8 -5.9,14.2 0,5.5 2.2,10.5 5.9,14.1"
   class="st17"
   inkscape:connector-curvature="0"
   style="fill:#00ccff;stroke:#5cc5f1;stroke-width:2;stroke-linecap:round;stroke-linejoin:round;stroke-miterlimit:10" />

		<path
   id="path8568"
   d="m 39.5,18.4 -2,-2 c 1.1,-1.1 2.9,-1.1 4,0 1.1,1.1 1.1,2.9 0,4 z"
   class="st16"
   inkscape:connector-curvature="0"
   style="fill:#00ccff" />

		<path
   id="path8570"
   d="m 34,13.9 c 2.7,-2.7 7.3,-2.7 10,0 2.7,2.7 2.7,7.3 0,10"
   class="st18"
   inkscape:connector-curvature="0"
   style="fill:#00ccff;stroke:#5cc5f1;stroke-width:2;stroke-miterlimit:10" />

		<path
   id="path8572"
   d="m 31,10.9 c 4.4,-4.4 11.6,-4.4 16,0 4.4,4.4 4.4,11.6 0,16"
   class="st18"
   inkscape:connector-curvature="0"
   style="fill:#00ccff;stroke:#5cc5f1;stroke-width:2;stroke-miterlimit:10" />

		<line
   id="line8574"
   y2="21.299999"
   x2="36.400002"
   y1="18.4"
   x1="39.5"
   class="st17"
   style="fill:#00ccff;stroke:#5cc5f1;stroke-width:2;stroke-linecap:round;stroke-linejoin:round;stroke-miterlimit:10" />

	</g>

</g>
      <g
         class="st1"
         id="Layer_15"
         style="display:none;fill:#00ccff">
	<g
   id="g8593"
   class="st2"
   style="display:inline;fill:#00ccff">
		<circle
   id="circle8579"
   r="4.1999998"
   cy="18.1"
   cx="17.9"
   class="st17"
   style="fill:#00ccff;stroke:#5cc5f1;stroke-width:2;stroke-linecap:round;stroke-linejoin:round;stroke-miterlimit:10" />

		<circle
   id="circle8581"
   r="4.1999998"
   cy="43.400002"
   cx="26.299999"
   class="st17"
   style="fill:#00ccff;stroke:#5cc5f1;stroke-width:2;stroke-linecap:round;stroke-linejoin:round;stroke-miterlimit:10" />

		<circle
   id="circle8583"
   r="4.1999998"
   cy="30.799999"
   cx="39"
   class="st17"
   style="fill:#00ccff;stroke:#5cc5f1;stroke-width:2;stroke-linecap:round;stroke-linejoin:round;stroke-miterlimit:10" />

		<path
   id="path8585"
   d="m 23.2,18.1 h 21.1 c 0,0 7.4,0 7.4,6.3 0,6.3 -6.3,6.3 -7.4,6.3"
   class="st17"
   inkscape:connector-curvature="0"
   style="fill:#00ccff;stroke:#5cc5f1;stroke-width:2;stroke-linecap:round;stroke-linejoin:round;stroke-miterlimit:10" />

		<path
   id="path8587"
   d="M 33.7,30.8 H 20 c 0,0 -6.3,0 -6.3,6.3 0,6.3 7.4,5.4 7.4,5.4"
   class="st17"
   inkscape:connector-curvature="0"
   style="fill:#00ccff;stroke:#5cc5f1;stroke-width:2;stroke-linecap:round;stroke-linejoin:round;stroke-miterlimit:10" />

		<polyline
   id="polyline8589"
   points="31.6,43.4 50.6,43.4 45.3,38.2   "
   class="st17"
   style="fill:#00ccff;stroke:#5cc5f1;stroke-width:2;stroke-linecap:round;stroke-linejoin:round;stroke-miterlimit:10" />

		<line
   id="line8591"
   y2="48.700001"
   x2="45.299999"
   y1="43.400002"
   x1="50.599998"
   class="st17"
   style="fill:#00ccff;stroke:#5cc5f1;stroke-width:2;stroke-linecap:round;stroke-linejoin:round;stroke-miterlimit:10" />

	</g>

</g>
      <g
         class="st1"
         id="Layer_16"
         style="display:none;fill:#00ccff">
	<g
   id="g8598"
   class="st2"
   style="display:inline;fill:#00ccff">
		<polygon
   id="polygon8596"
   points="27.5,33 21.5,54.4 43.8,29.3 33.6,29.3 44.9,7.9 27.4,7.9 20.5,33 "
   class="st17"
   style="fill:#00ccff;stroke:#5cc5f1;stroke-width:2;stroke-linecap:round;stroke-linejoin:round;stroke-miterlimit:10" />

	</g>

</g>
      <g
         class="st1"
         id="Layer_17"
         style="display:none;fill:#00ccff">
	<g
   id="g8621"
   class="st2"
   style="display:inline;fill:#00ccff">
		<g
   id="g8605"
   style="fill:#00ccff">
			<g
   id="g8603"
   style="fill:#00ccff">
				<path
   id="path8601"
   d="m 51,35.7 v 10.6 l -0.3,0.4 H 40.2 38.5 14.8 L 14.4,46.3 V 33.8 32.1 16.4 l 0.4,-0.5 h 23.7 1.7 10.5 l 0.3,0.5 v 11.8 0 l 1.2,-0.3 0.5,-2.8 V 15.2 15 c 0,-0.5 -0.4,-0.8 -0.8,-0.8 H 13.5 c -0.5,0 -0.8,0.4 -0.8,0.8 v 0.1 32.3 0.1 c 0,0.5 0.4,0.8 0.8,0.8 h 38.3 c 0.5,0 0.8,-0.4 0.8,-0.8 V 47.4 36.3 Z"
   class="st19"
   inkscape:connector-curvature="0"
   style="fill:#00ccff;stroke:#5cc5f1;stroke-miterlimit:10" />

			</g>

		</g>

		<g
   id="g8611"
   style="fill:#00ccff">
			<g
   id="g8609"
   style="fill:#00ccff">
				<path
   id="path8607"
   d="m 51,27.2 v 0 c -3.9,0.4 -6.9,3.7 -6.9,7.7 0,0.5 0.4,0.8 0.8,0.8 H 51 l 1.7,0.6 V 34.8 C 52.7,34.3 52.3,34 51.9,34 h -6 c 0.4,-3 2.9,-5.2 6,-5.2 0.5,0 0.8,-0.4 0.8,-0.8 z M 40.2,46.7 v -3.8 c 0,-0.5 -0.4,-0.8 -0.8,-0.8 h -6 c 0.4,-3 2.9,-5.2 6,-5.2 0.5,0 0.8,-0.4 0.8,-0.8 V 15.9 H 38.5 V 31.1 H 25.7 C 25.3,27.2 22,24.2 18,24.2 c -0.5,0 -0.8,0.4 -0.8,0.8 v 6.1 h -2.8 v 1.7 H 18 c 0.5,0 0.8,-0.4 0.8,-0.8 0,0 0,-0.1 0,-0.1 0,0 0,-0.1 0,-0.1 V 26 c 3,0.4 5.2,2.9 5.2,6 0,0.5 0.4,0.8 0.8,0.8 h 13.6 v 2.4 c -3.9,0.4 -6.9,3.7 -6.9,7.7 0,0.5 0.4,0.8 0.8,0.8 h 6.1 v 3 z"
   class="st19"
   inkscape:connector-curvature="0"
   style="fill:#00ccff;stroke:#5cc5f1;stroke-miterlimit:10" />

			</g>

		</g>

		<path
   id="path8613"
   d="m 15.3,17.9 h -1.1 c -0.5,0 -0.9,-0.4 -0.9,-0.9 v -1.1 c 0,-0.5 0.4,-0.9 0.9,-0.9 h 1.1 c 0.5,0 0.9,0.4 0.9,0.9 V 17 c 0.1,0.5 -0.3,0.9 -0.9,0.9 z"
   class="st19"
   inkscape:connector-curvature="0"
   style="fill:#00ccff;stroke:#5cc5f1;stroke-miterlimit:10" />

		<path
   id="path8615"
   d="m 51.2,17.9 h -1.1 c -0.5,0 -0.9,-0.4 -0.9,-0.9 v -1.1 c 0,-0.5 0.4,-0.9 0.9,-0.9 h 1.1 c 0.5,0 0.9,0.4 0.9,0.9 V 17 c 0.1,0.5 -0.3,0.9 -0.9,0.9 z"
   class="st19"
   inkscape:connector-curvature="0"
   style="fill:#00ccff;stroke:#5cc5f1;stroke-miterlimit:10" />

		<path
   id="path8617"
   d="m 15.3,47.8 h -1.1 c -0.5,0 -0.9,-0.4 -0.9,-0.9 v -1.1 c 0,-0.5 0.4,-0.9 0.9,-0.9 h 1.1 c 0.5,0 0.9,0.4 0.9,0.9 v 1.1 c 0.1,0.5 -0.3,0.9 -0.9,0.9 z"
   class="st19"
   inkscape:connector-curvature="0"
   style="fill:#00ccff;stroke:#5cc5f1;stroke-miterlimit:10" />

		<path
   id="path8619"
   d="m 51.2,47.8 h -1.1 c -0.5,0 -0.9,-0.4 -0.9,-0.9 v -1.1 c 0,-0.5 0.4,-0.9 0.9,-0.9 h 1.1 c 0.5,0 0.9,0.4 0.9,0.9 v 1.1 c 0.1,0.5 -0.3,0.9 -0.9,0.9 z"
   class="st19"
   inkscape:connector-curvature="0"
   style="fill:#00ccff;stroke:#5cc5f1;stroke-miterlimit:10" />

	</g>

</g>
    </g>
  </g>
  <style
     id="style8184"
     type="text/css">
	.st0{opacity:0;fill:url(#SVGID_1_);}
	.st1{display:none;}
	.st2{display:inline;}
	.st3{clip-path:url(#SVGID_3_);fill:url(#SVGID_4_);}
	.st4{clip-path:url(#SVGID_6_);fill:url(#SVGID_7_);}
	.st5{clip-path:url(#SVGID_10_);fill:url(#SVGID_11_);}
	.st6{clip-path:url(#SVGID_13_);fill:url(#SVGID_14_);}
	.st7{clip-path:url(#SVGID_16_);fill:url(#SVGID_17_);}
	.st8{clip-path:url(#SVGID_19_);fill:url(#SVGID_20_);}
	.st9{fill:#FFFFFF;}
	.st10{clip-path:url(#SVGID_23_);fill:url(#SVGID_24_);}
	.st11{clip-path:url(#SVGID_27_);fill:url(#SVGID_28_);}
	.st12{display:inline;fill:#5CC5F1;}
	.st13{fill:none;stroke:#222D3A;stroke-width:2;stroke-linecap:round;stroke-linejoin:round;stroke-miterlimit:10;}
	.st14{fill:#222D3A;}
	.st15{fill:none;stroke:#222D3A;stroke-linecap:round;stroke-linejoin:round;stroke-miterlimit:10;}
	.st16{fill:#5CC5F1;}
	.st17{fill:none;stroke:#5CC5F1;stroke-width:2;stroke-linecap:round;stroke-linejoin:round;stroke-miterlimit:10;}
	.st18{fill:none;stroke:#5CC5F1;stroke-width:2;stroke-miterlimit:10;}
	.st19{fill:#5CC5F1;stroke:#5CC5F1;stroke-miterlimit:10;}
</style>
</svg>
