<svg id="Layer_1" data-name="Layer 1" xmlns="http://www.w3.org/2000/svg" xmlns:xlink="http://www.w3.org/1999/xlink" viewBox="0 0 34.37 40.78"><defs><style>.cls-1,.cls-2,.cls-5,.cls-7{fill:none;stroke-miterlimit:10;}.cls-1{stroke:url(#linear-gradient);}.cls-2{stroke:url(#linear-gradient-2);}.cls-3{fill:#e8ecef;opacity:0;}.cls-4{clip-path:url(#clip-path);}.cls-5{stroke:url(#linear-gradient-3);}.cls-6{clip-path:url(#clip-path-2);}.cls-7{stroke:url(#linear-gradient-5);}</style><linearGradient id="linear-gradient" x1="14.68" y1="20.17" x2="28.49" y2="20.17" gradientUnits="userSpaceOnUse"><stop offset="0" stop-color="#efbf3a"/><stop offset="0.35" stop-color="#f0c13d"/><stop offset="0.64" stop-color="#f4c748"/><stop offset="0.92" stop-color="#fad259"/><stop offset="1" stop-color="#fcd660"/></linearGradient><linearGradient id="linear-gradient-2" x1="7.25" y1="4.46" x2="15.28" y2="4.46" xlink:href="#linear-gradient"/><clipPath id="clip-path" transform="translate(-0.55 2.25)"><path class="cls-1" d="M26.71,26.61a1.31,1.31,0,0,0-1.28,1.32,3.84,3.84,0,1,1-7.67,0l0-15.52a3.84,3.84,0,1,1,7.67,0,1.28,1.28,0,1,0,2.56,0,6.4,6.4,0,1,0-12.79,0L15.2,28a6.4,6.4,0,1,0,12.79,0A1.3,1.3,0,0,0,26.71,26.61Z"/></clipPath><linearGradient id="linear-gradient-3" x1="8.06" y1="18.15" x2="30.1" y2="18.15" gradientTransform="translate(0.03 -0.03) rotate(0.09)" xlink:href="#linear-gradient"/><clipPath id="clip-path-2" transform="translate(-0.55 2.25)"><path class="cls-2" d="M11.26.85A3.56,3.56,0,0,0,7.75,4.47a3.52,3.52,0,1,0,7,0A3.56,3.56,0,0,0,11.26.85Zm0,4.6a1,1,0,1,1,1-1A1,1,0,0,1,11.27,5.45Z"/></clipPath><linearGradient id="linear-gradient-5" x1="4.7" y1="18.14" x2="26.75" y2="18.14" gradientTransform="translate(0.03 -0.02) rotate(0.09)" xlink:href="#linear-gradient"/></defs><title>temp-invalid-s_low</title><rect class="cls-3" y="2.76" width="34.37" height="34.37"/><g class="cls-4"><rect class="cls-5" x="8.59" y="-1.71" width="20.98" height="39.73" transform="translate(-0.58 2.27) rotate(-0.09)"/></g><path class="cls-1" d="M26.71,26.61a1.31,1.31,0,0,0-1.28,1.32,3.84,3.84,0,1,1-7.67,0l0-15.52a3.84,3.84,0,1,1,7.67,0,1.28,1.28,0,1,0,2.56,0,6.4,6.4,0,1,0-12.79,0L15.2,28a6.4,6.4,0,1,0,12.79,0A1.3,1.3,0,0,0,26.71,26.61Z" transform="translate(-0.55 2.25)"/><g class="cls-6"><rect class="cls-7" x="5.23" y="-1.73" width="20.98" height="39.73" transform="translate(-0.58 2.27) rotate(-0.09)"/></g><path class="cls-2" d="M11.26.85A3.56,3.56,0,0,0,7.75,4.47a3.52,3.52,0,1,0,7,0A3.56,3.56,0,0,0,11.26.85Zm0,4.6a1,1,0,1,1,1-1A1,1,0,0,1,11.27,5.45Z" transform="translate(-0.55 2.25)"/></svg>