<?xml version="1.0" encoding="utf-8"?>
<!-- Generator: Adobe Illustrator 22.1.0, SVG Export Plug-In . SVG Version: 6.00 Build 0)  -->
<svg version="1.1" id="Layer_1" xmlns="http://www.w3.org/2000/svg" xmlns:xlink="http://www.w3.org/1999/xlink" x="0px" y="0px"
	 viewBox="0 0 17 15" style="enable-background:new 0 0 17 15;" xml:space="preserve">
<style type="text/css">
	.st0{fill:#4AC8FF;}
</style>
<g>
	<g>
		<g>
			<path class="st0" d="M8.3,0l-3,3C5,3.3,5.1,3.5,5.5,3.5h1.6l0,3.6c0,0.6,0.5,1.1,1.1,1.1l0,0c0.6,0,1.1-0.5,1.1-1.1l0-3.6h1.6
				c0.4,0,0.5-0.2,0.2-0.5L8.3,0z"/>
			<path class="st0" d="M14.7,4.3H13c-0.2,0-0.3,0.1-0.3,0.3v8H4v-8c0-0.2-0.1-0.3-0.3-0.3H2c-0.2,0-0.3,0.1-0.3,0.3v8.7
				c0,0.9,0.7,1.5,1.5,1.5h10.2c0.9,0,1.5-0.7,1.5-1.5V4.5C15,4.4,14.9,4.3,14.7,4.3z"/>
		</g>
	</g>
</g>
</svg>
