<?xml version="1.0" encoding="utf-8"?>
<!-- Generator: Adobe Illustrator 22.1.0, SVG Export Plug-In . SVG Version: 6.00 Build 0)  -->
<svg version="1.1" id="Layer_1" xmlns="http://www.w3.org/2000/svg" xmlns:xlink="http://www.w3.org/1999/xlink" x="0px" y="0px"
	 viewBox="0 0 17 15" style="enable-background:new 0 0 17 15;" xml:space="preserve">
<style type="text/css">
	.st0{fill:#4AC8FF;}
</style>
<path class="st0" d="M8.3,9.3l2.1,2.1c0.1,0.1,0.2,0.2,0.4,0.2s0.3-0.1,0.4-0.2l0.3-0.3c0.1-0.1,0.2-0.2,0.2-0.4s-0.1-0.3-0.2-0.4
	L8.8,7.5C8.7,7.4,8.5,7.3,8.3,7.3h0c-0.2,0-0.4,0.1-0.5,0.2l-2.7,2.8c-0.1,0.1-0.2,0.2-0.2,0.4S5,11,5.1,11.1l0.3,0.3
	c0.1,0.1,0.2,0.2,0.4,0.2s0.3-0.1,0.4-0.2L8.3,9.3 M1.9,4.3H4l0,1.4h4.4h4.3l0-1.4h2c0.1,0,0.2,0.1,0.2,0.2v8.8
	c0,0.8-0.7,1.5-1.5,1.5H3.2c-0.8,0-1.5-0.7-1.5-1.5V4.5C1.7,4.4,1.8,4.3,1.9,4.3z"/>
</svg>
