<?xml version="1.0" encoding="utf-8"?>
<!-- Generator: Adobe Illustrator 22.1.0, SVG Export Plug-In . SVG Version: 6.00 Build 0)  -->
<svg version="1.1" id="Layer_1" xmlns="http://www.w3.org/2000/svg" xmlns:xlink="http://www.w3.org/1999/xlink" x="0px" y="0px"
	 viewBox="0 0 13.2 10.5" style="enable-background:new 0 0 13.2 10.5;" xml:space="preserve">
<style type="text/css">
	.st0{opacity:0;}
	.st1{fill:#4AC8FF;}
</style>
<rect class="st0" width="13.2" height="10.5"/>
<path class="st1" d="M6.6,5l2.1,2.1c0.1,0.1,0.2,0.2,0.4,0.2s0.3-0.1,0.4-0.2l0.3-0.3C9.9,6.7,10,6.6,10,6.4S9.9,6.1,9.8,6L7.1,3.2
	C7,3.1,6.8,3,6.6,3l0,0C6.4,3,6.2,3.1,6.1,3.2L3.4,6C3.3,6.1,3.2,6.2,3.2,6.4s0.1,0.3,0.2,0.4l0.3,0.3c0.1,0.1,0.2,0.2,0.4,0.2
	c0.2,0,0.3-0.1,0.4-0.2L6.6,5 M0.2,0h2.1v1.4h4.4H11V0h2c0.1,0,0.2,0.1,0.2,0.2V9c0,0.8-0.7,1.5-1.5,1.5H1.5C0.7,10.5,0,9.8,0,9V0.2
	C0,0.1,0.1,0,0.2,0z"/>
</svg>
