<svg id="Layer_1" data-name="Layer 1" xmlns="http://www.w3.org/2000/svg" xmlns:xlink="http://www.w3.org/1999/xlink" viewBox="0 0 34.37 34.37"><defs><style>.cls-1{fill:#e8ecef;opacity:0;}.cls-2{fill:none;stroke-miterlimit:10;stroke:url(#linear-gradient);}</style><linearGradient id="linear-gradient" x1="0.5" y1="18.17" x2="31.16" y2="18.17" gradientUnits="userSpaceOnUse"><stop offset="0" stop-color="#b5b5b5"/><stop offset="0.65" stop-color="#e8e8e8"/><stop offset="1" stop-color="#fff"/></linearGradient></defs><title>wind_s-invalid-maint</title><rect class="cls-1" width="34.37" height="34.37"/><path class="cls-2" d="M30.45,18a5.6,5.6,0,0,0-2.32-3.34s-14-9-14.12-9.1a6.32,6.32,0,0,0-2.54-.15L3.22,6.77V4.57A1.17,1.17,0,0,0,2.11,3.34,1.18,1.18,0,0,0,1,4.57V31.76A1.18,1.18,0,0,0,2.11,33a1.18,1.18,0,0,0,1.11-1.24V11.58L6.85,18.1a2.86,2.86,0,0,0,1.39,1.42c.16.08,15.4,6,15.4,6a4.58,4.58,0,0,0,3.79-.22,5.82,5.82,0,0,0,2.71-3A6.73,6.73,0,0,0,30.45,18ZM7.15,10.49a14.71,14.71,0,0,0-.68,2.14l-2-3.55,3.79-.64A11.67,11.67,0,0,0,7.15,10.49Zm2.2,6.84s-.51-.08-.8-1.09a8.3,8.3,0,0,1,.62-4.71c1.09-2.64,3-4.17,3.88-3.75l.18.11c.77.67.88,3.13-.15,5.64s-2.78,4-3.73,3.8ZM16.24,20l-3.81-1.48a11.28,11.28,0,0,0,2.68-4,11.94,11.94,0,0,0,.95-4.84L19.54,12a12.32,12.32,0,0,1-1,4.39A11.11,11.11,0,0,1,16.24,20Zm5.83,2.27-3.45-1.34a17.74,17.74,0,0,0,1.95-3.55,18.54,18.54,0,0,0,1.16-4l3.17,2a9,9,0,0,1-.75,3.78,8.21,8.21,0,0,1-2.08,3.09Zm6.06-1.05a3,3,0,0,1-3.62,2,14.38,14.38,0,0,0,1.67-3,14.91,14.91,0,0,0,.95-3.38,3.75,3.75,0,0,1,1,4.38Z" transform="translate(-0.28 0.08)"/></svg>