<?xml version="1.0" encoding="utf-8"?>
<!-- Generator: Adobe Illustrator 22.1.0, SVG Export Plug-In . SVG Version: 6.00 Build 0)  -->
<svg version="1.1" id="Layer_1" xmlns="http://www.w3.org/2000/svg" xmlns:xlink="http://www.w3.org/1999/xlink" x="0px" y="0px"
	 viewBox="0 0 34.5 34.4" style="enable-background:new 0 0 34.5 34.4;" xml:space="preserve">
<style type="text/css">.st0{fill:#6B6B6B;}.st1{fill:#E8ECEF;fill-opacity:0;}.st2{clip-path:url(#SVGID_2_);}.st3{fill:none;stroke:url(#SVGID_3_);stroke-miterlimit:10;}.st4{fill:none;stroke:#000;stroke-linejoin:round;stroke-miterlimit:10;}</style>
<title>wind_clear</title>
<path class="st0" d="M2.8,19.9C3,20.1,14.9,31.1,14.9,31.1c1,0.9,2.4,1.4,3.8,1.2c1.5-0.2,2.8-0.9,3.8-1.9c1.1-1.1,1.7-2.5,1.9-4
	l0,0c0.2-1.4-0.2-2.9-1-4.1c0,0-10-14-10.1-14.1c-0.7-0.5-1.5-0.9-2.4-1.1l-8-1.7V5.1c0-0.7-0.5-1.2-1.1-1.2c-0.7,0-1.2,0.6-1.1,1.2
	c0,0,0,0,0,0l0,0v27.5c0,0.7,0.5,1.2,1.1,1.2c0,0,0,0,0,0l0,0c0.6-0.1,1.1-0.6,1.1-1.2L2.8,19.9L2.8,19.9z M4.8,10.4
	c-0.5,0.6-1,1.2-1.5,1.8L2.7,8l3.9,0.8C5.9,9.3,5.3,9.8,4.8,10.4L4.8,10.4z M4.4,17.8c0,0-0.5-0.3-0.4-1.4c0.4-1.6,1.2-3.1,2.4-4.2
	c2-2.2,4.4-2.9,5.1-2.2l0.1,0.2c0.5,0.9-0.3,3.3-2.3,5.4S5.2,18.4,4.4,17.8L4.4,17.8z M9.9,23l-3.1-2.9c1.5-0.6,2.9-1.6,4.1-2.8
	c1.2-1.2,2.1-2.7,2.8-4.3l2.5,3.5c-0.6,1.4-1.6,2.7-2.7,3.8C12.5,21.5,11.3,22.4,9.9,23z M14.7,27.4l-2.8-2.6
	c1.2-0.8,2.2-1.7,3.2-2.7c1-1,1.9-2.2,2.6-3.4l2.3,3.1c-0.5,1.3-1.2,2.4-2.1,3.4C17,26.1,15.9,26.9,14.7,27.4L14.7,27.4z M20.9,28.7
	c-1.1,1.3-2.9,1.5-4.2,0.6c1-0.6,1.9-1.4,2.7-2.3c0.8-0.9,1.6-1.8,2.2-2.9C22.4,25.6,22.1,27.4,20.9,28.7L20.9,28.7z"/>
<rect x="0.1" class="st1" width="34.4" height="34.4"/>
<g>
	<defs>
		<path id="SVGID_1_" d="M2.7,6.1V4.8c0-0.7-0.5-1.2-1.1-1.2C1,3.6,0.5,4.1,0.5,4.8v27.5c0,0.7,0.5,1.2,1.1,1.2c0,0,0,0,0,0l0,0
			c0.7,0,1.2-0.6,1.1-1.2c0,0,0,0,0,0l0,0V20.1"/>
	</defs>
	<clipPath id="SVGID_2_">
		<use xlink:href="#SVGID_1_"  style="overflow:visible;"/>
	</clipPath>
	<g class="st2">
		
			<linearGradient id="SVGID_3_" gradientUnits="userSpaceOnUse" x1="0" y1="462.54" x2="31" y2="462.54" gradientTransform="matrix(1 0 0 1 0 -444)">
			<stop  offset="0" style="stop-color:#54C073"/>
			<stop  offset="0.27" style="stop-color:#57C375"/>
			<stop  offset="0.51" style="stop-color:#62CD7A"/>
			<stop  offset="0.73" style="stop-color:#74DF83"/>
			<stop  offset="0.94" style="stop-color:#8CF690"/>
			<stop  offset="1" style="stop-color:#95FF95"/>
		</linearGradient>
		<polyline class="st3" points="0.5,3.5 0.5,33.5 30.5,33.5 30.5,3 		"/>
	</g>
</g>
<path class="st4" d="M2.7,19.8c0.1,0.1,12.4,11.5,12.4,11.5c1,0.9,2.3,1.4,3.7,1.2c1.4-0.2,2.8-0.8,3.8-1.9c1.1-1.1,1.7-2.5,1.9-4
	l0,0c0.2-1.4-0.2-2.9-1-4.1c0,0-10-14-10.1-14.1c-0.7-0.5-1.5-0.9-2.4-1.1L3.7,5.7L2.7,5.5V4.8c0-0.7-0.5-1.2-1.1-1.2
	C1,3.6,0.5,4.1,0.5,4.8v27.5c0,0.7,0.5,1.2,1.1,1.2c0,0,0,0,0,0l0,0c0.7,0,1.2-0.6,1.1-1.2c0,0,0,0,0,0l0,0V19.8z M5,10.6
	c-0.5,0.6-1,1.2-1.5,1.8L2.9,8.2L6.8,9C6.1,9.5,5.5,10,5,10.6z M4.5,18c0,0-0.5-0.3-0.3-1.4c0.4-1.6,1.2-3.1,2.4-4.3
	c2.1-2.1,4.4-2.9,5.1-2.1l0.1,0.2c0.5,0.9-0.3,3.3-2.3,5.4S5.3,18.6,4.5,18L4.5,18z M10.1,23.2L7,20.3c1.5-0.6,2.9-1.6,4.1-2.8
	c1.2-1.2,2.1-2.7,2.7-4.3l2.5,3.5c-0.6,1.4-1.5,2.7-2.6,3.8C12.7,21.6,11.4,22.5,10.1,23.2L10.1,23.2z M14.8,27.6L12,25
	c1.2-0.8,2.3-1.7,3.2-2.7c1-1,1.9-2.2,2.6-3.4l2.3,3.2c-0.5,1.3-1.2,2.4-2.2,3.3C17.1,26.4,16,27.1,14.8,27.6L14.8,27.6z M21,29
	c-1.1,1.2-2.9,1.3-4.2,0.4c1-0.6,1.9-1.4,2.7-2.2c0.9-0.9,1.6-1.8,2.3-2.9C22.6,25.8,22.3,27.8,21,29z"/>
</svg>
