<svg id="Layer_1" data-name="Layer 1" xmlns="http://www.w3.org/2000/svg" xmlns:xlink="http://www.w3.org/1999/xlink" viewBox="0 0 34.37 34.37"><defs><style>.cls-1,.cls-4{fill:none;stroke-miterlimit:10;}.cls-1{stroke:url(#linear-gradient);}.cls-2{fill:#e8ecef;opacity:0;}.cls-3{clip-path:url(#clip-path);}.cls-4{stroke:url(#linear-gradient-2);}</style><linearGradient id="linear-gradient" x1="3.61" y1="35.08" x2="18.79" y2="7.76" gradientUnits="userSpaceOnUse"><stop offset="0" stop-color="#efbf3a"/><stop offset="0.35" stop-color="#f0c13d"/><stop offset="0.64" stop-color="#f4c748"/><stop offset="0.92" stop-color="#fad259"/><stop offset="1" stop-color="#fcd660"/></linearGradient><clipPath id="clip-path" transform="translate(-0.28 0.08)"><path class="cls-1" d="M30.64,18.26a5.61,5.61,0,0,0-2.35-3.38S14.17,5.76,14,5.68a6.1,6.1,0,0,0-2.56-.16L3.1,6.92V4.7A1.19,1.19,0,0,0,2,3.45,1.2,1.2,0,0,0,.85,4.7V32.2A1.19,1.19,0,0,0,2,33.45,1.18,1.18,0,0,0,3.09,32.2V11.79l3.68,6.6a2.92,2.92,0,0,0,1.41,1.43c.16.08,15.57,6.08,15.57,6.08a4.67,4.67,0,0,0,3.83-.22,6,6,0,0,0,2.75-3.09,6.85,6.85,0,0,0,.31-4.33ZM7.07,10.69a13.92,13.92,0,0,0-.68,2.17L4.32,9.26l3.84-.65A12.4,12.4,0,0,0,7.07,10.69ZM9.3,17.6s-.52-.07-.81-1.1a8.33,8.33,0,0,1,.63-4.76c1.1-2.67,3-4.22,3.92-3.79l.18.11c.78.68.89,3.16-.15,5.7S10.26,17.82,9.3,17.6Zm7,2.72-3.86-1.51a11.11,11.11,0,0,0,2.71-4,12,12,0,0,0,1-4.89l3.51,2.26a12.43,12.43,0,0,1-1,4.45A11.63,11.63,0,0,1,16.27,20.32Zm5.9,2.3-3.49-1.36a17.67,17.67,0,0,0,2-3.6,18.79,18.79,0,0,0,1.18-4.06L25,15.67a9.41,9.41,0,0,1-.76,3.82,8.53,8.53,0,0,1-2.1,3.13Zm6.12-1.07a3.07,3.07,0,0,1-3.66,2,14.42,14.42,0,0,0,1.69-3,15.11,15.11,0,0,0,1-3.42,3.79,3.79,0,0,1,1,4.43Z"/></clipPath><linearGradient id="linear-gradient-2" x1="5.34" y1="36.96" x2="25.82" y2="0.11" xlink:href="#linear-gradient"/></defs><title>wind_s-invalid-s_low</title><rect class="cls-2" width="34.37" height="34.37"/><g class="cls-3"><rect class="cls-4" x="0.58" y="3.53" width="30" height="30"/></g><path class="cls-1" d="M30.64,18.26a5.61,5.61,0,0,0-2.35-3.38S14.17,5.76,14,5.68a6.1,6.1,0,0,0-2.56-.16L3.1,6.92V4.7A1.19,1.19,0,0,0,2,3.45,1.2,1.2,0,0,0,.85,4.7V32.2A1.19,1.19,0,0,0,2,33.45,1.18,1.18,0,0,0,3.09,32.2V11.79l3.68,6.6a2.92,2.92,0,0,0,1.41,1.43c.16.08,15.57,6.08,15.57,6.08a4.67,4.67,0,0,0,3.83-.22,6,6,0,0,0,2.75-3.09,6.85,6.85,0,0,0,.31-4.33ZM7.07,10.69a13.92,13.92,0,0,0-.68,2.17L4.32,9.26l3.84-.65A12.4,12.4,0,0,0,7.07,10.69ZM9.3,17.6s-.52-.07-.81-1.1a8.33,8.33,0,0,1,.63-4.76c1.1-2.67,3-4.22,3.92-3.79l.18.11c.78.68.89,3.16-.15,5.7S10.26,17.82,9.3,17.6Zm7,2.72-3.86-1.51a11.11,11.11,0,0,0,2.71-4,12,12,0,0,0,1-4.89l3.51,2.26a12.43,12.43,0,0,1-1,4.45A11.63,11.63,0,0,1,16.27,20.32Zm5.9,2.3-3.49-1.36a17.67,17.67,0,0,0,2-3.6,18.79,18.79,0,0,0,1.18-4.06L25,15.67a9.41,9.41,0,0,1-.76,3.82,8.53,8.53,0,0,1-2.1,3.13Zm6.12-1.07a3.07,3.07,0,0,1-3.66,2,14.42,14.42,0,0,0,1.69-3,15.11,15.11,0,0,0,1-3.42,3.79,3.79,0,0,1,1,4.43Z" transform="translate(-0.28 0.08)"/></svg>