<?xml version="1.0" encoding="utf-8"?>
<!-- Generator: Adobe Illustrator 22.1.0, SVG Export Plug-In . SVG Version: 6.00 Build 0)  -->
<svg version="1.1" id="Layer_1" xmlns="http://www.w3.org/2000/svg" xmlns:xlink="http://www.w3.org/1999/xlink" x="0px" y="0px"
	 viewBox="0 0 34.4 34.4" style="enable-background:new 0 0 34.4 34.4;" xml:space="preserve">
<style type="text/css">.st0{fill:none;}.st1{clip-path:url(#SVGID_2_);}.st2{fill:#E8ECEF;fill-opacity:0;}.st3{fill:none;stroke:#E4D506;stroke-linejoin:round;stroke-miterlimit:10;}</style>
<title>wind_s-unknown</title>
<path class="st0" d="M30.5,18c-0.3-1.4-1.2-2.6-2.3-3.4c0,0-14.1-9.1-14.3-9.2c-0.8-0.2-1.7-0.3-2.6-0.2L3,6.7V4.5
	c0-0.7-0.5-1.2-1.1-1.2c0,0,0,0,0,0c-0.7,0-1.2,0.6-1.1,1.2c0,0,0,0,0,0V32c0,0.7,0.5,1.2,1.1,1.2C2.5,33.2,3,32.7,3,32c0,0,0,0,0,0
	V11.6l3.7,6.6c0.3,0.6,0.7,1.1,1.3,1.4l15.6,6.1c1.2,0.5,2.6,0.4,3.8-0.2c1.3-0.7,2.2-1.8,2.8-3.1C30.7,21,30.8,19.5,30.5,18
	L30.5,18z M6.9,10.5c-0.3,0.7-0.5,1.4-0.7,2.2L4.2,9.1L8,8.4C7.6,9.1,7.2,9.8,6.9,10.5z M9.1,17.4c0,0-0.5-0.1-0.8-1.1
	c-0.3-1.6,0-3.3,0.7-4.8c1.1-2.7,3-4.2,3.9-3.8l0.2,0.1C13.9,8.5,14,11,13,13.6S10.1,17.6,9.1,17.4z M16.1,20.1l-3.9-1.5
	c1.2-1.1,2.1-2.5,2.7-4c0.7-1.5,1-3.2,1-4.9l3.5,2.3c-0.1,1.5-0.4,3-1,4.4C18,17.8,17.1,19.1,16.1,20.1L16.1,20.1z M22,22.4L18.5,21
	c0.8-1.1,1.5-2.3,2-3.6c0.5-1.3,0.9-2.7,1.2-4.1l3.2,2.1c0,1.3-0.3,2.6-0.8,3.8C23.6,20.4,22.9,21.5,22,22.4z M28.1,21.3
	c-0.5,1.5-2.1,2.4-3.7,2c0.7-0.9,1.2-1.9,1.7-3c0.5-1.1,0.8-2.2,1-3.4C28.4,18,28.8,19.8,28.1,21.3L28.1,21.3z"/>
<g>
	<defs>
		<path id="SVGID_1_" d="M30.5,18c-0.3-1.4-1.2-2.6-2.3-3.4c0,0-14.1-9.1-14.3-9.2c-0.8-0.2-1.7-0.3-2.6-0.2L3,6.7V4.5
			c0-0.7-0.5-1.2-1.1-1.2c0,0,0,0,0,0c-0.7,0-1.2,0.6-1.1,1.2c0,0,0,0,0,0V32c0,0.7,0.5,1.2,1.1,1.2C2.5,33.2,3,32.7,3,32
			c0,0,0,0,0,0V11.6l3.7,6.6c0.3,0.6,0.7,1.1,1.3,1.4l15.6,6.1c1.2,0.5,2.6,0.4,3.8-0.2c1.3-0.7,2.2-1.8,2.8-3.1
			C30.7,21,30.8,19.5,30.5,18L30.5,18z M6.9,10.5c-0.3,0.7-0.5,1.4-0.7,2.2L4.2,9.1L8,8.4C7.6,9.1,7.2,9.8,6.9,10.5z M9.1,17.4
			c0,0-0.5-0.1-0.8-1.1c-0.3-1.6,0-3.3,0.7-4.8c1.1-2.7,3-4.2,3.9-3.8l0.2,0.1C13.9,8.5,14,11,13,13.6S10.1,17.6,9.1,17.4z
			 M16.1,20.1l-3.9-1.5c1.2-1.1,2.1-2.5,2.7-4c0.7-1.5,1-3.2,1-4.9l3.5,2.3c-0.1,1.5-0.4,3-1,4.4C18,17.8,17.1,19.1,16.1,20.1
			L16.1,20.1z M22,22.4L18.5,21c0.8-1.1,1.5-2.3,2-3.6c0.5-1.3,0.9-2.7,1.2-4.1l3.2,2.1c0,1.3-0.3,2.6-0.8,3.8
			C23.6,20.4,22.9,21.5,22,22.4z M28.1,21.3c-0.5,1.5-2.1,2.4-3.7,2c0.7-0.9,1.2-1.9,1.7-3c0.5-1.1,0.8-2.2,1-3.4
			C28.4,18,28.8,19.8,28.1,21.3L28.1,21.3z"/>
	</defs>
	<clipPath id="SVGID_2_">
		<use xlink:href="#SVGID_1_"  style="overflow:visible;"/>
	</clipPath>
	<g class="st1">
		<rect x="0.7" y="3.2" class="st0" width="30" height="30"/>
	</g>
</g>
<rect class="st2" width="34.4" height="34.4"/>
<path class="st3" d="M30.2,18.1c-0.3-1.4-1.2-2.6-2.3-3.3c0,0-14-9-14.1-9.1c-0.8-0.2-1.7-0.3-2.5-0.2L2.9,6.8V4.7
	C3,4,2.5,3.5,1.8,3.4c0,0,0,0,0,0l0,0C1.2,3.5,0.7,4,0.7,4.7v27.2c0,0.6,0.5,1.2,1.1,1.2c0.6,0,1.1-0.6,1.1-1.2V11.7l3.6,6.5
	c0.3,0.6,0.8,1.1,1.4,1.4c0.2,0.1,15.4,6,15.4,6c1.2,0.5,2.6,0.4,3.8-0.2c1.2-0.6,2.2-1.7,2.7-3C30.5,21,30.6,19.5,30.2,18.1z
	 M6.9,10.6c-0.3,0.7-0.5,1.4-0.7,2.1l-2-3.6L8,8.5C7.6,9.2,7.2,9.8,6.9,10.6z M9.1,17.4c0,0-0.5-0.1-0.8-1.1c-0.3-1.6,0-3.2,0.6-4.7
	c1.1-2.6,3-4.2,3.9-3.7L13,8c0.8,0.7,0.9,3.1-0.1,5.6S10,17.6,9.1,17.4z M16,20.1l-3.9-1.5c1.2-1.1,2.1-2.5,2.7-4
	c0.6-1.5,1-3.2,0.9-4.8l3.5,2.3c-0.1,1.5-0.4,3-1,4.4C17.7,17.8,17,19,16,20.1z M21.8,22.4L18.3,21c0.8-1.1,1.4-2.3,2-3.5
	c0.5-1.3,0.9-2.6,1.2-4l3.2,2c0,1.3-0.2,2.6-0.8,3.8C23.4,20.4,22.7,21.5,21.8,22.4L21.8,22.4z M27.9,21.3c-0.5,1.5-2.1,2.4-3.6,2
	c0.7-0.9,1.2-1.9,1.7-3c0.5-1.1,0.8-2.2,1-3.4C28.2,18,28.5,19.8,27.9,21.3L27.9,21.3z"/>
</svg>
