<svg id="Layer_1" data-name="Layer 1" xmlns="http://www.w3.org/2000/svg" xmlns:xlink="http://www.w3.org/1999/xlink" viewBox="0 0 34.45 34.37"><defs><style>.cls-1,.cls-4,.cls-5{fill:none;stroke-miterlimit:10;}.cls-1{stroke:url(#linear-gradient);}.cls-2{fill:#e8ecef;opacity:0;}.cls-3{clip-path:url(#clip-path);}.cls-4{stroke:url(#linear-gradient-2);}.cls-5{stroke:url(#linear-gradient-4);}</style><linearGradient id="linear-gradient" x1="0.2" y1="18.46" x2="3.44" y2="18.46" gradientUnits="userSpaceOnUse"><stop offset="0" stop-color="#54c073"/><stop offset="0.27" stop-color="#57c375"/><stop offset="0.51" stop-color="#62cd7a"/><stop offset="0.73" stop-color="#74df83"/><stop offset="0.94" stop-color="#8cf690"/><stop offset="1" stop-color="#95ff95"/></linearGradient><clipPath id="clip-path" transform="translate(-0.2 0.08)"><path class="cls-1" d="M2.94,6V4.71A1.19,1.19,0,0,0,1.82,3.46,1.19,1.19,0,0,0,.7,4.71V32.22a1.18,1.18,0,0,0,1.12,1.24,1.18,1.18,0,0,0,1.12-1.24V20"/></clipPath><linearGradient id="linear-gradient-2" x1="0" y1="18.54" x2="31" y2="18.54" xlink:href="#linear-gradient"/><linearGradient id="linear-gradient-4" x1="2.4" y1="18.95" x2="25.28" y2="18.95" xlink:href="#linear-gradient"/></defs><title>wind_s-invalid-clear</title><rect class="cls-2" x="0.08" width="34.37" height="34.37"/><g class="cls-3"><polyline class="cls-4" points="0.5 3.54 0.5 33.55 30.5 33.55 30.5 3.03"/></g><path class="cls-1" d="M2.94,6V4.71A1.19,1.19,0,0,0,1.82,3.46,1.19,1.19,0,0,0,.7,4.71V32.22a1.18,1.18,0,0,0,1.12,1.24,1.18,1.18,0,0,0,1.12-1.24V20" transform="translate(-0.2 0.08)"/><path class="cls-5" d="M2.78,19.6c.12.13,12.53,11.61,12.53,11.61A4.73,4.73,0,0,0,19,32.44a6,6,0,0,0,3.77-1.9,7,7,0,0,0,1.93-4h0a5.79,5.79,0,0,0-1-4.09s-10-14-10.13-14.11a6.51,6.51,0,0,0-2.38-1.11L2.78,5.43M5.15,10.5a13.54,13.54,0,0,0-1.46,1.8L3.06,8.11,7,8.93A12.56,12.56,0,0,0,5.15,10.5Zm-.48,7.41s-.46-.27-.35-1.35a8.52,8.52,0,0,1,2.38-4.3c2.05-2.12,4.43-2.88,5.15-2.13l.13.18c.49.93-.33,3.34-2.28,5.36s-4.19,2.8-5,2.24Zm5.62,5.2L7.18,20.23a11.45,11.45,0,0,0,4.08-2.8A12.44,12.44,0,0,0,14,13.13l2.49,3.48a12.93,12.93,0,0,1-2.63,3.84A11.67,11.67,0,0,1,10.29,23.11ZM15,27.5l-2.81-2.6a17.94,17.94,0,0,0,3.22-2.68,19.22,19.22,0,0,0,2.64-3.43L20.36,22a9.45,9.45,0,0,1-2.16,3.35A8.49,8.49,0,0,1,15,27.5Zm6.23,1.28a3.14,3.14,0,0,1-4.24.55,14.87,14.87,0,0,0,2.74-2.25A14.78,14.78,0,0,0,22,24.19a3.86,3.86,0,0,1-.69,4.59Z" transform="translate(-0.2 0.08)"/></svg>