<svg id="Layer_1" data-name="Layer 1" xmlns="http://www.w3.org/2000/svg" xmlns:xlink="http://www.w3.org/1999/xlink" viewBox="0 0 36.07 35.84"><defs><style>.cls-1,.cls-2,.cls-5,.cls-7{fill:none;stroke-miterlimit:10;}.cls-1{stroke:url(#linear-gradient);}.cls-2{stroke:url(#linear-gradient-2);}.cls-3{fill:#e8ecef;opacity:0;}.cls-4{clip-path:url(#clip-path);}.cls-5{stroke:url(#linear-gradient-3);}.cls-6{clip-path:url(#clip-path-2);}.cls-7{stroke:url(#linear-gradient-5);}</style><linearGradient id="linear-gradient" x1="3" y1="10.55" x2="35.16" y2="10.55" gradientUnits="userSpaceOnUse"><stop offset="0" stop-color="#f54e2d"/><stop offset="0.34" stop-color="#f65130"/><stop offset="0.64" stop-color="#f9593b"/><stop offset="0.91" stop-color="#fd674c"/><stop offset="1" stop-color="#ff6d54"/></linearGradient><linearGradient id="linear-gradient-2" x1="0.5" y1="18.34" x2="3.77" y2="18.34" xlink:href="#linear-gradient"/><clipPath id="clip-path" transform="translate(0.02 0.08)"><path class="cls-1" d="M3.47,12.71l8.73,4.85a2.87,2.87,0,0,0,1.93.53c.18,0,16.45-2.53,16.45-2.53a4.62,4.62,0,0,0,3.19-2.1,5.94,5.94,0,0,0,.83-4,6.92,6.92,0,0,0-1.9-3.89h0A5.59,5.59,0,0,0,29,3.8S12.28,3,12.1,3A6.45,6.45,0,0,0,9.81,4.14L3.32,9.52m5.31,1.26A13.15,13.15,0,0,0,9.12,13L5.54,10.93l3-2.48A12.32,12.32,0,0,0,8.63,10.78ZM14,15.63s-.48.19-1.25-.55a8.35,8.35,0,0,1-1.83-4.42c-.38-2.85.48-5.12,1.48-5.22h.22c1,.19,2.35,2.28,2.71,5s-.4,4.89-1.33,5.19Zm7.36-1.14-4.07.63a11.26,11.26,0,0,0,.33-4.81A12.07,12.07,0,0,0,16,5.61l4.16.2a12.4,12.4,0,0,1,1.34,4.33A11.23,11.23,0,0,1,21.35,14.49Zm6.23-1-3.69.58a17.14,17.14,0,0,0-.1-4.08,18.69,18.69,0,0,0-1-4.09l3.79.18a9.25,9.25,0,0,1,1.26,3.67,8.47,8.47,0,0,1-.25,3.74Zm4.74-4a3.07,3.07,0,0,1-2.15,3.57,13.45,13.45,0,0,0-.06-3.46,14.91,14.91,0,0,0-.87-3.42,3.77,3.77,0,0,1,3.08,3.31Z"/></clipPath><linearGradient id="linear-gradient-3" x1="-0.02" y1="19.02" x2="35.53" y2="19.02" gradientTransform="translate(0.03 -0.03) rotate(0.09)" xlink:href="#linear-gradient"/><clipPath id="clip-path-2" transform="translate(0.02 0.08)"><path class="cls-2" d="M3.24,9.74V4.65A1.19,1.19,0,0,0,2.12,3.41,1.19,1.19,0,0,0,1,4.66L1,32a1.19,1.19,0,0,0,1.12,1.24A1.19,1.19,0,0,0,3.27,32l0-20.32"/></clipPath><linearGradient id="linear-gradient-5" x1="0.49" y1="17.04" x2="36.05" y2="17.04" gradientTransform="translate(0.03 -0.03) rotate(0.09)" xlink:href="#linear-gradient"/></defs><title>wind_s-invalid-critical</title><rect class="cls-3" x="0.3" width="34.37" height="34.37"/><g class="cls-4"><rect class="cls-5" x="0.5" y="2.79" width="34.51" height="32.45" transform="translate(-0.01 0.1) rotate(-0.09)"/></g><path class="cls-1" d="M3.47,12.71l8.73,4.85a2.87,2.87,0,0,0,1.93.53c.18,0,16.45-2.53,16.45-2.53a4.62,4.62,0,0,0,3.19-2.1,5.94,5.94,0,0,0,.83-4,6.92,6.92,0,0,0-1.9-3.89h0A5.59,5.59,0,0,0,29,3.8S12.28,3,12.1,3A6.45,6.45,0,0,0,9.81,4.14L3.32,9.52m5.31,1.26A13.15,13.15,0,0,0,9.12,13L5.54,10.93l3-2.48A12.32,12.32,0,0,0,8.63,10.78ZM14,15.63s-.48.19-1.25-.55a8.35,8.35,0,0,1-1.83-4.42c-.38-2.85.48-5.12,1.48-5.22h.22c1,.19,2.35,2.28,2.71,5s-.4,4.89-1.33,5.19Zm7.36-1.14-4.07.63a11.26,11.26,0,0,0,.33-4.81A12.07,12.07,0,0,0,16,5.61l4.16.2a12.4,12.4,0,0,1,1.34,4.33A11.23,11.23,0,0,1,21.35,14.49Zm6.23-1-3.69.58a17.14,17.14,0,0,0-.1-4.08,18.69,18.69,0,0,0-1-4.09l3.79.18a9.25,9.25,0,0,1,1.26,3.67,8.47,8.47,0,0,1-.25,3.74Zm4.74-4a3.07,3.07,0,0,1-2.15,3.57,13.45,13.45,0,0,0-.06-3.46,14.91,14.91,0,0,0-.87-3.42,3.77,3.77,0,0,1,3.08,3.31Z" transform="translate(0.02 0.08)"/><g class="cls-6"><rect class="cls-7" x="1.02" y="0.81" width="34.51" height="32.45" transform="matrix(1, 0, 0, 1, 0, 0.11)"/></g><path class="cls-2" d="M3.24,9.74V4.65A1.19,1.19,0,0,0,2.12,3.41,1.19,1.19,0,0,0,1,4.66L1,32a1.19,1.19,0,0,0,1.12,1.24A1.19,1.19,0,0,0,3.27,32l0-20.32" transform="translate(0.02 0.08)"/></svg>