<?xml version="1.0" encoding="UTF-8" standalone="no"?>
<!DOCTYPE svg PUBLIC "-//W3C//DTD SVG 1.1//EN"
 "http://www.w3.org/Graphics/SVG/1.1/DTD/svg11.dtd">
<!-- Generated by graphviz version 2.40.1 (20161225.0304)
 -->
<!-- Title: dependencies Pages: 1 -->
<svg width="2725pt" height="284pt"
 viewBox="0.00 0.00 2725.00 284.00" xmlns="http://www.w3.org/2000/svg" xmlns:xlink="http://www.w3.org/1999/xlink">
<g id="graph0" class="graph" transform="scale(1 1) rotate(0) translate(4 280)">
<title>dependencies</title>
<polygon fill="#ffffff" stroke="transparent" points="-4,4 -4,-280 2721,-280 2721,4 -4,4"/>
<text text-anchor="start" x="1337.5091" y="-42.4" font-family="sans-serif" font-weight="bold" font-size="14.00" fill="#000000">Legend</text>
<polygon fill="#ffffb3" stroke="transparent" points="1124.5,-10 1124.5,-30 1144.5,-30 1144.5,-10 1124.5,-10"/>
<text text-anchor="start" x="1148.129" y="-15.4" font-family="sans-serif" font-size="14.00" fill="#000000"> &#160;Declarations</text>
<polygon fill="#8dd3c7" stroke="transparent" points="1237.5,-10 1237.5,-30 1257.5,-30 1257.5,-10 1237.5,-10"/>
<text text-anchor="start" x="1261.2251" y="-15.4" font-family="sans-serif" font-size="14.00" fill="#000000"> &#160;Module</text>
<polygon fill="#80b1d3" stroke="transparent" points="1323.5,-10 1323.5,-30 1343.5,-30 1343.5,-10 1323.5,-10"/>
<text text-anchor="start" x="1347.2812" y="-15.4" font-family="sans-serif" font-size="14.00" fill="#000000"> &#160;Bootstrap</text>
<polygon fill="#fdb462" stroke="transparent" points="1420.5,-10 1420.5,-30 1440.5,-30 1440.5,-10 1420.5,-10"/>
<text text-anchor="start" x="1444.1732" y="-15.4" font-family="sans-serif" font-size="14.00" fill="#000000"> &#160;Providers</text>
<polygon fill="#fb8072" stroke="transparent" points="1516.5,-10 1516.5,-30 1536.5,-30 1536.5,-10 1516.5,-10"/>
<text text-anchor="start" x="1540.2258" y="-15.4" font-family="sans-serif" font-size="14.00" fill="#000000"> &#160;Exports</text>
<g id="clust1" class="cluster">
<title>cluster_WeatherModule</title>
<polygon fill="none" stroke="#000000" stroke-dasharray="1,5" points="8,-70 8,-268 2709,-268 2709,-70 8,-70"/>
</g>
<g id="clust2" class="cluster">
<title>cluster_WeatherModule_declarations</title>
<polygon fill="none" stroke="#000000" points="779,-78 779,-130 2701,-130 2701,-78 779,-78"/>
</g>
<g id="clust12" class="cluster">
<title>cluster_WeatherModule_imports</title>
<polygon fill="none" stroke="#000000" points="186,-78 186,-130 771,-130 771,-78 186,-78"/>
</g>
<g id="clust13" class="cluster">
<title>cluster_WeatherModule_exports</title>
<polygon fill="none" stroke="#000000" points="993,-208 993,-260 1195,-260 1195,-208 993,-208"/>
</g>
<g id="clust15" class="cluster">
<title>cluster_WeatherModule_providers</title>
<polygon fill="none" stroke="#000000" points="16,-78 16,-130 178,-130 178,-78 16,-78"/>
</g>
<!-- WeatherBackupWsMarkerComponent -->
<g id="node1" class="node">
<title>WeatherBackupWsMarkerComponent</title>
<polygon fill="#ffffb3" stroke="#000000" points="2692.8623,-122 2461.1377,-122 2461.1377,-86 2692.8623,-86 2692.8623,-122"/>
<text text-anchor="middle" x="2577" y="-99.8" font-family="Times,serif" font-size="14.00" fill="#000000">WeatherBackupWsMarkerComponent</text>
</g>
<!-- WeatherModule -->
<g id="node10" class="node">
<title>WeatherModule</title>
<polygon fill="#8dd3c7" stroke="#000000" points="1147.4594,-187 1144.4594,-191 1123.4594,-191 1120.4594,-187 1040.5406,-187 1040.5406,-151 1147.4594,-151 1147.4594,-187"/>
<text text-anchor="middle" x="1094" y="-164.8" font-family="Times,serif" font-size="14.00" fill="#000000">WeatherModule</text>
</g>
<!-- WeatherBackupWsMarkerComponent&#45;&gt;WeatherModule -->
<g id="edge1" class="edge">
<title>WeatherBackupWsMarkerComponent&#45;&gt;WeatherModule</title>
<path fill="none" stroke="#000000" d="M2577,-122.3228C2577,-145.6602 2577,-183 2577,-183 2577,-183 1157.6569,-183 1157.6569,-183"/>
<polygon fill="#000000" stroke="#000000" points="1157.6569,-179.5001 1147.6569,-183 1157.6568,-186.5001 1157.6569,-179.5001"/>
</g>
<!-- WeatherComponent -->
<g id="node2" class="node">
<title>WeatherComponent</title>
<polygon fill="#ffffb3" stroke="#000000" points="2443.2423,-122 2314.7577,-122 2314.7577,-86 2443.2423,-86 2443.2423,-122"/>
<text text-anchor="middle" x="2379" y="-99.8" font-family="Times,serif" font-size="14.00" fill="#000000">WeatherComponent</text>
</g>
<!-- WeatherComponent&#45;&gt;WeatherModule -->
<g id="edge2" class="edge">
<title>WeatherComponent&#45;&gt;WeatherModule</title>
<path fill="none" stroke="#000000" d="M2379,-122.2921C2379,-144.2057 2379,-178 2379,-178 2379,-178 1157.5789,-178 1157.5789,-178"/>
<polygon fill="#000000" stroke="#000000" points="1157.5789,-174.5001 1147.5789,-178 1157.5788,-181.5001 1157.5789,-174.5001"/>
</g>
<!-- WeatherDataMarkerComponent -->
<g id="node3" class="node">
<title>WeatherDataMarkerComponent</title>
<polygon fill="#ffffb3" stroke="#000000" points="2296.3637,-122 2099.6363,-122 2099.6363,-86 2296.3637,-86 2296.3637,-122"/>
<text text-anchor="middle" x="2198" y="-99.8" font-family="Times,serif" font-size="14.00" fill="#000000">WeatherDataMarkerComponent</text>
</g>
<!-- WeatherDataMarkerComponent&#45;&gt;WeatherModule -->
<g id="edge3" class="edge">
<title>WeatherDataMarkerComponent&#45;&gt;WeatherModule</title>
<path fill="none" stroke="#000000" d="M2198,-122.0267C2198,-142.7672 2198,-174 2198,-174 2198,-174 1157.6213,-174 1157.6213,-174"/>
<polygon fill="#000000" stroke="#000000" points="1157.6213,-170.5001 1147.6213,-174 1157.6213,-177.5001 1157.6213,-170.5001"/>
</g>
<!-- WeatherMapComponent -->
<g id="node4" class="node">
<title>WeatherMapComponent</title>
<polygon fill="#ffffb3" stroke="#000000" points="2082.4017,-122 1927.5983,-122 1927.5983,-86 2082.4017,-86 2082.4017,-122"/>
<text text-anchor="middle" x="2005" y="-99.8" font-family="Times,serif" font-size="14.00" fill="#000000">WeatherMapComponent</text>
</g>
<!-- WeatherMapComponent&#45;&gt;WeatherModule -->
<g id="edge4" class="edge">
<title>WeatherMapComponent&#45;&gt;WeatherModule</title>
<path fill="none" stroke="#000000" d="M2005,-122.1061C2005,-141.3391 2005,-169 2005,-169 2005,-169 1157.5861,-169 1157.5861,-169"/>
<polygon fill="#000000" stroke="#000000" points="1157.5861,-165.5001 1147.5861,-169 1157.5861,-172.5001 1157.5861,-165.5001"/>
</g>
<!-- WeatherPrimaryWsConnectorComponent -->
<g id="node5" class="node">
<title>WeatherPrimaryWsConnectorComponent</title>
<polygon fill="#ffffb3" stroke="#000000" points="1909.3179,-122 1658.6821,-122 1658.6821,-86 1909.3179,-86 1909.3179,-122"/>
<text text-anchor="middle" x="1784" y="-99.8" font-family="Times,serif" font-size="14.00" fill="#000000">WeatherPrimaryWsConnectorComponent</text>
</g>
<!-- WeatherPrimaryWsConnectorComponent&#45;&gt;WeatherModule -->
<g id="edge5" class="edge">
<title>WeatherPrimaryWsConnectorComponent&#45;&gt;WeatherModule</title>
<path fill="none" stroke="#000000" d="M1784,-122.302C1784,-140.2699 1784,-165 1784,-165 1784,-165 1157.569,-165 1157.569,-165"/>
<polygon fill="#000000" stroke="#000000" points="1157.569,-161.5001 1147.569,-165 1157.569,-168.5001 1157.569,-161.5001"/>
</g>
<!-- WeatherPrimaryWsMarkerComponent -->
<g id="node6" class="node">
<title>WeatherPrimaryWsMarkerComponent</title>
<polygon fill="#ffffb3" stroke="#000000" points="1640.696,-122 1407.304,-122 1407.304,-86 1640.696,-86 1640.696,-122"/>
<text text-anchor="middle" x="1524" y="-99.8" font-family="Times,serif" font-size="14.00" fill="#000000">WeatherPrimaryWsMarkerComponent</text>
</g>
<!-- WeatherPrimaryWsMarkerComponent&#45;&gt;WeatherModule -->
<g id="edge6" class="edge">
<title>WeatherPrimaryWsMarkerComponent&#45;&gt;WeatherModule</title>
<path fill="none" stroke="#000000" d="M1524,-122.027C1524,-138.3976 1524,-160 1524,-160 1524,-160 1157.5904,-160 1157.5904,-160"/>
<polygon fill="#000000" stroke="#000000" points="1157.5904,-156.5001 1147.5904,-160 1157.5903,-163.5001 1157.5904,-156.5001"/>
</g>
<!-- WeatherSidebarComponent -->
<g id="node7" class="node">
<title>WeatherSidebarComponent</title>
<polygon fill="#ffffb3" stroke="#000000" points="1388.5057,-122 1217.4943,-122 1217.4943,-86 1388.5057,-86 1388.5057,-122"/>
<text text-anchor="middle" x="1303" y="-99.8" font-family="Times,serif" font-size="14.00" fill="#000000">WeatherSidebarComponent</text>
</g>
<!-- WeatherSidebarComponent&#45;&gt;WeatherModule -->
<g id="edge7" class="edge">
<title>WeatherSidebarComponent&#45;&gt;WeatherModule</title>
<path fill="none" stroke="#000000" d="M1303,-122.1871C1303,-137.1824 1303,-156 1303,-156 1303,-156 1157.5513,-156 1157.5513,-156"/>
<polygon fill="#000000" stroke="#000000" points="1157.5513,-152.5001 1147.5513,-156 1157.5513,-159.5001 1157.5513,-152.5001"/>
</g>
<!-- WeatherStationSidebarComponent -->
<g id="node8" class="node">
<title>WeatherStationSidebarComponent</title>
<polygon fill="#ffffb3" stroke="#000000" points="1199.6741,-122 988.3259,-122 988.3259,-86 1199.6741,-86 1199.6741,-122"/>
<text text-anchor="middle" x="1094" y="-99.8" font-family="Times,serif" font-size="14.00" fill="#000000">WeatherStationSidebarComponent</text>
</g>
<!-- WeatherStationSidebarComponent&#45;&gt;WeatherModule -->
<g id="edge8" class="edge">
<title>WeatherStationSidebarComponent&#45;&gt;WeatherModule</title>
<path fill="none" stroke="#000000" d="M1094,-122.1061C1094,-122.1061 1094,-140.991 1094,-140.991"/>
<polygon fill="#000000" stroke="#000000" points="1090.5001,-140.9909 1094,-150.991 1097.5001,-140.991 1090.5001,-140.9909"/>
</g>
<!-- WeatherSummaryComponent -->
<g id="node9" class="node">
<title>WeatherSummaryComponent</title>
<polygon fill="#ffffb3" stroke="#000000" points="970.6811,-122 787.3189,-122 787.3189,-86 970.6811,-86 970.6811,-122"/>
<text text-anchor="middle" x="879" y="-99.8" font-family="Times,serif" font-size="14.00" fill="#000000">WeatherSummaryComponent</text>
</g>
<!-- WeatherSummaryComponent&#45;&gt;WeatherModule -->
<g id="edge9" class="edge">
<title>WeatherSummaryComponent&#45;&gt;WeatherModule</title>
<path fill="none" stroke="#000000" d="M879,-122.1871C879,-137.1824 879,-156 879,-156 879,-156 1030.301,-156 1030.301,-156"/>
<polygon fill="#000000" stroke="#000000" points="1030.3011,-159.5001 1040.301,-156 1030.301,-152.5001 1030.3011,-159.5001"/>
</g>
<!-- WeatherSummaryComponent  -->
<g id="node16" class="node">
<title>WeatherSummaryComponent </title>
<polygon fill="#fb8072" stroke="#000000" points="1187.1813,-252 1000.8187,-252 1000.8187,-216 1187.1813,-216 1187.1813,-252"/>
<text text-anchor="middle" x="1094" y="-229.8" font-family="Times,serif" font-size="14.00" fill="#000000">WeatherSummaryComponent </text>
</g>
<!-- WeatherModule&#45;&gt;WeatherSummaryComponent  -->
<g id="edge15" class="edge">
<title>WeatherModule&#45;&gt;WeatherSummaryComponent </title>
<path fill="none" stroke="#000000" stroke-dasharray="5,2" d="M1094,-187.1061C1094,-187.1061 1094,-205.991 1094,-205.991"/>
<polygon fill="#000000" stroke="#000000" points="1090.5001,-205.9909 1094,-215.991 1097.5001,-205.991 1090.5001,-205.9909"/>
</g>
<!-- ActionsModule -->
<g id="node11" class="node">
<title>ActionsModule</title>
<polygon fill="#8dd3c7" stroke="#000000" points="762.5968,-122 759.5968,-126 738.5968,-126 735.5968,-122 659.4032,-122 659.4032,-86 762.5968,-86 762.5968,-122"/>
<text text-anchor="middle" x="711" y="-99.8" font-family="Times,serif" font-size="14.00" fill="#000000">ActionsModule</text>
</g>
<!-- ActionsModule&#45;&gt;WeatherModule -->
<g id="edge10" class="edge">
<title>ActionsModule&#45;&gt;WeatherModule</title>
<path fill="none" stroke="#000000" d="M711,-122.027C711,-138.3976 711,-160 711,-160 711,-160 1030.3422,-160 1030.3422,-160"/>
<polygon fill="#000000" stroke="#000000" points="1030.3422,-163.5001 1040.3422,-160 1030.3422,-156.5001 1030.3422,-163.5001"/>
</g>
<!-- DataModule -->
<g id="node12" class="node">
<title>DataModule</title>
<polygon fill="#8dd3c7" stroke="#000000" points="640.9762,-122 637.9762,-126 616.9762,-126 613.9762,-122 555.0238,-122 555.0238,-86 640.9762,-86 640.9762,-122"/>
<text text-anchor="middle" x="598" y="-99.8" font-family="Times,serif" font-size="14.00" fill="#000000">DataModule</text>
</g>
<!-- DataModule&#45;&gt;WeatherModule -->
<g id="edge11" class="edge">
<title>DataModule&#45;&gt;WeatherModule</title>
<path fill="none" stroke="#000000" d="M598,-122.302C598,-140.2699 598,-165 598,-165 598,-165 1030.448,-165 1030.448,-165"/>
<polygon fill="#000000" stroke="#000000" points="1030.4481,-168.5001 1040.448,-165 1030.448,-161.5001 1030.4481,-168.5001"/>
</g>
<!-- IasMaterialModule -->
<g id="node13" class="node">
<title>IasMaterialModule</title>
<polygon fill="#8dd3c7" stroke="#000000" points="536.7907,-122 533.7907,-126 512.7907,-126 509.7907,-122 413.2093,-122 413.2093,-86 536.7907,-86 536.7907,-122"/>
<text text-anchor="middle" x="475" y="-99.8" font-family="Times,serif" font-size="14.00" fill="#000000">IasMaterialModule</text>
</g>
<!-- IasMaterialModule&#45;&gt;WeatherModule -->
<g id="edge12" class="edge">
<title>IasMaterialModule&#45;&gt;WeatherModule</title>
<path fill="none" stroke="#000000" d="M475,-122.1061C475,-141.3391 475,-169 475,-169 475,-169 1030.4199,-169 1030.4199,-169"/>
<polygon fill="#000000" stroke="#000000" points="1030.42,-172.5001 1040.4199,-169 1030.4199,-165.5001 1030.42,-172.5001"/>
</g>
<!-- MapModule -->
<g id="node14" class="node">
<title>MapModule</title>
<polygon fill="#8dd3c7" stroke="#000000" points="395.7093,-122 392.7093,-126 371.7093,-126 368.7093,-122 310.2907,-122 310.2907,-86 395.7093,-86 395.7093,-122"/>
<text text-anchor="middle" x="353" y="-99.8" font-family="Times,serif" font-size="14.00" fill="#000000">MapModule</text>
</g>
<!-- MapModule&#45;&gt;WeatherModule -->
<g id="edge13" class="edge">
<title>MapModule&#45;&gt;WeatherModule</title>
<path fill="none" stroke="#000000" d="M353,-122.0267C353,-142.7672 353,-174 353,-174 353,-174 1030.411,-174 1030.411,-174"/>
<polygon fill="#000000" stroke="#000000" points="1030.4111,-177.5001 1040.411,-174 1030.411,-170.5001 1030.4111,-177.5001"/>
</g>
<!-- SharedModule -->
<g id="node15" class="node">
<title>SharedModule</title>
<polygon fill="#8dd3c7" stroke="#000000" points="292.4231,-122 289.4231,-126 268.4231,-126 265.4231,-122 193.5769,-122 193.5769,-86 292.4231,-86 292.4231,-122"/>
<text text-anchor="middle" x="243" y="-99.8" font-family="Times,serif" font-size="14.00" fill="#000000">SharedModule</text>
</g>
<!-- SharedModule&#45;&gt;WeatherModule -->
<g id="edge14" class="edge">
<title>SharedModule&#45;&gt;WeatherModule</title>
<path fill="none" stroke="#000000" d="M243,-122.2921C243,-144.2057 243,-178 243,-178 243,-178 1030.4438,-178 1030.4438,-178"/>
<polygon fill="#000000" stroke="#000000" points="1030.4438,-181.5001 1040.4438,-178 1030.4437,-174.5001 1030.4438,-181.5001"/>
</g>
<!-- WeatherService -->
<g id="node17" class="node">
<title>WeatherService</title>
<ellipse fill="#fdb462" stroke="#000000" cx="97" cy="-104" rx="72.8889" ry="18"/>
<text text-anchor="middle" x="97" y="-99.8" font-family="Times,serif" font-size="14.00" fill="#000000">WeatherService</text>
</g>
<!-- WeatherService&#45;&gt;WeatherModule -->
<g id="edge16" class="edge">
<title>WeatherService&#45;&gt;WeatherModule</title>
<path fill="none" stroke="#000000" d="M97,-122.3228C97,-145.6602 97,-183 97,-183 97,-183 1030.3969,-183 1030.3969,-183"/>
<polygon fill="#000000" stroke="#000000" points="1030.397,-186.5001 1040.3969,-183 1030.3969,-179.5001 1030.397,-186.5001"/>
</g>
</g>
</svg>
