<?xml version="1.0" encoding="UTF-8" standalone="no"?>
<!DOCTYPE svg PUBLIC "-//W3C//DTD SVG 1.1//EN"
 "http://www.w3.org/Graphics/SVG/1.1/DTD/svg11.dtd">
<!-- Generated by graphviz version 2.40.1 (20161225.0304)
 -->
<!-- Title: dependencies Pages: 1 -->
<svg width="504pt" height="284pt"
 viewBox="0.00 0.00 504.00 284.00" xmlns="http://www.w3.org/2000/svg" xmlns:xlink="http://www.w3.org/1999/xlink">
<g id="graph0" class="graph" transform="scale(1 1) rotate(0) translate(4 280)">
<title>dependencies</title>
<polygon fill="#ffffff" stroke="transparent" points="-4,4 -4,-280 500,-280 500,4 -4,4"/>
<text text-anchor="start" x="227.0091" y="-42.4" font-family="sans-serif" font-weight="bold" font-size="14.00" fill="#000000">Legend</text>
<polygon fill="#ffffb3" stroke="transparent" points="14,-10 14,-30 34,-30 34,-10 14,-10"/>
<text text-anchor="start" x="37.629" y="-15.4" font-family="sans-serif" font-size="14.00" fill="#000000"> &#160;Declarations</text>
<polygon fill="#8dd3c7" stroke="transparent" points="127,-10 127,-30 147,-30 147,-10 127,-10"/>
<text text-anchor="start" x="150.7251" y="-15.4" font-family="sans-serif" font-size="14.00" fill="#000000"> &#160;Module</text>
<polygon fill="#80b1d3" stroke="transparent" points="213,-10 213,-30 233,-30 233,-10 213,-10"/>
<text text-anchor="start" x="236.7812" y="-15.4" font-family="sans-serif" font-size="14.00" fill="#000000"> &#160;Bootstrap</text>
<polygon fill="#fdb462" stroke="transparent" points="310,-10 310,-30 330,-30 330,-10 310,-10"/>
<text text-anchor="start" x="333.6732" y="-15.4" font-family="sans-serif" font-size="14.00" fill="#000000"> &#160;Providers</text>
<polygon fill="#fb8072" stroke="transparent" points="406,-10 406,-30 426,-30 426,-10 406,-10"/>
<text text-anchor="start" x="429.7258" y="-15.4" font-family="sans-serif" font-size="14.00" fill="#000000"> &#160;Exports</text>
<g id="clust1" class="cluster">
<title>cluster_WeatherModule</title>
<polygon fill="none" stroke="#000000" stroke-dasharray="1,5" points="27,-70 27,-268 469,-268 469,-70 27,-70"/>
</g>
<g id="clust2" class="cluster">
<title>cluster_WeatherModule_declarations</title>
<polygon fill="none" stroke="#000000" points="261,-78 261,-130 461,-130 461,-78 261,-78"/>
</g>
<g id="clust4" class="cluster">
<title>cluster_WeatherModule_imports</title>
<polygon fill="none" stroke="#000000" points="35,-78 35,-130 253,-130 253,-78 35,-78"/>
</g>
<g id="clust5" class="cluster">
<title>cluster_WeatherModule_exports</title>
<polygon fill="none" stroke="#000000" points="101,-208 101,-260 303,-260 303,-208 101,-208"/>
</g>
<!-- WeatherSummaryComponent -->
<g id="node1" class="node">
<title>WeatherSummaryComponent</title>
<polygon fill="#ffffb3" stroke="#000000" points="452.6811,-122 269.3189,-122 269.3189,-86 452.6811,-86 452.6811,-122"/>
<text text-anchor="middle" x="361" y="-99.8" font-family="Times,serif" font-size="14.00" fill="#000000">WeatherSummaryComponent</text>
</g>
<!-- WeatherModule -->
<g id="node2" class="node">
<title>WeatherModule</title>
<polygon fill="#8dd3c7" stroke="#000000" points="255.4594,-187 252.4594,-191 231.4594,-191 228.4594,-187 148.5406,-187 148.5406,-151 255.4594,-151 255.4594,-187"/>
<text text-anchor="middle" x="202" y="-164.8" font-family="Times,serif" font-size="14.00" fill="#000000">WeatherModule</text>
</g>
<!-- WeatherSummaryComponent&#45;&gt;WeatherModule -->
<g id="edge1" class="edge">
<title>WeatherSummaryComponent&#45;&gt;WeatherModule</title>
<path fill="none" stroke="#000000" d="M269.0239,-104C257.821,-104 250.2339,-104 250.2339,-104 250.2339,-104 250.2339,-140.8939 250.2339,-140.8939"/>
<polygon fill="#000000" stroke="#000000" points="246.734,-140.8938 250.2339,-150.8939 253.734,-140.8939 246.734,-140.8938"/>
</g>
<!-- WeatherSummaryComponent  -->
<g id="node5" class="node">
<title>WeatherSummaryComponent </title>
<polygon fill="#fb8072" stroke="#000000" points="295.1813,-252 108.8187,-252 108.8187,-216 295.1813,-216 295.1813,-252"/>
<text text-anchor="middle" x="202" y="-229.8" font-family="Times,serif" font-size="14.00" fill="#000000">WeatherSummaryComponent </text>
</g>
<!-- WeatherModule&#45;&gt;WeatherSummaryComponent  -->
<g id="edge4" class="edge">
<title>WeatherModule&#45;&gt;WeatherSummaryComponent </title>
<path fill="none" stroke="#000000" stroke-dasharray="5,2" d="M202,-187.1061C202,-187.1061 202,-205.991 202,-205.991"/>
<polygon fill="#000000" stroke="#000000" points="198.5001,-205.9909 202,-215.991 205.5001,-205.991 198.5001,-205.9909"/>
</g>
<!-- DataModule -->
<g id="node3" class="node">
<title>DataModule</title>
<polygon fill="#8dd3c7" stroke="#000000" points="244.9762,-122 241.9762,-126 220.9762,-126 217.9762,-122 159.0238,-122 159.0238,-86 244.9762,-86 244.9762,-122"/>
<text text-anchor="middle" x="202" y="-99.8" font-family="Times,serif" font-size="14.00" fill="#000000">DataModule</text>
</g>
<!-- DataModule&#45;&gt;WeatherModule -->
<g id="edge2" class="edge">
<title>DataModule&#45;&gt;WeatherModule</title>
<path fill="none" stroke="#000000" d="M202,-122.1061C202,-122.1061 202,-140.991 202,-140.991"/>
<polygon fill="#000000" stroke="#000000" points="198.5001,-140.9909 202,-150.991 205.5001,-140.991 198.5001,-140.9909"/>
</g>
<!-- SharedModule -->
<g id="node4" class="node">
<title>SharedModule</title>
<polygon fill="#8dd3c7" stroke="#000000" points="141.4231,-122 138.4231,-126 117.4231,-126 114.4231,-122 42.5769,-122 42.5769,-86 141.4231,-86 141.4231,-122"/>
<text text-anchor="middle" x="92" y="-99.8" font-family="Times,serif" font-size="14.00" fill="#000000">SharedModule</text>
</g>
<!-- SharedModule&#45;&gt;WeatherModule -->
<g id="edge3" class="edge">
<title>SharedModule&#45;&gt;WeatherModule</title>
<path fill="none" stroke="#000000" d="M141.2668,-104C148.6051,-104 153.7661,-104 153.7661,-104 153.7661,-104 153.7661,-140.8939 153.7661,-140.8939"/>
<polygon fill="#000000" stroke="#000000" points="150.2662,-140.8938 153.7661,-150.8939 157.2662,-140.8939 150.2662,-140.8938"/>
</g>
</g>
</svg>
