<?xml version="1.0" encoding="UTF-8" standalone="no"?>
<!DOCTYPE svg PUBLIC "-//W3C//DTD SVG 1.1//EN"
 "http://www.w3.org/Graphics/SVG/1.1/DTD/svg11.dtd">
<!-- Generated by graphviz version 2.40.1 (20161225.0304)
 -->
<!-- Title: dependencies Pages: 1 -->
<svg width="1111pt" height="284pt"
 viewBox="0.00 0.00 1111.00 284.00" xmlns="http://www.w3.org/2000/svg" xmlns:xlink="http://www.w3.org/1999/xlink">
<g id="graph0" class="graph" transform="scale(1 1) rotate(0) translate(4 280)">
<title>dependencies</title>
<polygon fill="#ffffff" stroke="transparent" points="-4,4 -4,-280 1107,-280 1107,4 -4,4"/>
<text text-anchor="start" x="530.5091" y="-42.4" font-family="sans-serif" font-weight="bold" font-size="14.00" fill="#000000">Legend</text>
<polygon fill="#ffffb3" stroke="transparent" points="317.5,-10 317.5,-30 337.5,-30 337.5,-10 317.5,-10"/>
<text text-anchor="start" x="341.129" y="-15.4" font-family="sans-serif" font-size="14.00" fill="#000000"> &#160;Declarations</text>
<polygon fill="#8dd3c7" stroke="transparent" points="430.5,-10 430.5,-30 450.5,-30 450.5,-10 430.5,-10"/>
<text text-anchor="start" x="454.2251" y="-15.4" font-family="sans-serif" font-size="14.00" fill="#000000"> &#160;Module</text>
<polygon fill="#80b1d3" stroke="transparent" points="516.5,-10 516.5,-30 536.5,-30 536.5,-10 516.5,-10"/>
<text text-anchor="start" x="540.2812" y="-15.4" font-family="sans-serif" font-size="14.00" fill="#000000"> &#160;Bootstrap</text>
<polygon fill="#fdb462" stroke="transparent" points="613.5,-10 613.5,-30 633.5,-30 633.5,-10 613.5,-10"/>
<text text-anchor="start" x="637.1732" y="-15.4" font-family="sans-serif" font-size="14.00" fill="#000000"> &#160;Providers</text>
<polygon fill="#fb8072" stroke="transparent" points="709.5,-10 709.5,-30 729.5,-30 729.5,-10 709.5,-10"/>
<text text-anchor="start" x="733.2258" y="-15.4" font-family="sans-serif" font-size="14.00" fill="#000000"> &#160;Exports</text>
<g id="clust1" class="cluster">
<title>cluster_OverviewModule</title>
<polygon fill="none" stroke="#000000" stroke-dasharray="1,5" points="8,-70 8,-268 1095,-268 1095,-70 8,-70"/>
</g>
<g id="clust2" class="cluster">
<title>cluster_OverviewModule_declarations</title>
<polygon fill="none" stroke="#000000" points="753,-78 753,-130 1087,-130 1087,-78 753,-78"/>
</g>
<g id="clust5" class="cluster">
<title>cluster_OverviewModule_imports</title>
<polygon fill="none" stroke="#000000" points="16,-78 16,-130 745,-130 745,-78 16,-78"/>
</g>
<g id="clust6" class="cluster">
<title>cluster_OverviewModule_exports</title>
<polygon fill="none" stroke="#000000" points="345,-208 345,-260 687,-260 687,-208 345,-208"/>
</g>
<!-- OverviewCardComponent -->
<g id="node1" class="node">
<title>OverviewCardComponent</title>
<polygon fill="#ffffb3" stroke="#000000" points="1078.738,-122 915.262,-122 915.262,-86 1078.738,-86 1078.738,-122"/>
<text text-anchor="middle" x="997" y="-99.8" font-family="Times,serif" font-size="14.00" fill="#000000">OverviewCardComponent</text>
</g>
<!-- OverviewModule -->
<g id="node3" class="node">
<title>OverviewModule</title>
<polygon fill="#8dd3c7" stroke="#000000" points="566.2437,-187 563.2437,-191 542.2437,-191 539.2437,-187 451.7563,-187 451.7563,-151 566.2437,-151 566.2437,-187"/>
<text text-anchor="middle" x="509" y="-164.8" font-family="Times,serif" font-size="14.00" fill="#000000">OverviewModule</text>
</g>
<!-- OverviewCardComponent&#45;&gt;OverviewModule -->
<g id="edge1" class="edge">
<title>OverviewCardComponent&#45;&gt;OverviewModule</title>
<path fill="none" stroke="#000000" d="M997,-122.2921C997,-144.2057 997,-178 997,-178 997,-178 576.4148,-178 576.4148,-178"/>
<polygon fill="#000000" stroke="#000000" points="576.4148,-174.5001 566.4148,-178 576.4148,-181.5001 576.4148,-174.5001"/>
</g>
<!-- OverviewComponent -->
<g id="node2" class="node">
<title>OverviewComponent</title>
<polygon fill="#ffffb3" stroke="#000000" points="897.0268,-122 760.9732,-122 760.9732,-86 897.0268,-86 897.0268,-122"/>
<text text-anchor="middle" x="829" y="-99.8" font-family="Times,serif" font-size="14.00" fill="#000000">OverviewComponent</text>
</g>
<!-- OverviewComponent&#45;&gt;OverviewModule -->
<g id="edge2" class="edge">
<title>OverviewComponent&#45;&gt;OverviewModule</title>
<path fill="none" stroke="#000000" d="M829,-122.1061C829,-141.3391 829,-169 829,-169 829,-169 576.5792,-169 576.5792,-169"/>
<polygon fill="#000000" stroke="#000000" points="576.5792,-165.5001 566.5792,-169 576.5791,-172.5001 576.5792,-165.5001"/>
</g>
<!-- OverviewCardComponent  -->
<g id="node10" class="node">
<title>OverviewCardComponent </title>
<polygon fill="#fb8072" stroke="#000000" points="678.738,-252 511.262,-252 511.262,-216 678.738,-216 678.738,-252"/>
<text text-anchor="middle" x="595" y="-229.8" font-family="Times,serif" font-size="14.00" fill="#000000">OverviewCardComponent </text>
</g>
<!-- OverviewModule&#45;&gt;OverviewCardComponent  -->
<g id="edge9" class="edge">
<title>OverviewModule&#45;&gt;OverviewCardComponent </title>
<path fill="none" stroke="#000000" stroke-dasharray="5,2" d="M538.8764,-187.1061C538.8764,-187.1061 538.8764,-205.991 538.8764,-205.991"/>
<polygon fill="#000000" stroke="#000000" points="535.3765,-205.9909 538.8764,-215.991 542.3765,-205.991 535.3765,-205.9909"/>
</g>
<!-- OverviewComponent  -->
<g id="node11" class="node">
<title>OverviewComponent </title>
<polygon fill="#fb8072" stroke="#000000" points="493.026,-252 352.974,-252 352.974,-216 493.026,-216 493.026,-252"/>
<text text-anchor="middle" x="423" y="-229.8" font-family="Times,serif" font-size="14.00" fill="#000000">OverviewComponent </text>
</g>
<!-- OverviewModule&#45;&gt;OverviewComponent  -->
<g id="edge10" class="edge">
<title>OverviewModule&#45;&gt;OverviewComponent </title>
<path fill="none" stroke="#000000" stroke-dasharray="5,2" d="M472.3207,-187.1061C472.3207,-187.1061 472.3207,-205.991 472.3207,-205.991"/>
<polygon fill="#000000" stroke="#000000" points="468.8207,-205.9909 472.3207,-215.991 475.8207,-205.991 468.8207,-205.9909"/>
</g>
<!-- AntennasModule -->
<g id="node4" class="node">
<title>AntennasModule</title>
<polygon fill="#8dd3c7" stroke="#000000" points="737.4216,-122 734.4216,-126 713.4216,-126 710.4216,-122 624.5784,-122 624.5784,-86 737.4216,-86 737.4216,-122"/>
<text text-anchor="middle" x="681" y="-99.8" font-family="Times,serif" font-size="14.00" fill="#000000">AntennasModule</text>
</g>
<!-- AntennasModule&#45;&gt;OverviewModule -->
<g id="edge3" class="edge">
<title>AntennasModule&#45;&gt;OverviewModule</title>
<path fill="none" stroke="#000000" d="M651.7043,-122.027C651.7043,-138.3976 651.7043,-160 651.7043,-160 651.7043,-160 576.6319,-160 576.6319,-160"/>
<polygon fill="#000000" stroke="#000000" points="576.632,-156.5001 566.6319,-160 576.6319,-163.5001 576.632,-156.5001"/>
</g>
<!-- DataModule -->
<g id="node5" class="node">
<title>DataModule</title>
<polygon fill="#8dd3c7" stroke="#000000" points="606.9762,-122 603.9762,-126 582.9762,-126 579.9762,-122 521.0238,-122 521.0238,-86 606.9762,-86 606.9762,-122"/>
<text text-anchor="middle" x="564" y="-99.8" font-family="Times,serif" font-size="14.00" fill="#000000">DataModule</text>
</g>
<!-- DataModule&#45;&gt;OverviewModule -->
<g id="edge4" class="edge">
<title>DataModule&#45;&gt;OverviewModule</title>
<path fill="none" stroke="#000000" d="M543.6918,-122.1061C543.6918,-122.1061 543.6918,-140.991 543.6918,-140.991"/>
<polygon fill="#000000" stroke="#000000" points="540.1919,-140.9909 543.6918,-150.991 547.1919,-140.991 540.1919,-140.9909"/>
</g>
<!-- HealthModule -->
<g id="node6" class="node">
<title>HealthModule</title>
<polygon fill="#8dd3c7" stroke="#000000" points="503.3669,-122 500.3669,-126 479.3669,-126 476.3669,-122 406.6331,-122 406.6331,-86 503.3669,-86 503.3669,-122"/>
<text text-anchor="middle" x="455" y="-99.8" font-family="Times,serif" font-size="14.00" fill="#000000">HealthModule</text>
</g>
<!-- HealthModule&#45;&gt;OverviewModule -->
<g id="edge5" class="edge">
<title>HealthModule&#45;&gt;OverviewModule</title>
<path fill="none" stroke="#000000" d="M477.5309,-122.1061C477.5309,-122.1061 477.5309,-140.991 477.5309,-140.991"/>
<polygon fill="#000000" stroke="#000000" points="474.0309,-140.9909 477.5309,-150.991 481.0309,-140.991 474.0309,-140.9909"/>
</g>
<!-- IasMaterialModule -->
<g id="node7" class="node">
<title>IasMaterialModule</title>
<polygon fill="#8dd3c7" stroke="#000000" points="388.7907,-122 385.7907,-126 364.7907,-126 361.7907,-122 265.2093,-122 265.2093,-86 388.7907,-86 388.7907,-122"/>
<text text-anchor="middle" x="327" y="-99.8" font-family="Times,serif" font-size="14.00" fill="#000000">IasMaterialModule</text>
</g>
<!-- IasMaterialModule&#45;&gt;OverviewModule -->
<g id="edge6" class="edge">
<title>IasMaterialModule&#45;&gt;OverviewModule</title>
<path fill="none" stroke="#000000" d="M370.8161,-122.027C370.8161,-138.3976 370.8161,-160 370.8161,-160 370.8161,-160 441.5981,-160 441.5981,-160"/>
<polygon fill="#000000" stroke="#000000" points="441.5981,-163.5001 451.5981,-160 441.598,-156.5001 441.5981,-163.5001"/>
</g>
<!-- SharedModule -->
<g id="node8" class="node">
<title>SharedModule</title>
<polygon fill="#8dd3c7" stroke="#000000" points="247.4231,-122 244.4231,-126 223.4231,-126 220.4231,-122 148.5769,-122 148.5769,-86 247.4231,-86 247.4231,-122"/>
<text text-anchor="middle" x="198" y="-99.8" font-family="Times,serif" font-size="14.00" fill="#000000">SharedModule</text>
</g>
<!-- SharedModule&#45;&gt;OverviewModule -->
<g id="edge7" class="edge">
<title>SharedModule&#45;&gt;OverviewModule</title>
<path fill="none" stroke="#000000" d="M198,-122.1061C198,-141.3391 198,-169 198,-169 198,-169 441.5954,-169 441.5954,-169"/>
<polygon fill="#000000" stroke="#000000" points="441.5954,-172.5001 451.5954,-169 441.5953,-165.5001 441.5954,-172.5001"/>
</g>
<!-- WeatherModule -->
<g id="node9" class="node">
<title>WeatherModule</title>
<polygon fill="#8dd3c7" stroke="#000000" points="130.4594,-122 127.4594,-126 106.4594,-126 103.4594,-122 23.5406,-122 23.5406,-86 130.4594,-86 130.4594,-122"/>
<text text-anchor="middle" x="77" y="-99.8" font-family="Times,serif" font-size="14.00" fill="#000000">WeatherModule</text>
</g>
<!-- WeatherModule&#45;&gt;OverviewModule -->
<g id="edge8" class="edge">
<title>WeatherModule&#45;&gt;OverviewModule</title>
<path fill="none" stroke="#000000" d="M77,-122.2921C77,-144.2057 77,-178 77,-178 77,-178 441.6337,-178 441.6337,-178"/>
<polygon fill="#000000" stroke="#000000" points="441.6338,-181.5001 451.6337,-178 441.6337,-174.5001 441.6338,-181.5001"/>
</g>
</g>
</svg>
