<?xml version="1.0" encoding="UTF-8" standalone="no"?>
<!DOCTYPE svg PUBLIC "-//W3C//DTD SVG 1.1//EN"
 "http://www.w3.org/Graphics/SVG/1.1/DTD/svg11.dtd">
<!-- Generated by graphviz version 2.40.1 (20161225.0304)
 -->
<!-- Title: dependencies Pages: 1 -->
<svg width="981pt" height="284pt"
 viewBox="0.00 0.00 981.00 284.00" xmlns="http://www.w3.org/2000/svg" xmlns:xlink="http://www.w3.org/1999/xlink">
<g id="graph0" class="graph" transform="scale(1 1) rotate(0) translate(4 280)">
<title>dependencies</title>
<polygon fill="#ffffff" stroke="transparent" points="-4,4 -4,-280 977,-280 977,4 -4,4"/>
<text text-anchor="start" x="465.5091" y="-42.4" font-family="sans-serif" font-weight="bold" font-size="14.00" fill="#000000">Legend</text>
<polygon fill="#ffffb3" stroke="transparent" points="252.5,-10 252.5,-30 272.5,-30 272.5,-10 252.5,-10"/>
<text text-anchor="start" x="276.129" y="-15.4" font-family="sans-serif" font-size="14.00" fill="#000000"> &#160;Declarations</text>
<polygon fill="#8dd3c7" stroke="transparent" points="365.5,-10 365.5,-30 385.5,-30 385.5,-10 365.5,-10"/>
<text text-anchor="start" x="389.2251" y="-15.4" font-family="sans-serif" font-size="14.00" fill="#000000"> &#160;Module</text>
<polygon fill="#80b1d3" stroke="transparent" points="451.5,-10 451.5,-30 471.5,-30 471.5,-10 451.5,-10"/>
<text text-anchor="start" x="475.2812" y="-15.4" font-family="sans-serif" font-size="14.00" fill="#000000"> &#160;Bootstrap</text>
<polygon fill="#fdb462" stroke="transparent" points="548.5,-10 548.5,-30 568.5,-30 568.5,-10 548.5,-10"/>
<text text-anchor="start" x="572.1732" y="-15.4" font-family="sans-serif" font-size="14.00" fill="#000000"> &#160;Providers</text>
<polygon fill="#fb8072" stroke="transparent" points="644.5,-10 644.5,-30 664.5,-30 664.5,-10 644.5,-10"/>
<text text-anchor="start" x="668.2258" y="-15.4" font-family="sans-serif" font-size="14.00" fill="#000000"> &#160;Exports</text>
<g id="clust1" class="cluster">
<title>cluster_OverviewModule</title>
<polygon fill="none" stroke="#000000" stroke-dasharray="1,5" points="8,-70 8,-268 965,-268 965,-70 8,-70"/>
</g>
<g id="clust2" class="cluster">
<title>cluster_OverviewModule_declarations</title>
<polygon fill="none" stroke="#000000" points="623,-78 623,-130 957,-130 957,-78 623,-78"/>
</g>
<g id="clust5" class="cluster">
<title>cluster_OverviewModule_imports</title>
<polygon fill="none" stroke="#000000" points="16,-78 16,-130 615,-130 615,-78 16,-78"/>
</g>
<g id="clust6" class="cluster">
<title>cluster_OverviewModule_exports</title>
<polygon fill="none" stroke="#000000" points="291,-208 291,-260 633,-260 633,-208 291,-208"/>
</g>
<!-- OverviewCardComponent -->
<g id="node1" class="node">
<title>OverviewCardComponent</title>
<polygon fill="#ffffb3" stroke="#000000" points="948.738,-122 785.262,-122 785.262,-86 948.738,-86 948.738,-122"/>
<text text-anchor="middle" x="867" y="-99.8" font-family="Times,serif" font-size="14.00" fill="#000000">OverviewCardComponent</text>
</g>
<!-- OverviewModule -->
<g id="node3" class="node">
<title>OverviewModule</title>
<polygon fill="#8dd3c7" stroke="#000000" points="512.2437,-187 509.2437,-191 488.2437,-191 485.2437,-187 397.7563,-187 397.7563,-151 512.2437,-151 512.2437,-187"/>
<text text-anchor="middle" x="455" y="-164.8" font-family="Times,serif" font-size="14.00" fill="#000000">OverviewModule</text>
</g>
<!-- OverviewCardComponent&#45;&gt;OverviewModule -->
<g id="edge1" class="edge">
<title>OverviewCardComponent&#45;&gt;OverviewModule</title>
<path fill="none" stroke="#000000" d="M867,-122.2843C867,-143.3211 867,-175 867,-175 867,-175 522.2868,-175 522.2868,-175"/>
<polygon fill="#000000" stroke="#000000" points="522.2869,-171.5001 512.2868,-175 522.2868,-178.5001 522.2869,-171.5001"/>
</g>
<!-- OverviewComponent -->
<g id="node2" class="node">
<title>OverviewComponent</title>
<polygon fill="#ffffb3" stroke="#000000" points="767.0268,-122 630.9732,-122 630.9732,-86 767.0268,-86 767.0268,-122"/>
<text text-anchor="middle" x="699" y="-99.8" font-family="Times,serif" font-size="14.00" fill="#000000">OverviewComponent</text>
</g>
<!-- OverviewComponent&#45;&gt;OverviewModule -->
<g id="edge2" class="edge">
<title>OverviewComponent&#45;&gt;OverviewModule</title>
<path fill="none" stroke="#000000" d="M699,-122.0225C699,-139.3734 699,-163 699,-163 699,-163 522.5156,-163 522.5156,-163"/>
<polygon fill="#000000" stroke="#000000" points="522.5157,-159.5001 512.5156,-163 522.5156,-166.5001 522.5157,-159.5001"/>
</g>
<!-- OverviewCardComponent  -->
<g id="node9" class="node">
<title>OverviewCardComponent </title>
<polygon fill="#fb8072" stroke="#000000" points="624.738,-252 457.262,-252 457.262,-216 624.738,-216 624.738,-252"/>
<text text-anchor="middle" x="541" y="-229.8" font-family="Times,serif" font-size="14.00" fill="#000000">OverviewCardComponent </text>
</g>
<!-- OverviewModule&#45;&gt;OverviewCardComponent  -->
<g id="edge8" class="edge">
<title>OverviewModule&#45;&gt;OverviewCardComponent </title>
<path fill="none" stroke="#000000" stroke-dasharray="5,2" d="M484.8764,-187.1061C484.8764,-187.1061 484.8764,-205.991 484.8764,-205.991"/>
<polygon fill="#000000" stroke="#000000" points="481.3765,-205.9909 484.8764,-215.991 488.3765,-205.991 481.3765,-205.9909"/>
</g>
<!-- OverviewComponent  -->
<g id="node10" class="node">
<title>OverviewComponent </title>
<polygon fill="#fb8072" stroke="#000000" points="439.026,-252 298.974,-252 298.974,-216 439.026,-216 439.026,-252"/>
<text text-anchor="middle" x="369" y="-229.8" font-family="Times,serif" font-size="14.00" fill="#000000">OverviewComponent </text>
</g>
<!-- OverviewModule&#45;&gt;OverviewComponent  -->
<g id="edge9" class="edge">
<title>OverviewModule&#45;&gt;OverviewComponent </title>
<path fill="none" stroke="#000000" stroke-dasharray="5,2" d="M418.3207,-187.1061C418.3207,-187.1061 418.3207,-205.991 418.3207,-205.991"/>
<polygon fill="#000000" stroke="#000000" points="414.8207,-205.9909 418.3207,-215.991 421.8207,-205.991 414.8207,-205.9909"/>
</g>
<!-- DataModule -->
<g id="node4" class="node">
<title>DataModule</title>
<polygon fill="#8dd3c7" stroke="#000000" points="606.9762,-122 603.9762,-126 582.9762,-126 579.9762,-122 521.0238,-122 521.0238,-86 606.9762,-86 606.9762,-122"/>
<text text-anchor="middle" x="564" y="-99.8" font-family="Times,serif" font-size="14.00" fill="#000000">DataModule</text>
</g>
<!-- DataModule&#45;&gt;OverviewModule -->
<g id="edge3" class="edge">
<title>DataModule&#45;&gt;OverviewModule</title>
<path fill="none" stroke="#000000" d="M520.9134,-104C513.3808,-104 507.9026,-104 507.9026,-104 507.9026,-104 507.9026,-140.8939 507.9026,-140.8939"/>
<polygon fill="#000000" stroke="#000000" points="504.4026,-140.8938 507.9026,-150.8939 511.4026,-140.8939 504.4026,-140.8938"/>
</g>
<!-- HealthModule -->
<g id="node5" class="node">
<title>HealthModule</title>
<polygon fill="#8dd3c7" stroke="#000000" points="503.3669,-122 500.3669,-126 479.3669,-126 476.3669,-122 406.6331,-122 406.6331,-86 503.3669,-86 503.3669,-122"/>
<text text-anchor="middle" x="455" y="-99.8" font-family="Times,serif" font-size="14.00" fill="#000000">HealthModule</text>
</g>
<!-- HealthModule&#45;&gt;OverviewModule -->
<g id="edge4" class="edge">
<title>HealthModule&#45;&gt;OverviewModule</title>
<path fill="none" stroke="#000000" d="M455,-122.1061C455,-122.1061 455,-140.991 455,-140.991"/>
<polygon fill="#000000" stroke="#000000" points="451.5001,-140.9909 455,-150.991 458.5001,-140.991 451.5001,-140.9909"/>
</g>
<!-- IasMaterialModule -->
<g id="node6" class="node">
<title>IasMaterialModule</title>
<polygon fill="#8dd3c7" stroke="#000000" points="388.7907,-122 385.7907,-126 364.7907,-126 361.7907,-122 265.2093,-122 265.2093,-86 388.7907,-86 388.7907,-122"/>
<text text-anchor="middle" x="327" y="-99.8" font-family="Times,serif" font-size="14.00" fill="#000000">IasMaterialModule</text>
</g>
<!-- IasMaterialModule&#45;&gt;OverviewModule -->
<g id="edge5" class="edge">
<title>IasMaterialModule&#45;&gt;OverviewModule</title>
<path fill="none" stroke="#000000" d="M388.6715,-104C396.6418,-104 402.0975,-104 402.0975,-104 402.0975,-104 402.0975,-140.8939 402.0975,-140.8939"/>
<polygon fill="#000000" stroke="#000000" points="398.5975,-140.8938 402.0975,-150.8939 405.5975,-140.8939 398.5975,-140.8938"/>
</g>
<!-- SharedModule -->
<g id="node7" class="node">
<title>SharedModule</title>
<polygon fill="#8dd3c7" stroke="#000000" points="247.4231,-122 244.4231,-126 223.4231,-126 220.4231,-122 148.5769,-122 148.5769,-86 247.4231,-86 247.4231,-122"/>
<text text-anchor="middle" x="198" y="-99.8" font-family="Times,serif" font-size="14.00" fill="#000000">SharedModule</text>
</g>
<!-- SharedModule&#45;&gt;OverviewModule -->
<g id="edge6" class="edge">
<title>SharedModule&#45;&gt;OverviewModule</title>
<path fill="none" stroke="#000000" d="M198,-122.0225C198,-139.3734 198,-163 198,-163 198,-163 387.6441,-163 387.6441,-163"/>
<polygon fill="#000000" stroke="#000000" points="387.6441,-166.5001 397.6441,-163 387.644,-159.5001 387.6441,-166.5001"/>
</g>
<!-- WeatherModule -->
<g id="node8" class="node">
<title>WeatherModule</title>
<polygon fill="#8dd3c7" stroke="#000000" points="130.4594,-122 127.4594,-126 106.4594,-126 103.4594,-122 23.5406,-122 23.5406,-86 130.4594,-86 130.4594,-122"/>
<text text-anchor="middle" x="77" y="-99.8" font-family="Times,serif" font-size="14.00" fill="#000000">WeatherModule</text>
</g>
<!-- WeatherModule&#45;&gt;OverviewModule -->
<g id="edge7" class="edge">
<title>WeatherModule&#45;&gt;OverviewModule</title>
<path fill="none" stroke="#000000" d="M77,-122.2843C77,-143.3211 77,-175 77,-175 77,-175 387.5899,-175 387.5899,-175"/>
<polygon fill="#000000" stroke="#000000" points="387.59,-178.5001 397.5899,-175 387.5899,-171.5001 387.59,-178.5001"/>
</g>
</g>
</svg>
