<?xml version="1.0" encoding="UTF-8" standalone="no"?>
<!DOCTYPE svg PUBLIC "-//W3C//DTD SVG 1.1//EN"
 "http://www.w3.org/Graphics/SVG/1.1/DTD/svg11.dtd">
<!-- Generated by graphviz version 2.40.1 (20161225.0304)
 -->
<!-- Title: dependencies Pages: 1 -->
<svg width="630pt" height="211pt"
 viewBox="0.00 0.00 630.00 211.00" xmlns="http://www.w3.org/2000/svg" xmlns:xlink="http://www.w3.org/1999/xlink">
<g id="graph0" class="graph" transform="scale(1 1) rotate(0) translate(4 207)">
<title>dependencies</title>
<polygon fill="#ffffff" stroke="transparent" points="-4,4 -4,-207 626,-207 626,4 -4,4"/>
<text text-anchor="start" x="290.0091" y="-42.4" font-family="sans-serif" font-weight="bold" font-size="14.00" fill="#000000">Legend</text>
<polygon fill="#ffffb3" stroke="transparent" points="77,-10 77,-30 97,-30 97,-10 77,-10"/>
<text text-anchor="start" x="100.629" y="-15.4" font-family="sans-serif" font-size="14.00" fill="#000000"> &#160;Declarations</text>
<polygon fill="#8dd3c7" stroke="transparent" points="190,-10 190,-30 210,-30 210,-10 190,-10"/>
<text text-anchor="start" x="213.7251" y="-15.4" font-family="sans-serif" font-size="14.00" fill="#000000"> &#160;Module</text>
<polygon fill="#80b1d3" stroke="transparent" points="276,-10 276,-30 296,-30 296,-10 276,-10"/>
<text text-anchor="start" x="299.7812" y="-15.4" font-family="sans-serif" font-size="14.00" fill="#000000"> &#160;Bootstrap</text>
<polygon fill="#fdb462" stroke="transparent" points="373,-10 373,-30 393,-30 393,-10 373,-10"/>
<text text-anchor="start" x="396.6732" y="-15.4" font-family="sans-serif" font-size="14.00" fill="#000000"> &#160;Providers</text>
<polygon fill="#fb8072" stroke="transparent" points="469,-10 469,-30 489,-30 489,-10 469,-10"/>
<text text-anchor="start" x="492.7258" y="-15.4" font-family="sans-serif" font-size="14.00" fill="#000000"> &#160;Exports</text>
<g id="clust1" class="cluster">
<title>cluster_DataModule</title>
<polygon fill="none" stroke="#000000" stroke-dasharray="1,5" points="8,-70 8,-195 614,-195 614,-70 8,-70"/>
</g>
<g id="clust6" class="cluster">
<title>cluster_DataModule_providers</title>
<polygon fill="none" stroke="#000000" points="16,-78 16,-130 606,-130 606,-78 16,-78"/>
</g>
<!-- AlarmService -->
<g id="node1" class="node">
<title>AlarmService</title>
<ellipse fill="#fdb462" stroke="#000000" cx="533" cy="-104" rx="64.8215" ry="18"/>
<text text-anchor="middle" x="533" y="-99.8" font-family="Times,serif" font-size="14.00" fill="#000000">AlarmService</text>
</g>
<!-- DataModule -->
<g id="node5" class="node">
<title>DataModule</title>
<polygon fill="#8dd3c7" stroke="#000000" points="358.9762,-187 355.9762,-191 334.9762,-191 331.9762,-187 273.0238,-187 273.0238,-151 358.9762,-151 358.9762,-187"/>
<text text-anchor="middle" x="316" y="-164.8" font-family="Times,serif" font-size="14.00" fill="#000000">DataModule</text>
</g>
<!-- AlarmService&#45;&gt;DataModule -->
<g id="edge1" class="edge">
<title>AlarmService&#45;&gt;DataModule</title>
<path fill="none" stroke="#000000" d="M533,-122.1061C533,-141.3391 533,-169 533,-169 533,-169 369.1317,-169 369.1317,-169"/>
<polygon fill="#000000" stroke="#000000" points="369.1317,-165.5001 359.1317,-169 369.1316,-172.5001 369.1317,-165.5001"/>
</g>
<!-- CdbService -->
<g id="node2" class="node">
<title>CdbService</title>
<ellipse fill="#fdb462" stroke="#000000" cx="394" cy="-104" rx="56.1782" ry="18"/>
<text text-anchor="middle" x="394" y="-99.8" font-family="Times,serif" font-size="14.00" fill="#000000">CdbService</text>
</g>
<!-- CdbService&#45;&gt;DataModule -->
<g id="edge2" class="edge">
<title>CdbService&#45;&gt;DataModule</title>
<path fill="none" stroke="#000000" d="M348.4495,-114.7334C348.4495,-114.7334 348.4495,-140.8723 348.4495,-140.8723"/>
<polygon fill="#000000" stroke="#000000" points="344.9496,-140.8722 348.4495,-150.8723 351.9496,-140.8723 344.9496,-140.8722"/>
</g>
<!-- HttpClientService -->
<g id="node3" class="node">
<title>HttpClientService</title>
<ellipse fill="#fdb462" stroke="#000000" cx="239" cy="-104" rx="80.5316" ry="18"/>
<text text-anchor="middle" x="239" y="-99.8" font-family="Times,serif" font-size="14.00" fill="#000000">HttpClientService</text>
</g>
<!-- HttpClientService&#45;&gt;DataModule -->
<g id="edge3" class="edge">
<title>HttpClientService&#45;&gt;DataModule</title>
<path fill="none" stroke="#000000" d="M296.3887,-116.8419C296.3887,-116.8419 296.3887,-140.5231 296.3887,-140.5231"/>
<polygon fill="#000000" stroke="#000000" points="292.8888,-140.523 296.3887,-150.5231 299.8888,-140.5231 292.8888,-140.523"/>
</g>
<!-- UserService -->
<g id="node4" class="node">
<title>UserService</title>
<ellipse fill="#fdb462" stroke="#000000" cx="82" cy="-104" rx="58.4415" ry="18"/>
<text text-anchor="middle" x="82" y="-99.8" font-family="Times,serif" font-size="14.00" fill="#000000">UserService</text>
</g>
<!-- UserService&#45;&gt;DataModule -->
<g id="edge4" class="edge">
<title>UserService&#45;&gt;DataModule</title>
<path fill="none" stroke="#000000" d="M82,-122.1061C82,-141.3391 82,-169 82,-169 82,-169 262.8081,-169 262.8081,-169"/>
<polygon fill="#000000" stroke="#000000" points="262.8081,-172.5001 272.8081,-169 262.8081,-165.5001 262.8081,-172.5001"/>
</g>
</g>
</svg>
