<?xml version="1.0" encoding="UTF-8" standalone="no"?>
<!DOCTYPE svg PUBLIC "-//W3C//DTD SVG 1.1//EN"
 "http://www.w3.org/Graphics/SVG/1.1/DTD/svg11.dtd">
<!-- Generated by graphviz version 2.40.1 (20161225.0304)
 -->
<!-- Title: dependencies Pages: 1 -->
<svg width="656pt" height="211pt"
 viewBox="0.00 0.00 656.00 211.00" xmlns="http://www.w3.org/2000/svg" xmlns:xlink="http://www.w3.org/1999/xlink">
<g id="graph0" class="graph" transform="scale(1 1) rotate(0) translate(4 207)">
<title>dependencies</title>
<polygon fill="#ffffff" stroke="transparent" points="-4,4 -4,-207 652,-207 652,4 -4,4"/>
<text text-anchor="start" x="303.0091" y="-42.4" font-family="sans-serif" font-weight="bold" font-size="14.00" fill="#000000">Legend</text>
<polygon fill="#ffffb3" stroke="transparent" points="90,-10 90,-30 110,-30 110,-10 90,-10"/>
<text text-anchor="start" x="113.629" y="-15.4" font-family="sans-serif" font-size="14.00" fill="#000000"> &#160;Declarations</text>
<polygon fill="#8dd3c7" stroke="transparent" points="203,-10 203,-30 223,-30 223,-10 203,-10"/>
<text text-anchor="start" x="226.7251" y="-15.4" font-family="sans-serif" font-size="14.00" fill="#000000"> &#160;Module</text>
<polygon fill="#80b1d3" stroke="transparent" points="289,-10 289,-30 309,-30 309,-10 289,-10"/>
<text text-anchor="start" x="312.7812" y="-15.4" font-family="sans-serif" font-size="14.00" fill="#000000"> &#160;Bootstrap</text>
<polygon fill="#fdb462" stroke="transparent" points="386,-10 386,-30 406,-30 406,-10 386,-10"/>
<text text-anchor="start" x="409.6732" y="-15.4" font-family="sans-serif" font-size="14.00" fill="#000000"> &#160;Providers</text>
<polygon fill="#fb8072" stroke="transparent" points="482,-10 482,-30 502,-30 502,-10 482,-10"/>
<text text-anchor="start" x="505.7258" y="-15.4" font-family="sans-serif" font-size="14.00" fill="#000000"> &#160;Exports</text>
<g id="clust1" class="cluster">
<title>cluster_DataModule</title>
<polygon fill="none" stroke="#000000" stroke-dasharray="1,5" points="8,-70 8,-195 640,-195 640,-70 8,-70"/>
</g>
<g id="clust6" class="cluster">
<title>cluster_DataModule_providers</title>
<polygon fill="none" stroke="#000000" points="16,-78 16,-130 632,-130 632,-78 16,-78"/>
</g>
<!-- AlarmService -->
<g id="node1" class="node">
<title>AlarmService</title>
<ellipse fill="#fdb462" stroke="#000000" cx="559" cy="-104" rx="64.8215" ry="18"/>
<text text-anchor="middle" x="559" y="-99.8" font-family="Times,serif" font-size="14.00" fill="#000000">AlarmService</text>
</g>
<!-- DataModule -->
<g id="node5" class="node">
<title>DataModule</title>
<polygon fill="#8dd3c7" stroke="#000000" points="384.9762,-187 381.9762,-191 360.9762,-191 357.9762,-187 299.0238,-187 299.0238,-151 384.9762,-151 384.9762,-187"/>
<text text-anchor="middle" x="342" y="-164.8" font-family="Times,serif" font-size="14.00" fill="#000000">DataModule</text>
</g>
<!-- AlarmService&#45;&gt;DataModule -->
<g id="edge1" class="edge">
<title>AlarmService&#45;&gt;DataModule</title>
<path fill="none" stroke="#000000" d="M559,-122.1061C559,-141.3391 559,-169 559,-169 559,-169 395.1317,-169 395.1317,-169"/>
<polygon fill="#000000" stroke="#000000" points="395.1317,-165.5001 385.1317,-169 395.1316,-172.5001 395.1317,-165.5001"/>
</g>
<!-- CdbService -->
<g id="node2" class="node">
<title>CdbService</title>
<ellipse fill="#fdb462" stroke="#000000" cx="420" cy="-104" rx="56.1782" ry="18"/>
<text text-anchor="middle" x="420" y="-99.8" font-family="Times,serif" font-size="14.00" fill="#000000">CdbService</text>
</g>
<!-- CdbService&#45;&gt;DataModule -->
<g id="edge2" class="edge">
<title>CdbService&#45;&gt;DataModule</title>
<path fill="none" stroke="#000000" d="M374.4495,-114.7334C374.4495,-114.7334 374.4495,-140.8723 374.4495,-140.8723"/>
<polygon fill="#000000" stroke="#000000" points="370.9496,-140.8722 374.4495,-150.8723 377.9496,-140.8723 370.9496,-140.8722"/>
</g>
<!-- HttpClientService -->
<g id="node3" class="node">
<title>HttpClientService</title>
<ellipse fill="#fdb462" stroke="#000000" cx="265" cy="-104" rx="80.5316" ry="18"/>
<text text-anchor="middle" x="265" y="-99.8" font-family="Times,serif" font-size="14.00" fill="#000000">HttpClientService</text>
</g>
<!-- HttpClientService&#45;&gt;DataModule -->
<g id="edge3" class="edge">
<title>HttpClientService&#45;&gt;DataModule</title>
<path fill="none" stroke="#000000" d="M322.3887,-116.8419C322.3887,-116.8419 322.3887,-140.5231 322.3887,-140.5231"/>
<polygon fill="#000000" stroke="#000000" points="318.8888,-140.523 322.3887,-150.5231 325.8888,-140.5231 318.8888,-140.523"/>
</g>
<!-- RoutingService -->
<g id="node4" class="node">
<title>RoutingService</title>
<ellipse fill="#fdb462" stroke="#000000" cx="95" cy="-104" rx="71.2268" ry="18"/>
<text text-anchor="middle" x="95" y="-99.8" font-family="Times,serif" font-size="14.00" fill="#000000">RoutingService</text>
</g>
<!-- RoutingService&#45;&gt;DataModule -->
<g id="edge4" class="edge">
<title>RoutingService&#45;&gt;DataModule</title>
<path fill="none" stroke="#000000" d="M95,-122.1061C95,-141.3391 95,-169 95,-169 95,-169 288.9759,-169 288.9759,-169"/>
<polygon fill="#000000" stroke="#000000" points="288.9759,-172.5001 298.9759,-169 288.9758,-165.5001 288.9759,-172.5001"/>
</g>
</g>
</svg>
