<?xml version="1.0" encoding="UTF-8" standalone="no"?>
<!DOCTYPE svg PUBLIC "-//W3C//DTD SVG 1.1//EN"
 "http://www.w3.org/Graphics/SVG/1.1/DTD/svg11.dtd">
<!-- Generated by graphviz version 2.40.1 (20161225.0304)
 -->
<!-- Title: dependencies Pages: 1 -->
<svg width="1915pt" height="284pt"
 viewBox="0.00 0.00 1915.00 284.00" xmlns="http://www.w3.org/2000/svg" xmlns:xlink="http://www.w3.org/1999/xlink">
<g id="graph0" class="graph" transform="scale(1 1) rotate(0) translate(4 280)">
<title>dependencies</title>
<polygon fill="#ffffff" stroke="transparent" points="-4,4 -4,-280 1911,-280 1911,4 -4,4"/>
<text text-anchor="start" x="932.5091" y="-42.4" font-family="sans-serif" font-weight="bold" font-size="14.00" fill="#000000">Legend</text>
<polygon fill="#ffffb3" stroke="transparent" points="719.5,-10 719.5,-30 739.5,-30 739.5,-10 719.5,-10"/>
<text text-anchor="start" x="743.129" y="-15.4" font-family="sans-serif" font-size="14.00" fill="#000000"> &#160;Declarations</text>
<polygon fill="#8dd3c7" stroke="transparent" points="832.5,-10 832.5,-30 852.5,-30 852.5,-10 832.5,-10"/>
<text text-anchor="start" x="856.2251" y="-15.4" font-family="sans-serif" font-size="14.00" fill="#000000"> &#160;Module</text>
<polygon fill="#80b1d3" stroke="transparent" points="918.5,-10 918.5,-30 938.5,-30 938.5,-10 918.5,-10"/>
<text text-anchor="start" x="942.2812" y="-15.4" font-family="sans-serif" font-size="14.00" fill="#000000"> &#160;Bootstrap</text>
<polygon fill="#fdb462" stroke="transparent" points="1015.5,-10 1015.5,-30 1035.5,-30 1035.5,-10 1015.5,-10"/>
<text text-anchor="start" x="1039.1732" y="-15.4" font-family="sans-serif" font-size="14.00" fill="#000000"> &#160;Providers</text>
<polygon fill="#fb8072" stroke="transparent" points="1111.5,-10 1111.5,-30 1131.5,-30 1131.5,-10 1111.5,-10"/>
<text text-anchor="start" x="1135.2258" y="-15.4" font-family="sans-serif" font-size="14.00" fill="#000000"> &#160;Exports</text>
<g id="clust1" class="cluster">
<title>cluster_SharedModule</title>
<polygon fill="none" stroke="#000000" stroke-dasharray="1,5" points="8,-70 8,-268 1899,-268 1899,-70 8,-70"/>
</g>
<g id="clust2" class="cluster">
<title>cluster_SharedModule_declarations</title>
<polygon fill="none" stroke="#000000" points="268,-78 268,-130 1891,-130 1891,-78 268,-78"/>
</g>
<g id="clust13" class="cluster">
<title>cluster_SharedModule_imports</title>
<polygon fill="none" stroke="#000000" points="16,-78 16,-130 260,-130 260,-78 16,-78"/>
</g>
<g id="clust14" class="cluster">
<title>cluster_SharedModule_exports</title>
<polygon fill="none" stroke="#000000" points="184,-208 184,-260 1663,-260 1663,-208 184,-208"/>
</g>
<!-- AlarmBlinkComponent -->
<g id="node1" class="node">
<title>AlarmBlinkComponent</title>
<polygon fill="#ffffb3" stroke="#000000" points="1883.2134,-122 1734.7866,-122 1734.7866,-86 1883.2134,-86 1883.2134,-122"/>
<text text-anchor="middle" x="1809" y="-99.8" font-family="Times,serif" font-size="14.00" fill="#000000">AlarmBlinkComponent</text>
</g>
<!-- SharedModule -->
<g id="node11" class="node">
<title>SharedModule</title>
<polygon fill="#8dd3c7" stroke="#000000" points="979.4231,-187 976.4231,-191 955.4231,-191 952.4231,-187 880.5769,-187 880.5769,-151 979.4231,-151 979.4231,-187"/>
<text text-anchor="middle" x="930" y="-164.8" font-family="Times,serif" font-size="14.00" fill="#000000">SharedModule</text>
</g>
<!-- AlarmBlinkComponent&#45;&gt;SharedModule -->
<g id="edge1" class="edge">
<title>AlarmBlinkComponent&#45;&gt;SharedModule</title>
<path fill="none" stroke="#000000" d="M1809,-122.1061C1809,-141.3391 1809,-169 1809,-169 1809,-169 989.4594,-169 989.4594,-169"/>
<polygon fill="#000000" stroke="#000000" points="989.4594,-165.5001 979.4594,-169 989.4594,-172.5001 989.4594,-165.5001"/>
</g>
<!-- AlarmCardComponent -->
<g id="node2" class="node">
<title>AlarmCardComponent</title>
<polygon fill="#ffffb3" stroke="#000000" points="1717.3075,-122 1572.6925,-122 1572.6925,-86 1717.3075,-86 1717.3075,-122"/>
<text text-anchor="middle" x="1645" y="-99.8" font-family="Times,serif" font-size="14.00" fill="#000000">AlarmCardComponent</text>
</g>
<!-- AlarmCardComponent&#45;&gt;SharedModule -->
<g id="edge2" class="edge">
<title>AlarmCardComponent&#45;&gt;SharedModule</title>
<path fill="none" stroke="#000000" d="M1613.8515,-122.2667C1613.8515,-140.5552 1613.8515,-166 1613.8515,-166 1613.8515,-166 989.456,-166 989.456,-166"/>
<polygon fill="#000000" stroke="#000000" points="989.456,-162.5001 979.456,-166 989.456,-169.5001 989.456,-162.5001"/>
</g>
<!-- AlarmComponent -->
<g id="node3" class="node">
<title>AlarmComponent</title>
<polygon fill="#ffffb3" stroke="#000000" points="1554.5954,-122 1437.4046,-122 1437.4046,-86 1554.5954,-86 1554.5954,-122"/>
<text text-anchor="middle" x="1496" y="-99.8" font-family="Times,serif" font-size="14.00" fill="#000000">AlarmComponent</text>
</g>
<!-- AlarmComponent&#45;&gt;SharedModule -->
<g id="edge3" class="edge">
<title>AlarmComponent&#45;&gt;SharedModule</title>
<path fill="none" stroke="#000000" d="M1461.178,-122.0336C1461.178,-139.0597 1461.178,-162 1461.178,-162 1461.178,-162 989.4949,-162 989.4949,-162"/>
<polygon fill="#000000" stroke="#000000" points="989.495,-158.5001 979.4949,-162 989.4949,-165.5001 989.495,-158.5001"/>
</g>
<!-- AlarmHeaderComponent -->
<g id="node4" class="node">
<title>AlarmHeaderComponent</title>
<polygon fill="#ffffb3" stroke="#000000" points="1419.5072,-122 1262.4928,-122 1262.4928,-86 1419.5072,-86 1419.5072,-122"/>
<text text-anchor="middle" x="1341" y="-99.8" font-family="Times,serif" font-size="14.00" fill="#000000">AlarmHeaderComponent</text>
</g>
<!-- AlarmHeaderComponent&#45;&gt;SharedModule -->
<g id="edge4" class="edge">
<title>AlarmHeaderComponent&#45;&gt;SharedModule</title>
<path fill="none" stroke="#000000" d="M1290.7723,-122.0091C1290.7723,-138.0494 1290.7723,-159 1290.7723,-159 1290.7723,-159 989.4074,-159 989.4074,-159"/>
<polygon fill="#000000" stroke="#000000" points="989.4074,-155.5001 979.4074,-159 989.4073,-162.5001 989.4074,-155.5001"/>
</g>
<!-- AlarmInfoComponent -->
<g id="node5" class="node">
<title>AlarmInfoComponent</title>
<polygon fill="#ffffb3" stroke="#000000" points="1244.4172,-122 1103.5828,-122 1103.5828,-86 1244.4172,-86 1244.4172,-122"/>
<text text-anchor="middle" x="1174" y="-99.8" font-family="Times,serif" font-size="14.00" fill="#000000">AlarmInfoComponent</text>
</g>
<!-- AlarmInfoComponent&#45;&gt;SharedModule -->
<g id="edge5" class="edge">
<title>AlarmInfoComponent&#45;&gt;SharedModule</title>
<path fill="none" stroke="#000000" d="M1142.1475,-122.1243C1142.1475,-136.7832 1142.1475,-155 1142.1475,-155 1142.1475,-155 989.4714,-155 989.4714,-155"/>
<polygon fill="#000000" stroke="#000000" points="989.4714,-151.5001 979.4714,-155 989.4714,-158.5001 989.4714,-151.5001"/>
</g>
<!-- AlarmLabelComponent -->
<g id="node6" class="node">
<title>AlarmLabelComponent</title>
<polygon fill="#ffffb3" stroke="#000000" points="1085.4678,-122 936.5322,-122 936.5322,-86 1085.4678,-86 1085.4678,-122"/>
<text text-anchor="middle" x="1011" y="-99.8" font-family="Times,serif" font-size="14.00" fill="#000000">AlarmLabelComponent</text>
</g>
<!-- AlarmLabelComponent&#45;&gt;SharedModule -->
<g id="edge6" class="edge">
<title>AlarmLabelComponent&#45;&gt;SharedModule</title>
<path fill="none" stroke="#000000" d="M957.8636,-122.1061C957.8636,-122.1061 957.8636,-140.991 957.8636,-140.991"/>
<polygon fill="#000000" stroke="#000000" points="954.3637,-140.9909 957.8636,-150.991 961.3637,-140.991 954.3637,-140.9909"/>
</g>
<!-- AlarmTileComponent -->
<g id="node7" class="node">
<title>AlarmTileComponent</title>
<polygon fill="#ffffb3" stroke="#000000" points="918.6443,-122 779.3557,-122 779.3557,-86 918.6443,-86 918.6443,-122"/>
<text text-anchor="middle" x="849" y="-99.8" font-family="Times,serif" font-size="14.00" fill="#000000">AlarmTileComponent</text>
</g>
<!-- AlarmTileComponent&#45;&gt;SharedModule -->
<g id="edge7" class="edge">
<title>AlarmTileComponent&#45;&gt;SharedModule</title>
<path fill="none" stroke="#000000" d="M899.8054,-122.1061C899.8054,-122.1061 899.8054,-140.991 899.8054,-140.991"/>
<polygon fill="#000000" stroke="#000000" points="896.3055,-140.9909 899.8054,-150.991 903.3055,-140.991 896.3055,-140.9909"/>
</g>
<!-- AlarmTooltipComponent -->
<g id="node8" class="node">
<title>AlarmTooltipComponent</title>
<polygon fill="#ffffb3" stroke="#000000" points="761.3201,-122 602.6799,-122 602.6799,-86 761.3201,-86 761.3201,-122"/>
<text text-anchor="middle" x="682" y="-99.8" font-family="Times,serif" font-size="14.00" fill="#000000">AlarmTooltipComponent</text>
</g>
<!-- AlarmTooltipComponent&#45;&gt;SharedModule -->
<g id="edge8" class="edge">
<title>AlarmTooltipComponent&#45;&gt;SharedModule</title>
<path fill="none" stroke="#000000" d="M724.463,-122.1243C724.463,-136.7832 724.463,-155 724.463,-155 724.463,-155 870.7688,-155 870.7688,-155"/>
<polygon fill="#000000" stroke="#000000" points="870.7688,-158.5001 880.7688,-155 870.7687,-151.5001 870.7688,-158.5001"/>
</g>
<!-- PropsTableComponent -->
<g id="node9" class="node">
<title>PropsTableComponent</title>
<polygon fill="#ffffb3" stroke="#000000" points="584.5926,-122 439.4074,-122 439.4074,-86 584.5926,-86 584.5926,-122"/>
<text text-anchor="middle" x="512" y="-99.8" font-family="Times,serif" font-size="14.00" fill="#000000">PropsTableComponent</text>
</g>
<!-- PropsTableComponent&#45;&gt;SharedModule -->
<g id="edge9" class="edge">
<title>PropsTableComponent&#45;&gt;SharedModule</title>
<path fill="none" stroke="#000000" d="M555.4872,-122.0091C555.4872,-138.0494 555.4872,-159 555.4872,-159 555.4872,-159 870.6539,-159 870.6539,-159"/>
<polygon fill="#000000" stroke="#000000" points="870.6539,-162.5001 880.6539,-159 870.6538,-155.5001 870.6539,-162.5001"/>
</g>
<!-- StatusViewComponent -->
<g id="node10" class="node">
<title>StatusViewComponent</title>
<polygon fill="#ffffb3" stroke="#000000" points="421.8739,-122 276.1261,-122 276.1261,-86 421.8739,-86 421.8739,-122"/>
<text text-anchor="middle" x="349" y="-99.8" font-family="Times,serif" font-size="14.00" fill="#000000">StatusViewComponent</text>
</g>
<!-- StatusViewComponent&#45;&gt;SharedModule -->
<g id="edge10" class="edge">
<title>StatusViewComponent&#45;&gt;SharedModule</title>
<path fill="none" stroke="#000000" d="M390.8203,-122.0336C390.8203,-139.0597 390.8203,-162 390.8203,-162 390.8203,-162 870.722,-162 870.722,-162"/>
<polygon fill="#000000" stroke="#000000" points="870.7221,-165.5001 880.722,-162 870.722,-158.5001 870.7221,-165.5001"/>
</g>
<!-- AlarmBlinkComponent  -->
<g id="node14" class="node">
<title>AlarmBlinkComponent </title>
<polygon fill="#fb8072" stroke="#000000" points="1654.7135,-252 1503.2865,-252 1503.2865,-216 1654.7135,-216 1654.7135,-252"/>
<text text-anchor="middle" x="1579" y="-229.8" font-family="Times,serif" font-size="14.00" fill="#000000">AlarmBlinkComponent </text>
</g>
<!-- SharedModule&#45;&gt;AlarmBlinkComponent  -->
<g id="edge13" class="edge">
<title>SharedModule&#45;&gt;AlarmBlinkComponent </title>
<path fill="none" stroke="#000000" stroke-dasharray="5,2" d="M979.2605,-173C1122.5098,-173 1528.8456,-173 1528.8456,-173 1528.8456,-173 1528.8456,-205.698 1528.8456,-205.698"/>
<polygon fill="#000000" stroke="#000000" points="1525.3456,-205.698 1528.8456,-215.698 1532.3456,-205.698 1525.3456,-205.698"/>
</g>
<!-- AlarmCardComponent  -->
<g id="node15" class="node">
<title>AlarmCardComponent </title>
<polygon fill="#fb8072" stroke="#000000" points="1484.8073,-252 1337.1927,-252 1337.1927,-216 1484.8073,-216 1484.8073,-252"/>
<text text-anchor="middle" x="1411" y="-229.8" font-family="Times,serif" font-size="14.00" fill="#000000">AlarmCardComponent </text>
</g>
<!-- SharedModule&#45;&gt;AlarmCardComponent  -->
<g id="edge14" class="edge">
<title>SharedModule&#45;&gt;AlarmCardComponent </title>
<path fill="none" stroke="#000000" stroke-dasharray="5,2" d="M979.272,-177C1095.7606,-177 1378.4248,-177 1378.4248,-177 1378.4248,-177 1378.4248,-205.9648 1378.4248,-205.9648"/>
<polygon fill="#000000" stroke="#000000" points="1374.9249,-205.9648 1378.4248,-215.9648 1381.9249,-205.9649 1374.9249,-205.9648"/>
</g>
<!-- AlarmComponent  -->
<g id="node16" class="node">
<title>AlarmComponent </title>
<polygon fill="#fb8072" stroke="#000000" points="1319.0961,-252 1198.9039,-252 1198.9039,-216 1319.0961,-216 1319.0961,-252"/>
<text text-anchor="middle" x="1259" y="-229.8" font-family="Times,serif" font-size="14.00" fill="#000000">AlarmComponent </text>
</g>
<!-- SharedModule&#45;&gt;AlarmComponent  -->
<g id="edge15" class="edge">
<title>SharedModule&#45;&gt;AlarmComponent </title>
<path fill="none" stroke="#000000" stroke-dasharray="5,2" d="M979.4414,-180C1062.5949,-180 1221.4553,-180 1221.4553,-180 1221.4553,-180 1221.4553,-205.7181 1221.4553,-205.7181"/>
<polygon fill="#000000" stroke="#000000" points="1217.9554,-205.718 1221.4553,-215.7181 1224.9554,-205.7181 1217.9554,-205.718"/>
</g>
<!-- AlarmHeaderComponent  -->
<g id="node17" class="node">
<title>AlarmHeaderComponent </title>
<polygon fill="#fb8072" stroke="#000000" points="1180.5064,-252 1019.4936,-252 1019.4936,-216 1180.5064,-216 1180.5064,-252"/>
<text text-anchor="middle" x="1100" y="-229.8" font-family="Times,serif" font-size="14.00" fill="#000000">AlarmHeaderComponent </text>
</g>
<!-- SharedModule&#45;&gt;AlarmHeaderComponent  -->
<g id="edge16" class="edge">
<title>SharedModule&#45;&gt;AlarmHeaderComponent </title>
<path fill="none" stroke="#000000" stroke-dasharray="5,2" d="M979.4684,-184C1013.464,-184 1052.4904,-184 1052.4904,-184 1052.4904,-184 1052.4904,-205.9489 1052.4904,-205.9489"/>
<polygon fill="#000000" stroke="#000000" points="1048.9904,-205.9488 1052.4904,-215.9489 1055.9904,-205.9489 1048.9904,-205.9488"/>
</g>
<!-- AlarmInfoComponent  -->
<g id="node18" class="node">
<title>AlarmInfoComponent </title>
<polygon fill="#fb8072" stroke="#000000" points="1001.9166,-252 858.0834,-252 858.0834,-216 1001.9166,-216 1001.9166,-252"/>
<text text-anchor="middle" x="930" y="-229.8" font-family="Times,serif" font-size="14.00" fill="#000000">AlarmInfoComponent </text>
</g>
<!-- SharedModule&#45;&gt;AlarmInfoComponent  -->
<g id="edge17" class="edge">
<title>SharedModule&#45;&gt;AlarmInfoComponent </title>
<path fill="none" stroke="#000000" stroke-dasharray="5,2" d="M930,-187.1061C930,-187.1061 930,-205.991 930,-205.991"/>
<polygon fill="#000000" stroke="#000000" points="926.5001,-205.9909 930,-215.991 933.5001,-205.991 926.5001,-205.9909"/>
</g>
<!-- AlarmLabelComponent  -->
<g id="node19" class="node">
<title>AlarmLabelComponent </title>
<polygon fill="#fb8072" stroke="#000000" points="840.4685,-252 687.5315,-252 687.5315,-216 840.4685,-216 840.4685,-252"/>
<text text-anchor="middle" x="764" y="-229.8" font-family="Times,serif" font-size="14.00" fill="#000000">AlarmLabelComponent </text>
</g>
<!-- SharedModule&#45;&gt;AlarmLabelComponent  -->
<g id="edge18" class="edge">
<title>SharedModule&#45;&gt;AlarmLabelComponent </title>
<path fill="none" stroke="#000000" stroke-dasharray="5,2" d="M880.7247,-184C847.5039,-184 809.706,-184 809.706,-184 809.706,-184 809.706,-205.9489 809.706,-205.9489"/>
<polygon fill="#000000" stroke="#000000" points="806.2061,-205.9488 809.706,-215.9489 813.2061,-205.9489 806.2061,-205.9488"/>
</g>
<!-- AlarmTileComponent  -->
<g id="node20" class="node">
<title>AlarmTileComponent </title>
<polygon fill="#fb8072" stroke="#000000" points="669.6439,-252 526.3561,-252 526.3561,-216 669.6439,-216 669.6439,-252"/>
<text text-anchor="middle" x="598" y="-229.8" font-family="Times,serif" font-size="14.00" fill="#000000">AlarmTileComponent </text>
</g>
<!-- SharedModule&#45;&gt;AlarmTileComponent  -->
<g id="edge19" class="edge">
<title>SharedModule&#45;&gt;AlarmTileComponent </title>
<path fill="none" stroke="#000000" stroke-dasharray="5,2" d="M880.4941,-180C796.765,-180 636.206,-180 636.206,-180 636.206,-180 636.206,-205.7181 636.206,-205.7181"/>
<polygon fill="#000000" stroke="#000000" points="632.7061,-205.718 636.206,-215.7181 639.7061,-205.7181 632.7061,-205.718"/>
</g>
<!-- PropsTableComponent  -->
<g id="node21" class="node">
<title>PropsTableComponent </title>
<polygon fill="#fb8072" stroke="#000000" points="508.0932,-252 359.9068,-252 359.9068,-216 508.0932,-216 508.0932,-252"/>
<text text-anchor="middle" x="434" y="-229.8" font-family="Times,serif" font-size="14.00" fill="#000000">PropsTableComponent </text>
</g>
<!-- SharedModule&#45;&gt;PropsTableComponent  -->
<g id="edge20" class="edge">
<title>SharedModule&#45;&gt;PropsTableComponent </title>
<path fill="none" stroke="#000000" stroke-dasharray="5,2" d="M880.7533,-177C762.8094,-177 473.875,-177 473.875,-177 473.875,-177 473.875,-205.9648 473.875,-205.9648"/>
<polygon fill="#000000" stroke="#000000" points="470.3751,-205.9648 473.875,-215.9648 477.3751,-205.9649 470.3751,-205.9648"/>
</g>
<!-- StatusViewComponent  -->
<g id="node22" class="node">
<title>StatusViewComponent </title>
<polygon fill="#fb8072" stroke="#000000" points="341.8743,-252 192.1257,-252 192.1257,-216 341.8743,-216 341.8743,-252"/>
<text text-anchor="middle" x="267" y="-229.8" font-family="Times,serif" font-size="14.00" fill="#000000">StatusViewComponent </text>
</g>
<!-- SharedModule&#45;&gt;StatusViewComponent  -->
<g id="edge21" class="edge">
<title>SharedModule&#45;&gt;StatusViewComponent </title>
<path fill="none" stroke="#000000" stroke-dasharray="5,2" d="M880.7422,-173C733.8329,-173 308.875,-173 308.875,-173 308.875,-173 308.875,-205.698 308.875,-205.698"/>
<polygon fill="#000000" stroke="#000000" points="305.3751,-205.698 308.875,-215.698 312.3751,-205.698 305.3751,-205.698"/>
</g>
<!-- DataModule -->
<g id="node12" class="node">
<title>DataModule</title>
<polygon fill="#8dd3c7" stroke="#000000" points="251.9762,-122 248.9762,-126 227.9762,-126 224.9762,-122 166.0238,-122 166.0238,-86 251.9762,-86 251.9762,-122"/>
<text text-anchor="middle" x="209" y="-99.8" font-family="Times,serif" font-size="14.00" fill="#000000">DataModule</text>
</g>
<!-- DataModule&#45;&gt;SharedModule -->
<g id="edge11" class="edge">
<title>DataModule&#45;&gt;SharedModule</title>
<path fill="none" stroke="#000000" d="M222.1506,-122.2667C222.1506,-140.5552 222.1506,-166 222.1506,-166 222.1506,-166 870.7874,-166 870.7874,-166"/>
<polygon fill="#000000" stroke="#000000" points="870.7874,-169.5001 880.7874,-166 870.7874,-162.5001 870.7874,-169.5001"/>
</g>
<!-- IasMaterialModule -->
<g id="node13" class="node">
<title>IasMaterialModule</title>
<polygon fill="#8dd3c7" stroke="#000000" points="147.7907,-122 144.7907,-126 123.7907,-126 120.7907,-122 24.2093,-122 24.2093,-86 147.7907,-86 147.7907,-122"/>
<text text-anchor="middle" x="86" y="-99.8" font-family="Times,serif" font-size="14.00" fill="#000000">IasMaterialModule</text>
</g>
<!-- IasMaterialModule&#45;&gt;SharedModule -->
<g id="edge12" class="edge">
<title>IasMaterialModule&#45;&gt;SharedModule</title>
<path fill="none" stroke="#000000" d="M86,-122.1061C86,-141.3391 86,-169 86,-169 86,-169 870.6653,-169 870.6653,-169"/>
<polygon fill="#000000" stroke="#000000" points="870.6654,-172.5001 880.6653,-169 870.6653,-165.5001 870.6654,-172.5001"/>
</g>
</g>
</svg>
