<?xml version="1.0" encoding="UTF-8" standalone="no"?>
<!DOCTYPE svg PUBLIC "-//W3C//DTD SVG 1.1//EN"
 "http://www.w3.org/Graphics/SVG/1.1/DTD/svg11.dtd">
<!-- Generated by graphviz version 2.40.1 (20161225.0304)
 -->
<!-- Title: dependencies Pages: 1 -->
<svg width="1305pt" height="284pt"
 viewBox="0.00 0.00 1305.00 284.00" xmlns="http://www.w3.org/2000/svg" xmlns:xlink="http://www.w3.org/1999/xlink">
<g id="graph0" class="graph" transform="scale(1 1) rotate(0) translate(4 280)">
<title>dependencies</title>
<polygon fill="#ffffff" stroke="transparent" points="-4,4 -4,-280 1301,-280 1301,4 -4,4"/>
<text text-anchor="start" x="627.5091" y="-42.4" font-family="sans-serif" font-weight="bold" font-size="14.00" fill="#000000">Legend</text>
<polygon fill="#ffffb3" stroke="transparent" points="414.5,-10 414.5,-30 434.5,-30 434.5,-10 414.5,-10"/>
<text text-anchor="start" x="438.129" y="-15.4" font-family="sans-serif" font-size="14.00" fill="#000000"> &#160;Declarations</text>
<polygon fill="#8dd3c7" stroke="transparent" points="527.5,-10 527.5,-30 547.5,-30 547.5,-10 527.5,-10"/>
<text text-anchor="start" x="551.2251" y="-15.4" font-family="sans-serif" font-size="14.00" fill="#000000"> &#160;Module</text>
<polygon fill="#80b1d3" stroke="transparent" points="613.5,-10 613.5,-30 633.5,-30 633.5,-10 613.5,-10"/>
<text text-anchor="start" x="637.2812" y="-15.4" font-family="sans-serif" font-size="14.00" fill="#000000"> &#160;Bootstrap</text>
<polygon fill="#fdb462" stroke="transparent" points="710.5,-10 710.5,-30 730.5,-30 730.5,-10 710.5,-10"/>
<text text-anchor="start" x="734.1732" y="-15.4" font-family="sans-serif" font-size="14.00" fill="#000000"> &#160;Providers</text>
<polygon fill="#fb8072" stroke="transparent" points="806.5,-10 806.5,-30 826.5,-30 826.5,-10 806.5,-10"/>
<text text-anchor="start" x="830.2258" y="-15.4" font-family="sans-serif" font-size="14.00" fill="#000000"> &#160;Exports</text>
<g id="clust1" class="cluster">
<title>cluster_SharedModule</title>
<polygon fill="none" stroke="#000000" stroke-dasharray="1,5" points="8,-70 8,-268 1289,-268 1289,-70 8,-70"/>
</g>
<g id="clust2" class="cluster">
<title>cluster_SharedModule_declarations</title>
<polygon fill="none" stroke="#000000" points="164,-78 164,-130 1281,-130 1281,-78 164,-78"/>
</g>
<g id="clust10" class="cluster">
<title>cluster_SharedModule_imports</title>
<polygon fill="none" stroke="#000000" points="16,-78 16,-130 156,-130 156,-78 16,-78"/>
</g>
<g id="clust11" class="cluster">
<title>cluster_SharedModule_exports</title>
<polygon fill="none" stroke="#000000" points="79,-208 79,-260 1218,-260 1218,-208 79,-208"/>
</g>
<!-- AckButtonComponent -->
<g id="node1" class="node">
<title>AckButtonComponent</title>
<polygon fill="#ffffb3" stroke="#000000" points="1273.2716,-122 1130.7284,-122 1130.7284,-86 1273.2716,-86 1273.2716,-122"/>
<text text-anchor="middle" x="1202" y="-99.8" font-family="Times,serif" font-size="14.00" fill="#000000">AckButtonComponent</text>
</g>
<!-- SharedModule -->
<g id="node8" class="node">
<title>SharedModule</title>
<polygon fill="#8dd3c7" stroke="#000000" points="721.4231,-187 718.4231,-191 697.4231,-191 694.4231,-187 622.5769,-187 622.5769,-151 721.4231,-151 721.4231,-187"/>
<text text-anchor="middle" x="672" y="-164.8" font-family="Times,serif" font-size="14.00" fill="#000000">SharedModule</text>
</g>
<!-- AckButtonComponent&#45;&gt;SharedModule -->
<g id="edge1" class="edge">
<title>AckButtonComponent&#45;&gt;SharedModule</title>
<path fill="none" stroke="#000000" d="M1170.375,-122.2222C1170.375,-140.8285 1170.375,-167 1170.375,-167 1170.375,-167 731.6081,-167 731.6081,-167"/>
<polygon fill="#000000" stroke="#000000" points="731.6082,-163.5001 721.6081,-167 731.6081,-170.5001 731.6082,-163.5001"/>
</g>
<!-- AckModalComponent -->
<g id="node2" class="node">
<title>AckModalComponent</title>
<polygon fill="#ffffb3" stroke="#000000" points="1112.7035,-122 971.2965,-122 971.2965,-86 1112.7035,-86 1112.7035,-122"/>
<text text-anchor="middle" x="1042" y="-99.8" font-family="Times,serif" font-size="14.00" fill="#000000">AckModalComponent</text>
</g>
<!-- AckModalComponent&#45;&gt;SharedModule -->
<g id="edge2" class="edge">
<title>AckModalComponent&#45;&gt;SharedModule</title>
<path fill="none" stroke="#000000" d="M1008.875,-122.0336C1008.875,-139.0597 1008.875,-162 1008.875,-162 1008.875,-162 731.3453,-162 731.3453,-162"/>
<polygon fill="#000000" stroke="#000000" points="731.3453,-158.5001 721.3453,-162 731.3453,-165.5001 731.3453,-158.5001"/>
</g>
<!-- AckTreeComponent -->
<g id="node3" class="node">
<title>AckTreeComponent</title>
<polygon fill="#ffffb3" stroke="#000000" points="953.2963,-122 822.7037,-122 822.7037,-86 953.2963,-86 953.2963,-122"/>
<text text-anchor="middle" x="888" y="-99.8" font-family="Times,serif" font-size="14.00" fill="#000000">AckTreeComponent</text>
</g>
<!-- AckTreeComponent&#45;&gt;SharedModule -->
<g id="edge3" class="edge">
<title>AckTreeComponent&#45;&gt;SharedModule</title>
<path fill="none" stroke="#000000" d="M853.375,-122.2396C853.375,-137.5706 853.375,-157 853.375,-157 853.375,-157 731.5615,-157 731.5615,-157"/>
<polygon fill="#000000" stroke="#000000" points="731.5616,-153.5001 721.5615,-157 731.5615,-160.5001 731.5616,-153.5001"/>
</g>
<!-- AlarmComponent -->
<g id="node4" class="node">
<title>AlarmComponent</title>
<polygon fill="#ffffb3" stroke="#000000" points="804.5954,-122 687.4046,-122 687.4046,-86 804.5954,-86 804.5954,-122"/>
<text text-anchor="middle" x="746" y="-99.8" font-family="Times,serif" font-size="14.00" fill="#000000">AlarmComponent</text>
</g>
<!-- AlarmComponent&#45;&gt;SharedModule -->
<g id="edge4" class="edge">
<title>AlarmComponent&#45;&gt;SharedModule</title>
<path fill="none" stroke="#000000" d="M704.3317,-122.1061C704.3317,-122.1061 704.3317,-140.991 704.3317,-140.991"/>
<polygon fill="#000000" stroke="#000000" points="700.8318,-140.9909 704.3317,-150.991 707.8318,-140.991 700.8318,-140.9909"/>
</g>
<!-- ShelveButtonComponent -->
<g id="node5" class="node">
<title>ShelveButtonComponent</title>
<polygon fill="#ffffb3" stroke="#000000" points="669.5532,-122 512.4468,-122 512.4468,-86 669.5532,-86 669.5532,-122"/>
<text text-anchor="middle" x="591" y="-99.8" font-family="Times,serif" font-size="14.00" fill="#000000">ShelveButtonComponent</text>
</g>
<!-- ShelveButtonComponent&#45;&gt;SharedModule -->
<g id="edge5" class="edge">
<title>ShelveButtonComponent&#45;&gt;SharedModule</title>
<path fill="none" stroke="#000000" d="M646.2826,-122.1061C646.2826,-122.1061 646.2826,-140.991 646.2826,-140.991"/>
<polygon fill="#000000" stroke="#000000" points="642.7827,-140.9909 646.2826,-150.991 649.7827,-140.991 642.7827,-140.9909"/>
</g>
<!-- ShelveModalComponent -->
<g id="node6" class="node">
<title>ShelveModalComponent</title>
<polygon fill="#ffffb3" stroke="#000000" points="493.9846,-122 338.0154,-122 338.0154,-86 493.9846,-86 493.9846,-122"/>
<text text-anchor="middle" x="416" y="-99.8" font-family="Times,serif" font-size="14.00" fill="#000000">ShelveModalComponent</text>
</g>
<!-- ShelveModalComponent&#45;&gt;SharedModule -->
<g id="edge6" class="edge">
<title>ShelveModalComponent&#45;&gt;SharedModule</title>
<path fill="none" stroke="#000000" d="M463.233,-122.2396C463.233,-137.5706 463.233,-157 463.233,-157 463.233,-157 612.5251,-157 612.5251,-157"/>
<polygon fill="#000000" stroke="#000000" points="612.5252,-160.5001 622.5251,-157 612.5251,-153.5001 612.5252,-160.5001"/>
</g>
<!-- WikiButtonComponent -->
<g id="node7" class="node">
<title>WikiButtonComponent</title>
<polygon fill="#ffffb3" stroke="#000000" points="319.9467,-122 172.0533,-122 172.0533,-86 319.9467,-86 319.9467,-122"/>
<text text-anchor="middle" x="246" y="-99.8" font-family="Times,serif" font-size="14.00" fill="#000000">WikiButtonComponent</text>
</g>
<!-- WikiButtonComponent&#45;&gt;SharedModule -->
<g id="edge7" class="edge">
<title>WikiButtonComponent&#45;&gt;SharedModule</title>
<path fill="none" stroke="#000000" d="M287.4904,-122.0336C287.4904,-139.0597 287.4904,-162 287.4904,-162 287.4904,-162 612.5193,-162 612.5193,-162"/>
<polygon fill="#000000" stroke="#000000" points="612.5193,-165.5001 622.5193,-162 612.5192,-158.5001 612.5193,-165.5001"/>
</g>
<!-- AckButtonComponent  -->
<g id="node10" class="node">
<title>AckButtonComponent </title>
<polygon fill="#fb8072" stroke="#000000" points="1210.2717,-252 1063.7283,-252 1063.7283,-216 1210.2717,-216 1210.2717,-252"/>
<text text-anchor="middle" x="1137" y="-229.8" font-family="Times,serif" font-size="14.00" fill="#000000">AckButtonComponent </text>
</g>
<!-- SharedModule&#45;&gt;AckButtonComponent  -->
<g id="edge9" class="edge">
<title>SharedModule&#45;&gt;AckButtonComponent </title>
<path fill="none" stroke="#000000" stroke-dasharray="5,2" d="M721.3819,-172C831.6377,-172 1088.233,-172 1088.233,-172 1088.233,-172 1088.233,-205.7333 1088.233,-205.7333"/>
<polygon fill="#000000" stroke="#000000" points="1084.7331,-205.7333 1088.233,-215.7333 1091.7331,-205.7333 1084.7331,-205.7333"/>
</g>
<!-- AckModalComponent  -->
<g id="node11" class="node">
<title>AckModalComponent </title>
<polygon fill="#fb8072" stroke="#000000" points="1046.2037,-252 901.7963,-252 901.7963,-216 1046.2037,-216 1046.2037,-252"/>
<text text-anchor="middle" x="974" y="-229.8" font-family="Times,serif" font-size="14.00" fill="#000000">AckModalComponent </text>
</g>
<!-- SharedModule&#45;&gt;AckModalComponent  -->
<g id="edge10" class="edge">
<title>SharedModule&#45;&gt;AckModalComponent </title>
<path fill="none" stroke="#000000" stroke-dasharray="5,2" d="M721.2433,-177C795.4591,-177 927.3982,-177 927.3982,-177 927.3982,-177 927.3982,-205.9648 927.3982,-205.9648"/>
<polygon fill="#000000" stroke="#000000" points="923.8982,-205.9648 927.3982,-215.9648 930.8982,-205.9649 923.8982,-205.9648"/>
</g>
<!-- AckTreeComponent  -->
<g id="node12" class="node">
<title>AckTreeComponent </title>
<polygon fill="#fb8072" stroke="#000000" points="883.7962,-252 750.2038,-252 750.2038,-216 883.7962,-216 883.7962,-252"/>
<text text-anchor="middle" x="817" y="-229.8" font-family="Times,serif" font-size="14.00" fill="#000000">AckTreeComponent </text>
</g>
<!-- SharedModule&#45;&gt;AckTreeComponent  -->
<g id="edge11" class="edge">
<title>SharedModule&#45;&gt;AckTreeComponent </title>
<path fill="none" stroke="#000000" stroke-dasharray="5,2" d="M721.2703,-182C748.6822,-182 777.3249,-182 777.3249,-182 777.3249,-182 777.3249,-205.8129 777.3249,-205.8129"/>
<polygon fill="#000000" stroke="#000000" points="773.8249,-205.8129 777.3249,-215.8129 780.8249,-205.813 773.8249,-205.8129"/>
</g>
<!-- AlarmComponent  -->
<g id="node13" class="node">
<title>AlarmComponent </title>
<polygon fill="#fb8072" stroke="#000000" points="732.0961,-252 611.9039,-252 611.9039,-216 732.0961,-216 732.0961,-252"/>
<text text-anchor="middle" x="672" y="-229.8" font-family="Times,serif" font-size="14.00" fill="#000000">AlarmComponent </text>
</g>
<!-- SharedModule&#45;&gt;AlarmComponent  -->
<g id="edge12" class="edge">
<title>SharedModule&#45;&gt;AlarmComponent </title>
<path fill="none" stroke="#000000" stroke-dasharray="5,2" d="M672,-187.1061C672,-187.1061 672,-205.991 672,-205.991"/>
<polygon fill="#000000" stroke="#000000" points="668.5001,-205.9909 672,-215.991 675.5001,-205.991 668.5001,-205.9909"/>
</g>
<!-- ShelveButtonComponent  -->
<g id="node14" class="node">
<title>ShelveButtonComponent </title>
<polygon fill="#fb8072" stroke="#000000" points="593.5526,-252 432.4474,-252 432.4474,-216 593.5526,-216 593.5526,-252"/>
<text text-anchor="middle" x="513" y="-229.8" font-family="Times,serif" font-size="14.00" fill="#000000">ShelveButtonComponent </text>
</g>
<!-- SharedModule&#45;&gt;ShelveButtonComponent  -->
<g id="edge13" class="edge">
<title>SharedModule&#45;&gt;ShelveButtonComponent </title>
<path fill="none" stroke="#000000" stroke-dasharray="5,2" d="M622.5152,-182C589.7857,-182 552.875,-182 552.875,-182 552.875,-182 552.875,-205.8129 552.875,-205.8129"/>
<polygon fill="#000000" stroke="#000000" points="549.3751,-205.8129 552.875,-215.8129 556.3751,-205.813 549.3751,-205.8129"/>
</g>
<!-- ShelveModalComponent  -->
<g id="node15" class="node">
<title>ShelveModalComponent </title>
<polygon fill="#fb8072" stroke="#000000" points="414.9853,-252 255.0147,-252 255.0147,-216 414.9853,-216 414.9853,-252"/>
<text text-anchor="middle" x="335" y="-229.8" font-family="Times,serif" font-size="14.00" fill="#000000">ShelveModalComponent </text>
</g>
<!-- SharedModule&#45;&gt;ShelveModalComponent  -->
<g id="edge14" class="edge">
<title>SharedModule&#45;&gt;ShelveModalComponent </title>
<path fill="none" stroke="#000000" stroke-dasharray="5,2" d="M622.519,-177C538.3618,-177 376.375,-177 376.375,-177 376.375,-177 376.375,-205.9648 376.375,-205.9648"/>
<polygon fill="#000000" stroke="#000000" points="372.8751,-205.9648 376.375,-215.9648 379.8751,-205.9649 372.8751,-205.9648"/>
</g>
<!-- WikiButtonComponent  -->
<g id="node16" class="node">
<title>WikiButtonComponent </title>
<polygon fill="#fb8072" stroke="#000000" points="237.446,-252 86.554,-252 86.554,-216 237.446,-216 237.446,-252"/>
<text text-anchor="middle" x="162" y="-229.8" font-family="Times,serif" font-size="14.00" fill="#000000">WikiButtonComponent </text>
</g>
<!-- SharedModule&#45;&gt;WikiButtonComponent  -->
<g id="edge15" class="edge">
<title>SharedModule&#45;&gt;WikiButtonComponent </title>
<path fill="none" stroke="#000000" stroke-dasharray="5,2" d="M622.4517,-172C502.2314,-172 204.875,-172 204.875,-172 204.875,-172 204.875,-205.7333 204.875,-205.7333"/>
<polygon fill="#000000" stroke="#000000" points="201.3751,-205.7333 204.875,-215.7333 208.3751,-205.7333 201.3751,-205.7333"/>
</g>
<!-- IasMaterialModule -->
<g id="node9" class="node">
<title>IasMaterialModule</title>
<polygon fill="#8dd3c7" stroke="#000000" points="147.7907,-122 144.7907,-126 123.7907,-126 120.7907,-122 24.2093,-122 24.2093,-86 147.7907,-86 147.7907,-122"/>
<text text-anchor="middle" x="86" y="-99.8" font-family="Times,serif" font-size="14.00" fill="#000000">IasMaterialModule</text>
</g>
<!-- IasMaterialModule&#45;&gt;SharedModule -->
<g id="edge8" class="edge">
<title>IasMaterialModule&#45;&gt;SharedModule</title>
<path fill="none" stroke="#000000" d="M117.0861,-122.2222C117.0861,-140.8285 117.0861,-167 117.0861,-167 117.0861,-167 612.7551,-167 612.7551,-167"/>
<polygon fill="#000000" stroke="#000000" points="612.7551,-170.5001 622.7551,-167 612.7551,-163.5001 612.7551,-170.5001"/>
</g>
</g>
</svg>
