<?xml version="1.0" encoding="UTF-8" standalone="no"?>
<!DOCTYPE svg PUBLIC "-//W3C//DTD SVG 1.1//EN"
 "http://www.w3.org/Graphics/SVG/1.1/DTD/svg11.dtd">
<!-- Generated by graphviz version 2.40.1 (20161225.0304)
 -->
<!-- Title: dependencies Pages: 1 -->
<svg width="765pt" height="284pt"
 viewBox="0.00 0.00 765.00 284.00" xmlns="http://www.w3.org/2000/svg" xmlns:xlink="http://www.w3.org/1999/xlink">
<g id="graph0" class="graph" transform="scale(1 1) rotate(0) translate(4 280)">
<title>dependencies</title>
<polygon fill="#ffffff" stroke="transparent" points="-4,4 -4,-280 761,-280 761,4 -4,4"/>
<text text-anchor="start" x="357.5091" y="-42.4" font-family="sans-serif" font-weight="bold" font-size="14.00" fill="#000000">Legend</text>
<polygon fill="#ffffb3" stroke="transparent" points="144.5,-10 144.5,-30 164.5,-30 164.5,-10 144.5,-10"/>
<text text-anchor="start" x="168.129" y="-15.4" font-family="sans-serif" font-size="14.00" fill="#000000"> &#160;Declarations</text>
<polygon fill="#8dd3c7" stroke="transparent" points="257.5,-10 257.5,-30 277.5,-30 277.5,-10 257.5,-10"/>
<text text-anchor="start" x="281.2251" y="-15.4" font-family="sans-serif" font-size="14.00" fill="#000000"> &#160;Module</text>
<polygon fill="#80b1d3" stroke="transparent" points="343.5,-10 343.5,-30 363.5,-30 363.5,-10 343.5,-10"/>
<text text-anchor="start" x="367.2812" y="-15.4" font-family="sans-serif" font-size="14.00" fill="#000000"> &#160;Bootstrap</text>
<polygon fill="#fdb462" stroke="transparent" points="440.5,-10 440.5,-30 460.5,-30 460.5,-10 440.5,-10"/>
<text text-anchor="start" x="464.1732" y="-15.4" font-family="sans-serif" font-size="14.00" fill="#000000"> &#160;Providers</text>
<polygon fill="#fb8072" stroke="transparent" points="536.5,-10 536.5,-30 556.5,-30 556.5,-10 536.5,-10"/>
<text text-anchor="start" x="560.2258" y="-15.4" font-family="sans-serif" font-size="14.00" fill="#000000"> &#160;Exports</text>
<g id="clust1" class="cluster">
<title>cluster_SharedModule</title>
<polygon fill="none" stroke="#000000" stroke-dasharray="1,5" points="8,-70 8,-268 749,-268 749,-70 8,-70"/>
</g>
<g id="clust2" class="cluster">
<title>cluster_SharedModule_declarations</title>
<polygon fill="none" stroke="#000000" points="268,-78 268,-130 741,-130 741,-78 268,-78"/>
</g>
<g id="clust6" class="cluster">
<title>cluster_SharedModule_imports</title>
<polygon fill="none" stroke="#000000" points="16,-78 16,-130 260,-130 260,-78 16,-78"/>
</g>
<g id="clust7" class="cluster">
<title>cluster_SharedModule_exports</title>
<polygon fill="none" stroke="#000000" points="93,-208 93,-260 576,-260 576,-208 93,-208"/>
</g>
<!-- AlarmComponent -->
<g id="node1" class="node">
<title>AlarmComponent</title>
<polygon fill="#ffffb3" stroke="#000000" points="732.5954,-122 615.4046,-122 615.4046,-86 732.5954,-86 732.5954,-122"/>
<text text-anchor="middle" x="674" y="-99.8" font-family="Times,serif" font-size="14.00" fill="#000000">AlarmComponent</text>
</g>
<!-- SharedModule -->
<g id="node4" class="node">
<title>SharedModule</title>
<polygon fill="#8dd3c7" stroke="#000000" points="398.4231,-187 395.4231,-191 374.4231,-191 371.4231,-187 299.5769,-187 299.5769,-151 398.4231,-151 398.4231,-187"/>
<text text-anchor="middle" x="349" y="-164.8" font-family="Times,serif" font-size="14.00" fill="#000000">SharedModule</text>
</g>
<!-- AlarmComponent&#45;&gt;SharedModule -->
<g id="edge1" class="edge">
<title>AlarmComponent&#45;&gt;SharedModule</title>
<path fill="none" stroke="#000000" d="M674,-122.1061C674,-141.3391 674,-169 674,-169 674,-169 408.3605,-169 408.3605,-169"/>
<polygon fill="#000000" stroke="#000000" points="408.3605,-165.5001 398.3605,-169 408.3605,-172.5001 408.3605,-165.5001"/>
</g>
<!-- AlarmHeaderComponent -->
<g id="node2" class="node">
<title>AlarmHeaderComponent</title>
<polygon fill="#ffffb3" stroke="#000000" points="597.5072,-122 440.4928,-122 440.4928,-86 597.5072,-86 597.5072,-122"/>
<text text-anchor="middle" x="519" y="-99.8" font-family="Times,serif" font-size="14.00" fill="#000000">AlarmHeaderComponent</text>
</g>
<!-- AlarmHeaderComponent&#45;&gt;SharedModule -->
<g id="edge2" class="edge">
<title>AlarmHeaderComponent&#45;&gt;SharedModule</title>
<path fill="none" stroke="#000000" d="M443.9746,-122.027C443.9746,-138.3976 443.9746,-160 443.9746,-160 443.9746,-160 408.4345,-160 408.4345,-160"/>
<polygon fill="#000000" stroke="#000000" points="408.4345,-156.5001 398.4345,-160 408.4345,-163.5001 408.4345,-156.5001"/>
</g>
<!-- StatusViewComponent -->
<g id="node3" class="node">
<title>StatusViewComponent</title>
<polygon fill="#ffffb3" stroke="#000000" points="421.8739,-122 276.1261,-122 276.1261,-86 421.8739,-86 421.8739,-122"/>
<text text-anchor="middle" x="349" y="-99.8" font-family="Times,serif" font-size="14.00" fill="#000000">StatusViewComponent</text>
</g>
<!-- StatusViewComponent&#45;&gt;SharedModule -->
<g id="edge3" class="edge">
<title>StatusViewComponent&#45;&gt;SharedModule</title>
<path fill="none" stroke="#000000" d="M349,-122.1061C349,-122.1061 349,-140.991 349,-140.991"/>
<polygon fill="#000000" stroke="#000000" points="345.5001,-140.9909 349,-150.991 352.5001,-140.991 345.5001,-140.9909"/>
</g>
<!-- AlarmComponent  -->
<g id="node7" class="node">
<title>AlarmComponent </title>
<polygon fill="#fb8072" stroke="#000000" points="568.0961,-252 447.9039,-252 447.9039,-216 568.0961,-216 568.0961,-252"/>
<text text-anchor="middle" x="508" y="-229.8" font-family="Times,serif" font-size="14.00" fill="#000000">AlarmComponent </text>
</g>
<!-- SharedModule&#45;&gt;AlarmComponent  -->
<g id="edge6" class="edge">
<title>SharedModule&#45;&gt;AlarmComponent </title>
<path fill="none" stroke="#000000" stroke-dasharray="5,2" d="M398.437,-178C445.1118,-178 508,-178 508,-178 508,-178 508,-205.973 508,-205.973"/>
<polygon fill="#000000" stroke="#000000" points="504.5001,-205.973 508,-215.973 511.5001,-205.973 504.5001,-205.973"/>
</g>
<!-- AlarmHeaderComponent  -->
<g id="node8" class="node">
<title>AlarmHeaderComponent </title>
<polygon fill="#fb8072" stroke="#000000" points="429.5064,-252 268.4936,-252 268.4936,-216 429.5064,-216 429.5064,-252"/>
<text text-anchor="middle" x="349" y="-229.8" font-family="Times,serif" font-size="14.00" fill="#000000">AlarmHeaderComponent </text>
</g>
<!-- SharedModule&#45;&gt;AlarmHeaderComponent  -->
<g id="edge7" class="edge">
<title>SharedModule&#45;&gt;AlarmHeaderComponent </title>
<path fill="none" stroke="#000000" stroke-dasharray="5,2" d="M349,-187.1061C349,-187.1061 349,-205.991 349,-205.991"/>
<polygon fill="#000000" stroke="#000000" points="345.5001,-205.9909 349,-215.991 352.5001,-205.991 345.5001,-205.9909"/>
</g>
<!-- StatusViewComponent  -->
<g id="node9" class="node">
<title>StatusViewComponent </title>
<polygon fill="#fb8072" stroke="#000000" points="250.8743,-252 101.1257,-252 101.1257,-216 250.8743,-216 250.8743,-252"/>
<text text-anchor="middle" x="176" y="-229.8" font-family="Times,serif" font-size="14.00" fill="#000000">StatusViewComponent </text>
</g>
<!-- SharedModule&#45;&gt;StatusViewComponent  -->
<g id="edge8" class="edge">
<title>SharedModule&#45;&gt;StatusViewComponent </title>
<path fill="none" stroke="#000000" stroke-dasharray="5,2" d="M299.6065,-178C254.314,-178 194.2369,-178 194.2369,-178 194.2369,-178 194.2369,-205.973 194.2369,-205.973"/>
<polygon fill="#000000" stroke="#000000" points="190.737,-205.973 194.2369,-215.973 197.737,-205.973 190.737,-205.973"/>
</g>
<!-- DataModule -->
<g id="node5" class="node">
<title>DataModule</title>
<polygon fill="#8dd3c7" stroke="#000000" points="251.9762,-122 248.9762,-126 227.9762,-126 224.9762,-122 166.0238,-122 166.0238,-86 251.9762,-86 251.9762,-122"/>
<text text-anchor="middle" x="209" y="-99.8" font-family="Times,serif" font-size="14.00" fill="#000000">DataModule</text>
</g>
<!-- DataModule&#45;&gt;SharedModule -->
<g id="edge4" class="edge">
<title>DataModule&#45;&gt;SharedModule</title>
<path fill="none" stroke="#000000" d="M222.4619,-122.027C222.4619,-138.3976 222.4619,-160 222.4619,-160 222.4619,-160 289.7147,-160 289.7147,-160"/>
<polygon fill="#000000" stroke="#000000" points="289.7148,-163.5001 299.7147,-160 289.7147,-156.5001 289.7148,-163.5001"/>
</g>
<!-- IasMaterialModule -->
<g id="node6" class="node">
<title>IasMaterialModule</title>
<polygon fill="#8dd3c7" stroke="#000000" points="147.7907,-122 144.7907,-126 123.7907,-126 120.7907,-122 24.2093,-122 24.2093,-86 147.7907,-86 147.7907,-122"/>
<text text-anchor="middle" x="86" y="-99.8" font-family="Times,serif" font-size="14.00" fill="#000000">IasMaterialModule</text>
</g>
<!-- IasMaterialModule&#45;&gt;SharedModule -->
<g id="edge5" class="edge">
<title>IasMaterialModule&#45;&gt;SharedModule</title>
<path fill="none" stroke="#000000" d="M124.4792,-122.1061C124.4792,-141.3391 124.4792,-169 124.4792,-169 124.4792,-169 289.7279,-169 289.7279,-169"/>
<polygon fill="#000000" stroke="#000000" points="289.728,-172.5001 299.7279,-169 289.7279,-165.5001 289.728,-172.5001"/>
</g>
</g>
</svg>
