<?xml version="1.0" encoding="UTF-8" standalone="no"?>
<!DOCTYPE svg PUBLIC "-//W3C//DTD SVG 1.1//EN"
 "http://www.w3.org/Graphics/SVG/1.1/DTD/svg11.dtd">
<!-- Generated by graphviz version 2.40.1 (20161225.0304)
 -->
<!-- Title: dependencies Pages: 1 -->
<svg width="722pt" height="211pt"
 viewBox="0.00 0.00 722.00 211.00" xmlns="http://www.w3.org/2000/svg" xmlns:xlink="http://www.w3.org/1999/xlink">
<g id="graph0" class="graph" transform="scale(1 1) rotate(0) translate(4 207)">
<title>dependencies</title>
<polygon fill="#ffffff" stroke="transparent" points="-4,4 -4,-207 718,-207 718,4 -4,4"/>
<text text-anchor="start" x="336.0091" y="-42.4" font-family="sans-serif" font-weight="bold" font-size="14.00" fill="#000000">Legend</text>
<polygon fill="#ffffb3" stroke="transparent" points="123,-10 123,-30 143,-30 143,-10 123,-10"/>
<text text-anchor="start" x="146.629" y="-15.4" font-family="sans-serif" font-size="14.00" fill="#000000"> &#160;Declarations</text>
<polygon fill="#8dd3c7" stroke="transparent" points="236,-10 236,-30 256,-30 256,-10 236,-10"/>
<text text-anchor="start" x="259.7251" y="-15.4" font-family="sans-serif" font-size="14.00" fill="#000000"> &#160;Module</text>
<polygon fill="#80b1d3" stroke="transparent" points="322,-10 322,-30 342,-30 342,-10 322,-10"/>
<text text-anchor="start" x="345.7812" y="-15.4" font-family="sans-serif" font-size="14.00" fill="#000000"> &#160;Bootstrap</text>
<polygon fill="#fdb462" stroke="transparent" points="419,-10 419,-30 439,-30 439,-10 419,-10"/>
<text text-anchor="start" x="442.6732" y="-15.4" font-family="sans-serif" font-size="14.00" fill="#000000"> &#160;Providers</text>
<polygon fill="#fb8072" stroke="transparent" points="515,-10 515,-30 535,-30 535,-10 515,-10"/>
<text text-anchor="start" x="538.7258" y="-15.4" font-family="sans-serif" font-size="14.00" fill="#000000"> &#160;Exports</text>
<g id="clust1" class="cluster">
<title>cluster_AppRoutingModule</title>
<polygon fill="none" stroke="#000000" stroke-dasharray="1,5" points="8,-70 8,-195 706,-195 706,-70 8,-70"/>
</g>
<g id="clust2" class="cluster">
<title>cluster_AppRoutingModule_declarations</title>
<polygon fill="none" stroke="#000000" points="504,-78 504,-130 698,-130 698,-78 504,-78"/>
</g>
<g id="clust4" class="cluster">
<title>cluster_AppRoutingModule_imports</title>
<polygon fill="none" stroke="#000000" points="182,-78 182,-130 496,-130 496,-78 182,-78"/>
</g>
<g id="clust7" class="cluster">
<title>cluster_AppRoutingModule_providers</title>
<polygon fill="none" stroke="#000000" points="16,-78 16,-130 174,-130 174,-78 16,-78"/>
</g>
<!-- MaterialSandboxComponent -->
<g id="node1" class="node">
<title>MaterialSandboxComponent</title>
<polygon fill="#ffffb3" stroke="#000000" points="689.7506,-122 512.2494,-122 512.2494,-86 689.7506,-86 689.7506,-122"/>
<text text-anchor="middle" x="601" y="-99.8" font-family="Times,serif" font-size="14.00" fill="#000000">MaterialSandboxComponent</text>
</g>
<!-- AppRoutingModule -->
<g id="node2" class="node">
<title>AppRoutingModule</title>
<polygon fill="#8dd3c7" stroke="#000000" points="411.2744,-187 408.2744,-191 387.2744,-191 384.2744,-187 282.7256,-187 282.7256,-151 411.2744,-151 411.2744,-187"/>
<text text-anchor="middle" x="347" y="-164.8" font-family="Times,serif" font-size="14.00" fill="#000000">AppRoutingModule</text>
</g>
<!-- MaterialSandboxComponent&#45;&gt;AppRoutingModule -->
<g id="edge1" class="edge">
<title>MaterialSandboxComponent&#45;&gt;AppRoutingModule</title>
<path fill="none" stroke="#000000" d="M601,-122.1061C601,-141.3391 601,-169 601,-169 601,-169 421.4233,-169 421.4233,-169"/>
<polygon fill="#000000" stroke="#000000" points="421.4233,-165.5001 411.4233,-169 421.4232,-172.5001 421.4233,-165.5001"/>
</g>
<!-- IasMaterialModule -->
<g id="node3" class="node">
<title>IasMaterialModule</title>
<polygon fill="#8dd3c7" stroke="#000000" points="487.7907,-122 484.7907,-126 463.7907,-126 460.7907,-122 364.2093,-122 364.2093,-86 487.7907,-86 487.7907,-122"/>
<text text-anchor="middle" x="426" y="-99.8" font-family="Times,serif" font-size="14.00" fill="#000000">IasMaterialModule</text>
</g>
<!-- IasMaterialModule&#45;&gt;AppRoutingModule -->
<g id="edge2" class="edge">
<title>IasMaterialModule&#45;&gt;AppRoutingModule</title>
<path fill="none" stroke="#000000" d="M387.871,-122.1061C387.871,-122.1061 387.871,-140.991 387.871,-140.991"/>
<polygon fill="#000000" stroke="#000000" points="384.371,-140.9909 387.871,-150.991 391.371,-140.991 384.371,-140.9909"/>
</g>
<!-- MaterialSandboxModule -->
<g id="node4" class="node">
<title>MaterialSandboxModule</title>
<polygon fill="#8dd3c7" stroke="#000000" points="345.9678,-122 342.9678,-126 321.9678,-126 318.9678,-122 190.0322,-122 190.0322,-86 345.9678,-86 345.9678,-122"/>
<text text-anchor="middle" x="268" y="-99.8" font-family="Times,serif" font-size="14.00" fill="#000000">MaterialSandboxModule</text>
</g>
<!-- MaterialSandboxModule&#45;&gt;AppRoutingModule -->
<g id="edge3" class="edge">
<title>MaterialSandboxModule&#45;&gt;AppRoutingModule</title>
<path fill="none" stroke="#000000" d="M314.2984,-122.1061C314.2984,-122.1061 314.2984,-140.991 314.2984,-140.991"/>
<polygon fill="#000000" stroke="#000000" points="310.7985,-140.9909 314.2984,-150.991 317.7985,-140.991 310.7985,-140.9909"/>
</g>
<!-- RoutingService -->
<g id="node5" class="node">
<title>RoutingService</title>
<ellipse fill="#fdb462" stroke="#000000" cx="95" cy="-104" rx="71.2268" ry="18"/>
<text text-anchor="middle" x="95" y="-99.8" font-family="Times,serif" font-size="14.00" fill="#000000">RoutingService</text>
</g>
<!-- RoutingService&#45;&gt;AppRoutingModule -->
<g id="edge4" class="edge">
<title>RoutingService&#45;&gt;AppRoutingModule</title>
<path fill="none" stroke="#000000" d="M95,-122.1061C95,-141.3391 95,-169 95,-169 95,-169 272.431,-169 272.431,-169"/>
<polygon fill="#000000" stroke="#000000" points="272.431,-172.5001 282.431,-169 272.4309,-165.5001 272.431,-172.5001"/>
</g>
</g>
</svg>
