<?xml version="1.0" encoding="UTF-8" standalone="no"?>
<!DOCTYPE svg PUBLIC "-//W3C//DTD SVG 1.1//EN"
 "http://www.w3.org/Graphics/SVG/1.1/DTD/svg11.dtd">
<!-- Generated by graphviz version 2.40.1 (20161225.0304)
 -->
<!-- Title: dependencies Pages: 1 -->
<svg width="548pt" height="211pt"
 viewBox="0.00 0.00 548.00 211.00" xmlns="http://www.w3.org/2000/svg" xmlns:xlink="http://www.w3.org/1999/xlink">
<g id="graph0" class="graph" transform="scale(1 1) rotate(0) translate(4 207)">
<title>dependencies</title>
<polygon fill="#ffffff" stroke="transparent" points="-4,4 -4,-207 544,-207 544,4 -4,4"/>
<text text-anchor="start" x="249.0091" y="-42.4" font-family="sans-serif" font-weight="bold" font-size="14.00" fill="#000000">Legend</text>
<polygon fill="#ffffb3" stroke="transparent" points="36,-10 36,-30 56,-30 56,-10 36,-10"/>
<text text-anchor="start" x="59.629" y="-15.4" font-family="sans-serif" font-size="14.00" fill="#000000"> &#160;Declarations</text>
<polygon fill="#8dd3c7" stroke="transparent" points="149,-10 149,-30 169,-30 169,-10 149,-10"/>
<text text-anchor="start" x="172.7251" y="-15.4" font-family="sans-serif" font-size="14.00" fill="#000000"> &#160;Module</text>
<polygon fill="#80b1d3" stroke="transparent" points="235,-10 235,-30 255,-30 255,-10 235,-10"/>
<text text-anchor="start" x="258.7812" y="-15.4" font-family="sans-serif" font-size="14.00" fill="#000000"> &#160;Bootstrap</text>
<polygon fill="#fdb462" stroke="transparent" points="332,-10 332,-30 352,-30 352,-10 332,-10"/>
<text text-anchor="start" x="355.6732" y="-15.4" font-family="sans-serif" font-size="14.00" fill="#000000"> &#160;Providers</text>
<polygon fill="#fb8072" stroke="transparent" points="428,-10 428,-30 448,-30 448,-10 428,-10"/>
<text text-anchor="start" x="451.7258" y="-15.4" font-family="sans-serif" font-size="14.00" fill="#000000"> &#160;Exports</text>
<g id="clust1" class="cluster">
<title>cluster_AppRoutingModule</title>
<polygon fill="none" stroke="#000000" stroke-dasharray="1,5" points="8,-70 8,-195 532,-195 532,-70 8,-70"/>
</g>
<g id="clust2" class="cluster">
<title>cluster_AppRoutingModule_declarations</title>
<polygon fill="none" stroke="#000000" points="330,-78 330,-130 524,-130 524,-78 330,-78"/>
</g>
<g id="clust4" class="cluster">
<title>cluster_AppRoutingModule_imports</title>
<polygon fill="none" stroke="#000000" points="182,-78 182,-130 322,-130 322,-78 182,-78"/>
</g>
<g id="clust7" class="cluster">
<title>cluster_AppRoutingModule_providers</title>
<polygon fill="none" stroke="#000000" points="16,-78 16,-130 174,-130 174,-78 16,-78"/>
</g>
<!-- MaterialSandboxComponent -->
<g id="node1" class="node">
<title>MaterialSandboxComponent</title>
<polygon fill="#ffffb3" stroke="#000000" points="515.7506,-122 338.2494,-122 338.2494,-86 515.7506,-86 515.7506,-122"/>
<text text-anchor="middle" x="427" y="-99.8" font-family="Times,serif" font-size="14.00" fill="#000000">MaterialSandboxComponent</text>
</g>
<!-- AppRoutingModule -->
<g id="node2" class="node">
<title>AppRoutingModule</title>
<polygon fill="#8dd3c7" stroke="#000000" points="316.2744,-187 313.2744,-191 292.2744,-191 289.2744,-187 187.7256,-187 187.7256,-151 316.2744,-151 316.2744,-187"/>
<text text-anchor="middle" x="252" y="-164.8" font-family="Times,serif" font-size="14.00" fill="#000000">AppRoutingModule</text>
</g>
<!-- MaterialSandboxComponent&#45;&gt;AppRoutingModule -->
<g id="edge1" class="edge">
<title>MaterialSandboxComponent&#45;&gt;AppRoutingModule</title>
<path fill="none" stroke="#000000" d="M427,-122.1061C427,-141.3391 427,-169 427,-169 427,-169 326.6663,-169 326.6663,-169"/>
<polygon fill="#000000" stroke="#000000" points="326.6664,-165.5001 316.6663,-169 326.6663,-172.5001 326.6664,-165.5001"/>
</g>
<!-- IasMaterialModule -->
<g id="node3" class="node">
<title>IasMaterialModule</title>
<polygon fill="#8dd3c7" stroke="#000000" points="313.7907,-122 310.7907,-126 289.7907,-126 286.7907,-122 190.2093,-122 190.2093,-86 313.7907,-86 313.7907,-122"/>
<text text-anchor="middle" x="252" y="-99.8" font-family="Times,serif" font-size="14.00" fill="#000000">IasMaterialModule</text>
</g>
<!-- IasMaterialModule&#45;&gt;AppRoutingModule -->
<g id="edge2" class="edge">
<title>IasMaterialModule&#45;&gt;AppRoutingModule</title>
<path fill="none" stroke="#000000" d="M252,-122.1061C252,-122.1061 252,-140.991 252,-140.991"/>
<polygon fill="#000000" stroke="#000000" points="248.5001,-140.9909 252,-150.991 255.5001,-140.991 248.5001,-140.9909"/>
</g>
<!-- RoutingService -->
<g id="node4" class="node">
<title>RoutingService</title>
<ellipse fill="#fdb462" stroke="#000000" cx="95" cy="-104" rx="71.2268" ry="18"/>
<text text-anchor="middle" x="95" y="-99.8" font-family="Times,serif" font-size="14.00" fill="#000000">RoutingService</text>
</g>
<!-- RoutingService&#45;&gt;AppRoutingModule -->
<g id="edge3" class="edge">
<title>RoutingService&#45;&gt;AppRoutingModule</title>
<path fill="none" stroke="#000000" d="M95,-122.1061C95,-141.3391 95,-169 95,-169 95,-169 177.6891,-169 177.6891,-169"/>
<polygon fill="#000000" stroke="#000000" points="177.6891,-172.5001 187.6891,-169 177.6891,-165.5001 177.6891,-172.5001"/>
</g>
</g>
</svg>
