<?xml version="1.0" encoding="UTF-8" standalone="no"?>
<!DOCTYPE svg PUBLIC "-//W3C//DTD SVG 1.1//EN"
 "http://www.w3.org/Graphics/SVG/1.1/DTD/svg11.dtd">
<!-- Generated by graphviz version 2.40.1 (20161225.0304)
 -->
<!-- Title: dependencies Pages: 1 -->
<svg width="814pt" height="284pt"
 viewBox="0.00 0.00 814.00 284.00" xmlns="http://www.w3.org/2000/svg" xmlns:xlink="http://www.w3.org/1999/xlink">
<g id="graph0" class="graph" transform="scale(1 1) rotate(0) translate(4 280)">
<title>dependencies</title>
<polygon fill="#ffffff" stroke="transparent" points="-4,4 -4,-280 810,-280 810,4 -4,4"/>
<text text-anchor="start" x="382.0091" y="-42.4" font-family="sans-serif" font-weight="bold" font-size="14.00" fill="#000000">Legend</text>
<polygon fill="#ffffb3" stroke="transparent" points="169,-10 169,-30 189,-30 189,-10 169,-10"/>
<text text-anchor="start" x="192.629" y="-15.4" font-family="sans-serif" font-size="14.00" fill="#000000"> &#160;Declarations</text>
<polygon fill="#8dd3c7" stroke="transparent" points="282,-10 282,-30 302,-30 302,-10 282,-10"/>
<text text-anchor="start" x="305.7251" y="-15.4" font-family="sans-serif" font-size="14.00" fill="#000000"> &#160;Module</text>
<polygon fill="#80b1d3" stroke="transparent" points="368,-10 368,-30 388,-30 388,-10 368,-10"/>
<text text-anchor="start" x="391.7812" y="-15.4" font-family="sans-serif" font-size="14.00" fill="#000000"> &#160;Bootstrap</text>
<polygon fill="#fdb462" stroke="transparent" points="465,-10 465,-30 485,-30 485,-10 465,-10"/>
<text text-anchor="start" x="488.6732" y="-15.4" font-family="sans-serif" font-size="14.00" fill="#000000"> &#160;Providers</text>
<polygon fill="#fb8072" stroke="transparent" points="561,-10 561,-30 581,-30 581,-10 561,-10"/>
<text text-anchor="start" x="584.7258" y="-15.4" font-family="sans-serif" font-size="14.00" fill="#000000"> &#160;Exports</text>
<g id="clust1" class="cluster">
<title>cluster_AppModule</title>
<polygon fill="none" stroke="#000000" stroke-dasharray="1,5" points="8,-70 8,-268 798,-268 798,-70 8,-70"/>
</g>
<g id="clust2" class="cluster">
<title>cluster_AppModule_declarations</title>
<polygon fill="none" stroke="#000000" points="170,-78 170,-130 790,-130 790,-78 170,-78"/>
</g>
<g id="clust9" class="cluster">
<title>cluster_AppModule_bootstrap</title>
<polygon fill="none" stroke="#000000" points="357,-208 357,-260 481,-260 481,-208 357,-208"/>
</g>
<g id="clust10" class="cluster">
<title>cluster_AppModule_providers</title>
<polygon fill="none" stroke="#000000" points="16,-78 16,-130 162,-130 162,-78 16,-78"/>
</g>
<!-- AppComponent -->
<g id="node1" class="node">
<title>AppComponent</title>
<polygon fill="#ffffb3" stroke="#000000" points="781.9399,-122 676.0601,-122 676.0601,-86 781.9399,-86 781.9399,-122"/>
<text text-anchor="middle" x="729" y="-99.8" font-family="Times,serif" font-size="14.00" fill="#000000">AppComponent</text>
</g>
<!-- AppModule -->
<g id="node5" class="node">
<title>AppModule</title>
<polygon fill="#8dd3c7" stroke="#000000" points="460.6571,-187 457.6571,-191 436.6571,-191 433.6571,-187 377.3429,-187 377.3429,-151 460.6571,-151 460.6571,-187"/>
<text text-anchor="middle" x="419" y="-164.8" font-family="Times,serif" font-size="14.00" fill="#000000">AppModule</text>
</g>
<!-- AppComponent&#45;&gt;AppModule -->
<g id="edge1" class="edge">
<title>AppComponent&#45;&gt;AppModule</title>
<path fill="none" stroke="#000000" d="M729,-122.2843C729,-143.3211 729,-175 729,-175 729,-175 470.808,-175 470.808,-175"/>
<polygon fill="#000000" stroke="#000000" points="470.808,-171.5001 460.808,-175 470.8079,-178.5001 470.808,-171.5001"/>
</g>
<!-- AlarmsListComponent -->
<g id="node2" class="node">
<title>AlarmsListComponent</title>
<polygon fill="#ffffb3" stroke="#000000" points="658.3188,-122 513.6812,-122 513.6812,-86 658.3188,-86 658.3188,-122"/>
<text text-anchor="middle" x="586" y="-99.8" font-family="Times,serif" font-size="14.00" fill="#000000">AlarmsListComponent</text>
</g>
<!-- AlarmsListComponent&#45;&gt;AppModule -->
<g id="edge2" class="edge">
<title>AlarmsListComponent&#45;&gt;AppModule</title>
<path fill="none" stroke="#000000" d="M586,-122.0225C586,-139.3734 586,-163 586,-163 586,-163 470.7104,-163 470.7104,-163"/>
<polygon fill="#000000" stroke="#000000" points="470.7104,-159.5001 460.7104,-163 470.7103,-166.5001 470.7104,-159.5001"/>
</g>
<!-- AlarmsTableComponent -->
<g id="node3" class="node">
<title>AlarmsTableComponent</title>
<polygon fill="#ffffb3" stroke="#000000" points="496.413,-122 341.587,-122 341.587,-86 496.413,-86 496.413,-122"/>
<text text-anchor="middle" x="419" y="-99.8" font-family="Times,serif" font-size="14.00" fill="#000000">AlarmsTableComponent</text>
</g>
<!-- AlarmsTableComponent&#45;&gt;AppModule -->
<g id="edge3" class="edge">
<title>AlarmsTableComponent&#45;&gt;AppModule</title>
<path fill="none" stroke="#000000" d="M419,-122.1061C419,-122.1061 419,-140.991 419,-140.991"/>
<polygon fill="#000000" stroke="#000000" points="415.5001,-140.9909 419,-150.991 422.5001,-140.991 415.5001,-140.9909"/>
</g>
<!-- StatusViewComponent -->
<g id="node4" class="node">
<title>StatusViewComponent</title>
<polygon fill="#ffffb3" stroke="#000000" points="323.8739,-122 178.1261,-122 178.1261,-86 323.8739,-86 323.8739,-122"/>
<text text-anchor="middle" x="251" y="-99.8" font-family="Times,serif" font-size="14.00" fill="#000000">StatusViewComponent</text>
</g>
<!-- StatusViewComponent&#45;&gt;AppModule -->
<g id="edge4" class="edge">
<title>StatusViewComponent&#45;&gt;AppModule</title>
<path fill="none" stroke="#000000" d="M251,-122.0225C251,-139.3734 251,-163 251,-163 251,-163 367.0399,-163 367.0399,-163"/>
<polygon fill="#000000" stroke="#000000" points="367.0399,-166.5001 377.0399,-163 367.0398,-159.5001 367.0399,-166.5001"/>
</g>
<!-- AppComponent  -->
<g id="node6" class="node">
<title>AppComponent </title>
<polygon fill="#80b1d3" stroke="#000000" points="473.439,-252 364.561,-252 364.561,-216 473.439,-216 473.439,-252"/>
<text text-anchor="middle" x="419" y="-229.8" font-family="Times,serif" font-size="14.00" fill="#000000">AppComponent </text>
</g>
<!-- AppModule&#45;&gt;AppComponent  -->
<g id="edge5" class="edge">
<title>AppModule&#45;&gt;AppComponent </title>
<path fill="none" stroke="#000000" stroke-dasharray="1,5" d="M419,-187.1061C419,-187.1061 419,-205.991 419,-205.991"/>
<polygon fill="#000000" stroke="#000000" points="415.5001,-205.9909 419,-215.991 422.5001,-205.991 415.5001,-205.9909"/>
</g>
<!-- AlarmService -->
<g id="node7" class="node">
<title>AlarmService</title>
<ellipse fill="#fdb462" stroke="#000000" cx="89" cy="-104" rx="64.8215" ry="18"/>
<text text-anchor="middle" x="89" y="-99.8" font-family="Times,serif" font-size="14.00" fill="#000000">AlarmService</text>
</g>
<!-- AlarmService&#45;&gt;AppModule -->
<g id="edge6" class="edge">
<title>AlarmService&#45;&gt;AppModule</title>
<path fill="none" stroke="#000000" d="M89,-122.2843C89,-143.3211 89,-175 89,-175 89,-175 367.2053,-175 367.2053,-175"/>
<polygon fill="#000000" stroke="#000000" points="367.2053,-178.5001 377.2053,-175 367.2052,-171.5001 367.2053,-178.5001"/>
</g>
</g>
</svg>
