<?xml version="1.0" encoding="UTF-8" standalone="no"?>
<!DOCTYPE svg PUBLIC "-//W3C//DTD SVG 1.1//EN"
 "http://www.w3.org/Graphics/SVG/1.1/DTD/svg11.dtd">
<!-- Generated by graphviz version 2.40.1 (20161225.0304)
 -->
<!-- Title: dependencies Pages: 1 -->
<svg width="3350pt" height="284pt"
 viewBox="0.00 0.00 3350.00 284.00" xmlns="http://www.w3.org/2000/svg" xmlns:xlink="http://www.w3.org/1999/xlink">
<g id="graph0" class="graph" transform="scale(1 1) rotate(0) translate(4 280)">
<title>dependencies</title>
<polygon fill="#ffffff" stroke="transparent" points="-4,4 -4,-280 3346,-280 3346,4 -4,4"/>
<text text-anchor="start" x="1650.0091" y="-42.4" font-family="sans-serif" font-weight="bold" font-size="14.00" fill="#000000">Legend</text>
<polygon fill="#ffffb3" stroke="transparent" points="1437,-10 1437,-30 1457,-30 1457,-10 1437,-10"/>
<text text-anchor="start" x="1460.629" y="-15.4" font-family="sans-serif" font-size="14.00" fill="#000000"> &#160;Declarations</text>
<polygon fill="#8dd3c7" stroke="transparent" points="1550,-10 1550,-30 1570,-30 1570,-10 1550,-10"/>
<text text-anchor="start" x="1573.7251" y="-15.4" font-family="sans-serif" font-size="14.00" fill="#000000"> &#160;Module</text>
<polygon fill="#80b1d3" stroke="transparent" points="1636,-10 1636,-30 1656,-30 1656,-10 1636,-10"/>
<text text-anchor="start" x="1659.7812" y="-15.4" font-family="sans-serif" font-size="14.00" fill="#000000"> &#160;Bootstrap</text>
<polygon fill="#fdb462" stroke="transparent" points="1733,-10 1733,-30 1753,-30 1753,-10 1733,-10"/>
<text text-anchor="start" x="1756.6732" y="-15.4" font-family="sans-serif" font-size="14.00" fill="#000000"> &#160;Providers</text>
<polygon fill="#fb8072" stroke="transparent" points="1829,-10 1829,-30 1849,-30 1849,-10 1829,-10"/>
<text text-anchor="start" x="1852.7258" y="-15.4" font-family="sans-serif" font-size="14.00" fill="#000000"> &#160;Exports</text>
<g id="clust1" class="cluster">
<title>cluster_AppModule</title>
<polygon fill="none" stroke="#000000" stroke-dasharray="1,5" points="8,-70 8,-268 3334,-268 3334,-70 8,-70"/>
</g>
<g id="clust2" class="cluster">
<title>cluster_AppModule_declarations</title>
<polygon fill="none" stroke="#000000" points="788,-78 788,-130 3326,-130 3326,-78 788,-78"/>
</g>
<g id="clust18" class="cluster">
<title>cluster_AppModule_imports</title>
<polygon fill="none" stroke="#000000" points="640,-78 640,-130 780,-130 780,-78 640,-78"/>
</g>
<g id="clust20" class="cluster">
<title>cluster_AppModule_bootstrap</title>
<polygon fill="none" stroke="#000000" points="1602,-208 1602,-260 1726,-260 1726,-208 1602,-208"/>
</g>
<g id="clust21" class="cluster">
<title>cluster_AppModule_providers</title>
<polygon fill="none" stroke="#000000" points="16,-78 16,-130 632,-130 632,-78 16,-78"/>
</g>
<!-- AckButtonComponent -->
<g id="node1" class="node">
<title>AckButtonComponent</title>
<polygon fill="#ffffb3" stroke="#000000" points="3318.2716,-122 3175.7284,-122 3175.7284,-86 3318.2716,-86 3318.2716,-122"/>
<text text-anchor="middle" x="3247" y="-99.8" font-family="Times,serif" font-size="14.00" fill="#000000">AckButtonComponent</text>
</g>
<!-- AppModule -->
<g id="node16" class="node">
<title>AppModule</title>
<polygon fill="#8dd3c7" stroke="#000000" points="1705.6571,-187 1702.6571,-191 1681.6571,-191 1678.6571,-187 1622.3429,-187 1622.3429,-151 1705.6571,-151 1705.6571,-187"/>
<text text-anchor="middle" x="1664" y="-164.8" font-family="Times,serif" font-size="14.00" fill="#000000">AppModule</text>
</g>
<!-- AckButtonComponent&#45;&gt;AppModule -->
<g id="edge1" class="edge">
<title>AckButtonComponent&#45;&gt;AppModule</title>
<path fill="none" stroke="#000000" d="M3247,-122.1532C3247,-145.7566 3247,-184 3247,-184 3247,-184 1715.9337,-184 1715.9337,-184"/>
<polygon fill="#000000" stroke="#000000" points="1715.9337,-180.5001 1705.9337,-184 1715.9336,-187.5001 1715.9337,-180.5001"/>
</g>
<!-- AckModalComponent -->
<g id="node2" class="node">
<title>AckModalComponent</title>
<polygon fill="#ffffb3" stroke="#000000" points="3157.7035,-122 3016.2965,-122 3016.2965,-86 3157.7035,-86 3157.7035,-122"/>
<text text-anchor="middle" x="3087" y="-99.8" font-family="Times,serif" font-size="14.00" fill="#000000">AckModalComponent</text>
</g>
<!-- AckModalComponent&#45;&gt;AppModule -->
<g id="edge2" class="edge">
<title>AckModalComponent&#45;&gt;AppModule</title>
<path fill="none" stroke="#000000" d="M3087,-122.0109C3087,-144.4852 3087,-180 3087,-180 3087,-180 1715.817,-180 1715.817,-180"/>
<polygon fill="#000000" stroke="#000000" points="1715.8171,-176.5001 1705.817,-180 1715.817,-183.5001 1715.8171,-176.5001"/>
</g>
<!-- AckTreeComponent -->
<g id="node3" class="node">
<title>AckTreeComponent</title>
<polygon fill="#ffffb3" stroke="#000000" points="2998.2963,-122 2867.7037,-122 2867.7037,-86 2998.2963,-86 2998.2963,-122"/>
<text text-anchor="middle" x="2933" y="-99.8" font-family="Times,serif" font-size="14.00" fill="#000000">AckTreeComponent</text>
</g>
<!-- AckTreeComponent&#45;&gt;AppModule -->
<g id="edge3" class="edge">
<title>AckTreeComponent&#45;&gt;AppModule</title>
<path fill="none" stroke="#000000" d="M2933,-122.0449C2933,-143.6623 2933,-177 2933,-177 2933,-177 1715.8605,-177 1715.8605,-177"/>
<polygon fill="#000000" stroke="#000000" points="1715.8605,-173.5001 1705.8605,-177 1715.8604,-180.5001 1715.8605,-173.5001"/>
</g>
<!-- AlarmComponent -->
<g id="node4" class="node">
<title>AlarmComponent</title>
<polygon fill="#ffffb3" stroke="#000000" points="2849.5954,-122 2732.4046,-122 2732.4046,-86 2849.5954,-86 2849.5954,-122"/>
<text text-anchor="middle" x="2791" y="-99.8" font-family="Times,serif" font-size="14.00" fill="#000000">AlarmComponent</text>
</g>
<!-- AlarmComponent&#45;&gt;AppModule -->
<g id="edge4" class="edge">
<title>AlarmComponent&#45;&gt;AppModule</title>
<path fill="none" stroke="#000000" d="M2791,-122.1289C2791,-142.5724 2791,-173 2791,-173 2791,-173 1715.7844,-173 1715.7844,-173"/>
<polygon fill="#000000" stroke="#000000" points="1715.7844,-169.5001 1705.7844,-173 1715.7843,-176.5001 1715.7844,-169.5001"/>
</g>
<!-- AppComponent -->
<g id="node5" class="node">
<title>AppComponent</title>
<polygon fill="#ffffb3" stroke="#000000" points="2714.9399,-122 2609.0601,-122 2609.0601,-86 2714.9399,-86 2714.9399,-122"/>
<text text-anchor="middle" x="2662" y="-99.8" font-family="Times,serif" font-size="14.00" fill="#000000">AppComponent</text>
</g>
<!-- AppComponent&#45;&gt;AppModule -->
<g id="edge5" class="edge">
<title>AppComponent&#45;&gt;AppModule</title>
<path fill="none" stroke="#000000" d="M2662,-122.1061C2662,-141.3391 2662,-169 2662,-169 2662,-169 1715.9283,-169 1715.9283,-169"/>
<polygon fill="#000000" stroke="#000000" points="1715.9283,-165.5001 1705.9283,-169 1715.9282,-172.5001 1715.9283,-165.5001"/>
</g>
<!-- IasHealthOverviewComponent -->
<g id="node6" class="node">
<title>IasHealthOverviewComponent</title>
<polygon fill="#ffffb3" stroke="#000000" points="2591.1629,-122 2400.8371,-122 2400.8371,-86 2591.1629,-86 2591.1629,-122"/>
<text text-anchor="middle" x="2496" y="-99.8" font-family="Times,serif" font-size="14.00" fill="#000000">IasHealthOverviewComponent</text>
</g>
<!-- IasHealthOverviewComponent&#45;&gt;AppModule -->
<g id="edge6" class="edge">
<title>IasHealthOverviewComponent&#45;&gt;AppModule</title>
<path fill="none" stroke="#000000" d="M2496,-122.2667C2496,-140.5552 2496,-166 2496,-166 2496,-166 1715.8292,-166 1715.8292,-166"/>
<polygon fill="#000000" stroke="#000000" points="1715.8292,-162.5001 1705.8292,-166 1715.8292,-169.5001 1715.8292,-162.5001"/>
</g>
<!-- LegendComponent -->
<g id="node7" class="node">
<title>LegendComponent</title>
<polygon fill="#ffffb3" stroke="#000000" points="2382.8146,-122 2259.1854,-122 2259.1854,-86 2382.8146,-86 2382.8146,-122"/>
<text text-anchor="middle" x="2321" y="-99.8" font-family="Times,serif" font-size="14.00" fill="#000000">LegendComponent</text>
</g>
<!-- LegendComponent&#45;&gt;AppModule -->
<g id="edge7" class="edge">
<title>LegendComponent&#45;&gt;AppModule</title>
<path fill="none" stroke="#000000" d="M2321,-122.0336C2321,-139.0597 2321,-162 2321,-162 2321,-162 1715.8469,-162 1715.8469,-162"/>
<polygon fill="#000000" stroke="#000000" points="1715.8469,-158.5001 1705.8469,-162 1715.8469,-165.5001 1715.8469,-158.5001"/>
</g>
<!-- OverviewCardComponent -->
<g id="node8" class="node">
<title>OverviewCardComponent</title>
<polygon fill="#ffffb3" stroke="#000000" points="2240.738,-122 2077.262,-122 2077.262,-86 2240.738,-86 2240.738,-122"/>
<text text-anchor="middle" x="2159" y="-99.8" font-family="Times,serif" font-size="14.00" fill="#000000">OverviewCardComponent</text>
</g>
<!-- OverviewCardComponent&#45;&gt;AppModule -->
<g id="edge8" class="edge">
<title>OverviewCardComponent&#45;&gt;AppModule</title>
<path fill="none" stroke="#000000" d="M2159,-122.0091C2159,-138.0494 2159,-159 2159,-159 2159,-159 1715.7768,-159 1715.7768,-159"/>
<polygon fill="#000000" stroke="#000000" points="1715.7768,-155.5001 1705.7768,-159 1715.7768,-162.5001 1715.7768,-155.5001"/>
</g>
<!-- OverviewComponent -->
<g id="node9" class="node">
<title>OverviewComponent</title>
<polygon fill="#ffffb3" stroke="#000000" points="2059.0268,-122 1922.9732,-122 1922.9732,-86 2059.0268,-86 2059.0268,-122"/>
<text text-anchor="middle" x="1991" y="-99.8" font-family="Times,serif" font-size="14.00" fill="#000000">OverviewComponent</text>
</g>
<!-- OverviewComponent&#45;&gt;AppModule -->
<g id="edge9" class="edge">
<title>OverviewComponent&#45;&gt;AppModule</title>
<path fill="none" stroke="#000000" d="M1991,-122.1243C1991,-136.7832 1991,-155 1991,-155 1991,-155 1715.7469,-155 1715.7469,-155"/>
<polygon fill="#000000" stroke="#000000" points="1715.747,-151.5001 1705.7469,-155 1715.7469,-158.5001 1715.747,-151.5001"/>
</g>
<!-- OverviewWeatherCardContentComponent -->
<g id="node10" class="node">
<title>OverviewWeatherCardContentComponent</title>
<polygon fill="#ffffb3" stroke="#000000" points="1904.9803,-122 1649.0197,-122 1649.0197,-86 1904.9803,-86 1904.9803,-122"/>
<text text-anchor="middle" x="1777" y="-99.8" font-family="Times,serif" font-size="14.00" fill="#000000">OverviewWeatherCardContentComponent</text>
</g>
<!-- OverviewWeatherCardContentComponent&#45;&gt;AppModule -->
<g id="edge10" class="edge">
<title>OverviewWeatherCardContentComponent&#45;&gt;AppModule</title>
<path fill="none" stroke="#000000" d="M1677.5442,-122.1061C1677.5442,-122.1061 1677.5442,-140.991 1677.5442,-140.991"/>
<polygon fill="#000000" stroke="#000000" points="1674.0442,-140.9909 1677.5442,-150.991 1681.0442,-140.991 1674.0442,-140.9909"/>
</g>
<!-- ShelveButtonComponent -->
<g id="node11" class="node">
<title>ShelveButtonComponent</title>
<polygon fill="#ffffb3" stroke="#000000" points="1630.5532,-122 1473.4468,-122 1473.4468,-86 1630.5532,-86 1630.5532,-122"/>
<text text-anchor="middle" x="1552" y="-99.8" font-family="Times,serif" font-size="14.00" fill="#000000">ShelveButtonComponent</text>
</g>
<!-- ShelveButtonComponent&#45;&gt;AppModule -->
<g id="edge11" class="edge">
<title>ShelveButtonComponent&#45;&gt;AppModule</title>
<path fill="none" stroke="#000000" d="M1626.4741,-122.1061C1626.4741,-122.1061 1626.4741,-140.991 1626.4741,-140.991"/>
<polygon fill="#000000" stroke="#000000" points="1622.9741,-140.9909 1626.4741,-150.991 1629.9741,-140.991 1622.9741,-140.9909"/>
</g>
<!-- ShelveModalComponent -->
<g id="node12" class="node">
<title>ShelveModalComponent</title>
<polygon fill="#ffffb3" stroke="#000000" points="1454.9846,-122 1299.0154,-122 1299.0154,-86 1454.9846,-86 1454.9846,-122"/>
<text text-anchor="middle" x="1377" y="-99.8" font-family="Times,serif" font-size="14.00" fill="#000000">ShelveModalComponent</text>
</g>
<!-- ShelveModalComponent&#45;&gt;AppModule -->
<g id="edge12" class="edge">
<title>ShelveModalComponent&#45;&gt;AppModule</title>
<path fill="none" stroke="#000000" d="M1377,-122.1243C1377,-136.7832 1377,-155 1377,-155 1377,-155 1612.2677,-155 1612.2677,-155"/>
<polygon fill="#000000" stroke="#000000" points="1612.2678,-158.5001 1622.2677,-155 1612.2677,-151.5001 1612.2678,-158.5001"/>
</g>
<!-- StatusViewComponent -->
<g id="node13" class="node">
<title>StatusViewComponent</title>
<polygon fill="#ffffb3" stroke="#000000" points="1280.8739,-122 1135.1261,-122 1135.1261,-86 1280.8739,-86 1280.8739,-122"/>
<text text-anchor="middle" x="1208" y="-99.8" font-family="Times,serif" font-size="14.00" fill="#000000">StatusViewComponent</text>
</g>
<!-- StatusViewComponent&#45;&gt;AppModule -->
<g id="edge13" class="edge">
<title>StatusViewComponent&#45;&gt;AppModule</title>
<path fill="none" stroke="#000000" d="M1208,-122.0091C1208,-138.0494 1208,-159 1208,-159 1208,-159 1612.3242,-159 1612.3242,-159"/>
<polygon fill="#000000" stroke="#000000" points="1612.3242,-162.5001 1622.3242,-159 1612.3242,-155.5001 1612.3242,-162.5001"/>
</g>
<!-- TabularViewComponent -->
<g id="node14" class="node">
<title>TabularViewComponent</title>
<polygon fill="#ffffb3" stroke="#000000" points="1116.6839,-122 961.3161,-122 961.3161,-86 1116.6839,-86 1116.6839,-122"/>
<text text-anchor="middle" x="1039" y="-99.8" font-family="Times,serif" font-size="14.00" fill="#000000">TabularViewComponent</text>
</g>
<!-- TabularViewComponent&#45;&gt;AppModule -->
<g id="edge14" class="edge">
<title>TabularViewComponent&#45;&gt;AppModule</title>
<path fill="none" stroke="#000000" d="M1039,-122.0336C1039,-139.0597 1039,-162 1039,-162 1039,-162 1612.0215,-162 1612.0215,-162"/>
<polygon fill="#000000" stroke="#000000" points="1612.0215,-165.5001 1622.0215,-162 1612.0215,-158.5001 1612.0215,-165.5001"/>
</g>
<!-- WikiButtonComponent -->
<g id="node15" class="node">
<title>WikiButtonComponent</title>
<polygon fill="#ffffb3" stroke="#000000" points="943.9467,-122 796.0533,-122 796.0533,-86 943.9467,-86 943.9467,-122"/>
<text text-anchor="middle" x="870" y="-99.8" font-family="Times,serif" font-size="14.00" fill="#000000">WikiButtonComponent</text>
</g>
<!-- WikiButtonComponent&#45;&gt;AppModule -->
<g id="edge15" class="edge">
<title>WikiButtonComponent&#45;&gt;AppModule</title>
<path fill="none" stroke="#000000" d="M870,-122.2667C870,-140.5552 870,-166 870,-166 870,-166 1612.1508,-166 1612.1508,-166"/>
<polygon fill="#000000" stroke="#000000" points="1612.1508,-169.5001 1622.1508,-166 1612.1507,-162.5001 1612.1508,-169.5001"/>
</g>
<!-- AppComponent  -->
<g id="node18" class="node">
<title>AppComponent </title>
<polygon fill="#80b1d3" stroke="#000000" points="1718.439,-252 1609.561,-252 1609.561,-216 1718.439,-216 1718.439,-252"/>
<text text-anchor="middle" x="1664" y="-229.8" font-family="Times,serif" font-size="14.00" fill="#000000">AppComponent </text>
</g>
<!-- AppModule&#45;&gt;AppComponent  -->
<g id="edge17" class="edge">
<title>AppModule&#45;&gt;AppComponent </title>
<path fill="none" stroke="#000000" stroke-dasharray="1,5" d="M1664,-187.1061C1664,-187.1061 1664,-205.991 1664,-205.991"/>
<polygon fill="#000000" stroke="#000000" points="1660.5001,-205.9909 1664,-215.991 1667.5001,-205.991 1660.5001,-205.9909"/>
</g>
<!-- IasMaterialModule -->
<g id="node17" class="node">
<title>IasMaterialModule</title>
<polygon fill="#8dd3c7" stroke="#000000" points="771.7907,-122 768.7907,-126 747.7907,-126 744.7907,-122 648.2093,-122 648.2093,-86 771.7907,-86 771.7907,-122"/>
<text text-anchor="middle" x="710" y="-99.8" font-family="Times,serif" font-size="14.00" fill="#000000">IasMaterialModule</text>
</g>
<!-- IasMaterialModule&#45;&gt;AppModule -->
<g id="edge16" class="edge">
<title>IasMaterialModule&#45;&gt;AppModule</title>
<path fill="none" stroke="#000000" d="M710,-122.1061C710,-141.3391 710,-169 710,-169 710,-169 1612.0861,-169 1612.0861,-169"/>
<polygon fill="#000000" stroke="#000000" points="1612.0862,-172.5001 1622.0861,-169 1612.0861,-165.5001 1612.0862,-172.5001"/>
</g>
<!-- AlarmService -->
<g id="node19" class="node">
<title>AlarmService</title>
<ellipse fill="#fdb462" stroke="#000000" cx="559" cy="-104" rx="64.8215" ry="18"/>
<text text-anchor="middle" x="559" y="-99.8" font-family="Times,serif" font-size="14.00" fill="#000000">AlarmService</text>
</g>
<!-- AlarmService&#45;&gt;AppModule -->
<g id="edge18" class="edge">
<title>AlarmService&#45;&gt;AppModule</title>
<path fill="none" stroke="#000000" d="M559,-122.1289C559,-142.5724 559,-173 559,-173 559,-173 1612.032,-173 1612.032,-173"/>
<polygon fill="#000000" stroke="#000000" points="1612.032,-176.5001 1622.032,-173 1612.032,-169.5001 1612.032,-176.5001"/>
</g>
<!-- CdbService -->
<g id="node20" class="node">
<title>CdbService</title>
<ellipse fill="#fdb462" stroke="#000000" cx="420" cy="-104" rx="56.1782" ry="18"/>
<text text-anchor="middle" x="420" y="-99.8" font-family="Times,serif" font-size="14.00" fill="#000000">CdbService</text>
</g>
<!-- CdbService&#45;&gt;AppModule -->
<g id="edge19" class="edge">
<title>CdbService&#45;&gt;AppModule</title>
<path fill="none" stroke="#000000" d="M420,-122.0449C420,-143.6623 420,-177 420,-177 420,-177 1612.2542,-177 1612.2542,-177"/>
<polygon fill="#000000" stroke="#000000" points="1612.2542,-180.5001 1622.2542,-177 1612.2541,-173.5001 1612.2542,-180.5001"/>
</g>
<!-- HttpClientService -->
<g id="node21" class="node">
<title>HttpClientService</title>
<ellipse fill="#fdb462" stroke="#000000" cx="265" cy="-104" rx="80.5316" ry="18"/>
<text text-anchor="middle" x="265" y="-99.8" font-family="Times,serif" font-size="14.00" fill="#000000">HttpClientService</text>
</g>
<!-- HttpClientService&#45;&gt;AppModule -->
<g id="edge20" class="edge">
<title>HttpClientService&#45;&gt;AppModule</title>
<path fill="none" stroke="#000000" d="M265,-122.0109C265,-144.4852 265,-180 265,-180 265,-180 1612.1307,-180 1612.1307,-180"/>
<polygon fill="#000000" stroke="#000000" points="1612.1307,-183.5001 1622.1307,-180 1612.1307,-176.5001 1612.1307,-183.5001"/>
</g>
<!-- RoutingService -->
<g id="node22" class="node">
<title>RoutingService</title>
<ellipse fill="#fdb462" stroke="#000000" cx="95" cy="-104" rx="71.2268" ry="18"/>
<text text-anchor="middle" x="95" y="-99.8" font-family="Times,serif" font-size="14.00" fill="#000000">RoutingService</text>
</g>
<!-- RoutingService&#45;&gt;AppModule -->
<g id="edge21" class="edge">
<title>RoutingService&#45;&gt;AppModule</title>
<path fill="none" stroke="#000000" d="M95,-122.1532C95,-145.7566 95,-184 95,-184 95,-184 1612.033,-184 1612.033,-184"/>
<polygon fill="#000000" stroke="#000000" points="1612.0331,-187.5001 1622.033,-184 1612.033,-180.5001 1612.0331,-187.5001"/>
</g>
</g>
</svg>
