<?xml version="1.0" encoding="UTF-8" standalone="no"?>
<!DOCTYPE svg PUBLIC "-//W3C//DTD SVG 1.1//EN"
 "http://www.w3.org/Graphics/SVG/1.1/DTD/svg11.dtd">
<!-- Generated by graphviz version 2.40.1 (20161225.0304)
 -->
<!-- Title: dependencies Pages: 1 -->
<svg width="1631pt" height="284pt"
 viewBox="0.00 0.00 1631.00 284.00" xmlns="http://www.w3.org/2000/svg" xmlns:xlink="http://www.w3.org/1999/xlink">
<g id="graph0" class="graph" transform="scale(1 1) rotate(0) translate(4 280)">
<title>dependencies</title>
<polygon fill="#ffffff" stroke="transparent" points="-4,4 -4,-280 1627,-280 1627,4 -4,4"/>
<text text-anchor="start" x="790.5091" y="-42.4" font-family="sans-serif" font-weight="bold" font-size="14.00" fill="#000000">Legend</text>
<polygon fill="#ffffb3" stroke="transparent" points="577.5,-10 577.5,-30 597.5,-30 597.5,-10 577.5,-10"/>
<text text-anchor="start" x="601.129" y="-15.4" font-family="sans-serif" font-size="14.00" fill="#000000"> &#160;Declarations</text>
<polygon fill="#8dd3c7" stroke="transparent" points="690.5,-10 690.5,-30 710.5,-30 710.5,-10 690.5,-10"/>
<text text-anchor="start" x="714.2251" y="-15.4" font-family="sans-serif" font-size="14.00" fill="#000000"> &#160;Module</text>
<polygon fill="#80b1d3" stroke="transparent" points="776.5,-10 776.5,-30 796.5,-30 796.5,-10 776.5,-10"/>
<text text-anchor="start" x="800.2812" y="-15.4" font-family="sans-serif" font-size="14.00" fill="#000000"> &#160;Bootstrap</text>
<polygon fill="#fdb462" stroke="transparent" points="873.5,-10 873.5,-30 893.5,-30 893.5,-10 873.5,-10"/>
<text text-anchor="start" x="897.1732" y="-15.4" font-family="sans-serif" font-size="14.00" fill="#000000"> &#160;Providers</text>
<polygon fill="#fb8072" stroke="transparent" points="969.5,-10 969.5,-30 989.5,-30 989.5,-10 969.5,-10"/>
<text text-anchor="start" x="993.2258" y="-15.4" font-family="sans-serif" font-size="14.00" fill="#000000"> &#160;Exports</text>
<g id="clust1" class="cluster">
<title>cluster_AppModule</title>
<polygon fill="none" stroke="#000000" stroke-dasharray="1,5" points="8,-70 8,-268 1615,-268 1615,-70 8,-70"/>
</g>
<g id="clust2" class="cluster">
<title>cluster_AppModule_declarations</title>
<polygon fill="none" stroke="#000000" points="1485,-78 1485,-130 1607,-130 1607,-78 1485,-78"/>
</g>
<g id="clust4" class="cluster">
<title>cluster_AppModule_imports</title>
<polygon fill="none" stroke="#000000" points="16,-78 16,-130 1477,-130 1477,-78 16,-78"/>
</g>
<g id="clust6" class="cluster">
<title>cluster_AppModule_bootstrap</title>
<polygon fill="none" stroke="#000000" points="750,-208 750,-260 874,-260 874,-208 750,-208"/>
</g>
<!-- AppComponent -->
<g id="node1" class="node">
<title>AppComponent</title>
<polygon fill="#ffffb3" stroke="#000000" points="1598.9399,-122 1493.0601,-122 1493.0601,-86 1598.9399,-86 1598.9399,-122"/>
<text text-anchor="middle" x="1546" y="-99.8" font-family="Times,serif" font-size="14.00" fill="#000000">AppComponent</text>
</g>
<!-- AppModule -->
<g id="node2" class="node">
<title>AppModule</title>
<polygon fill="#8dd3c7" stroke="#000000" points="853.6571,-187 850.6571,-191 829.6571,-191 826.6571,-187 770.3429,-187 770.3429,-151 853.6571,-151 853.6571,-187"/>
<text text-anchor="middle" x="812" y="-164.8" font-family="Times,serif" font-size="14.00" fill="#000000">AppModule</text>
</g>
<!-- AppComponent&#45;&gt;AppModule -->
<g id="edge1" class="edge">
<title>AppComponent&#45;&gt;AppModule</title>
<path fill="none" stroke="#000000" d="M1546,-122.0908C1546,-145.1328 1546,-182 1546,-182 1546,-182 863.8323,-182 863.8323,-182"/>
<polygon fill="#000000" stroke="#000000" points="863.8324,-178.5001 853.8323,-182 863.8323,-185.5001 863.8324,-178.5001"/>
</g>
<!-- AppComponent  -->
<g id="node15" class="node">
<title>AppComponent </title>
<polygon fill="#80b1d3" stroke="#000000" points="866.439,-252 757.561,-252 757.561,-216 866.439,-216 866.439,-252"/>
<text text-anchor="middle" x="812" y="-229.8" font-family="Times,serif" font-size="14.00" fill="#000000">AppComponent </text>
</g>
<!-- AppModule&#45;&gt;AppComponent  -->
<g id="edge14" class="edge">
<title>AppModule&#45;&gt;AppComponent </title>
<path fill="none" stroke="#000000" stroke-dasharray="1,5" d="M812,-187.1061C812,-187.1061 812,-205.991 812,-205.991"/>
<polygon fill="#000000" stroke="#000000" points="808.5001,-205.9909 812,-215.991 815.5001,-205.991 808.5001,-205.9909"/>
</g>
<!-- ActionsModule -->
<g id="node3" class="node">
<title>ActionsModule</title>
<polygon fill="#8dd3c7" stroke="#000000" points="1468.5968,-122 1465.5968,-126 1444.5968,-126 1441.5968,-122 1365.4032,-122 1365.4032,-86 1468.5968,-86 1468.5968,-122"/>
<text text-anchor="middle" x="1417" y="-99.8" font-family="Times,serif" font-size="14.00" fill="#000000">ActionsModule</text>
</g>
<!-- ActionsModule&#45;&gt;AppModule -->
<g id="edge2" class="edge">
<title>ActionsModule&#45;&gt;AppModule</title>
<path fill="none" stroke="#000000" d="M1417,-122.0449C1417,-143.6623 1417,-177 1417,-177 1417,-177 864.0621,-177 864.0621,-177"/>
<polygon fill="#000000" stroke="#000000" points="864.0621,-173.5001 854.0621,-177 864.0621,-180.5001 864.0621,-173.5001"/>
</g>
<!-- AntennasModule -->
<g id="node4" class="node">
<title>AntennasModule</title>
<polygon fill="#8dd3c7" stroke="#000000" points="1347.4216,-122 1344.4216,-126 1323.4216,-126 1320.4216,-122 1234.5784,-122 1234.5784,-86 1347.4216,-86 1347.4216,-122"/>
<text text-anchor="middle" x="1291" y="-99.8" font-family="Times,serif" font-size="14.00" fill="#000000">AntennasModule</text>
</g>
<!-- AntennasModule&#45;&gt;AppModule -->
<g id="edge3" class="edge">
<title>AntennasModule&#45;&gt;AppModule</title>
<path fill="none" stroke="#000000" d="M1291,-122.2228C1291,-142.3652 1291,-172 1291,-172 1291,-172 863.6702,-172 863.6702,-172"/>
<polygon fill="#000000" stroke="#000000" points="863.6702,-168.5001 853.6702,-172 863.6701,-175.5001 863.6702,-168.5001"/>
</g>
<!-- AppRoutingModule -->
<g id="node5" class="node">
<title>AppRoutingModule</title>
<polygon fill="#8dd3c7" stroke="#000000" points="1216.2744,-122 1213.2744,-126 1192.2744,-126 1189.2744,-122 1087.7256,-122 1087.7256,-86 1216.2744,-86 1216.2744,-122"/>
<text text-anchor="middle" x="1152" y="-99.8" font-family="Times,serif" font-size="14.00" fill="#000000">AppRoutingModule</text>
</g>
<!-- AppRoutingModule&#45;&gt;AppModule -->
<g id="edge4" class="edge">
<title>AppRoutingModule&#45;&gt;AppModule</title>
<path fill="none" stroke="#000000" d="M1152,-122.2222C1152,-140.8285 1152,-167 1152,-167 1152,-167 863.6907,-167 863.6907,-167"/>
<polygon fill="#000000" stroke="#000000" points="863.6907,-163.5001 853.6907,-167 863.6906,-170.5001 863.6907,-163.5001"/>
</g>
<!-- AuthModule -->
<g id="node6" class="node">
<title>AuthModule</title>
<polygon fill="#8dd3c7" stroke="#000000" points="1069.5482,-122 1066.5482,-126 1045.5482,-126 1042.5482,-122 982.4518,-122 982.4518,-86 1069.5482,-86 1069.5482,-122"/>
<text text-anchor="middle" x="1026" y="-99.8" font-family="Times,serif" font-size="14.00" fill="#000000">AuthModule</text>
</g>
<!-- AuthModule&#45;&gt;AppModule -->
<g id="edge5" class="edge">
<title>AuthModule&#45;&gt;AppModule</title>
<path fill="none" stroke="#000000" d="M1026,-122.0336C1026,-139.0597 1026,-162 1026,-162 1026,-162 863.7694,-162 863.7694,-162"/>
<polygon fill="#000000" stroke="#000000" points="863.7694,-158.5001 853.7694,-162 863.7693,-165.5001 863.7694,-158.5001"/>
</g>
<!-- DataModule -->
<g id="node7" class="node">
<title>DataModule</title>
<polygon fill="#8dd3c7" stroke="#000000" points="963.9762,-122 960.9762,-126 939.9762,-126 936.9762,-122 878.0238,-122 878.0238,-86 963.9762,-86 963.9762,-122"/>
<text text-anchor="middle" x="921" y="-99.8" font-family="Times,serif" font-size="14.00" fill="#000000">DataModule</text>
</g>
<!-- DataModule&#45;&gt;AppModule -->
<g id="edge6" class="edge">
<title>DataModule&#45;&gt;AppModule</title>
<path fill="none" stroke="#000000" d="M921,-122.2396C921,-137.5706 921,-157 921,-157 921,-157 863.8305,-157 863.8305,-157"/>
<polygon fill="#000000" stroke="#000000" points="863.8305,-153.5001 853.8305,-157 863.8305,-160.5001 863.8305,-153.5001"/>
</g>
<!-- HealthModule -->
<g id="node8" class="node">
<title>HealthModule</title>
<polygon fill="#8dd3c7" stroke="#000000" points="860.3669,-122 857.3669,-126 836.3669,-126 833.3669,-122 763.6331,-122 763.6331,-86 860.3669,-86 860.3669,-122"/>
<text text-anchor="middle" x="812" y="-99.8" font-family="Times,serif" font-size="14.00" fill="#000000">HealthModule</text>
</g>
<!-- HealthModule&#45;&gt;AppModule -->
<g id="edge7" class="edge">
<title>HealthModule&#45;&gt;AppModule</title>
<path fill="none" stroke="#000000" d="M812,-122.1061C812,-122.1061 812,-140.991 812,-140.991"/>
<polygon fill="#000000" stroke="#000000" points="808.5001,-140.9909 812,-150.991 815.5001,-140.991 808.5001,-140.9909"/>
</g>
<!-- IasMaterialModule -->
<g id="node9" class="node">
<title>IasMaterialModule</title>
<polygon fill="#8dd3c7" stroke="#000000" points="745.7907,-122 742.7907,-126 721.7907,-126 718.7907,-122 622.2093,-122 622.2093,-86 745.7907,-86 745.7907,-122"/>
<text text-anchor="middle" x="684" y="-99.8" font-family="Times,serif" font-size="14.00" fill="#000000">IasMaterialModule</text>
</g>
<!-- IasMaterialModule&#45;&gt;AppModule -->
<g id="edge8" class="edge">
<title>IasMaterialModule&#45;&gt;AppModule</title>
<path fill="none" stroke="#000000" d="M684,-122.2396C684,-137.5706 684,-157 684,-157 684,-157 760.088,-157 760.088,-157"/>
<polygon fill="#000000" stroke="#000000" points="760.088,-160.5001 770.088,-157 760.088,-153.5001 760.088,-160.5001"/>
</g>
<!-- MapModule -->
<g id="node10" class="node">
<title>MapModule</title>
<polygon fill="#8dd3c7" stroke="#000000" points="604.7093,-122 601.7093,-126 580.7093,-126 577.7093,-122 519.2907,-122 519.2907,-86 604.7093,-86 604.7093,-122"/>
<text text-anchor="middle" x="562" y="-99.8" font-family="Times,serif" font-size="14.00" fill="#000000">MapModule</text>
</g>
<!-- MapModule&#45;&gt;AppModule -->
<g id="edge9" class="edge">
<title>MapModule&#45;&gt;AppModule</title>
<path fill="none" stroke="#000000" d="M562,-122.0336C562,-139.0597 562,-162 562,-162 562,-162 760.1556,-162 760.1556,-162"/>
<polygon fill="#000000" stroke="#000000" points="760.1557,-165.5001 770.1556,-162 760.1556,-158.5001 760.1557,-165.5001"/>
</g>
<!-- OverviewModule -->
<g id="node11" class="node">
<title>OverviewModule</title>
<polygon fill="#8dd3c7" stroke="#000000" points="501.2437,-122 498.2437,-126 477.2437,-126 474.2437,-122 386.7563,-122 386.7563,-86 501.2437,-86 501.2437,-122"/>
<text text-anchor="middle" x="444" y="-99.8" font-family="Times,serif" font-size="14.00" fill="#000000">OverviewModule</text>
</g>
<!-- OverviewModule&#45;&gt;AppModule -->
<g id="edge10" class="edge">
<title>OverviewModule&#45;&gt;AppModule</title>
<path fill="none" stroke="#000000" d="M444,-122.2222C444,-140.8285 444,-167 444,-167 444,-167 760.144,-167 760.144,-167"/>
<polygon fill="#000000" stroke="#000000" points="760.144,-170.5001 770.144,-167 760.144,-163.5001 760.144,-170.5001"/>
</g>
<!-- SharedModule -->
<g id="node12" class="node">
<title>SharedModule</title>
<polygon fill="#8dd3c7" stroke="#000000" points="368.4231,-122 365.4231,-126 344.4231,-126 341.4231,-122 269.5769,-122 269.5769,-86 368.4231,-86 368.4231,-122"/>
<text text-anchor="middle" x="319" y="-99.8" font-family="Times,serif" font-size="14.00" fill="#000000">SharedModule</text>
</g>
<!-- SharedModule&#45;&gt;AppModule -->
<g id="edge11" class="edge">
<title>SharedModule&#45;&gt;AppModule</title>
<path fill="none" stroke="#000000" d="M319,-122.2228C319,-142.3652 319,-172 319,-172 319,-172 759.9671,-172 759.9671,-172"/>
<polygon fill="#000000" stroke="#000000" points="759.9671,-175.5001 769.9671,-172 759.9671,-168.5001 759.9671,-175.5001"/>
</g>
<!-- TabularModule -->
<g id="node13" class="node">
<title>TabularModule</title>
<polygon fill="#8dd3c7" stroke="#000000" points="251.5828,-122 248.5828,-126 227.5828,-126 224.5828,-122 148.4172,-122 148.4172,-86 251.5828,-86 251.5828,-122"/>
<text text-anchor="middle" x="200" y="-99.8" font-family="Times,serif" font-size="14.00" fill="#000000">TabularModule</text>
</g>
<!-- TabularModule&#45;&gt;AppModule -->
<g id="edge12" class="edge">
<title>TabularModule&#45;&gt;AppModule</title>
<path fill="none" stroke="#000000" d="M200,-122.0449C200,-143.6623 200,-177 200,-177 200,-177 759.9348,-177 759.9348,-177"/>
<polygon fill="#000000" stroke="#000000" points="759.9348,-180.5001 769.9348,-177 759.9347,-173.5001 759.9348,-180.5001"/>
</g>
<!-- WeatherModule -->
<g id="node14" class="node">
<title>WeatherModule</title>
<polygon fill="#8dd3c7" stroke="#000000" points="130.4594,-122 127.4594,-126 106.4594,-126 103.4594,-122 23.5406,-122 23.5406,-86 130.4594,-86 130.4594,-122"/>
<text text-anchor="middle" x="77" y="-99.8" font-family="Times,serif" font-size="14.00" fill="#000000">WeatherModule</text>
</g>
<!-- WeatherModule&#45;&gt;AppModule -->
<g id="edge13" class="edge">
<title>WeatherModule&#45;&gt;AppModule</title>
<path fill="none" stroke="#000000" d="M77,-122.0908C77,-145.1328 77,-182 77,-182 77,-182 760.1107,-182 760.1107,-182"/>
<polygon fill="#000000" stroke="#000000" points="760.1107,-185.5001 770.1107,-182 760.1106,-178.5001 760.1107,-185.5001"/>
</g>
</g>
</svg>
