<?xml version="1.0" encoding="UTF-8" standalone="no"?>
<!DOCTYPE svg PUBLIC "-//W3C//DTD SVG 1.1//EN"
 "http://www.w3.org/Graphics/SVG/1.1/DTD/svg11.dtd">
<!-- Generated by graphviz version 2.40.1 (20161225.0304)
 -->
<!-- Title: dependencies Pages: 1 -->
<svg width="1023pt" height="284pt"
 viewBox="0.00 0.00 1023.00 284.00" xmlns="http://www.w3.org/2000/svg" xmlns:xlink="http://www.w3.org/1999/xlink">
<g id="graph0" class="graph" transform="scale(1 1) rotate(0) translate(4 280)">
<title>dependencies</title>
<polygon fill="#ffffff" stroke="transparent" points="-4,4 -4,-280 1019,-280 1019,4 -4,4"/>
<text text-anchor="start" x="486.5091" y="-42.4" font-family="sans-serif" font-weight="bold" font-size="14.00" fill="#000000">Legend</text>
<polygon fill="#ffffb3" stroke="transparent" points="273.5,-10 273.5,-30 293.5,-30 293.5,-10 273.5,-10"/>
<text text-anchor="start" x="297.129" y="-15.4" font-family="sans-serif" font-size="14.00" fill="#000000"> &#160;Declarations</text>
<polygon fill="#8dd3c7" stroke="transparent" points="386.5,-10 386.5,-30 406.5,-30 406.5,-10 386.5,-10"/>
<text text-anchor="start" x="410.2251" y="-15.4" font-family="sans-serif" font-size="14.00" fill="#000000"> &#160;Module</text>
<polygon fill="#80b1d3" stroke="transparent" points="472.5,-10 472.5,-30 492.5,-30 492.5,-10 472.5,-10"/>
<text text-anchor="start" x="496.2812" y="-15.4" font-family="sans-serif" font-size="14.00" fill="#000000"> &#160;Bootstrap</text>
<polygon fill="#fdb462" stroke="transparent" points="569.5,-10 569.5,-30 589.5,-30 589.5,-10 569.5,-10"/>
<text text-anchor="start" x="593.1732" y="-15.4" font-family="sans-serif" font-size="14.00" fill="#000000"> &#160;Providers</text>
<polygon fill="#fb8072" stroke="transparent" points="665.5,-10 665.5,-30 685.5,-30 685.5,-10 665.5,-10"/>
<text text-anchor="start" x="689.2258" y="-15.4" font-family="sans-serif" font-size="14.00" fill="#000000"> &#160;Exports</text>
<g id="clust1" class="cluster">
<title>cluster_AppModule</title>
<polygon fill="none" stroke="#000000" stroke-dasharray="1,5" points="8,-70 8,-268 1007,-268 1007,-70 8,-70"/>
</g>
<g id="clust2" class="cluster">
<title>cluster_AppModule_declarations</title>
<polygon fill="none" stroke="#000000" points="877,-78 877,-130 999,-130 999,-78 877,-78"/>
</g>
<g id="clust4" class="cluster">
<title>cluster_AppModule_imports</title>
<polygon fill="none" stroke="#000000" points="16,-78 16,-130 869,-130 869,-78 16,-78"/>
</g>
<g id="clust6" class="cluster">
<title>cluster_AppModule_bootstrap</title>
<polygon fill="none" stroke="#000000" points="450,-208 450,-260 574,-260 574,-208 450,-208"/>
</g>
<!-- AppComponent -->
<g id="node1" class="node">
<title>AppComponent</title>
<polygon fill="#ffffb3" stroke="#000000" points="990.9399,-122 885.0601,-122 885.0601,-86 990.9399,-86 990.9399,-122"/>
<text text-anchor="middle" x="938" y="-99.8" font-family="Times,serif" font-size="14.00" fill="#000000">AppComponent</text>
</g>
<!-- AppModule -->
<g id="node2" class="node">
<title>AppModule</title>
<polygon fill="#8dd3c7" stroke="#000000" points="553.6571,-187 550.6571,-191 529.6571,-191 526.6571,-187 470.3429,-187 470.3429,-151 553.6571,-151 553.6571,-187"/>
<text text-anchor="middle" x="512" y="-164.8" font-family="Times,serif" font-size="14.00" fill="#000000">AppModule</text>
</g>
<!-- AppComponent&#45;&gt;AppModule -->
<g id="edge1" class="edge">
<title>AppComponent&#45;&gt;AppModule</title>
<path fill="none" stroke="#000000" d="M938,-122.2921C938,-144.2057 938,-178 938,-178 938,-178 564.0124,-178 564.0124,-178"/>
<polygon fill="#000000" stroke="#000000" points="564.0124,-174.5001 554.0124,-178 564.0123,-181.5001 564.0124,-174.5001"/>
</g>
<!-- AppComponent  -->
<g id="node10" class="node">
<title>AppComponent </title>
<polygon fill="#80b1d3" stroke="#000000" points="566.439,-252 457.561,-252 457.561,-216 566.439,-216 566.439,-252"/>
<text text-anchor="middle" x="512" y="-229.8" font-family="Times,serif" font-size="14.00" fill="#000000">AppComponent </text>
</g>
<!-- AppModule&#45;&gt;AppComponent  -->
<g id="edge9" class="edge">
<title>AppModule&#45;&gt;AppComponent </title>
<path fill="none" stroke="#000000" stroke-dasharray="1,5" d="M512,-187.1061C512,-187.1061 512,-205.991 512,-205.991"/>
<polygon fill="#000000" stroke="#000000" points="508.5001,-205.9909 512,-215.991 515.5001,-205.991 508.5001,-205.9909"/>
</g>
<!-- DataModule -->
<g id="node3" class="node">
<title>DataModule</title>
<polygon fill="#8dd3c7" stroke="#000000" points="860.9762,-122 857.9762,-126 836.9762,-126 833.9762,-122 775.0238,-122 775.0238,-86 860.9762,-86 860.9762,-122"/>
<text text-anchor="middle" x="818" y="-99.8" font-family="Times,serif" font-size="14.00" fill="#000000">DataModule</text>
</g>
<!-- DataModule&#45;&gt;AppModule -->
<g id="edge2" class="edge">
<title>DataModule&#45;&gt;AppModule</title>
<path fill="none" stroke="#000000" d="M818,-122.1061C818,-141.3391 818,-169 818,-169 818,-169 563.9064,-169 563.9064,-169"/>
<polygon fill="#000000" stroke="#000000" points="563.9064,-165.5001 553.9064,-169 563.9063,-172.5001 563.9064,-165.5001"/>
</g>
<!-- HealthModule -->
<g id="node4" class="node">
<title>HealthModule</title>
<polygon fill="#8dd3c7" stroke="#000000" points="757.3669,-122 754.3669,-126 733.3669,-126 730.3669,-122 660.6331,-122 660.6331,-86 757.3669,-86 757.3669,-122"/>
<text text-anchor="middle" x="709" y="-99.8" font-family="Times,serif" font-size="14.00" fill="#000000">HealthModule</text>
</g>
<!-- HealthModule&#45;&gt;AppModule -->
<g id="edge3" class="edge">
<title>HealthModule&#45;&gt;AppModule</title>
<path fill="none" stroke="#000000" d="M709,-122.027C709,-138.3976 709,-160 709,-160 709,-160 563.7786,-160 563.7786,-160"/>
<polygon fill="#000000" stroke="#000000" points="563.7787,-156.5001 553.7786,-160 563.7786,-163.5001 563.7787,-156.5001"/>
</g>
<!-- IasMaterialModule -->
<g id="node5" class="node">
<title>IasMaterialModule</title>
<polygon fill="#8dd3c7" stroke="#000000" points="642.7907,-122 639.7907,-126 618.7907,-126 615.7907,-122 519.2093,-122 519.2093,-86 642.7907,-86 642.7907,-122"/>
<text text-anchor="middle" x="581" y="-99.8" font-family="Times,serif" font-size="14.00" fill="#000000">IasMaterialModule</text>
</g>
<!-- IasMaterialModule&#45;&gt;AppModule -->
<g id="edge4" class="edge">
<title>IasMaterialModule&#45;&gt;AppModule</title>
<path fill="none" stroke="#000000" d="M536.5915,-122.1061C536.5915,-122.1061 536.5915,-140.991 536.5915,-140.991"/>
<polygon fill="#000000" stroke="#000000" points="533.0916,-140.9909 536.5915,-150.991 540.0916,-140.991 533.0916,-140.9909"/>
</g>
<!-- OverviewModule -->
<g id="node6" class="node">
<title>OverviewModule</title>
<polygon fill="#8dd3c7" stroke="#000000" points="501.2437,-122 498.2437,-126 477.2437,-126 474.2437,-122 386.7563,-122 386.7563,-86 501.2437,-86 501.2437,-122"/>
<text text-anchor="middle" x="444" y="-99.8" font-family="Times,serif" font-size="14.00" fill="#000000">OverviewModule</text>
</g>
<!-- OverviewModule&#45;&gt;AppModule -->
<g id="edge5" class="edge">
<title>OverviewModule&#45;&gt;AppModule</title>
<path fill="none" stroke="#000000" d="M485.7718,-122.1061C485.7718,-122.1061 485.7718,-140.991 485.7718,-140.991"/>
<polygon fill="#000000" stroke="#000000" points="482.2718,-140.9909 485.7718,-150.991 489.2718,-140.991 482.2718,-140.9909"/>
</g>
<!-- SharedModule -->
<g id="node7" class="node">
<title>SharedModule</title>
<polygon fill="#8dd3c7" stroke="#000000" points="368.4231,-122 365.4231,-126 344.4231,-126 341.4231,-122 269.5769,-122 269.5769,-86 368.4231,-86 368.4231,-122"/>
<text text-anchor="middle" x="319" y="-99.8" font-family="Times,serif" font-size="14.00" fill="#000000">SharedModule</text>
</g>
<!-- SharedModule&#45;&gt;AppModule -->
<g id="edge6" class="edge">
<title>SharedModule&#45;&gt;AppModule</title>
<path fill="none" stroke="#000000" d="M319,-122.027C319,-138.3976 319,-160 319,-160 319,-160 460.1219,-160 460.1219,-160"/>
<polygon fill="#000000" stroke="#000000" points="460.1219,-163.5001 470.1219,-160 460.1218,-156.5001 460.1219,-163.5001"/>
</g>
<!-- TabularModule -->
<g id="node8" class="node">
<title>TabularModule</title>
<polygon fill="#8dd3c7" stroke="#000000" points="251.5828,-122 248.5828,-126 227.5828,-126 224.5828,-122 148.4172,-122 148.4172,-86 251.5828,-86 251.5828,-122"/>
<text text-anchor="middle" x="200" y="-99.8" font-family="Times,serif" font-size="14.00" fill="#000000">TabularModule</text>
</g>
<!-- TabularModule&#45;&gt;AppModule -->
<g id="edge7" class="edge">
<title>TabularModule&#45;&gt;AppModule</title>
<path fill="none" stroke="#000000" d="M200,-122.1061C200,-141.3391 200,-169 200,-169 200,-169 460.246,-169 460.246,-169"/>
<polygon fill="#000000" stroke="#000000" points="460.2461,-172.5001 470.246,-169 460.246,-165.5001 460.2461,-172.5001"/>
</g>
<!-- WeatherModule -->
<g id="node9" class="node">
<title>WeatherModule</title>
<polygon fill="#8dd3c7" stroke="#000000" points="130.4594,-122 127.4594,-126 106.4594,-126 103.4594,-122 23.5406,-122 23.5406,-86 130.4594,-86 130.4594,-122"/>
<text text-anchor="middle" x="77" y="-99.8" font-family="Times,serif" font-size="14.00" fill="#000000">WeatherModule</text>
</g>
<!-- WeatherModule&#45;&gt;AppModule -->
<g id="edge8" class="edge">
<title>WeatherModule&#45;&gt;AppModule</title>
<path fill="none" stroke="#000000" d="M77,-122.2921C77,-144.2057 77,-178 77,-178 77,-178 460.2904,-178 460.2904,-178"/>
<polygon fill="#000000" stroke="#000000" points="460.2904,-181.5001 470.2904,-178 460.2903,-174.5001 460.2904,-181.5001"/>
</g>
</g>
</svg>
