<?xml version="1.0" encoding="UTF-8" standalone="no"?>
<!DOCTYPE svg PUBLIC "-//W3C//DTD SVG 1.1//EN"
 "http://www.w3.org/Graphics/SVG/1.1/DTD/svg11.dtd">
<!-- Generated by graphviz version 2.40.1 (20161225.0304)
 -->
<!-- Title: dependencies Pages: 1 -->
<svg width="504pt" height="284pt"
 viewBox="0.00 0.00 504.00 284.00" xmlns="http://www.w3.org/2000/svg" xmlns:xlink="http://www.w3.org/1999/xlink">
<g id="graph0" class="graph" transform="scale(1 1) rotate(0) translate(4 280)">
<title>dependencies</title>
<polygon fill="#ffffff" stroke="transparent" points="-4,4 -4,-280 500,-280 500,4 -4,4"/>
<text text-anchor="start" x="227.0091" y="-42.4" font-family="sans-serif" font-weight="bold" font-size="14.00" fill="#000000">Legend</text>
<polygon fill="#ffffb3" stroke="transparent" points="14,-10 14,-30 34,-30 34,-10 14,-10"/>
<text text-anchor="start" x="37.629" y="-15.4" font-family="sans-serif" font-size="14.00" fill="#000000"> &#160;Declarations</text>
<polygon fill="#8dd3c7" stroke="transparent" points="127,-10 127,-30 147,-30 147,-10 127,-10"/>
<text text-anchor="start" x="150.7251" y="-15.4" font-family="sans-serif" font-size="14.00" fill="#000000"> &#160;Module</text>
<polygon fill="#80b1d3" stroke="transparent" points="213,-10 213,-30 233,-30 233,-10 213,-10"/>
<text text-anchor="start" x="236.7812" y="-15.4" font-family="sans-serif" font-size="14.00" fill="#000000"> &#160;Bootstrap</text>
<polygon fill="#fdb462" stroke="transparent" points="310,-10 310,-30 330,-30 330,-10 310,-10"/>
<text text-anchor="start" x="333.6732" y="-15.4" font-family="sans-serif" font-size="14.00" fill="#000000"> &#160;Providers</text>
<polygon fill="#fb8072" stroke="transparent" points="406,-10 406,-30 426,-30 426,-10 406,-10"/>
<text text-anchor="start" x="429.7258" y="-15.4" font-family="sans-serif" font-size="14.00" fill="#000000"> &#160;Exports</text>
<g id="clust1" class="cluster">
<title>cluster_HealthModule</title>
<polygon fill="none" stroke="#000000" stroke-dasharray="1,5" points="32,-70 32,-268 464,-268 464,-70 32,-70"/>
</g>
<g id="clust2" class="cluster">
<title>cluster_HealthModule_declarations</title>
<polygon fill="none" stroke="#000000" points="266,-78 266,-130 456,-130 456,-78 266,-78"/>
</g>
<g id="clust4" class="cluster">
<title>cluster_HealthModule_imports</title>
<polygon fill="none" stroke="#000000" points="40,-78 40,-130 258,-130 258,-78 40,-78"/>
</g>
<g id="clust5" class="cluster">
<title>cluster_HealthModule_exports</title>
<polygon fill="none" stroke="#000000" points="111,-208 111,-260 303,-260 303,-208 111,-208"/>
</g>
<!-- HealthSummaryComponent -->
<g id="node1" class="node">
<title>HealthSummaryComponent</title>
<polygon fill="#ffffb3" stroke="#000000" points="447.5884,-122 274.4116,-122 274.4116,-86 447.5884,-86 447.5884,-122"/>
<text text-anchor="middle" x="361" y="-99.8" font-family="Times,serif" font-size="14.00" fill="#000000">HealthSummaryComponent</text>
</g>
<!-- HealthModule -->
<g id="node2" class="node">
<title>HealthModule</title>
<polygon fill="#8dd3c7" stroke="#000000" points="255.3669,-187 252.3669,-191 231.3669,-191 228.3669,-187 158.6331,-187 158.6331,-151 255.3669,-151 255.3669,-187"/>
<text text-anchor="middle" x="207" y="-164.8" font-family="Times,serif" font-size="14.00" fill="#000000">HealthModule</text>
</g>
<!-- HealthSummaryComponent&#45;&gt;HealthModule -->
<g id="edge1" class="edge">
<title>HealthSummaryComponent&#45;&gt;HealthModule</title>
<path fill="none" stroke="#000000" d="M284.875,-122.1061C284.875,-141.3391 284.875,-169 284.875,-169 284.875,-169 265.4338,-169 265.4338,-169"/>
<polygon fill="#000000" stroke="#000000" points="265.4338,-165.5001 255.4338,-169 265.4338,-172.5001 265.4338,-165.5001"/>
</g>
<!-- HealthSummaryComponent  -->
<g id="node5" class="node">
<title>HealthSummaryComponent </title>
<polygon fill="#fb8072" stroke="#000000" points="295.0889,-252 118.9111,-252 118.9111,-216 295.0889,-216 295.0889,-252"/>
<text text-anchor="middle" x="207" y="-229.8" font-family="Times,serif" font-size="14.00" fill="#000000">HealthSummaryComponent </text>
</g>
<!-- HealthModule&#45;&gt;HealthSummaryComponent  -->
<g id="edge4" class="edge">
<title>HealthModule&#45;&gt;HealthSummaryComponent </title>
<path fill="none" stroke="#000000" stroke-dasharray="5,2" d="M207,-187.1061C207,-187.1061 207,-205.991 207,-205.991"/>
<polygon fill="#000000" stroke="#000000" points="203.5001,-205.9909 207,-215.991 210.5001,-205.991 203.5001,-205.9909"/>
</g>
<!-- DataModule -->
<g id="node3" class="node">
<title>DataModule</title>
<polygon fill="#8dd3c7" stroke="#000000" points="249.9762,-122 246.9762,-126 225.9762,-126 222.9762,-122 164.0238,-122 164.0238,-86 249.9762,-86 249.9762,-122"/>
<text text-anchor="middle" x="207" y="-99.8" font-family="Times,serif" font-size="14.00" fill="#000000">DataModule</text>
</g>
<!-- DataModule&#45;&gt;HealthModule -->
<g id="edge2" class="edge">
<title>DataModule&#45;&gt;HealthModule</title>
<path fill="none" stroke="#000000" d="M207,-122.1061C207,-122.1061 207,-140.991 207,-140.991"/>
<polygon fill="#000000" stroke="#000000" points="203.5001,-140.9909 207,-150.991 210.5001,-140.991 203.5001,-140.9909"/>
</g>
<!-- SharedModule -->
<g id="node4" class="node">
<title>SharedModule</title>
<polygon fill="#8dd3c7" stroke="#000000" points="146.4231,-122 143.4231,-126 122.4231,-126 119.4231,-122 47.5769,-122 47.5769,-86 146.4231,-86 146.4231,-122"/>
<text text-anchor="middle" x="97" y="-99.8" font-family="Times,serif" font-size="14.00" fill="#000000">SharedModule</text>
</g>
<!-- SharedModule&#45;&gt;HealthModule -->
<g id="edge3" class="edge">
<title>SharedModule&#45;&gt;HealthModule</title>
<path fill="none" stroke="#000000" d="M132.4585,-122.1061C132.4585,-141.3391 132.4585,-169 132.4585,-169 132.4585,-169 148.5295,-169 148.5295,-169"/>
<polygon fill="#000000" stroke="#000000" points="148.5295,-172.5001 158.5295,-169 148.5294,-165.5001 148.5295,-172.5001"/>
</g>
</g>
</svg>
