<?xml version="1.0" encoding="UTF-8" standalone="no"?>
<!DOCTYPE svg PUBLIC "-//W3C//DTD SVG 1.1//EN"
 "http://www.w3.org/Graphics/SVG/1.1/DTD/svg11.dtd">
<!-- Generated by graphviz version 2.40.1 (20161225.0304)
 -->
<!-- Title: dependencies Pages: 1 -->
<svg width="598pt" height="284pt"
 viewBox="0.00 0.00 598.00 284.00" xmlns="http://www.w3.org/2000/svg" xmlns:xlink="http://www.w3.org/1999/xlink">
<g id="graph0" class="graph" transform="scale(1 1) rotate(0) translate(4 280)">
<title>dependencies</title>
<polygon fill="#ffffff" stroke="transparent" points="-4,4 -4,-280 594,-280 594,4 -4,4"/>
<text text-anchor="start" x="274.0091" y="-42.4" font-family="sans-serif" font-weight="bold" font-size="14.00" fill="#000000">Legend</text>
<polygon fill="#ffffb3" stroke="transparent" points="61,-10 61,-30 81,-30 81,-10 61,-10"/>
<text text-anchor="start" x="84.629" y="-15.4" font-family="sans-serif" font-size="14.00" fill="#000000"> &#160;Declarations</text>
<polygon fill="#8dd3c7" stroke="transparent" points="174,-10 174,-30 194,-30 194,-10 174,-10"/>
<text text-anchor="start" x="197.7251" y="-15.4" font-family="sans-serif" font-size="14.00" fill="#000000"> &#160;Module</text>
<polygon fill="#80b1d3" stroke="transparent" points="260,-10 260,-30 280,-30 280,-10 260,-10"/>
<text text-anchor="start" x="283.7812" y="-15.4" font-family="sans-serif" font-size="14.00" fill="#000000"> &#160;Bootstrap</text>
<polygon fill="#fdb462" stroke="transparent" points="357,-10 357,-30 377,-30 377,-10 357,-10"/>
<text text-anchor="start" x="380.6732" y="-15.4" font-family="sans-serif" font-size="14.00" fill="#000000"> &#160;Providers</text>
<polygon fill="#fb8072" stroke="transparent" points="453,-10 453,-30 473,-30 473,-10 453,-10"/>
<text text-anchor="start" x="476.7258" y="-15.4" font-family="sans-serif" font-size="14.00" fill="#000000"> &#160;Exports</text>
<g id="clust1" class="cluster">
<title>cluster_HealthModule</title>
<polygon fill="none" stroke="#000000" stroke-dasharray="1,5" points="8,-70 8,-268 582,-268 582,-70 8,-70"/>
</g>
<g id="clust2" class="cluster">
<title>cluster_HealthModule_declarations</title>
<polygon fill="none" stroke="#000000" points="384,-78 384,-130 574,-130 574,-78 384,-78"/>
</g>
<g id="clust4" class="cluster">
<title>cluster_HealthModule_imports</title>
<polygon fill="none" stroke="#000000" points="16,-78 16,-130 376,-130 376,-78 16,-78"/>
</g>
<g id="clust5" class="cluster">
<title>cluster_HealthModule_exports</title>
<polygon fill="none" stroke="#000000" points="167,-208 167,-260 359,-260 359,-208 167,-208"/>
</g>
<!-- HealthSummaryComponent -->
<g id="node1" class="node">
<title>HealthSummaryComponent</title>
<polygon fill="#ffffb3" stroke="#000000" points="565.5884,-122 392.4116,-122 392.4116,-86 565.5884,-86 565.5884,-122"/>
<text text-anchor="middle" x="479" y="-99.8" font-family="Times,serif" font-size="14.00" fill="#000000">HealthSummaryComponent</text>
</g>
<!-- HealthModule -->
<g id="node2" class="node">
<title>HealthModule</title>
<polygon fill="#8dd3c7" stroke="#000000" points="311.3669,-187 308.3669,-191 287.3669,-191 284.3669,-187 214.6331,-187 214.6331,-151 311.3669,-151 311.3669,-187"/>
<text text-anchor="middle" x="263" y="-164.8" font-family="Times,serif" font-size="14.00" fill="#000000">HealthModule</text>
</g>
<!-- HealthSummaryComponent&#45;&gt;HealthModule -->
<g id="edge1" class="edge">
<title>HealthSummaryComponent&#45;&gt;HealthModule</title>
<path fill="none" stroke="#000000" d="M479,-122.1061C479,-141.3391 479,-169 479,-169 479,-169 321.4746,-169 321.4746,-169"/>
<polygon fill="#000000" stroke="#000000" points="321.4747,-165.5001 311.4746,-169 321.4746,-172.5001 321.4747,-165.5001"/>
</g>
<!-- HealthSummaryComponent  -->
<g id="node6" class="node">
<title>HealthSummaryComponent </title>
<polygon fill="#fb8072" stroke="#000000" points="351.0889,-252 174.9111,-252 174.9111,-216 351.0889,-216 351.0889,-252"/>
<text text-anchor="middle" x="263" y="-229.8" font-family="Times,serif" font-size="14.00" fill="#000000">HealthSummaryComponent </text>
</g>
<!-- HealthModule&#45;&gt;HealthSummaryComponent  -->
<g id="edge5" class="edge">
<title>HealthModule&#45;&gt;HealthSummaryComponent </title>
<path fill="none" stroke="#000000" stroke-dasharray="5,2" d="M263,-187.1061C263,-187.1061 263,-205.991 263,-205.991"/>
<polygon fill="#000000" stroke="#000000" points="259.5001,-205.9909 263,-215.991 266.5001,-205.991 259.5001,-205.9909"/>
</g>
<!-- DataModule -->
<g id="node3" class="node">
<title>DataModule</title>
<polygon fill="#8dd3c7" stroke="#000000" points="367.9762,-122 364.9762,-126 343.9762,-126 340.9762,-122 282.0238,-122 282.0238,-86 367.9762,-86 367.9762,-122"/>
<text text-anchor="middle" x="325" y="-99.8" font-family="Times,serif" font-size="14.00" fill="#000000">DataModule</text>
</g>
<!-- DataModule&#45;&gt;HealthModule -->
<g id="edge2" class="edge">
<title>DataModule&#45;&gt;HealthModule</title>
<path fill="none" stroke="#000000" d="M296.7227,-122.1061C296.7227,-122.1061 296.7227,-140.991 296.7227,-140.991"/>
<polygon fill="#000000" stroke="#000000" points="293.2227,-140.9909 296.7227,-150.991 300.2227,-140.991 293.2227,-140.9909"/>
</g>
<!-- IasMaterialModule -->
<g id="node4" class="node">
<title>IasMaterialModule</title>
<polygon fill="#8dd3c7" stroke="#000000" points="263.7907,-122 260.7907,-126 239.7907,-126 236.7907,-122 140.2093,-122 140.2093,-86 263.7907,-86 263.7907,-122"/>
<text text-anchor="middle" x="202" y="-99.8" font-family="Times,serif" font-size="14.00" fill="#000000">IasMaterialModule</text>
</g>
<!-- IasMaterialModule&#45;&gt;HealthModule -->
<g id="edge3" class="edge">
<title>IasMaterialModule&#45;&gt;HealthModule</title>
<path fill="none" stroke="#000000" d="M239.1059,-122.1061C239.1059,-122.1061 239.1059,-140.991 239.1059,-140.991"/>
<polygon fill="#000000" stroke="#000000" points="235.606,-140.9909 239.1059,-150.991 242.606,-140.991 235.606,-140.9909"/>
</g>
<!-- SharedModule -->
<g id="node5" class="node">
<title>SharedModule</title>
<polygon fill="#8dd3c7" stroke="#000000" points="122.4231,-122 119.4231,-126 98.4231,-126 95.4231,-122 23.5769,-122 23.5769,-86 122.4231,-86 122.4231,-122"/>
<text text-anchor="middle" x="73" y="-99.8" font-family="Times,serif" font-size="14.00" fill="#000000">SharedModule</text>
</g>
<!-- SharedModule&#45;&gt;HealthModule -->
<g id="edge4" class="edge">
<title>SharedModule&#45;&gt;HealthModule</title>
<path fill="none" stroke="#000000" d="M73,-122.1061C73,-141.3391 73,-169 73,-169 73,-169 204.5634,-169 204.5634,-169"/>
<polygon fill="#000000" stroke="#000000" points="204.5634,-172.5001 214.5634,-169 204.5633,-165.5001 204.5634,-172.5001"/>
</g>
</g>
</svg>
