<?xml version="1.0" encoding="UTF-8" standalone="no"?>
<!DOCTYPE svg PUBLIC "-//W3C//DTD SVG 1.1//EN"
 "http://www.w3.org/Graphics/SVG/1.1/DTD/svg11.dtd">
<!-- Generated by graphviz version 2.40.1 (20161225.0304)
 -->
<!-- Title: dependencies Pages: 1 -->
<svg width="782pt" height="284pt"
 viewBox="0.00 0.00 782.00 284.00" xmlns="http://www.w3.org/2000/svg" xmlns:xlink="http://www.w3.org/1999/xlink">
<g id="graph0" class="graph" transform="scale(1 1) rotate(0) translate(4 280)">
<title>dependencies</title>
<polygon fill="#ffffff" stroke="transparent" points="-4,4 -4,-280 778,-280 778,4 -4,4"/>
<text text-anchor="start" x="366.0091" y="-42.4" font-family="sans-serif" font-weight="bold" font-size="14.00" fill="#000000">Legend</text>
<polygon fill="#ffffb3" stroke="transparent" points="153,-10 153,-30 173,-30 173,-10 153,-10"/>
<text text-anchor="start" x="176.629" y="-15.4" font-family="sans-serif" font-size="14.00" fill="#000000"> &#160;Declarations</text>
<polygon fill="#8dd3c7" stroke="transparent" points="266,-10 266,-30 286,-30 286,-10 266,-10"/>
<text text-anchor="start" x="289.7251" y="-15.4" font-family="sans-serif" font-size="14.00" fill="#000000"> &#160;Module</text>
<polygon fill="#80b1d3" stroke="transparent" points="352,-10 352,-30 372,-30 372,-10 352,-10"/>
<text text-anchor="start" x="375.7812" y="-15.4" font-family="sans-serif" font-size="14.00" fill="#000000"> &#160;Bootstrap</text>
<polygon fill="#fdb462" stroke="transparent" points="449,-10 449,-30 469,-30 469,-10 449,-10"/>
<text text-anchor="start" x="472.6732" y="-15.4" font-family="sans-serif" font-size="14.00" fill="#000000"> &#160;Providers</text>
<polygon fill="#fb8072" stroke="transparent" points="545,-10 545,-30 565,-30 565,-10 545,-10"/>
<text text-anchor="start" x="568.7258" y="-15.4" font-family="sans-serif" font-size="14.00" fill="#000000"> &#160;Exports</text>
<g id="clust1" class="cluster">
<title>cluster_TabularModule</title>
<polygon fill="none" stroke="#000000" stroke-dasharray="1,5" points="8,-70 8,-268 766,-268 766,-70 8,-70"/>
</g>
<g id="clust2" class="cluster">
<title>cluster_TabularModule_declarations</title>
<polygon fill="none" stroke="#000000" points="280,-78 280,-130 758,-130 758,-78 280,-78"/>
</g>
<g id="clust6" class="cluster">
<title>cluster_TabularModule_imports</title>
<polygon fill="none" stroke="#000000" points="16,-78 16,-130 272,-130 272,-78 16,-78"/>
</g>
<g id="clust7" class="cluster">
<title>cluster_TabularModule_exports</title>
<polygon fill="none" stroke="#000000" points="279,-208 279,-260 453,-260 453,-208 279,-208"/>
</g>
<!-- LegendComponent -->
<g id="node1" class="node">
<title>LegendComponent</title>
<polygon fill="#ffffb3" stroke="#000000" points="749.8146,-122 626.1854,-122 626.1854,-86 749.8146,-86 749.8146,-122"/>
<text text-anchor="middle" x="688" y="-99.8" font-family="Times,serif" font-size="14.00" fill="#000000">LegendComponent</text>
</g>
<!-- TabularModule -->
<g id="node4" class="node">
<title>TabularModule</title>
<polygon fill="#8dd3c7" stroke="#000000" points="417.5828,-187 414.5828,-191 393.5828,-191 390.5828,-187 314.4172,-187 314.4172,-151 417.5828,-151 417.5828,-187"/>
<text text-anchor="middle" x="366" y="-164.8" font-family="Times,serif" font-size="14.00" fill="#000000">TabularModule</text>
</g>
<!-- LegendComponent&#45;&gt;TabularModule -->
<g id="edge1" class="edge">
<title>LegendComponent&#45;&gt;TabularModule</title>
<path fill="none" stroke="#000000" d="M688,-122.2843C688,-143.3211 688,-175 688,-175 688,-175 427.7349,-175 427.7349,-175"/>
<polygon fill="#000000" stroke="#000000" points="427.7349,-171.5001 417.7349,-175 427.7348,-178.5001 427.7349,-171.5001"/>
</g>
<!-- StatusViewComponent -->
<g id="node2" class="node">
<title>StatusViewComponent</title>
<polygon fill="#ffffb3" stroke="#000000" points="607.8739,-122 462.1261,-122 462.1261,-86 607.8739,-86 607.8739,-122"/>
<text text-anchor="middle" x="535" y="-99.8" font-family="Times,serif" font-size="14.00" fill="#000000">StatusViewComponent</text>
</g>
<!-- StatusViewComponent&#45;&gt;TabularModule -->
<g id="edge2" class="edge">
<title>StatusViewComponent&#45;&gt;TabularModule</title>
<path fill="none" stroke="#000000" d="M535,-122.0225C535,-139.3734 535,-163 535,-163 535,-163 427.6239,-163 427.6239,-163"/>
<polygon fill="#000000" stroke="#000000" points="427.6239,-159.5001 417.6239,-163 427.6238,-166.5001 427.6239,-159.5001"/>
</g>
<!-- TabularViewComponent -->
<g id="node3" class="node">
<title>TabularViewComponent</title>
<polygon fill="#ffffb3" stroke="#000000" points="443.6839,-122 288.3161,-122 288.3161,-86 443.6839,-86 443.6839,-122"/>
<text text-anchor="middle" x="366" y="-99.8" font-family="Times,serif" font-size="14.00" fill="#000000">TabularViewComponent</text>
</g>
<!-- TabularViewComponent&#45;&gt;TabularModule -->
<g id="edge3" class="edge">
<title>TabularViewComponent&#45;&gt;TabularModule</title>
<path fill="none" stroke="#000000" d="M366,-122.1061C366,-122.1061 366,-140.991 366,-140.991"/>
<polygon fill="#000000" stroke="#000000" points="362.5001,-140.9909 366,-150.991 369.5001,-140.991 362.5001,-140.9909"/>
</g>
<!-- TabularViewComponent  -->
<g id="node7" class="node">
<title>TabularViewComponent </title>
<polygon fill="#fb8072" stroke="#000000" points="445.1841,-252 286.8159,-252 286.8159,-216 445.1841,-216 445.1841,-252"/>
<text text-anchor="middle" x="366" y="-229.8" font-family="Times,serif" font-size="14.00" fill="#000000">TabularViewComponent </text>
</g>
<!-- TabularModule&#45;&gt;TabularViewComponent  -->
<g id="edge6" class="edge">
<title>TabularModule&#45;&gt;TabularViewComponent </title>
<path fill="none" stroke="#000000" stroke-dasharray="5,2" d="M366,-187.1061C366,-187.1061 366,-205.991 366,-205.991"/>
<polygon fill="#000000" stroke="#000000" points="362.5001,-205.9909 366,-215.991 369.5001,-205.991 362.5001,-205.9909"/>
</g>
<!-- IasMaterialModule -->
<g id="node5" class="node">
<title>IasMaterialModule</title>
<polygon fill="#8dd3c7" stroke="#000000" points="263.7907,-122 260.7907,-126 239.7907,-126 236.7907,-122 140.2093,-122 140.2093,-86 263.7907,-86 263.7907,-122"/>
<text text-anchor="middle" x="202" y="-99.8" font-family="Times,serif" font-size="14.00" fill="#000000">IasMaterialModule</text>
</g>
<!-- IasMaterialModule&#45;&gt;TabularModule -->
<g id="edge4" class="edge">
<title>IasMaterialModule&#45;&gt;TabularModule</title>
<path fill="none" stroke="#000000" d="M202,-122.0225C202,-139.3734 202,-163 202,-163 202,-163 304.1094,-163 304.1094,-163"/>
<polygon fill="#000000" stroke="#000000" points="304.1094,-166.5001 314.1094,-163 304.1093,-159.5001 304.1094,-166.5001"/>
</g>
<!-- SharedModule -->
<g id="node6" class="node">
<title>SharedModule</title>
<polygon fill="#8dd3c7" stroke="#000000" points="122.4231,-122 119.4231,-126 98.4231,-126 95.4231,-122 23.5769,-122 23.5769,-86 122.4231,-86 122.4231,-122"/>
<text text-anchor="middle" x="73" y="-99.8" font-family="Times,serif" font-size="14.00" fill="#000000">SharedModule</text>
</g>
<!-- SharedModule&#45;&gt;TabularModule -->
<g id="edge5" class="edge">
<title>SharedModule&#45;&gt;TabularModule</title>
<path fill="none" stroke="#000000" d="M73,-122.2843C73,-143.3211 73,-175 73,-175 73,-175 304.2919,-175 304.2919,-175"/>
<polygon fill="#000000" stroke="#000000" points="304.292,-178.5001 314.2919,-175 304.2919,-171.5001 304.292,-178.5001"/>
</g>
</g>
</svg>
