<?xml version="1.0" encoding="UTF-8" standalone="no"?>
<!DOCTYPE svg PUBLIC "-//W3C//DTD SVG 1.1//EN"
 "http://www.w3.org/Graphics/SVG/1.1/DTD/svg11.dtd">
<!-- Generated by graphviz version 2.40.1 (20161225.0304)
 -->
<!-- Title: dependencies Pages: 1 -->
<svg width="869pt" height="284pt"
 viewBox="0.00 0.00 869.00 284.00" xmlns="http://www.w3.org/2000/svg" xmlns:xlink="http://www.w3.org/1999/xlink">
<g id="graph0" class="graph" transform="scale(1 1) rotate(0) translate(4 280)">
<title>dependencies</title>
<polygon fill="#ffffff" stroke="transparent" points="-4,4 -4,-280 865,-280 865,4 -4,4"/>
<text text-anchor="start" x="409.5091" y="-42.4" font-family="sans-serif" font-weight="bold" font-size="14.00" fill="#000000">Legend</text>
<polygon fill="#ffffb3" stroke="transparent" points="196.5,-10 196.5,-30 216.5,-30 216.5,-10 196.5,-10"/>
<text text-anchor="start" x="220.129" y="-15.4" font-family="sans-serif" font-size="14.00" fill="#000000"> &#160;Declarations</text>
<polygon fill="#8dd3c7" stroke="transparent" points="309.5,-10 309.5,-30 329.5,-30 329.5,-10 309.5,-10"/>
<text text-anchor="start" x="333.2251" y="-15.4" font-family="sans-serif" font-size="14.00" fill="#000000"> &#160;Module</text>
<polygon fill="#80b1d3" stroke="transparent" points="395.5,-10 395.5,-30 415.5,-30 415.5,-10 395.5,-10"/>
<text text-anchor="start" x="419.2812" y="-15.4" font-family="sans-serif" font-size="14.00" fill="#000000"> &#160;Bootstrap</text>
<polygon fill="#fdb462" stroke="transparent" points="492.5,-10 492.5,-30 512.5,-30 512.5,-10 492.5,-10"/>
<text text-anchor="start" x="516.1732" y="-15.4" font-family="sans-serif" font-size="14.00" fill="#000000"> &#160;Providers</text>
<polygon fill="#fb8072" stroke="transparent" points="588.5,-10 588.5,-30 608.5,-30 608.5,-10 588.5,-10"/>
<text text-anchor="start" x="612.2258" y="-15.4" font-family="sans-serif" font-size="14.00" fill="#000000"> &#160;Exports</text>
<g id="clust1" class="cluster">
<title>cluster_TabularModule</title>
<polygon fill="none" stroke="#000000" stroke-dasharray="1,5" points="8,-70 8,-268 853,-268 853,-70 8,-70"/>
</g>
<g id="clust2" class="cluster">
<title>cluster_TabularModule_declarations</title>
<polygon fill="none" stroke="#000000" points="401,-78 401,-130 845,-130 845,-78 401,-78"/>
</g>
<g id="clust6" class="cluster">
<title>cluster_TabularModule_imports</title>
<polygon fill="none" stroke="#000000" points="16,-78 16,-130 393,-130 393,-78 16,-78"/>
</g>
<g id="clust7" class="cluster">
<title>cluster_TabularModule_exports</title>
<polygon fill="none" stroke="#000000" points="344,-208 344,-260 476,-260 476,-208 344,-208"/>
</g>
<!-- LegendComponent -->
<g id="node1" class="node">
<title>LegendComponent</title>
<polygon fill="#ffffb3" stroke="#000000" points="836.8146,-122 713.1854,-122 713.1854,-86 836.8146,-86 836.8146,-122"/>
<text text-anchor="middle" x="775" y="-99.8" font-family="Times,serif" font-size="14.00" fill="#000000">LegendComponent</text>
</g>
<!-- TabularModule -->
<g id="node4" class="node">
<title>TabularModule</title>
<polygon fill="#8dd3c7" stroke="#000000" points="461.5828,-187 458.5828,-191 437.5828,-191 434.5828,-187 358.4172,-187 358.4172,-151 461.5828,-151 461.5828,-187"/>
<text text-anchor="middle" x="410" y="-164.8" font-family="Times,serif" font-size="14.00" fill="#000000">TabularModule</text>
</g>
<!-- LegendComponent&#45;&gt;TabularModule -->
<g id="edge1" class="edge">
<title>LegendComponent&#45;&gt;TabularModule</title>
<path fill="none" stroke="#000000" d="M775,-122.2843C775,-143.3211 775,-175 775,-175 775,-175 471.908,-175 471.908,-175"/>
<polygon fill="#000000" stroke="#000000" points="471.908,-171.5001 461.908,-175 471.9079,-178.5001 471.908,-171.5001"/>
</g>
<!-- TableComponent -->
<g id="node2" class="node">
<title>TableComponent</title>
<polygon fill="#ffffb3" stroke="#000000" points="695.705,-122 582.295,-122 582.295,-86 695.705,-86 695.705,-122"/>
<text text-anchor="middle" x="639" y="-99.8" font-family="Times,serif" font-size="14.00" fill="#000000">TableComponent</text>
</g>
<!-- TableComponent&#45;&gt;TabularModule -->
<g id="edge2" class="edge">
<title>TableComponent&#45;&gt;TabularModule</title>
<path fill="none" stroke="#000000" d="M639,-122.0225C639,-139.3734 639,-163 639,-163 639,-163 471.6776,-163 471.6776,-163"/>
<polygon fill="#000000" stroke="#000000" points="471.6776,-159.5001 461.6776,-163 471.6776,-166.5001 471.6776,-159.5001"/>
</g>
<!-- TabularViewComponent -->
<g id="node3" class="node">
<title>TabularViewComponent</title>
<polygon fill="#ffffb3" stroke="#000000" points="564.6839,-122 409.3161,-122 409.3161,-86 564.6839,-86 564.6839,-122"/>
<text text-anchor="middle" x="487" y="-99.8" font-family="Times,serif" font-size="14.00" fill="#000000">TabularViewComponent</text>
</g>
<!-- TabularViewComponent&#45;&gt;TabularModule -->
<g id="edge3" class="edge">
<title>TabularViewComponent&#45;&gt;TabularModule</title>
<path fill="none" stroke="#000000" d="M435.4748,-122.1061C435.4748,-122.1061 435.4748,-140.991 435.4748,-140.991"/>
<polygon fill="#000000" stroke="#000000" points="431.9748,-140.9909 435.4748,-150.991 438.9748,-140.991 431.9748,-140.9909"/>
</g>
<!-- TableComponent  -->
<g id="node8" class="node">
<title>TableComponent </title>
<polygon fill="#fb8072" stroke="#000000" points="468.2052,-252 351.7948,-252 351.7948,-216 468.2052,-216 468.2052,-252"/>
<text text-anchor="middle" x="410" y="-229.8" font-family="Times,serif" font-size="14.00" fill="#000000">TableComponent </text>
</g>
<!-- TabularModule&#45;&gt;TableComponent  -->
<g id="edge7" class="edge">
<title>TabularModule&#45;&gt;TableComponent </title>
<path fill="none" stroke="#000000" stroke-dasharray="5,2" d="M410,-187.1061C410,-187.1061 410,-205.991 410,-205.991"/>
<polygon fill="#000000" stroke="#000000" points="406.5001,-205.9909 410,-215.991 413.5001,-205.991 406.5001,-205.9909"/>
</g>
<!-- ActionsModule -->
<g id="node5" class="node">
<title>ActionsModule</title>
<polygon fill="#8dd3c7" stroke="#000000" points="384.5968,-122 381.5968,-126 360.5968,-126 357.5968,-122 281.4032,-122 281.4032,-86 384.5968,-86 384.5968,-122"/>
<text text-anchor="middle" x="333" y="-99.8" font-family="Times,serif" font-size="14.00" fill="#000000">ActionsModule</text>
</g>
<!-- ActionsModule&#45;&gt;TabularModule -->
<g id="edge4" class="edge">
<title>ActionsModule&#45;&gt;TabularModule</title>
<path fill="none" stroke="#000000" d="M371.5035,-122.1061C371.5035,-122.1061 371.5035,-140.991 371.5035,-140.991"/>
<polygon fill="#000000" stroke="#000000" points="368.0036,-140.9909 371.5035,-150.991 375.0036,-140.991 368.0036,-140.9909"/>
</g>
<!-- IasMaterialModule -->
<g id="node6" class="node">
<title>IasMaterialModule</title>
<polygon fill="#8dd3c7" stroke="#000000" points="263.7907,-122 260.7907,-126 239.7907,-126 236.7907,-122 140.2093,-122 140.2093,-86 263.7907,-86 263.7907,-122"/>
<text text-anchor="middle" x="202" y="-99.8" font-family="Times,serif" font-size="14.00" fill="#000000">IasMaterialModule</text>
</g>
<!-- IasMaterialModule&#45;&gt;TabularModule -->
<g id="edge5" class="edge">
<title>IasMaterialModule&#45;&gt;TabularModule</title>
<path fill="none" stroke="#000000" d="M202,-122.0225C202,-139.3734 202,-163 202,-163 202,-163 348.317,-163 348.317,-163"/>
<polygon fill="#000000" stroke="#000000" points="348.3171,-166.5001 358.317,-163 348.317,-159.5001 348.3171,-166.5001"/>
</g>
<!-- SharedModule -->
<g id="node7" class="node">
<title>SharedModule</title>
<polygon fill="#8dd3c7" stroke="#000000" points="122.4231,-122 119.4231,-126 98.4231,-126 95.4231,-122 23.5769,-122 23.5769,-86 122.4231,-86 122.4231,-122"/>
<text text-anchor="middle" x="73" y="-99.8" font-family="Times,serif" font-size="14.00" fill="#000000">SharedModule</text>
</g>
<!-- SharedModule&#45;&gt;TabularModule -->
<g id="edge6" class="edge">
<title>SharedModule&#45;&gt;TabularModule</title>
<path fill="none" stroke="#000000" d="M73,-122.2843C73,-143.3211 73,-175 73,-175 73,-175 348.4501,-175 348.4501,-175"/>
<polygon fill="#000000" stroke="#000000" points="348.4501,-178.5001 358.4501,-175 348.4501,-171.5001 348.4501,-178.5001"/>
</g>
</g>
</svg>
