<?xml version="1.0" encoding="UTF-8" standalone="no"?>
<!DOCTYPE svg PUBLIC "-//W3C//DTD SVG 1.1//EN"
 "http://www.w3.org/Graphics/SVG/1.1/DTD/svg11.dtd">
<!-- Generated by graphviz version 2.40.1 (20161225.0304)
 -->
<!-- Title: dependencies Pages: 1 -->
<svg width="738pt" height="284pt"
 viewBox="0.00 0.00 738.00 284.00" xmlns="http://www.w3.org/2000/svg" xmlns:xlink="http://www.w3.org/1999/xlink">
<g id="graph0" class="graph" transform="scale(1 1) rotate(0) translate(4 280)">
<title>dependencies</title>
<polygon fill="#ffffff" stroke="transparent" points="-4,4 -4,-280 734,-280 734,4 -4,4"/>
<text text-anchor="start" x="344.0091" y="-42.4" font-family="sans-serif" font-weight="bold" font-size="14.00" fill="#000000">Legend</text>
<polygon fill="#ffffb3" stroke="transparent" points="131,-10 131,-30 151,-30 151,-10 131,-10"/>
<text text-anchor="start" x="154.629" y="-15.4" font-family="sans-serif" font-size="14.00" fill="#000000"> &#160;Declarations</text>
<polygon fill="#8dd3c7" stroke="transparent" points="244,-10 244,-30 264,-30 264,-10 244,-10"/>
<text text-anchor="start" x="267.7251" y="-15.4" font-family="sans-serif" font-size="14.00" fill="#000000"> &#160;Module</text>
<polygon fill="#80b1d3" stroke="transparent" points="330,-10 330,-30 350,-30 350,-10 330,-10"/>
<text text-anchor="start" x="353.7812" y="-15.4" font-family="sans-serif" font-size="14.00" fill="#000000"> &#160;Bootstrap</text>
<polygon fill="#fdb462" stroke="transparent" points="427,-10 427,-30 447,-30 447,-10 427,-10"/>
<text text-anchor="start" x="450.6732" y="-15.4" font-family="sans-serif" font-size="14.00" fill="#000000"> &#160;Providers</text>
<polygon fill="#fb8072" stroke="transparent" points="523,-10 523,-30 543,-30 543,-10 523,-10"/>
<text text-anchor="start" x="546.7258" y="-15.4" font-family="sans-serif" font-size="14.00" fill="#000000"> &#160;Exports</text>
<g id="clust1" class="cluster">
<title>cluster_TabularModule</title>
<polygon fill="none" stroke="#000000" stroke-dasharray="1,5" points="8,-70 8,-268 722,-268 722,-70 8,-70"/>
</g>
<g id="clust2" class="cluster">
<title>cluster_TabularModule_declarations</title>
<polygon fill="none" stroke="#000000" points="401,-78 401,-130 714,-130 714,-78 401,-78"/>
</g>
<g id="clust5" class="cluster">
<title>cluster_TabularModule_imports</title>
<polygon fill="none" stroke="#000000" points="16,-78 16,-130 393,-130 393,-78 16,-78"/>
</g>
<g id="clust6" class="cluster">
<title>cluster_TabularModule_exports</title>
<polygon fill="none" stroke="#000000" points="246,-208 246,-260 420,-260 420,-208 246,-208"/>
</g>
<!-- LegendComponent -->
<g id="node1" class="node">
<title>LegendComponent</title>
<polygon fill="#ffffb3" stroke="#000000" points="705.8146,-122 582.1854,-122 582.1854,-86 705.8146,-86 705.8146,-122"/>
<text text-anchor="middle" x="644" y="-99.8" font-family="Times,serif" font-size="14.00" fill="#000000">LegendComponent</text>
</g>
<!-- TabularModule -->
<g id="node3" class="node">
<title>TabularModule</title>
<polygon fill="#8dd3c7" stroke="#000000" points="384.5828,-187 381.5828,-191 360.5828,-191 357.5828,-187 281.4172,-187 281.4172,-151 384.5828,-151 384.5828,-187"/>
<text text-anchor="middle" x="333" y="-164.8" font-family="Times,serif" font-size="14.00" fill="#000000">TabularModule</text>
</g>
<!-- LegendComponent&#45;&gt;TabularModule -->
<g id="edge1" class="edge">
<title>LegendComponent&#45;&gt;TabularModule</title>
<path fill="none" stroke="#000000" d="M644,-122.2843C644,-143.3211 644,-175 644,-175 644,-175 394.7044,-175 394.7044,-175"/>
<polygon fill="#000000" stroke="#000000" points="394.7045,-171.5001 384.7044,-175 394.7044,-178.5001 394.7045,-171.5001"/>
</g>
<!-- TabularViewComponent -->
<g id="node2" class="node">
<title>TabularViewComponent</title>
<polygon fill="#ffffb3" stroke="#000000" points="564.6839,-122 409.3161,-122 409.3161,-86 564.6839,-86 564.6839,-122"/>
<text text-anchor="middle" x="487" y="-99.8" font-family="Times,serif" font-size="14.00" fill="#000000">TabularViewComponent</text>
</g>
<!-- TabularViewComponent&#45;&gt;TabularModule -->
<g id="edge2" class="edge">
<title>TabularViewComponent&#45;&gt;TabularModule</title>
<path fill="none" stroke="#000000" d="M488.4669,-122.0225C488.4669,-139.3734 488.4669,-163 488.4669,-163 488.4669,-163 394.7682,-163 394.7682,-163"/>
<polygon fill="#000000" stroke="#000000" points="394.7683,-159.5001 384.7682,-163 394.7682,-166.5001 394.7683,-159.5001"/>
</g>
<!-- TabularViewComponent  -->
<g id="node7" class="node">
<title>TabularViewComponent </title>
<polygon fill="#fb8072" stroke="#000000" points="412.1841,-252 253.8159,-252 253.8159,-216 412.1841,-216 412.1841,-252"/>
<text text-anchor="middle" x="333" y="-229.8" font-family="Times,serif" font-size="14.00" fill="#000000">TabularViewComponent </text>
</g>
<!-- TabularModule&#45;&gt;TabularViewComponent  -->
<g id="edge6" class="edge">
<title>TabularModule&#45;&gt;TabularViewComponent </title>
<path fill="none" stroke="#000000" stroke-dasharray="5,2" d="M333,-187.1061C333,-187.1061 333,-205.991 333,-205.991"/>
<polygon fill="#000000" stroke="#000000" points="329.5001,-205.9909 333,-215.991 336.5001,-205.991 329.5001,-205.9909"/>
</g>
<!-- ActionsModule -->
<g id="node4" class="node">
<title>ActionsModule</title>
<polygon fill="#8dd3c7" stroke="#000000" points="384.5968,-122 381.5968,-126 360.5968,-126 357.5968,-122 281.4032,-122 281.4032,-86 384.5968,-86 384.5968,-122"/>
<text text-anchor="middle" x="333" y="-99.8" font-family="Times,serif" font-size="14.00" fill="#000000">ActionsModule</text>
</g>
<!-- ActionsModule&#45;&gt;TabularModule -->
<g id="edge3" class="edge">
<title>ActionsModule&#45;&gt;TabularModule</title>
<path fill="none" stroke="#000000" d="M333,-122.1061C333,-122.1061 333,-140.991 333,-140.991"/>
<polygon fill="#000000" stroke="#000000" points="329.5001,-140.9909 333,-150.991 336.5001,-140.991 329.5001,-140.9909"/>
</g>
<!-- IasMaterialModule -->
<g id="node5" class="node">
<title>IasMaterialModule</title>
<polygon fill="#8dd3c7" stroke="#000000" points="263.7907,-122 260.7907,-126 239.7907,-126 236.7907,-122 140.2093,-122 140.2093,-86 263.7907,-86 263.7907,-122"/>
<text text-anchor="middle" x="202" y="-99.8" font-family="Times,serif" font-size="14.00" fill="#000000">IasMaterialModule</text>
</g>
<!-- IasMaterialModule&#45;&gt;TabularModule -->
<g id="edge4" class="edge">
<title>IasMaterialModule&#45;&gt;TabularModule</title>
<path fill="none" stroke="#000000" d="M258.6517,-122.0225C258.6517,-139.3734 258.6517,-163 258.6517,-163 258.6517,-163 271.3626,-163 271.3626,-163"/>
<polygon fill="#000000" stroke="#000000" points="271.3626,-166.5001 281.3626,-163 271.3626,-159.5001 271.3626,-166.5001"/>
</g>
<!-- SharedModule -->
<g id="node6" class="node">
<title>SharedModule</title>
<polygon fill="#8dd3c7" stroke="#000000" points="122.4231,-122 119.4231,-126 98.4231,-126 95.4231,-122 23.5769,-122 23.5769,-86 122.4231,-86 122.4231,-122"/>
<text text-anchor="middle" x="73" y="-99.8" font-family="Times,serif" font-size="14.00" fill="#000000">SharedModule</text>
</g>
<!-- SharedModule&#45;&gt;TabularModule -->
<g id="edge5" class="edge">
<title>SharedModule&#45;&gt;TabularModule</title>
<path fill="none" stroke="#000000" d="M73,-122.2843C73,-143.3211 73,-175 73,-175 73,-175 271.3215,-175 271.3215,-175"/>
<polygon fill="#000000" stroke="#000000" points="271.3215,-178.5001 281.3215,-175 271.3215,-171.5001 271.3215,-178.5001"/>
</g>
</g>
</svg>
