<?xml version="1.0" encoding="UTF-8" standalone="no"?>
<!DOCTYPE svg PUBLIC "-//W3C//DTD SVG 1.1//EN"
 "http://www.w3.org/Graphics/SVG/1.1/DTD/svg11.dtd">
<!-- Generated by graphviz version 2.40.1 (20161225.0304)
 -->
<!-- Title: dependencies Pages: 1 -->
<svg width="1726pt" height="284pt"
 viewBox="0.00 0.00 1726.00 284.00" xmlns="http://www.w3.org/2000/svg" xmlns:xlink="http://www.w3.org/1999/xlink">
<g id="graph0" class="graph" transform="scale(1 1) rotate(0) translate(4 280)">
<title>dependencies</title>
<polygon fill="#ffffff" stroke="transparent" points="-4,4 -4,-280 1722,-280 1722,4 -4,4"/>
<text text-anchor="start" x="838.0091" y="-42.4" font-family="sans-serif" font-weight="bold" font-size="14.00" fill="#000000">Legend</text>
<polygon fill="#ffffb3" stroke="transparent" points="625,-10 625,-30 645,-30 645,-10 625,-10"/>
<text text-anchor="start" x="648.629" y="-15.4" font-family="sans-serif" font-size="14.00" fill="#000000"> &#160;Declarations</text>
<polygon fill="#8dd3c7" stroke="transparent" points="738,-10 738,-30 758,-30 758,-10 738,-10"/>
<text text-anchor="start" x="761.7251" y="-15.4" font-family="sans-serif" font-size="14.00" fill="#000000"> &#160;Module</text>
<polygon fill="#80b1d3" stroke="transparent" points="824,-10 824,-30 844,-30 844,-10 824,-10"/>
<text text-anchor="start" x="847.7812" y="-15.4" font-family="sans-serif" font-size="14.00" fill="#000000"> &#160;Bootstrap</text>
<polygon fill="#fdb462" stroke="transparent" points="921,-10 921,-30 941,-30 941,-10 921,-10"/>
<text text-anchor="start" x="944.6732" y="-15.4" font-family="sans-serif" font-size="14.00" fill="#000000"> &#160;Providers</text>
<polygon fill="#fb8072" stroke="transparent" points="1017,-10 1017,-30 1037,-30 1037,-10 1017,-10"/>
<text text-anchor="start" x="1040.7258" y="-15.4" font-family="sans-serif" font-size="14.00" fill="#000000"> &#160;Exports</text>
<g id="clust1" class="cluster">
<title>cluster_AntennasModule</title>
<polygon fill="none" stroke="#000000" stroke-dasharray="1,5" points="8,-70 8,-268 1710,-268 1710,-70 8,-70"/>
</g>
<g id="clust2" class="cluster">
<title>cluster_AntennasModule_declarations</title>
<polygon fill="none" stroke="#000000" points="785,-78 785,-130 1702,-130 1702,-78 785,-78"/>
</g>
<g id="clust8" class="cluster">
<title>cluster_AntennasModule_imports</title>
<polygon fill="none" stroke="#000000" points="192,-78 192,-130 777,-130 777,-78 192,-78"/>
</g>
<g id="clust9" class="cluster">
<title>cluster_AntennasModule_exports</title>
<polygon fill="none" stroke="#000000" points="613,-208 613,-260 821,-260 821,-208 613,-208"/>
</g>
<g id="clust11" class="cluster">
<title>cluster_AntennasModule_providers</title>
<polygon fill="none" stroke="#000000" points="16,-78 16,-130 184,-130 184,-78 16,-78"/>
</g>
<!-- AntennaMarkerComponent -->
<g id="node1" class="node">
<title>AntennaMarkerComponent</title>
<polygon fill="#ffffb3" stroke="#000000" points="1693.9538,-122 1524.0462,-122 1524.0462,-86 1693.9538,-86 1693.9538,-122"/>
<text text-anchor="middle" x="1609" y="-99.8" font-family="Times,serif" font-size="14.00" fill="#000000">AntennaMarkerComponent</text>
</g>
<!-- AntennasModule -->
<g id="node6" class="node">
<title>AntennasModule</title>
<polygon fill="#8dd3c7" stroke="#000000" points="773.4216,-187 770.4216,-191 749.4216,-191 746.4216,-187 660.5784,-187 660.5784,-151 773.4216,-151 773.4216,-187"/>
<text text-anchor="middle" x="717" y="-164.8" font-family="Times,serif" font-size="14.00" fill="#000000">AntennasModule</text>
</g>
<!-- AntennaMarkerComponent&#45;&gt;AntennasModule -->
<g id="edge1" class="edge">
<title>AntennaMarkerComponent&#45;&gt;AntennasModule</title>
<path fill="none" stroke="#000000" d="M1609,-122.2479C1609,-145.0179 1609,-181 1609,-181 1609,-181 783.4753,-181 783.4753,-181"/>
<polygon fill="#000000" stroke="#000000" points="783.4753,-177.5001 773.4753,-181 783.4753,-184.5001 783.4753,-177.5001"/>
</g>
<!-- AntennasComponent -->
<g id="node2" class="node">
<title>AntennasComponent</title>
<polygon fill="#ffffb3" stroke="#000000" points="1506.2036,-122 1371.7964,-122 1371.7964,-86 1506.2036,-86 1506.2036,-122"/>
<text text-anchor="middle" x="1439" y="-99.8" font-family="Times,serif" font-size="14.00" fill="#000000">AntennasComponent</text>
</g>
<!-- AntennasComponent&#45;&gt;AntennasModule -->
<g id="edge2" class="edge">
<title>AntennasComponent&#45;&gt;AntennasModule</title>
<path fill="none" stroke="#000000" d="M1439,-122.2843C1439,-143.3211 1439,-175 1439,-175 1439,-175 783.3534,-175 783.3534,-175"/>
<polygon fill="#000000" stroke="#000000" points="783.3534,-171.5001 773.3534,-175 783.3534,-178.5001 783.3534,-171.5001"/>
</g>
<!-- AntennasMapComponent -->
<g id="node3" class="node">
<title>AntennasMapComponent</title>
<polygon fill="#ffffb3" stroke="#000000" points="1353.8627,-122 1194.1373,-122 1194.1373,-86 1353.8627,-86 1353.8627,-122"/>
<text text-anchor="middle" x="1274" y="-99.8" font-family="Times,serif" font-size="14.00" fill="#000000">AntennasMapComponent</text>
</g>
<!-- AntennasMapComponent&#45;&gt;AntennasModule -->
<g id="edge3" class="edge">
<title>AntennasMapComponent&#45;&gt;AntennasModule</title>
<path fill="none" stroke="#000000" d="M1274,-122.1061C1274,-141.3391 1274,-169 1274,-169 1274,-169 783.2152,-169 783.2152,-169"/>
<polygon fill="#000000" stroke="#000000" points="783.2153,-165.5001 773.2152,-169 783.2152,-172.5001 783.2153,-165.5001"/>
</g>
<!-- AntennasSidebarComponent -->
<g id="node4" class="node">
<title>AntennasSidebarComponent</title>
<polygon fill="#ffffb3" stroke="#000000" points="1176.4664,-122 999.5336,-122 999.5336,-86 1176.4664,-86 1176.4664,-122"/>
<text text-anchor="middle" x="1088" y="-99.8" font-family="Times,serif" font-size="14.00" fill="#000000">AntennasSidebarComponent</text>
</g>
<!-- AntennasSidebarComponent&#45;&gt;AntennasModule -->
<g id="edge4" class="edge">
<title>AntennasSidebarComponent&#45;&gt;AntennasModule</title>
<path fill="none" stroke="#000000" d="M1088,-122.0225C1088,-139.3734 1088,-163 1088,-163 1088,-163 783.3469,-163 783.3469,-163"/>
<polygon fill="#000000" stroke="#000000" points="783.3469,-159.5001 773.3469,-163 783.3469,-166.5001 783.3469,-159.5001"/>
</g>
<!-- AntennasSummaryComponent -->
<g id="node5" class="node">
<title>AntennasSummaryComponent</title>
<polygon fill="#ffffb3" stroke="#000000" points="981.1427,-122 792.8573,-122 792.8573,-86 981.1427,-86 981.1427,-122"/>
<text text-anchor="middle" x="887" y="-99.8" font-family="Times,serif" font-size="14.00" fill="#000000">AntennasSummaryComponent</text>
</g>
<!-- AntennasSummaryComponent&#45;&gt;AntennasModule -->
<g id="edge5" class="edge">
<title>AntennasSummaryComponent&#45;&gt;AntennasModule</title>
<path fill="none" stroke="#000000" d="M802.875,-122.2396C802.875,-137.5706 802.875,-157 802.875,-157 802.875,-157 783.3217,-157 783.3217,-157"/>
<polygon fill="#000000" stroke="#000000" points="783.3217,-153.5001 773.3217,-157 783.3217,-160.5001 783.3217,-153.5001"/>
</g>
<!-- AntennasSummaryComponent  -->
<g id="node12" class="node">
<title>AntennasSummaryComponent </title>
<polygon fill="#fb8072" stroke="#000000" points="813.1425,-252 620.8575,-252 620.8575,-216 813.1425,-216 813.1425,-252"/>
<text text-anchor="middle" x="717" y="-229.8" font-family="Times,serif" font-size="14.00" fill="#000000">AntennasSummaryComponent </text>
</g>
<!-- AntennasModule&#45;&gt;AntennasSummaryComponent  -->
<g id="edge11" class="edge">
<title>AntennasModule&#45;&gt;AntennasSummaryComponent </title>
<path fill="none" stroke="#000000" stroke-dasharray="5,2" d="M717,-187.1061C717,-187.1061 717,-205.991 717,-205.991"/>
<polygon fill="#000000" stroke="#000000" points="713.5001,-205.9909 717,-215.991 720.5001,-205.991 713.5001,-205.9909"/>
</g>
<!-- ActionsModule -->
<g id="node7" class="node">
<title>ActionsModule</title>
<polygon fill="#8dd3c7" stroke="#000000" points="768.5968,-122 765.5968,-126 744.5968,-126 741.5968,-122 665.4032,-122 665.4032,-86 768.5968,-86 768.5968,-122"/>
<text text-anchor="middle" x="717" y="-99.8" font-family="Times,serif" font-size="14.00" fill="#000000">ActionsModule</text>
</g>
<!-- ActionsModule&#45;&gt;AntennasModule -->
<g id="edge6" class="edge">
<title>ActionsModule&#45;&gt;AntennasModule</title>
<path fill="none" stroke="#000000" d="M717,-122.1061C717,-122.1061 717,-140.991 717,-140.991"/>
<polygon fill="#000000" stroke="#000000" points="713.5001,-140.9909 717,-150.991 720.5001,-140.991 713.5001,-140.9909"/>
</g>
<!-- DataModule -->
<g id="node8" class="node">
<title>DataModule</title>
<polygon fill="#8dd3c7" stroke="#000000" points="646.9762,-122 643.9762,-126 622.9762,-126 619.9762,-122 561.0238,-122 561.0238,-86 646.9762,-86 646.9762,-122"/>
<text text-anchor="middle" x="604" y="-99.8" font-family="Times,serif" font-size="14.00" fill="#000000">DataModule</text>
</g>
<!-- DataModule&#45;&gt;AntennasModule -->
<g id="edge7" class="edge">
<title>DataModule&#45;&gt;AntennasModule</title>
<path fill="none" stroke="#000000" d="M633.9585,-122.2396C633.9585,-137.5706 633.9585,-157 633.9585,-157 633.9585,-157 650.6904,-157 650.6904,-157"/>
<polygon fill="#000000" stroke="#000000" points="650.6905,-160.5001 660.6904,-157 650.6904,-153.5001 650.6905,-160.5001"/>
</g>
<!-- IasMaterialModule -->
<g id="node9" class="node">
<title>IasMaterialModule</title>
<polygon fill="#8dd3c7" stroke="#000000" points="542.7907,-122 539.7907,-126 518.7907,-126 515.7907,-122 419.2093,-122 419.2093,-86 542.7907,-86 542.7907,-122"/>
<text text-anchor="middle" x="481" y="-99.8" font-family="Times,serif" font-size="14.00" fill="#000000">IasMaterialModule</text>
</g>
<!-- IasMaterialModule&#45;&gt;AntennasModule -->
<g id="edge8" class="edge">
<title>IasMaterialModule&#45;&gt;AntennasModule</title>
<path fill="none" stroke="#000000" d="M481,-122.0225C481,-139.3734 481,-163 481,-163 481,-163 650.772,-163 650.772,-163"/>
<polygon fill="#000000" stroke="#000000" points="650.772,-166.5001 660.772,-163 650.7719,-159.5001 650.772,-166.5001"/>
</g>
<!-- MapModule -->
<g id="node10" class="node">
<title>MapModule</title>
<polygon fill="#8dd3c7" stroke="#000000" points="401.7093,-122 398.7093,-126 377.7093,-126 374.7093,-122 316.2907,-122 316.2907,-86 401.7093,-86 401.7093,-122"/>
<text text-anchor="middle" x="359" y="-99.8" font-family="Times,serif" font-size="14.00" fill="#000000">MapModule</text>
</g>
<!-- MapModule&#45;&gt;AntennasModule -->
<g id="edge9" class="edge">
<title>MapModule&#45;&gt;AntennasModule</title>
<path fill="none" stroke="#000000" d="M359,-122.1061C359,-141.3391 359,-169 359,-169 359,-169 650.6687,-169 650.6687,-169"/>
<polygon fill="#000000" stroke="#000000" points="650.6687,-172.5001 660.6687,-169 650.6686,-165.5001 650.6687,-172.5001"/>
</g>
<!-- SharedModule -->
<g id="node11" class="node">
<title>SharedModule</title>
<polygon fill="#8dd3c7" stroke="#000000" points="298.4231,-122 295.4231,-126 274.4231,-126 271.4231,-122 199.5769,-122 199.5769,-86 298.4231,-86 298.4231,-122"/>
<text text-anchor="middle" x="249" y="-99.8" font-family="Times,serif" font-size="14.00" fill="#000000">SharedModule</text>
</g>
<!-- SharedModule&#45;&gt;AntennasModule -->
<g id="edge10" class="edge">
<title>SharedModule&#45;&gt;AntennasModule</title>
<path fill="none" stroke="#000000" d="M249,-122.2843C249,-143.3211 249,-175 249,-175 249,-175 650.5483,-175 650.5483,-175"/>
<polygon fill="#000000" stroke="#000000" points="650.5483,-178.5001 660.5483,-175 650.5482,-171.5001 650.5483,-178.5001"/>
</g>
<!-- AntennasService -->
<g id="node13" class="node">
<title>AntennasService</title>
<ellipse fill="#fdb462" stroke="#000000" cx="100" cy="-104" rx="76.4227" ry="18"/>
<text text-anchor="middle" x="100" y="-99.8" font-family="Times,serif" font-size="14.00" fill="#000000">AntennasService</text>
</g>
<!-- AntennasService&#45;&gt;AntennasModule -->
<g id="edge12" class="edge">
<title>AntennasService&#45;&gt;AntennasModule</title>
<path fill="none" stroke="#000000" d="M100,-122.2479C100,-145.0179 100,-181 100,-181 100,-181 650.6097,-181 650.6097,-181"/>
<polygon fill="#000000" stroke="#000000" points="650.6097,-184.5001 660.6097,-181 650.6097,-177.5001 650.6097,-184.5001"/>
</g>
</g>
</svg>
