<?xml version="1.0" encoding="UTF-8" standalone="no"?>
<!DOCTYPE svg PUBLIC "-//W3C//DTD SVG 1.1//EN"
 "http://www.w3.org/Graphics/SVG/1.1/DTD/svg11.dtd">
<!-- Generated by graphviz version 2.40.1 (20161225.0304)
 -->
<!-- Title: dependencies Pages: 1 -->
<svg width="1604pt" height="284pt"
 viewBox="0.00 0.00 1604.00 284.00" xmlns="http://www.w3.org/2000/svg" xmlns:xlink="http://www.w3.org/1999/xlink">
<g id="graph0" class="graph" transform="scale(1 1) rotate(0) translate(4 280)">
<title>dependencies</title>
<polygon fill="#ffffff" stroke="transparent" points="-4,4 -4,-280 1600,-280 1600,4 -4,4"/>
<text text-anchor="start" x="777.0091" y="-42.4" font-family="sans-serif" font-weight="bold" font-size="14.00" fill="#000000">Legend</text>
<polygon fill="#ffffb3" stroke="transparent" points="564,-10 564,-30 584,-30 584,-10 564,-10"/>
<text text-anchor="start" x="587.629" y="-15.4" font-family="sans-serif" font-size="14.00" fill="#000000"> &#160;Declarations</text>
<polygon fill="#8dd3c7" stroke="transparent" points="677,-10 677,-30 697,-30 697,-10 677,-10"/>
<text text-anchor="start" x="700.7251" y="-15.4" font-family="sans-serif" font-size="14.00" fill="#000000"> &#160;Module</text>
<polygon fill="#80b1d3" stroke="transparent" points="763,-10 763,-30 783,-30 783,-10 763,-10"/>
<text text-anchor="start" x="786.7812" y="-15.4" font-family="sans-serif" font-size="14.00" fill="#000000"> &#160;Bootstrap</text>
<polygon fill="#fdb462" stroke="transparent" points="860,-10 860,-30 880,-30 880,-10 860,-10"/>
<text text-anchor="start" x="883.6732" y="-15.4" font-family="sans-serif" font-size="14.00" fill="#000000"> &#160;Providers</text>
<polygon fill="#fb8072" stroke="transparent" points="956,-10 956,-30 976,-30 976,-10 956,-10"/>
<text text-anchor="start" x="979.7258" y="-15.4" font-family="sans-serif" font-size="14.00" fill="#000000"> &#160;Exports</text>
<g id="clust1" class="cluster">
<title>cluster_AntennasModule</title>
<polygon fill="none" stroke="#000000" stroke-dasharray="1,5" points="8,-70 8,-268 1588,-268 1588,-70 8,-70"/>
</g>
<g id="clust2" class="cluster">
<title>cluster_AntennasModule_declarations</title>
<polygon fill="none" stroke="#000000" points="663,-78 663,-130 1580,-130 1580,-78 663,-78"/>
</g>
<g id="clust8" class="cluster">
<title>cluster_AntennasModule_imports</title>
<polygon fill="none" stroke="#000000" points="192,-78 192,-130 655,-130 655,-78 192,-78"/>
</g>
<g id="clust9" class="cluster">
<title>cluster_AntennasModule_exports</title>
<polygon fill="none" stroke="#000000" points="580,-208 580,-260 788,-260 788,-208 580,-208"/>
</g>
<g id="clust11" class="cluster">
<title>cluster_AntennasModule_providers</title>
<polygon fill="none" stroke="#000000" points="16,-78 16,-130 184,-130 184,-78 16,-78"/>
</g>
<!-- AntennaMarkerComponent -->
<g id="node1" class="node">
<title>AntennaMarkerComponent</title>
<polygon fill="#ffffb3" stroke="#000000" points="1571.9538,-122 1402.0462,-122 1402.0462,-86 1571.9538,-86 1571.9538,-122"/>
<text text-anchor="middle" x="1487" y="-99.8" font-family="Times,serif" font-size="14.00" fill="#000000">AntennaMarkerComponent</text>
</g>
<!-- AntennasModule -->
<g id="node6" class="node">
<title>AntennasModule</title>
<polygon fill="#8dd3c7" stroke="#000000" points="740.4216,-187 737.4216,-191 716.4216,-191 713.4216,-187 627.5784,-187 627.5784,-151 740.4216,-151 740.4216,-187"/>
<text text-anchor="middle" x="684" y="-164.8" font-family="Times,serif" font-size="14.00" fill="#000000">AntennasModule</text>
</g>
<!-- AntennaMarkerComponent&#45;&gt;AntennasModule -->
<g id="edge1" class="edge">
<title>AntennaMarkerComponent&#45;&gt;AntennasModule</title>
<path fill="none" stroke="#000000" d="M1487,-122.0109C1487,-144.4852 1487,-180 1487,-180 1487,-180 750.4654,-180 750.4654,-180"/>
<polygon fill="#000000" stroke="#000000" points="750.4654,-176.5001 740.4654,-180 750.4654,-183.5001 750.4654,-176.5001"/>
</g>
<!-- AntennasComponent -->
<g id="node2" class="node">
<title>AntennasComponent</title>
<polygon fill="#ffffb3" stroke="#000000" points="1384.2036,-122 1249.7964,-122 1249.7964,-86 1384.2036,-86 1384.2036,-122"/>
<text text-anchor="middle" x="1317" y="-99.8" font-family="Times,serif" font-size="14.00" fill="#000000">AntennasComponent</text>
</g>
<!-- AntennasComponent&#45;&gt;AntennasModule -->
<g id="edge2" class="edge">
<title>AntennasComponent&#45;&gt;AntennasModule</title>
<path fill="none" stroke="#000000" d="M1317,-122.1289C1317,-142.5724 1317,-173 1317,-173 1317,-173 750.4528,-173 750.4528,-173"/>
<polygon fill="#000000" stroke="#000000" points="750.4528,-169.5001 740.4528,-173 750.4527,-176.5001 750.4528,-169.5001"/>
</g>
<!-- AntennasMapComponent -->
<g id="node3" class="node">
<title>AntennasMapComponent</title>
<polygon fill="#ffffb3" stroke="#000000" points="1231.8627,-122 1072.1373,-122 1072.1373,-86 1231.8627,-86 1231.8627,-122"/>
<text text-anchor="middle" x="1152" y="-99.8" font-family="Times,serif" font-size="14.00" fill="#000000">AntennasMapComponent</text>
</g>
<!-- AntennasMapComponent&#45;&gt;AntennasModule -->
<g id="edge3" class="edge">
<title>AntennasMapComponent&#45;&gt;AntennasModule</title>
<path fill="none" stroke="#000000" d="M1152,-122.2667C1152,-140.5552 1152,-166 1152,-166 1152,-166 750.4517,-166 750.4517,-166"/>
<polygon fill="#000000" stroke="#000000" points="750.4518,-162.5001 740.4517,-166 750.4517,-169.5001 750.4518,-162.5001"/>
</g>
<!-- AntennasSidebarComponent -->
<g id="node4" class="node">
<title>AntennasSidebarComponent</title>
<polygon fill="#ffffb3" stroke="#000000" points="1054.4664,-122 877.5336,-122 877.5336,-86 1054.4664,-86 1054.4664,-122"/>
<text text-anchor="middle" x="966" y="-99.8" font-family="Times,serif" font-size="14.00" fill="#000000">AntennasSidebarComponent</text>
</g>
<!-- AntennasSidebarComponent&#45;&gt;AntennasModule -->
<g id="edge4" class="edge">
<title>AntennasSidebarComponent&#45;&gt;AntennasModule</title>
<path fill="none" stroke="#000000" d="M966,-122.0091C966,-138.0494 966,-159 966,-159 966,-159 750.3891,-159 750.3891,-159"/>
<polygon fill="#000000" stroke="#000000" points="750.3892,-155.5001 740.3891,-159 750.3891,-162.5001 750.3892,-155.5001"/>
</g>
<!-- AntennasSummaryComponent -->
<g id="node5" class="node">
<title>AntennasSummaryComponent</title>
<polygon fill="#ffffb3" stroke="#000000" points="859.1427,-122 670.8573,-122 670.8573,-86 859.1427,-86 859.1427,-122"/>
<text text-anchor="middle" x="765" y="-99.8" font-family="Times,serif" font-size="14.00" fill="#000000">AntennasSummaryComponent</text>
</g>
<!-- AntennasSummaryComponent&#45;&gt;AntennasModule -->
<g id="edge5" class="edge">
<title>AntennasSummaryComponent&#45;&gt;AntennasModule</title>
<path fill="none" stroke="#000000" d="M705.4446,-122.1061C705.4446,-122.1061 705.4446,-140.991 705.4446,-140.991"/>
<polygon fill="#000000" stroke="#000000" points="701.9447,-140.9909 705.4446,-150.991 708.9447,-140.991 701.9447,-140.9909"/>
</g>
<!-- AntennasSummaryComponent  -->
<g id="node11" class="node">
<title>AntennasSummaryComponent </title>
<polygon fill="#fb8072" stroke="#000000" points="780.1425,-252 587.8575,-252 587.8575,-216 780.1425,-216 780.1425,-252"/>
<text text-anchor="middle" x="684" y="-229.8" font-family="Times,serif" font-size="14.00" fill="#000000">AntennasSummaryComponent </text>
</g>
<!-- AntennasModule&#45;&gt;AntennasSummaryComponent  -->
<g id="edge10" class="edge">
<title>AntennasModule&#45;&gt;AntennasSummaryComponent </title>
<path fill="none" stroke="#000000" stroke-dasharray="5,2" d="M684,-187.1061C684,-187.1061 684,-205.991 684,-205.991"/>
<polygon fill="#000000" stroke="#000000" points="680.5001,-205.9909 684,-215.991 687.5001,-205.991 680.5001,-205.9909"/>
</g>
<!-- DataModule -->
<g id="node7" class="node">
<title>DataModule</title>
<polygon fill="#8dd3c7" stroke="#000000" points="646.9762,-122 643.9762,-126 622.9762,-126 619.9762,-122 561.0238,-122 561.0238,-86 646.9762,-86 646.9762,-122"/>
<text text-anchor="middle" x="604" y="-99.8" font-family="Times,serif" font-size="14.00" fill="#000000">DataModule</text>
</g>
<!-- DataModule&#45;&gt;AntennasModule -->
<g id="edge6" class="edge">
<title>DataModule&#45;&gt;AntennasModule</title>
<path fill="none" stroke="#000000" d="M637.3889,-122.1061C637.3889,-122.1061 637.3889,-140.991 637.3889,-140.991"/>
<polygon fill="#000000" stroke="#000000" points="633.8889,-140.9909 637.3889,-150.991 640.8889,-140.991 633.8889,-140.9909"/>
</g>
<!-- IasMaterialModule -->
<g id="node8" class="node">
<title>IasMaterialModule</title>
<polygon fill="#8dd3c7" stroke="#000000" points="542.7907,-122 539.7907,-126 518.7907,-126 515.7907,-122 419.2093,-122 419.2093,-86 542.7907,-86 542.7907,-122"/>
<text text-anchor="middle" x="481" y="-99.8" font-family="Times,serif" font-size="14.00" fill="#000000">IasMaterialModule</text>
</g>
<!-- IasMaterialModule&#45;&gt;AntennasModule -->
<g id="edge7" class="edge">
<title>IasMaterialModule&#45;&gt;AntennasModule</title>
<path fill="none" stroke="#000000" d="M481,-122.0091C481,-138.0494 481,-159 481,-159 481,-159 617.7228,-159 617.7228,-159"/>
<polygon fill="#000000" stroke="#000000" points="617.7228,-162.5001 627.7228,-159 617.7227,-155.5001 617.7228,-162.5001"/>
</g>
<!-- MapModule -->
<g id="node9" class="node">
<title>MapModule</title>
<polygon fill="#8dd3c7" stroke="#000000" points="401.7093,-122 398.7093,-126 377.7093,-126 374.7093,-122 316.2907,-122 316.2907,-86 401.7093,-86 401.7093,-122"/>
<text text-anchor="middle" x="359" y="-99.8" font-family="Times,serif" font-size="14.00" fill="#000000">MapModule</text>
</g>
<!-- MapModule&#45;&gt;AntennasModule -->
<g id="edge8" class="edge">
<title>MapModule&#45;&gt;AntennasModule</title>
<path fill="none" stroke="#000000" d="M359,-122.2667C359,-140.5552 359,-166 359,-166 359,-166 617.7604,-166 617.7604,-166"/>
<polygon fill="#000000" stroke="#000000" points="617.7604,-169.5001 627.7604,-166 617.7603,-162.5001 617.7604,-169.5001"/>
</g>
<!-- SharedModule -->
<g id="node10" class="node">
<title>SharedModule</title>
<polygon fill="#8dd3c7" stroke="#000000" points="298.4231,-122 295.4231,-126 274.4231,-126 271.4231,-122 199.5769,-122 199.5769,-86 298.4231,-86 298.4231,-122"/>
<text text-anchor="middle" x="249" y="-99.8" font-family="Times,serif" font-size="14.00" fill="#000000">SharedModule</text>
</g>
<!-- SharedModule&#45;&gt;AntennasModule -->
<g id="edge9" class="edge">
<title>SharedModule&#45;&gt;AntennasModule</title>
<path fill="none" stroke="#000000" d="M249,-122.1289C249,-142.5724 249,-173 249,-173 249,-173 617.5773,-173 617.5773,-173"/>
<polygon fill="#000000" stroke="#000000" points="617.5773,-176.5001 627.5773,-173 617.5773,-169.5001 617.5773,-176.5001"/>
</g>
<!-- AntennasService -->
<g id="node12" class="node">
<title>AntennasService</title>
<ellipse fill="#fdb462" stroke="#000000" cx="100" cy="-104" rx="76.4227" ry="18"/>
<text text-anchor="middle" x="100" y="-99.8" font-family="Times,serif" font-size="14.00" fill="#000000">AntennasService</text>
</g>
<!-- AntennasService&#45;&gt;AntennasModule -->
<g id="edge11" class="edge">
<title>AntennasService&#45;&gt;AntennasModule</title>
<path fill="none" stroke="#000000" d="M100,-122.0109C100,-144.4852 100,-180 100,-180 100,-180 617.7386,-180 617.7386,-180"/>
<polygon fill="#000000" stroke="#000000" points="617.7386,-183.5001 627.7386,-180 617.7385,-176.5001 617.7386,-183.5001"/>
</g>
</g>
</svg>
