<?xml version="1.0" encoding="UTF-8" standalone="no"?>
<!DOCTYPE svg PUBLIC "-//W3C//DTD SVG 1.1//EN"
 "http://www.w3.org/Graphics/SVG/1.1/DTD/svg11.dtd">
<!-- Generated by graphviz version 2.40.1 (20161225.0304)
 -->
<!-- Title: dependencies Pages: 1 -->
<svg width="1848pt" height="284pt"
 viewBox="0.00 0.00 1848.00 284.00" xmlns="http://www.w3.org/2000/svg" xmlns:xlink="http://www.w3.org/1999/xlink">
<g id="graph0" class="graph" transform="scale(1 1) rotate(0) translate(4 280)">
<title>dependencies</title>
<polygon fill="#ffffff" stroke="transparent" points="-4,4 -4,-280 1844,-280 1844,4 -4,4"/>
<text text-anchor="start" x="899.0091" y="-42.4" font-family="sans-serif" font-weight="bold" font-size="14.00" fill="#000000">Legend</text>
<polygon fill="#ffffb3" stroke="transparent" points="686,-10 686,-30 706,-30 706,-10 686,-10"/>
<text text-anchor="start" x="709.629" y="-15.4" font-family="sans-serif" font-size="14.00" fill="#000000"> &#160;Declarations</text>
<polygon fill="#8dd3c7" stroke="transparent" points="799,-10 799,-30 819,-30 819,-10 799,-10"/>
<text text-anchor="start" x="822.7251" y="-15.4" font-family="sans-serif" font-size="14.00" fill="#000000"> &#160;Module</text>
<polygon fill="#80b1d3" stroke="transparent" points="885,-10 885,-30 905,-30 905,-10 885,-10"/>
<text text-anchor="start" x="908.7812" y="-15.4" font-family="sans-serif" font-size="14.00" fill="#000000"> &#160;Bootstrap</text>
<polygon fill="#fdb462" stroke="transparent" points="982,-10 982,-30 1002,-30 1002,-10 982,-10"/>
<text text-anchor="start" x="1005.6732" y="-15.4" font-family="sans-serif" font-size="14.00" fill="#000000"> &#160;Providers</text>
<polygon fill="#fb8072" stroke="transparent" points="1078,-10 1078,-30 1098,-30 1098,-10 1078,-10"/>
<text text-anchor="start" x="1101.7258" y="-15.4" font-family="sans-serif" font-size="14.00" fill="#000000"> &#160;Exports</text>
<g id="clust1" class="cluster">
<title>cluster_AntennasModule</title>
<polygon fill="none" stroke="#000000" stroke-dasharray="1,5" points="8,-70 8,-268 1832,-268 1832,-70 8,-70"/>
</g>
<g id="clust2" class="cluster">
<title>cluster_AntennasModule_declarations</title>
<polygon fill="none" stroke="#000000" points="907,-78 907,-130 1824,-130 1824,-78 907,-78"/>
</g>
<g id="clust8" class="cluster">
<title>cluster_AntennasModule_imports</title>
<polygon fill="none" stroke="#000000" points="192,-78 192,-130 899,-130 899,-78 192,-78"/>
</g>
<g id="clust9" class="cluster">
<title>cluster_AntennasModule_exports</title>
<polygon fill="none" stroke="#000000" points="678,-208 678,-260 886,-260 886,-208 678,-208"/>
</g>
<g id="clust11" class="cluster">
<title>cluster_AntennasModule_providers</title>
<polygon fill="none" stroke="#000000" points="16,-78 16,-130 184,-130 184,-78 16,-78"/>
</g>
<!-- AntennaMarkerComponent -->
<g id="node1" class="node">
<title>AntennaMarkerComponent</title>
<polygon fill="#ffffb3" stroke="#000000" points="1815.9538,-122 1646.0462,-122 1646.0462,-86 1815.9538,-86 1815.9538,-122"/>
<text text-anchor="middle" x="1731" y="-99.8" font-family="Times,serif" font-size="14.00" fill="#000000">AntennaMarkerComponent</text>
</g>
<!-- AntennasModule -->
<g id="node6" class="node">
<title>AntennasModule</title>
<polygon fill="#8dd3c7" stroke="#000000" points="838.4216,-187 835.4216,-191 814.4216,-191 811.4216,-187 725.5784,-187 725.5784,-151 838.4216,-151 838.4216,-187"/>
<text text-anchor="middle" x="782" y="-164.8" font-family="Times,serif" font-size="14.00" fill="#000000">AntennasModule</text>
</g>
<!-- AntennaMarkerComponent&#45;&gt;AntennasModule -->
<g id="edge1" class="edge">
<title>AntennaMarkerComponent&#45;&gt;AntennasModule</title>
<path fill="none" stroke="#000000" d="M1731,-122.2479C1731,-145.0179 1731,-181 1731,-181 1731,-181 848.5223,-181 848.5223,-181"/>
<polygon fill="#000000" stroke="#000000" points="848.5223,-177.5001 838.5223,-181 848.5222,-184.5001 848.5223,-177.5001"/>
</g>
<!-- AntennasComponent -->
<g id="node2" class="node">
<title>AntennasComponent</title>
<polygon fill="#ffffb3" stroke="#000000" points="1628.2036,-122 1493.7964,-122 1493.7964,-86 1628.2036,-86 1628.2036,-122"/>
<text text-anchor="middle" x="1561" y="-99.8" font-family="Times,serif" font-size="14.00" fill="#000000">AntennasComponent</text>
</g>
<!-- AntennasComponent&#45;&gt;AntennasModule -->
<g id="edge2" class="edge">
<title>AntennasComponent&#45;&gt;AntennasModule</title>
<path fill="none" stroke="#000000" d="M1561,-122.2843C1561,-143.3211 1561,-175 1561,-175 1561,-175 848.3371,-175 848.3371,-175"/>
<polygon fill="#000000" stroke="#000000" points="848.3372,-171.5001 838.3371,-175 848.3371,-178.5001 848.3372,-171.5001"/>
</g>
<!-- AntennasMapComponent -->
<g id="node3" class="node">
<title>AntennasMapComponent</title>
<polygon fill="#ffffb3" stroke="#000000" points="1475.8627,-122 1316.1373,-122 1316.1373,-86 1475.8627,-86 1475.8627,-122"/>
<text text-anchor="middle" x="1396" y="-99.8" font-family="Times,serif" font-size="14.00" fill="#000000">AntennasMapComponent</text>
</g>
<!-- AntennasMapComponent&#45;&gt;AntennasModule -->
<g id="edge3" class="edge">
<title>AntennasMapComponent&#45;&gt;AntennasModule</title>
<path fill="none" stroke="#000000" d="M1396,-122.1061C1396,-141.3391 1396,-169 1396,-169 1396,-169 848.3893,-169 848.3893,-169"/>
<polygon fill="#000000" stroke="#000000" points="848.3894,-165.5001 838.3893,-169 848.3893,-172.5001 848.3894,-165.5001"/>
</g>
<!-- AntennasSidebarComponent -->
<g id="node4" class="node">
<title>AntennasSidebarComponent</title>
<polygon fill="#ffffb3" stroke="#000000" points="1298.4664,-122 1121.5336,-122 1121.5336,-86 1298.4664,-86 1298.4664,-122"/>
<text text-anchor="middle" x="1210" y="-99.8" font-family="Times,serif" font-size="14.00" fill="#000000">AntennasSidebarComponent</text>
</g>
<!-- AntennasSidebarComponent&#45;&gt;AntennasModule -->
<g id="edge4" class="edge">
<title>AntennasSidebarComponent&#45;&gt;AntennasModule</title>
<path fill="none" stroke="#000000" d="M1210,-122.0225C1210,-139.3734 1210,-163 1210,-163 1210,-163 848.3936,-163 848.3936,-163"/>
<polygon fill="#000000" stroke="#000000" points="848.3937,-159.5001 838.3936,-163 848.3936,-166.5001 848.3937,-159.5001"/>
</g>
<!-- AntennasSummaryComponent -->
<g id="node5" class="node">
<title>AntennasSummaryComponent</title>
<polygon fill="#ffffb3" stroke="#000000" points="1103.1427,-122 914.8573,-122 914.8573,-86 1103.1427,-86 1103.1427,-122"/>
<text text-anchor="middle" x="1009" y="-99.8" font-family="Times,serif" font-size="14.00" fill="#000000">AntennasSummaryComponent</text>
</g>
<!-- AntennasSummaryComponent&#45;&gt;AntennasModule -->
<g id="edge5" class="edge">
<title>AntennasSummaryComponent&#45;&gt;AntennasModule</title>
<path fill="none" stroke="#000000" d="M1009,-122.2396C1009,-137.5706 1009,-157 1009,-157 1009,-157 848.404,-157 848.404,-157"/>
<polygon fill="#000000" stroke="#000000" points="848.4041,-153.5001 838.404,-157 848.404,-160.5001 848.4041,-153.5001"/>
</g>
<!-- AntennasSummaryComponent  -->
<g id="node13" class="node">
<title>AntennasSummaryComponent </title>
<polygon fill="#fb8072" stroke="#000000" points="878.1425,-252 685.8575,-252 685.8575,-216 878.1425,-216 878.1425,-252"/>
<text text-anchor="middle" x="782" y="-229.8" font-family="Times,serif" font-size="14.00" fill="#000000">AntennasSummaryComponent </text>
</g>
<!-- AntennasModule&#45;&gt;AntennasSummaryComponent  -->
<g id="edge12" class="edge">
<title>AntennasModule&#45;&gt;AntennasSummaryComponent </title>
<path fill="none" stroke="#000000" stroke-dasharray="5,2" d="M782,-187.1061C782,-187.1061 782,-205.991 782,-205.991"/>
<polygon fill="#000000" stroke="#000000" points="778.5001,-205.9909 782,-215.991 785.5001,-205.991 778.5001,-205.9909"/>
</g>
<!-- ActionsModule -->
<g id="node7" class="node">
<title>ActionsModule</title>
<polygon fill="#8dd3c7" stroke="#000000" points="890.5968,-122 887.5968,-126 866.5968,-126 863.5968,-122 787.4032,-122 787.4032,-86 890.5968,-86 890.5968,-122"/>
<text text-anchor="middle" x="839" y="-99.8" font-family="Times,serif" font-size="14.00" fill="#000000">ActionsModule</text>
</g>
<!-- ActionsModule&#45;&gt;AntennasModule -->
<g id="edge6" class="edge">
<title>ActionsModule&#45;&gt;AntennasModule</title>
<path fill="none" stroke="#000000" d="M812.831,-122.1061C812.831,-122.1061 812.831,-140.991 812.831,-140.991"/>
<polygon fill="#000000" stroke="#000000" points="809.3311,-140.9909 812.831,-150.991 816.3311,-140.991 809.3311,-140.9909"/>
</g>
<!-- DataModule -->
<g id="node8" class="node">
<title>DataModule</title>
<polygon fill="#8dd3c7" stroke="#000000" points="768.9762,-122 765.9762,-126 744.9762,-126 741.9762,-122 683.0238,-122 683.0238,-86 768.9762,-86 768.9762,-122"/>
<text text-anchor="middle" x="726" y="-99.8" font-family="Times,serif" font-size="14.00" fill="#000000">DataModule</text>
</g>
<!-- DataModule&#45;&gt;AntennasModule -->
<g id="edge7" class="edge">
<title>DataModule&#45;&gt;AntennasModule</title>
<path fill="none" stroke="#000000" d="M747.3889,-122.1061C747.3889,-122.1061 747.3889,-140.991 747.3889,-140.991"/>
<polygon fill="#000000" stroke="#000000" points="743.8889,-140.9909 747.3889,-150.991 750.8889,-140.991 743.8889,-140.9909"/>
</g>
<!-- IasMaterialModule -->
<g id="node9" class="node">
<title>IasMaterialModule</title>
<polygon fill="#8dd3c7" stroke="#000000" points="664.7907,-122 661.7907,-126 640.7907,-126 637.7907,-122 541.2093,-122 541.2093,-86 664.7907,-86 664.7907,-122"/>
<text text-anchor="middle" x="603" y="-99.8" font-family="Times,serif" font-size="14.00" fill="#000000">IasMaterialModule</text>
</g>
<!-- IasMaterialModule&#45;&gt;AntennasModule -->
<g id="edge8" class="edge">
<title>IasMaterialModule&#45;&gt;AntennasModule</title>
<path fill="none" stroke="#000000" d="M603,-122.2396C603,-137.5706 603,-157 603,-157 603,-157 715.3633,-157 715.3633,-157"/>
<polygon fill="#000000" stroke="#000000" points="715.3633,-160.5001 725.3633,-157 715.3632,-153.5001 715.3633,-160.5001"/>
</g>
<!-- MapModule -->
<g id="node10" class="node">
<title>MapModule</title>
<polygon fill="#8dd3c7" stroke="#000000" points="523.7093,-122 520.7093,-126 499.7093,-126 496.7093,-122 438.2907,-122 438.2907,-86 523.7093,-86 523.7093,-122"/>
<text text-anchor="middle" x="481" y="-99.8" font-family="Times,serif" font-size="14.00" fill="#000000">MapModule</text>
</g>
<!-- MapModule&#45;&gt;AntennasModule -->
<g id="edge9" class="edge">
<title>MapModule&#45;&gt;AntennasModule</title>
<path fill="none" stroke="#000000" d="M481,-122.0225C481,-139.3734 481,-163 481,-163 481,-163 715.7373,-163 715.7373,-163"/>
<polygon fill="#000000" stroke="#000000" points="715.7373,-166.5001 725.7373,-163 715.7373,-159.5001 715.7373,-166.5001"/>
</g>
<!-- SharedModule -->
<g id="node11" class="node">
<title>SharedModule</title>
<polygon fill="#8dd3c7" stroke="#000000" points="420.4231,-122 417.4231,-126 396.4231,-126 393.4231,-122 321.5769,-122 321.5769,-86 420.4231,-86 420.4231,-122"/>
<text text-anchor="middle" x="371" y="-99.8" font-family="Times,serif" font-size="14.00" fill="#000000">SharedModule</text>
</g>
<!-- SharedModule&#45;&gt;AntennasModule -->
<g id="edge10" class="edge">
<title>SharedModule&#45;&gt;AntennasModule</title>
<path fill="none" stroke="#000000" d="M371,-122.1061C371,-141.3391 371,-169 371,-169 371,-169 715.714,-169 715.714,-169"/>
<polygon fill="#000000" stroke="#000000" points="715.714,-172.5001 725.714,-169 715.7139,-165.5001 715.714,-172.5001"/>
</g>
<!-- TabularModule -->
<g id="node12" class="node">
<title>TabularModule</title>
<polygon fill="#8dd3c7" stroke="#000000" points="303.5828,-122 300.5828,-126 279.5828,-126 276.5828,-122 200.4172,-122 200.4172,-86 303.5828,-86 303.5828,-122"/>
<text text-anchor="middle" x="252" y="-99.8" font-family="Times,serif" font-size="14.00" fill="#000000">TabularModule</text>
</g>
<!-- TabularModule&#45;&gt;AntennasModule -->
<g id="edge11" class="edge">
<title>TabularModule&#45;&gt;AntennasModule</title>
<path fill="none" stroke="#000000" d="M252,-122.2843C252,-143.3211 252,-175 252,-175 252,-175 715.7825,-175 715.7825,-175"/>
<polygon fill="#000000" stroke="#000000" points="715.7825,-178.5001 725.7825,-175 715.7824,-171.5001 715.7825,-178.5001"/>
</g>
<!-- AntennasService -->
<g id="node14" class="node">
<title>AntennasService</title>
<ellipse fill="#fdb462" stroke="#000000" cx="100" cy="-104" rx="76.4227" ry="18"/>
<text text-anchor="middle" x="100" y="-99.8" font-family="Times,serif" font-size="14.00" fill="#000000">AntennasService</text>
</g>
<!-- AntennasService&#45;&gt;AntennasModule -->
<g id="edge13" class="edge">
<title>AntennasService&#45;&gt;AntennasModule</title>
<path fill="none" stroke="#000000" d="M100,-122.2479C100,-145.0179 100,-181 100,-181 100,-181 715.6089,-181 715.6089,-181"/>
<polygon fill="#000000" stroke="#000000" points="715.6089,-184.5001 725.6089,-181 715.6088,-177.5001 715.6089,-184.5001"/>
</g>
</g>
</svg>
