<?xml version="1.0" encoding="UTF-8" standalone="no"?>
<!DOCTYPE svg PUBLIC "-//W3C//DTD SVG 1.1//EN"
 "http://www.w3.org/Graphics/SVG/1.1/DTD/svg11.dtd">
<!-- Generated by graphviz version 2.40.1 (20161225.0304)
 -->
<!-- Title: dependencies Pages: 1 -->
<svg width="608pt" height="284pt"
 viewBox="0.00 0.00 608.00 284.00" xmlns="http://www.w3.org/2000/svg" xmlns:xlink="http://www.w3.org/1999/xlink">
<g id="graph0" class="graph" transform="scale(1 1) rotate(0) translate(4 280)">
<title>dependencies</title>
<polygon fill="#ffffff" stroke="transparent" points="-4,4 -4,-280 604,-280 604,4 -4,4"/>
<text text-anchor="start" x="279.0091" y="-42.4" font-family="sans-serif" font-weight="bold" font-size="14.00" fill="#000000">Legend</text>
<polygon fill="#ffffb3" stroke="transparent" points="66,-10 66,-30 86,-30 86,-10 66,-10"/>
<text text-anchor="start" x="89.629" y="-15.4" font-family="sans-serif" font-size="14.00" fill="#000000"> &#160;Declarations</text>
<polygon fill="#8dd3c7" stroke="transparent" points="179,-10 179,-30 199,-30 199,-10 179,-10"/>
<text text-anchor="start" x="202.7251" y="-15.4" font-family="sans-serif" font-size="14.00" fill="#000000"> &#160;Module</text>
<polygon fill="#80b1d3" stroke="transparent" points="265,-10 265,-30 285,-30 285,-10 265,-10"/>
<text text-anchor="start" x="288.7812" y="-15.4" font-family="sans-serif" font-size="14.00" fill="#000000"> &#160;Bootstrap</text>
<polygon fill="#fdb462" stroke="transparent" points="362,-10 362,-30 382,-30 382,-10 362,-10"/>
<text text-anchor="start" x="385.6732" y="-15.4" font-family="sans-serif" font-size="14.00" fill="#000000"> &#160;Providers</text>
<polygon fill="#fb8072" stroke="transparent" points="458,-10 458,-30 478,-30 478,-10 458,-10"/>
<text text-anchor="start" x="481.7258" y="-15.4" font-family="sans-serif" font-size="14.00" fill="#000000"> &#160;Exports</text>
<g id="clust1" class="cluster">
<title>cluster_BuildingModule</title>
<polygon fill="none" stroke="#000000" stroke-dasharray="1,5" points="8,-70 8,-268 592,-268 592,-70 8,-70"/>
</g>
<g id="clust2" class="cluster">
<title>cluster_BuildingModule_declarations</title>
<polygon fill="none" stroke="#000000" points="384,-78 384,-130 584,-130 584,-78 384,-78"/>
</g>
<g id="clust4" class="cluster">
<title>cluster_BuildingModule_imports</title>
<polygon fill="none" stroke="#000000" points="16,-78 16,-130 376,-130 376,-78 16,-78"/>
</g>
<g id="clust5" class="cluster">
<title>cluster_BuildingModule_exports</title>
<polygon fill="none" stroke="#000000" points="161,-208 161,-260 365,-260 365,-208 161,-208"/>
</g>
<!-- BuildingSummaryComponent -->
<g id="node1" class="node">
<title>BuildingSummaryComponent</title>
<polygon fill="#ffffb3" stroke="#000000" points="576.2799,-122 391.7201,-122 391.7201,-86 576.2799,-86 576.2799,-122"/>
<text text-anchor="middle" x="484" y="-99.8" font-family="Times,serif" font-size="14.00" fill="#000000">BuildingSummaryComponent</text>
</g>
<!-- BuildingModule -->
<g id="node2" class="node">
<title>BuildingModule</title>
<polygon fill="#8dd3c7" stroke="#000000" points="317.0591,-187 314.0591,-191 293.0591,-191 290.0591,-187 208.9409,-187 208.9409,-151 317.0591,-151 317.0591,-187"/>
<text text-anchor="middle" x="263" y="-164.8" font-family="Times,serif" font-size="14.00" fill="#000000">BuildingModule</text>
</g>
<!-- BuildingSummaryComponent&#45;&gt;BuildingModule -->
<g id="edge1" class="edge">
<title>BuildingSummaryComponent&#45;&gt;BuildingModule</title>
<path fill="none" stroke="#000000" d="M484,-122.1061C484,-141.3391 484,-169 484,-169 484,-169 327.0627,-169 327.0627,-169"/>
<polygon fill="#000000" stroke="#000000" points="327.0627,-165.5001 317.0627,-169 327.0626,-172.5001 327.0627,-165.5001"/>
</g>
<!-- BuildingSummaryComponent  -->
<g id="node6" class="node">
<title>BuildingSummaryComponent </title>
<polygon fill="#fb8072" stroke="#000000" points="357.28,-252 168.72,-252 168.72,-216 357.28,-216 357.28,-252"/>
<text text-anchor="middle" x="263" y="-229.8" font-family="Times,serif" font-size="14.00" fill="#000000">BuildingSummaryComponent </text>
</g>
<!-- BuildingModule&#45;&gt;BuildingSummaryComponent  -->
<g id="edge5" class="edge">
<title>BuildingModule&#45;&gt;BuildingSummaryComponent </title>
<path fill="none" stroke="#000000" stroke-dasharray="5,2" d="M263,-187.1061C263,-187.1061 263,-205.991 263,-205.991"/>
<polygon fill="#000000" stroke="#000000" points="259.5001,-205.9909 263,-215.991 266.5001,-205.991 259.5001,-205.9909"/>
</g>
<!-- DataModule -->
<g id="node3" class="node">
<title>DataModule</title>
<polygon fill="#8dd3c7" stroke="#000000" points="367.9762,-122 364.9762,-126 343.9762,-126 340.9762,-122 282.0238,-122 282.0238,-86 367.9762,-86 367.9762,-122"/>
<text text-anchor="middle" x="325" y="-99.8" font-family="Times,serif" font-size="14.00" fill="#000000">DataModule</text>
</g>
<!-- DataModule&#45;&gt;BuildingModule -->
<g id="edge2" class="edge">
<title>DataModule&#45;&gt;BuildingModule</title>
<path fill="none" stroke="#000000" d="M299.6455,-122.1061C299.6455,-122.1061 299.6455,-140.991 299.6455,-140.991"/>
<polygon fill="#000000" stroke="#000000" points="296.1456,-140.9909 299.6455,-150.991 303.1456,-140.991 296.1456,-140.9909"/>
</g>
<!-- IasMaterialModule -->
<g id="node4" class="node">
<title>IasMaterialModule</title>
<polygon fill="#8dd3c7" stroke="#000000" points="263.7907,-122 260.7907,-126 239.7907,-126 236.7907,-122 140.2093,-122 140.2093,-86 263.7907,-86 263.7907,-122"/>
<text text-anchor="middle" x="202" y="-99.8" font-family="Times,serif" font-size="14.00" fill="#000000">IasMaterialModule</text>
</g>
<!-- IasMaterialModule&#45;&gt;BuildingModule -->
<g id="edge3" class="edge">
<title>IasMaterialModule&#45;&gt;BuildingModule</title>
<path fill="none" stroke="#000000" d="M236.1831,-122.1061C236.1831,-122.1061 236.1831,-140.991 236.1831,-140.991"/>
<polygon fill="#000000" stroke="#000000" points="232.6831,-140.9909 236.1831,-150.991 239.6831,-140.991 232.6831,-140.9909"/>
</g>
<!-- SharedModule -->
<g id="node5" class="node">
<title>SharedModule</title>
<polygon fill="#8dd3c7" stroke="#000000" points="122.4231,-122 119.4231,-126 98.4231,-126 95.4231,-122 23.5769,-122 23.5769,-86 122.4231,-86 122.4231,-122"/>
<text text-anchor="middle" x="73" y="-99.8" font-family="Times,serif" font-size="14.00" fill="#000000">SharedModule</text>
</g>
<!-- SharedModule&#45;&gt;BuildingModule -->
<g id="edge4" class="edge">
<title>SharedModule&#45;&gt;BuildingModule</title>
<path fill="none" stroke="#000000" d="M73,-122.1061C73,-141.3391 73,-169 73,-169 73,-169 198.8079,-169 198.8079,-169"/>
<polygon fill="#000000" stroke="#000000" points="198.8079,-172.5001 208.8079,-169 198.8079,-165.5001 198.8079,-172.5001"/>
</g>
</g>
</svg>
